%TF.GenerationSoftware,KiCad,Pcbnew,8.0.5*%
%TF.CreationDate,2024-11-06T09:26:01-07:00*%
%TF.ProjectId,STM32G041F8P6_dev,53544d33-3247-4303-9431-463850365f64,rev?*%
%TF.SameCoordinates,Original*%
%TF.FileFunction,Soldermask,Top*%
%TF.FilePolarity,Negative*%
%FSLAX46Y46*%
G04 Gerber Fmt 4.6, Leading zero omitted, Abs format (unit mm)*
G04 Created by KiCad (PCBNEW 8.0.5) date 2024-11-06 09:26:01*
%MOMM*%
%LPD*%
G01*
G04 APERTURE LIST*
G04 Aperture macros list*
%AMRoundRect*
0 Rectangle with rounded corners*
0 $1 Rounding radius*
0 $2 $3 $4 $5 $6 $7 $8 $9 X,Y pos of 4 corners*
0 Add a 4 corners polygon primitive as box body*
4,1,4,$2,$3,$4,$5,$6,$7,$8,$9,$2,$3,0*
0 Add four circle primitives for the rounded corners*
1,1,$1+$1,$2,$3*
1,1,$1+$1,$4,$5*
1,1,$1+$1,$6,$7*
1,1,$1+$1,$8,$9*
0 Add four rect primitives between the rounded corners*
20,1,$1+$1,$2,$3,$4,$5,0*
20,1,$1+$1,$4,$5,$6,$7,0*
20,1,$1+$1,$6,$7,$8,$9,0*
20,1,$1+$1,$8,$9,$2,$3,0*%
G04 Aperture macros list end*
%ADD10RoundRect,0.225000X-0.225000X-0.250000X0.225000X-0.250000X0.225000X0.250000X-0.225000X0.250000X0*%
%ADD11RoundRect,0.225000X-0.250000X0.225000X-0.250000X-0.225000X0.250000X-0.225000X0.250000X0.225000X0*%
%ADD12C,1.700000*%
%ADD13RoundRect,0.100000X0.575000X-0.100000X0.575000X0.100000X-0.575000X0.100000X-0.575000X-0.100000X0*%
%ADD14O,1.550000X0.890000*%
%ADD15RoundRect,0.250000X0.525000X-0.475000X0.525000X0.475000X-0.525000X0.475000X-0.525000X-0.475000X0*%
%ADD16O,0.950000X1.250000*%
%ADD17RoundRect,0.250000X0.525000X-0.500000X0.525000X0.500000X-0.525000X0.500000X-0.525000X-0.500000X0*%
%ADD18R,1.498600X1.498600*%
%ADD19C,1.498600*%
%ADD20RoundRect,0.150000X-0.512500X-0.150000X0.512500X-0.150000X0.512500X0.150000X-0.512500X0.150000X0*%
%ADD21R,1.800000X1.000000*%
%ADD22RoundRect,0.250000X0.450000X-0.262500X0.450000X0.262500X-0.450000X0.262500X-0.450000X-0.262500X0*%
%ADD23RoundRect,0.225000X0.225000X0.250000X-0.225000X0.250000X-0.225000X-0.250000X0.225000X-0.250000X0*%
%ADD24RoundRect,0.250000X0.250000X0.475000X-0.250000X0.475000X-0.250000X-0.475000X0.250000X-0.475000X0*%
%ADD25RoundRect,0.100000X-0.637500X-0.100000X0.637500X-0.100000X0.637500X0.100000X-0.637500X0.100000X0*%
%ADD26RoundRect,0.250000X0.262500X0.450000X-0.262500X0.450000X-0.262500X-0.450000X0.262500X-0.450000X0*%
%ADD27R,1.879600X2.260600*%
%ADD28C,3.200000*%
%ADD29RoundRect,0.250000X-0.650000X0.325000X-0.650000X-0.325000X0.650000X-0.325000X0.650000X0.325000X0*%
%ADD30R,0.900000X1.700000*%
%ADD31RoundRect,0.250000X0.325000X0.650000X-0.325000X0.650000X-0.325000X-0.650000X0.325000X-0.650000X0*%
%ADD32RoundRect,0.250000X-0.262500X-0.450000X0.262500X-0.450000X0.262500X0.450000X-0.262500X0.450000X0*%
%ADD33RoundRect,0.243750X-0.456250X0.243750X-0.456250X-0.243750X0.456250X-0.243750X0.456250X0.243750X0*%
%ADD34RoundRect,0.250000X0.650000X-0.325000X0.650000X0.325000X-0.650000X0.325000X-0.650000X-0.325000X0*%
%ADD35RoundRect,0.243750X0.243750X0.456250X-0.243750X0.456250X-0.243750X-0.456250X0.243750X-0.456250X0*%
%ADD36RoundRect,0.250000X0.475000X-0.250000X0.475000X0.250000X-0.475000X0.250000X-0.475000X-0.250000X0*%
%ADD37R,0.740000X2.400000*%
%ADD38RoundRect,0.150000X-0.325000X-0.150000X0.325000X-0.150000X0.325000X0.150000X-0.325000X0.150000X0*%
%ADD39RoundRect,0.150000X-0.150000X-0.325000X0.150000X-0.325000X0.150000X0.325000X-0.150000X0.325000X0*%
%ADD40RoundRect,0.250000X0.625000X-0.350000X0.625000X0.350000X-0.625000X0.350000X-0.625000X-0.350000X0*%
%ADD41O,1.750000X1.200000*%
%ADD42R,1.700000X1.700000*%
%ADD43O,1.700000X1.700000*%
G04 APERTURE END LIST*
D10*
%TO.C,C12*%
X192725000Y-90900000D03*
X194275000Y-90900000D03*
%TD*%
D11*
%TO.C,C11*%
X176800000Y-59825000D03*
X176800000Y-61375000D03*
%TD*%
D12*
%TO.C,D4*%
X173270000Y-54190000D03*
X173270000Y-56730000D03*
X173270000Y-59270000D03*
X173270000Y-61810000D03*
%TD*%
D13*
%TO.C,J1*%
X221900000Y-83800000D03*
X221900000Y-83150000D03*
X221900000Y-82500000D03*
X221900000Y-81850000D03*
X221900000Y-81200000D03*
D14*
X224600000Y-86000000D03*
D15*
X224600000Y-85525000D03*
D16*
X221900000Y-85000000D03*
D17*
X224600000Y-83500000D03*
X224600000Y-81500000D03*
D16*
X221900000Y-80000000D03*
D15*
X224600000Y-79475000D03*
D14*
X224600000Y-79000000D03*
%TD*%
D18*
%TO.C,SW2*%
X165249999Y-70000000D03*
D19*
X171750000Y-70000000D03*
X165249999Y-74500001D03*
X171750000Y-74500001D03*
%TD*%
D20*
%TO.C,U2*%
X203362500Y-85750000D03*
X203362500Y-86700000D03*
X203362500Y-87650000D03*
X205637500Y-87650000D03*
X205637500Y-85750000D03*
%TD*%
D21*
%TO.C,Y1*%
X181950000Y-78350000D03*
X181950000Y-80850000D03*
%TD*%
D22*
%TO.C,R8*%
X219750002Y-71825000D03*
X219750002Y-70000000D03*
%TD*%
D10*
%TO.C,C1*%
X182100000Y-83450000D03*
X183650000Y-83450000D03*
%TD*%
D23*
%TO.C,C3*%
X179950000Y-78350000D03*
X178400000Y-78350000D03*
%TD*%
D24*
%TO.C,C5*%
X224600000Y-74700000D03*
X222700000Y-74700000D03*
%TD*%
D25*
%TO.C,U3*%
X185425000Y-80375000D03*
X185425000Y-81025000D03*
X185425000Y-81675000D03*
X185425000Y-82325000D03*
X185425000Y-82975000D03*
X185425000Y-83625000D03*
X185425000Y-84275000D03*
X185425000Y-84925000D03*
X185425000Y-85575000D03*
X185425000Y-86225000D03*
X191150000Y-86225000D03*
X191150000Y-85575000D03*
X191150000Y-84925000D03*
X191150000Y-84275000D03*
X191150000Y-83625000D03*
X191150000Y-82975000D03*
X191150000Y-82325000D03*
X191150000Y-81675000D03*
X191150000Y-81025000D03*
X191150000Y-80375000D03*
%TD*%
D26*
%TO.C,R5*%
X221775000Y-60000000D03*
X219950000Y-60000000D03*
%TD*%
D27*
%TO.C,CR2*%
X204790200Y-91000000D03*
X209209800Y-91000000D03*
%TD*%
D28*
%TO.C,H2*%
X222500000Y-49500000D03*
%TD*%
D29*
%TO.C,C2*%
X217750000Y-91000000D03*
X217750000Y-93950000D03*
%TD*%
D30*
%TO.C,SW1*%
X186487500Y-91400000D03*
X189887500Y-91400000D03*
%TD*%
D31*
%TO.C,C10*%
X208175000Y-83600000D03*
X205225000Y-83600000D03*
%TD*%
D26*
%TO.C,R9*%
X170512500Y-54200000D03*
X168687500Y-54200000D03*
%TD*%
D32*
%TO.C,R2*%
X214250000Y-85000000D03*
X216075000Y-85000000D03*
%TD*%
D28*
%TO.C,H4*%
X222500000Y-92500000D03*
%TD*%
D33*
%TO.C,D1*%
X217750000Y-87125000D03*
X217750000Y-89000000D03*
%TD*%
D32*
%TO.C,R11*%
X216894600Y-77500000D03*
X218719600Y-77500000D03*
%TD*%
D26*
%TO.C,R3*%
X212000000Y-85000000D03*
X210175000Y-85000000D03*
%TD*%
D34*
%TO.C,C7*%
X201150000Y-89675000D03*
X201150000Y-86725000D03*
%TD*%
D28*
%TO.C,H3*%
X159500000Y-92500000D03*
%TD*%
D35*
%TO.C,D2*%
X217625000Y-56000000D03*
X215750000Y-56000000D03*
%TD*%
D22*
%TO.C,R7*%
X197250001Y-71825000D03*
X197250001Y-70000000D03*
%TD*%
D26*
%TO.C,R1*%
X224600000Y-76800000D03*
X222775000Y-76800000D03*
%TD*%
D22*
%TO.C,R6*%
X174750000Y-71825000D03*
X174750000Y-70000000D03*
%TD*%
D35*
%TO.C,D3*%
X217625000Y-60000000D03*
X215750000Y-60000000D03*
%TD*%
D26*
%TO.C,R4*%
X221775000Y-56000000D03*
X219950000Y-56000000D03*
%TD*%
D36*
%TO.C,C9*%
X207800000Y-87650000D03*
X207800000Y-85750000D03*
%TD*%
D37*
%TO.C,J4*%
X167590000Y-92800000D03*
X167590000Y-88900000D03*
X168860000Y-92800000D03*
X168860000Y-88900000D03*
X170130000Y-92800000D03*
X170130000Y-88900000D03*
X171400000Y-92800000D03*
X171400000Y-88900000D03*
X172670000Y-92800000D03*
X172670000Y-88900000D03*
X173940000Y-92800000D03*
X173940000Y-88900000D03*
X175210000Y-92800000D03*
X175210000Y-88900000D03*
%TD*%
D29*
%TO.C,C8*%
X215250000Y-91000000D03*
X215250000Y-93950000D03*
%TD*%
D28*
%TO.C,H1*%
X159500000Y-49500000D03*
%TD*%
D38*
%TO.C,U4*%
X196200000Y-89300000D03*
X196200000Y-90100000D03*
X196200000Y-90900000D03*
X196200000Y-91700000D03*
X196200000Y-92500000D03*
X196200000Y-93300000D03*
D39*
X197200000Y-93300000D03*
D38*
X198200000Y-93300000D03*
X198200000Y-92500000D03*
X198200000Y-91700000D03*
X198200000Y-90900000D03*
X198200000Y-90100000D03*
X198200000Y-89300000D03*
D39*
X197200000Y-89300000D03*
%TD*%
D10*
%TO.C,C6*%
X188312500Y-88700000D03*
X189862500Y-88700000D03*
%TD*%
D20*
%TO.C,U1*%
X212000000Y-87100000D03*
X212000000Y-88050000D03*
X212000000Y-89000000D03*
X214275000Y-89000000D03*
X214275000Y-87100000D03*
%TD*%
D18*
%TO.C,SW4*%
X210250001Y-70000000D03*
D19*
X216750002Y-70000000D03*
X210250001Y-74500001D03*
X216750002Y-74500001D03*
%TD*%
D26*
%TO.C,R10*%
X170500000Y-56700000D03*
X168675000Y-56700000D03*
%TD*%
D23*
%TO.C,C4*%
X179950000Y-80850000D03*
X178400000Y-80850000D03*
%TD*%
D18*
%TO.C,SW3*%
X187750000Y-70000000D03*
D19*
X194250001Y-70000000D03*
X187750000Y-74500001D03*
X194250001Y-74500001D03*
%TD*%
D27*
%TO.C,CR1*%
X214300000Y-80900000D03*
X218719600Y-80900000D03*
%TD*%
D40*
%TO.C,J2*%
X212000000Y-93000000D03*
D41*
X212000000Y-91000000D03*
%TD*%
D42*
%TO.C,J3*%
X182375000Y-89625000D03*
D43*
X179835000Y-89625000D03*
X182375000Y-92165000D03*
X179835000Y-92165000D03*
%TD*%
M02*
