%TF.GenerationSoftware,KiCad,Pcbnew,8.0.5*%
%TF.CreationDate,2024-11-06T09:26:01-07:00*%
%TF.ProjectId,STM32G041F8P6_dev,53544d33-3247-4303-9431-463850365f64,rev?*%
%TF.SameCoordinates,Original*%
%TF.FileFunction,AssemblyDrawing,Bot*%
%FSLAX46Y46*%
G04 Gerber Fmt 4.6, Leading zero omitted, Abs format (unit mm)*
G04 Created by KiCad (PCBNEW 8.0.5) date 2024-11-06 09:26:01*
%MOMM*%
%LPD*%
G01*
G04 APERTURE LIST*
%ADD10C,0.150000*%
%ADD11C,0.100000*%
G04 APERTURE END LIST*
D10*
X204957200Y-86880953D02*
X205004819Y-87023810D01*
X205004819Y-87023810D02*
X205004819Y-87261905D01*
X205004819Y-87261905D02*
X204957200Y-87357143D01*
X204957200Y-87357143D02*
X204909580Y-87404762D01*
X204909580Y-87404762D02*
X204814342Y-87452381D01*
X204814342Y-87452381D02*
X204719104Y-87452381D01*
X204719104Y-87452381D02*
X204623866Y-87404762D01*
X204623866Y-87404762D02*
X204576247Y-87357143D01*
X204576247Y-87357143D02*
X204528628Y-87261905D01*
X204528628Y-87261905D02*
X204481009Y-87071429D01*
X204481009Y-87071429D02*
X204433390Y-86976191D01*
X204433390Y-86976191D02*
X204385771Y-86928572D01*
X204385771Y-86928572D02*
X204290533Y-86880953D01*
X204290533Y-86880953D02*
X204195295Y-86880953D01*
X204195295Y-86880953D02*
X204100057Y-86928572D01*
X204100057Y-86928572D02*
X204052438Y-86976191D01*
X204052438Y-86976191D02*
X204004819Y-87071429D01*
X204004819Y-87071429D02*
X204004819Y-87309524D01*
X204004819Y-87309524D02*
X204052438Y-87452381D01*
X204100057Y-87833334D02*
X204052438Y-87880953D01*
X204052438Y-87880953D02*
X204004819Y-87976191D01*
X204004819Y-87976191D02*
X204004819Y-88214286D01*
X204004819Y-88214286D02*
X204052438Y-88309524D01*
X204052438Y-88309524D02*
X204100057Y-88357143D01*
X204100057Y-88357143D02*
X204195295Y-88404762D01*
X204195295Y-88404762D02*
X204290533Y-88404762D01*
X204290533Y-88404762D02*
X204433390Y-88357143D01*
X204433390Y-88357143D02*
X205004819Y-87785715D01*
X205004819Y-87785715D02*
X205004819Y-88404762D01*
X204481009Y-89166667D02*
X204528628Y-89309524D01*
X204528628Y-89309524D02*
X204576247Y-89357143D01*
X204576247Y-89357143D02*
X204671485Y-89404762D01*
X204671485Y-89404762D02*
X204814342Y-89404762D01*
X204814342Y-89404762D02*
X204909580Y-89357143D01*
X204909580Y-89357143D02*
X204957200Y-89309524D01*
X204957200Y-89309524D02*
X205004819Y-89214286D01*
X205004819Y-89214286D02*
X205004819Y-88833334D01*
X205004819Y-88833334D02*
X204004819Y-88833334D01*
X204004819Y-88833334D02*
X204004819Y-89166667D01*
X204004819Y-89166667D02*
X204052438Y-89261905D01*
X204052438Y-89261905D02*
X204100057Y-89309524D01*
X204100057Y-89309524D02*
X204195295Y-89357143D01*
X204195295Y-89357143D02*
X204290533Y-89357143D01*
X204290533Y-89357143D02*
X204385771Y-89309524D01*
X204385771Y-89309524D02*
X204433390Y-89261905D01*
X204433390Y-89261905D02*
X204481009Y-89166667D01*
X204481009Y-89166667D02*
X204481009Y-88833334D01*
X204623866Y-89833334D02*
X204623866Y-90595239D01*
X205004819Y-91071429D02*
X204004819Y-91071429D01*
X204004819Y-91071429D02*
X204004819Y-91452381D01*
X204004819Y-91452381D02*
X204052438Y-91547619D01*
X204052438Y-91547619D02*
X204100057Y-91595238D01*
X204100057Y-91595238D02*
X204195295Y-91642857D01*
X204195295Y-91642857D02*
X204338152Y-91642857D01*
X204338152Y-91642857D02*
X204433390Y-91595238D01*
X204433390Y-91595238D02*
X204481009Y-91547619D01*
X204481009Y-91547619D02*
X204528628Y-91452381D01*
X204528628Y-91452381D02*
X204528628Y-91071429D01*
X205004819Y-92071429D02*
X204004819Y-92071429D01*
X204481009Y-92071429D02*
X204481009Y-92642857D01*
X205004819Y-92642857D02*
X204004819Y-92642857D01*
X204623866Y-93119048D02*
X204623866Y-93880953D01*
X205004819Y-94357143D02*
X204004819Y-94357143D01*
X205004819Y-94928571D02*
X204433390Y-94500000D01*
X204004819Y-94928571D02*
X204576247Y-94357143D01*
X204623866Y-95357143D02*
X204623866Y-96119048D01*
X204957200Y-96547619D02*
X205004819Y-96690476D01*
X205004819Y-96690476D02*
X205004819Y-96928571D01*
X205004819Y-96928571D02*
X204957200Y-97023809D01*
X204957200Y-97023809D02*
X204909580Y-97071428D01*
X204909580Y-97071428D02*
X204814342Y-97119047D01*
X204814342Y-97119047D02*
X204719104Y-97119047D01*
X204719104Y-97119047D02*
X204623866Y-97071428D01*
X204623866Y-97071428D02*
X204576247Y-97023809D01*
X204576247Y-97023809D02*
X204528628Y-96928571D01*
X204528628Y-96928571D02*
X204481009Y-96738095D01*
X204481009Y-96738095D02*
X204433390Y-96642857D01*
X204433390Y-96642857D02*
X204385771Y-96595238D01*
X204385771Y-96595238D02*
X204290533Y-96547619D01*
X204290533Y-96547619D02*
X204195295Y-96547619D01*
X204195295Y-96547619D02*
X204100057Y-96595238D01*
X204100057Y-96595238D02*
X204052438Y-96642857D01*
X204052438Y-96642857D02*
X204004819Y-96738095D01*
X204004819Y-96738095D02*
X204004819Y-96976190D01*
X204004819Y-96976190D02*
X204052438Y-97119047D01*
X208954819Y-91666666D02*
X209669104Y-91666666D01*
X209669104Y-91666666D02*
X209811961Y-91619047D01*
X209811961Y-91619047D02*
X209907200Y-91523809D01*
X209907200Y-91523809D02*
X209954819Y-91380952D01*
X209954819Y-91380952D02*
X209954819Y-91285714D01*
X209050057Y-92095238D02*
X209002438Y-92142857D01*
X209002438Y-92142857D02*
X208954819Y-92238095D01*
X208954819Y-92238095D02*
X208954819Y-92476190D01*
X208954819Y-92476190D02*
X209002438Y-92571428D01*
X209002438Y-92571428D02*
X209050057Y-92619047D01*
X209050057Y-92619047D02*
X209145295Y-92666666D01*
X209145295Y-92666666D02*
X209240533Y-92666666D01*
X209240533Y-92666666D02*
X209383390Y-92619047D01*
X209383390Y-92619047D02*
X209954819Y-92047619D01*
X209954819Y-92047619D02*
X209954819Y-92666666D01*
X188747858Y-94854580D02*
X188795477Y-94902200D01*
X188795477Y-94902200D02*
X188938334Y-94949819D01*
X188938334Y-94949819D02*
X189033572Y-94949819D01*
X189033572Y-94949819D02*
X189176429Y-94902200D01*
X189176429Y-94902200D02*
X189271667Y-94806961D01*
X189271667Y-94806961D02*
X189319286Y-94711723D01*
X189319286Y-94711723D02*
X189366905Y-94521247D01*
X189366905Y-94521247D02*
X189366905Y-94378390D01*
X189366905Y-94378390D02*
X189319286Y-94187914D01*
X189319286Y-94187914D02*
X189271667Y-94092676D01*
X189271667Y-94092676D02*
X189176429Y-93997438D01*
X189176429Y-93997438D02*
X189033572Y-93949819D01*
X189033572Y-93949819D02*
X188938334Y-93949819D01*
X188938334Y-93949819D02*
X188795477Y-93997438D01*
X188795477Y-93997438D02*
X188747858Y-94045057D01*
X188176429Y-94949819D02*
X188271667Y-94902200D01*
X188271667Y-94902200D02*
X188319286Y-94854580D01*
X188319286Y-94854580D02*
X188366905Y-94759342D01*
X188366905Y-94759342D02*
X188366905Y-94473628D01*
X188366905Y-94473628D02*
X188319286Y-94378390D01*
X188319286Y-94378390D02*
X188271667Y-94330771D01*
X188271667Y-94330771D02*
X188176429Y-94283152D01*
X188176429Y-94283152D02*
X188033572Y-94283152D01*
X188033572Y-94283152D02*
X187938334Y-94330771D01*
X187938334Y-94330771D02*
X187890715Y-94378390D01*
X187890715Y-94378390D02*
X187843096Y-94473628D01*
X187843096Y-94473628D02*
X187843096Y-94759342D01*
X187843096Y-94759342D02*
X187890715Y-94854580D01*
X187890715Y-94854580D02*
X187938334Y-94902200D01*
X187938334Y-94902200D02*
X188033572Y-94949819D01*
X188033572Y-94949819D02*
X188176429Y-94949819D01*
X187414524Y-94283152D02*
X187414524Y-94949819D01*
X187414524Y-94378390D02*
X187366905Y-94330771D01*
X187366905Y-94330771D02*
X187271667Y-94283152D01*
X187271667Y-94283152D02*
X187128810Y-94283152D01*
X187128810Y-94283152D02*
X187033572Y-94330771D01*
X187033572Y-94330771D02*
X186985953Y-94426009D01*
X186985953Y-94426009D02*
X186985953Y-94949819D01*
X186509762Y-94283152D02*
X186509762Y-94949819D01*
X186509762Y-94378390D02*
X186462143Y-94330771D01*
X186462143Y-94330771D02*
X186366905Y-94283152D01*
X186366905Y-94283152D02*
X186224048Y-94283152D01*
X186224048Y-94283152D02*
X186128810Y-94330771D01*
X186128810Y-94330771D02*
X186081191Y-94426009D01*
X186081191Y-94426009D02*
X186081191Y-94949819D01*
X185843096Y-95045057D02*
X185081191Y-95045057D01*
X184652619Y-93949819D02*
X184557381Y-93949819D01*
X184557381Y-93949819D02*
X184462143Y-93997438D01*
X184462143Y-93997438D02*
X184414524Y-94045057D01*
X184414524Y-94045057D02*
X184366905Y-94140295D01*
X184366905Y-94140295D02*
X184319286Y-94330771D01*
X184319286Y-94330771D02*
X184319286Y-94568866D01*
X184319286Y-94568866D02*
X184366905Y-94759342D01*
X184366905Y-94759342D02*
X184414524Y-94854580D01*
X184414524Y-94854580D02*
X184462143Y-94902200D01*
X184462143Y-94902200D02*
X184557381Y-94949819D01*
X184557381Y-94949819D02*
X184652619Y-94949819D01*
X184652619Y-94949819D02*
X184747857Y-94902200D01*
X184747857Y-94902200D02*
X184795476Y-94854580D01*
X184795476Y-94854580D02*
X184843095Y-94759342D01*
X184843095Y-94759342D02*
X184890714Y-94568866D01*
X184890714Y-94568866D02*
X184890714Y-94330771D01*
X184890714Y-94330771D02*
X184843095Y-94140295D01*
X184843095Y-94140295D02*
X184795476Y-94045057D01*
X184795476Y-94045057D02*
X184747857Y-93997438D01*
X184747857Y-93997438D02*
X184652619Y-93949819D01*
X183938333Y-94045057D02*
X183890714Y-93997438D01*
X183890714Y-93997438D02*
X183795476Y-93949819D01*
X183795476Y-93949819D02*
X183557381Y-93949819D01*
X183557381Y-93949819D02*
X183462143Y-93997438D01*
X183462143Y-93997438D02*
X183414524Y-94045057D01*
X183414524Y-94045057D02*
X183366905Y-94140295D01*
X183366905Y-94140295D02*
X183366905Y-94235533D01*
X183366905Y-94235533D02*
X183414524Y-94378390D01*
X183414524Y-94378390D02*
X183985952Y-94949819D01*
X183985952Y-94949819D02*
X183366905Y-94949819D01*
X183033571Y-94949819D02*
X182509762Y-94283152D01*
X183033571Y-94283152D02*
X182509762Y-94949819D01*
X181938333Y-93949819D02*
X181843095Y-93949819D01*
X181843095Y-93949819D02*
X181747857Y-93997438D01*
X181747857Y-93997438D02*
X181700238Y-94045057D01*
X181700238Y-94045057D02*
X181652619Y-94140295D01*
X181652619Y-94140295D02*
X181605000Y-94330771D01*
X181605000Y-94330771D02*
X181605000Y-94568866D01*
X181605000Y-94568866D02*
X181652619Y-94759342D01*
X181652619Y-94759342D02*
X181700238Y-94854580D01*
X181700238Y-94854580D02*
X181747857Y-94902200D01*
X181747857Y-94902200D02*
X181843095Y-94949819D01*
X181843095Y-94949819D02*
X181938333Y-94949819D01*
X181938333Y-94949819D02*
X182033571Y-94902200D01*
X182033571Y-94902200D02*
X182081190Y-94854580D01*
X182081190Y-94854580D02*
X182128809Y-94759342D01*
X182128809Y-94759342D02*
X182176428Y-94568866D01*
X182176428Y-94568866D02*
X182176428Y-94330771D01*
X182176428Y-94330771D02*
X182128809Y-94140295D01*
X182128809Y-94140295D02*
X182081190Y-94045057D01*
X182081190Y-94045057D02*
X182033571Y-93997438D01*
X182033571Y-93997438D02*
X181938333Y-93949819D01*
X181224047Y-94045057D02*
X181176428Y-93997438D01*
X181176428Y-93997438D02*
X181081190Y-93949819D01*
X181081190Y-93949819D02*
X180843095Y-93949819D01*
X180843095Y-93949819D02*
X180747857Y-93997438D01*
X180747857Y-93997438D02*
X180700238Y-94045057D01*
X180700238Y-94045057D02*
X180652619Y-94140295D01*
X180652619Y-94140295D02*
X180652619Y-94235533D01*
X180652619Y-94235533D02*
X180700238Y-94378390D01*
X180700238Y-94378390D02*
X181271666Y-94949819D01*
X181271666Y-94949819D02*
X180652619Y-94949819D01*
X180462143Y-95045057D02*
X179700238Y-95045057D01*
X179271666Y-93949819D02*
X179081190Y-93949819D01*
X179081190Y-93949819D02*
X178985952Y-93997438D01*
X178985952Y-93997438D02*
X178890714Y-94092676D01*
X178890714Y-94092676D02*
X178843095Y-94283152D01*
X178843095Y-94283152D02*
X178843095Y-94616485D01*
X178843095Y-94616485D02*
X178890714Y-94806961D01*
X178890714Y-94806961D02*
X178985952Y-94902200D01*
X178985952Y-94902200D02*
X179081190Y-94949819D01*
X179081190Y-94949819D02*
X179271666Y-94949819D01*
X179271666Y-94949819D02*
X179366904Y-94902200D01*
X179366904Y-94902200D02*
X179462142Y-94806961D01*
X179462142Y-94806961D02*
X179509761Y-94616485D01*
X179509761Y-94616485D02*
X179509761Y-94283152D01*
X179509761Y-94283152D02*
X179462142Y-94092676D01*
X179462142Y-94092676D02*
X179366904Y-93997438D01*
X179366904Y-93997438D02*
X179271666Y-93949819D01*
X177985952Y-94949819D02*
X177985952Y-93949819D01*
X177985952Y-94902200D02*
X178081190Y-94949819D01*
X178081190Y-94949819D02*
X178271666Y-94949819D01*
X178271666Y-94949819D02*
X178366904Y-94902200D01*
X178366904Y-94902200D02*
X178414523Y-94854580D01*
X178414523Y-94854580D02*
X178462142Y-94759342D01*
X178462142Y-94759342D02*
X178462142Y-94473628D01*
X178462142Y-94473628D02*
X178414523Y-94378390D01*
X178414523Y-94378390D02*
X178366904Y-94330771D01*
X178366904Y-94330771D02*
X178271666Y-94283152D01*
X178271666Y-94283152D02*
X178081190Y-94283152D01*
X178081190Y-94283152D02*
X177985952Y-94330771D01*
X177081190Y-94949819D02*
X177081190Y-93949819D01*
X177081190Y-94902200D02*
X177176428Y-94949819D01*
X177176428Y-94949819D02*
X177366904Y-94949819D01*
X177366904Y-94949819D02*
X177462142Y-94902200D01*
X177462142Y-94902200D02*
X177509761Y-94854580D01*
X177509761Y-94854580D02*
X177557380Y-94759342D01*
X177557380Y-94759342D02*
X177557380Y-94473628D01*
X177557380Y-94473628D02*
X177509761Y-94378390D01*
X177509761Y-94378390D02*
X177462142Y-94330771D01*
X177462142Y-94330771D02*
X177366904Y-94283152D01*
X177366904Y-94283152D02*
X177176428Y-94283152D01*
X177176428Y-94283152D02*
X177081190Y-94330771D01*
X176843095Y-95045057D02*
X176081190Y-95045057D01*
X175843094Y-94426009D02*
X175509761Y-94426009D01*
X175366904Y-94949819D02*
X175843094Y-94949819D01*
X175843094Y-94949819D02*
X175843094Y-93949819D01*
X175843094Y-93949819D02*
X175366904Y-93949819D01*
X175033570Y-94283152D02*
X174795475Y-94949819D01*
X174795475Y-94949819D02*
X174557380Y-94283152D01*
X173795475Y-94902200D02*
X173890713Y-94949819D01*
X173890713Y-94949819D02*
X174081189Y-94949819D01*
X174081189Y-94949819D02*
X174176427Y-94902200D01*
X174176427Y-94902200D02*
X174224046Y-94806961D01*
X174224046Y-94806961D02*
X174224046Y-94426009D01*
X174224046Y-94426009D02*
X174176427Y-94330771D01*
X174176427Y-94330771D02*
X174081189Y-94283152D01*
X174081189Y-94283152D02*
X173890713Y-94283152D01*
X173890713Y-94283152D02*
X173795475Y-94330771D01*
X173795475Y-94330771D02*
X173747856Y-94426009D01*
X173747856Y-94426009D02*
X173747856Y-94521247D01*
X173747856Y-94521247D02*
X174224046Y-94616485D01*
X173319284Y-94283152D02*
X173319284Y-94949819D01*
X173319284Y-94378390D02*
X173271665Y-94330771D01*
X173271665Y-94330771D02*
X173176427Y-94283152D01*
X173176427Y-94283152D02*
X173033570Y-94283152D01*
X173033570Y-94283152D02*
X172938332Y-94330771D01*
X172938332Y-94330771D02*
X172890713Y-94426009D01*
X172890713Y-94426009D02*
X172890713Y-94949819D01*
X180559819Y-90561666D02*
X181274104Y-90561666D01*
X181274104Y-90561666D02*
X181416961Y-90514047D01*
X181416961Y-90514047D02*
X181512200Y-90418809D01*
X181512200Y-90418809D02*
X181559819Y-90275952D01*
X181559819Y-90275952D02*
X181559819Y-90180714D01*
X180559819Y-90942619D02*
X180559819Y-91561666D01*
X180559819Y-91561666D02*
X180940771Y-91228333D01*
X180940771Y-91228333D02*
X180940771Y-91371190D01*
X180940771Y-91371190D02*
X180988390Y-91466428D01*
X180988390Y-91466428D02*
X181036009Y-91514047D01*
X181036009Y-91514047D02*
X181131247Y-91561666D01*
X181131247Y-91561666D02*
X181369342Y-91561666D01*
X181369342Y-91561666D02*
X181464580Y-91514047D01*
X181464580Y-91514047D02*
X181512200Y-91466428D01*
X181512200Y-91466428D02*
X181559819Y-91371190D01*
X181559819Y-91371190D02*
X181559819Y-91085476D01*
X181559819Y-91085476D02*
X181512200Y-90990238D01*
X181512200Y-90990238D02*
X181464580Y-90942619D01*
D11*
%TO.C,J2*%
X205750000Y-89050000D02*
X205750000Y-94950000D01*
X205750000Y-94950000D02*
X213350000Y-94950000D01*
X210625000Y-92500000D02*
X210625000Y-93500000D01*
X210625000Y-93500000D02*
X211125000Y-93000000D01*
X211125000Y-93000000D02*
X210625000Y-92500000D01*
X211750000Y-89750000D02*
X213350000Y-89750000D01*
X211750000Y-94250000D02*
X211750000Y-89750000D01*
X213350000Y-89050000D02*
X205750000Y-89050000D01*
X213350000Y-89750000D02*
X213350000Y-89050000D01*
X213350000Y-94250000D02*
X211750000Y-94250000D01*
X213350000Y-94950000D02*
X213350000Y-94250000D01*
%TO.C,J3*%
X178565000Y-88355000D02*
X182375000Y-88355000D01*
X178565000Y-93435000D02*
X178565000Y-88355000D01*
X182375000Y-88355000D02*
X183645000Y-89625000D01*
X183645000Y-89625000D02*
X183645000Y-93435000D01*
X183645000Y-93435000D02*
X178565000Y-93435000D01*
%TD*%
M02*
