%TF.GenerationSoftware,KiCad,Pcbnew,8.0.5*%
%TF.CreationDate,2024-11-06T09:26:05-07:00*%
%TF.ProjectId,STM32G041F8P6_dev,53544d33-3247-4303-9431-463850365f64,rev?*%
%TF.SameCoordinates,Original*%
%TF.FileFunction,Drillmap*%
%TF.FilePolarity,Positive*%
%FSLAX45Y45*%
G04 Gerber Fmt 4.5, Leading zero omitted, Abs format (unit mm)*
G04 Created by KiCad (PCBNEW 8.0.5) date 2024-11-06 09:26:05*
%MOMM*%
%LPD*%
G01*
G04 APERTURE LIST*
%ADD10C,0.050000*%
%ADD11C,0.200000*%
%ADD12C,0.100000*%
G04 APERTURE END LIST*
D10*
X15600000Y-4600000D02*
X22600000Y-4600000D01*
X22600000Y-9600000D01*
X15600000Y-9600000D01*
X15600000Y-4600000D01*
D11*
D12*
X15877500Y-7337500D02*
X15907500Y-7367500D01*
X15907500Y-7337500D02*
X15877500Y-7367500D01*
X16585000Y-9445000D02*
X16615000Y-9475000D01*
X16615000Y-9445000D02*
X16585000Y-9475000D01*
X16735000Y-5405000D02*
X16765000Y-5435000D01*
X16765000Y-5405000D02*
X16735000Y-5435000D01*
X16735000Y-5655000D02*
X16765000Y-5685000D01*
X16765000Y-5655000D02*
X16735000Y-5685000D01*
X16875000Y-8575000D02*
X16905000Y-8605000D01*
X16905000Y-8575000D02*
X16875000Y-8605000D01*
X16995000Y-8575000D02*
X17025000Y-8605000D01*
X17025000Y-8575000D02*
X16995000Y-8605000D01*
X16995000Y-9465000D02*
X17025000Y-9495000D01*
X17025000Y-9465000D02*
X16995000Y-9495000D01*
X17125000Y-9465000D02*
X17155000Y-9495000D01*
X17155000Y-9465000D02*
X17125000Y-9495000D01*
X17375000Y-9465000D02*
X17405000Y-9495000D01*
X17405000Y-9465000D02*
X17375000Y-9495000D01*
X17385000Y-8085000D02*
X17415000Y-8115000D01*
X17415000Y-8085000D02*
X17385000Y-8115000D01*
X17460000Y-7285000D02*
X17490000Y-7315000D01*
X17490000Y-7285000D02*
X17460000Y-7315000D01*
X17495000Y-8595000D02*
X17525000Y-8625000D01*
X17525000Y-8595000D02*
X17495000Y-8625000D01*
X17515000Y-5780000D02*
X17545000Y-5810000D01*
X17545000Y-5780000D02*
X17515000Y-5810000D01*
X17725000Y-9425000D02*
X17755000Y-9455000D01*
X17755000Y-9425000D02*
X17725000Y-9455000D01*
X17825000Y-7945000D02*
X17855000Y-7975000D01*
X17855000Y-7945000D02*
X17825000Y-7975000D01*
X18090000Y-8330000D02*
X18120000Y-8360000D01*
X18120000Y-8330000D02*
X18090000Y-8360000D01*
X18245000Y-8565000D02*
X18275000Y-8595000D01*
X18275000Y-8565000D02*
X18245000Y-8595000D01*
X18320000Y-8435000D02*
X18350000Y-8465000D01*
X18350000Y-8435000D02*
X18320000Y-8465000D01*
X18420000Y-8750000D02*
X18450000Y-8780000D01*
X18450000Y-8750000D02*
X18420000Y-8780000D01*
X18535000Y-7925000D02*
X18565000Y-7955000D01*
X18565000Y-7925000D02*
X18535000Y-7955000D01*
X18645000Y-6735000D02*
X18675000Y-6765000D01*
X18675000Y-6735000D02*
X18645000Y-6765000D01*
X18703750Y-8412500D02*
X18733750Y-8442500D01*
X18733750Y-8412500D02*
X18703750Y-8442500D01*
X18815000Y-8025000D02*
X18845000Y-8055000D01*
X18845000Y-8025000D02*
X18815000Y-8055000D01*
X18905000Y-8155000D02*
X18935000Y-8185000D01*
X18935000Y-8155000D02*
X18905000Y-8185000D01*
X18955000Y-8475000D02*
X18985000Y-8505000D01*
X18985000Y-8475000D02*
X18955000Y-8505000D01*
X19083750Y-9125000D02*
X19113750Y-9155000D01*
X19113750Y-9125000D02*
X19083750Y-9155000D01*
X19085000Y-8855000D02*
X19115000Y-8885000D01*
X19115000Y-8855000D02*
X19085000Y-8885000D01*
X19235000Y-9215000D02*
X19265000Y-9245000D01*
X19265000Y-9215000D02*
X19235000Y-9245000D01*
X19245000Y-7825000D02*
X19275000Y-7855000D01*
X19275000Y-7825000D02*
X19245000Y-7855000D01*
X19245000Y-8025000D02*
X19275000Y-8055000D01*
X19275000Y-8025000D02*
X19245000Y-8055000D01*
X19255000Y-8145000D02*
X19285000Y-8175000D01*
X19285000Y-8145000D02*
X19255000Y-8175000D01*
X19315000Y-8285000D02*
X19345000Y-8315000D01*
X19345000Y-8285000D02*
X19315000Y-8315000D01*
X19355000Y-8455000D02*
X19385000Y-8485000D01*
X19385000Y-8455000D02*
X19355000Y-8485000D01*
X19435000Y-8575000D02*
X19465000Y-8605000D01*
X19465000Y-8575000D02*
X19435000Y-8605000D01*
X19460000Y-9210000D02*
X19490000Y-9240000D01*
X19490000Y-9210000D02*
X19460000Y-9240000D01*
X19525000Y-8185000D02*
X19555000Y-8215000D01*
X19555000Y-8185000D02*
X19525000Y-8215000D01*
X19705000Y-8795000D02*
X19735000Y-8825000D01*
X19735000Y-8795000D02*
X19705000Y-8825000D01*
X19705000Y-9425000D02*
X19735000Y-9455000D01*
X19735000Y-9425000D02*
X19705000Y-9455000D01*
X19710000Y-7285000D02*
X19740000Y-7315000D01*
X19740000Y-7285000D02*
X19710000Y-7315000D01*
X19805000Y-7595000D02*
X19835000Y-7625000D01*
X19835000Y-7595000D02*
X19805000Y-7625000D01*
X19805000Y-8795000D02*
X19835000Y-8825000D01*
X19835000Y-8795000D02*
X19805000Y-8825000D01*
X19915000Y-8995000D02*
X19945000Y-9025000D01*
X19945000Y-8995000D02*
X19915000Y-9025000D01*
X19915000Y-9235000D02*
X19945000Y-9265000D01*
X19945000Y-9235000D02*
X19915000Y-9265000D01*
X19915000Y-9315000D02*
X19945000Y-9345000D01*
X19945000Y-9315000D02*
X19915000Y-9345000D01*
X21005000Y-8625000D02*
X21035000Y-8655000D01*
X21035000Y-8625000D02*
X21005000Y-8655000D01*
X21035000Y-8785000D02*
X21065000Y-8815000D01*
X21065000Y-8785000D02*
X21035000Y-8815000D01*
X21215000Y-5585000D02*
X21245000Y-5615000D01*
X21245000Y-5585000D02*
X21215000Y-5615000D01*
X21545000Y-7735000D02*
X21575000Y-7765000D01*
X21575000Y-7735000D02*
X21545000Y-7765000D01*
X21595000Y-8635000D02*
X21625000Y-8665000D01*
X21625000Y-8635000D02*
X21595000Y-8665000D01*
X21765000Y-8565000D02*
X21795000Y-8595000D01*
X21795000Y-8565000D02*
X21765000Y-8595000D01*
X21960000Y-7282500D02*
X21990000Y-7312500D01*
X21990000Y-7282500D02*
X21960000Y-7312500D01*
X22145000Y-7665000D02*
X22175000Y-7695000D01*
X22175000Y-7665000D02*
X22145000Y-7695000D01*
X22255000Y-7325000D02*
X22285000Y-7355000D01*
X22285000Y-7325000D02*
X22255000Y-7355000D01*
X22295000Y-5585000D02*
X22325000Y-5615000D01*
X22325000Y-5585000D02*
X22295000Y-5615000D01*
X22295000Y-5985000D02*
X22325000Y-6015000D01*
X22325000Y-5985000D02*
X22295000Y-6015000D01*
X22485000Y-7900000D02*
G75*
G02*
X22435000Y-7900000I-25000J0D01*
G01*
X22435000Y-7900000D02*
G75*
G02*
X22485000Y-7900000I25000J0D01*
G01*
X22427500Y-7925000D02*
X22492500Y-7925000D01*
X22492500Y-7875000D02*
G75*
G02*
X22492500Y-7925000I0J-25000D01*
G01*
X22492500Y-7875000D02*
X22427500Y-7875000D01*
X22427500Y-7875000D02*
G75*
G03*
X22427500Y-7925000I0J-25000D01*
G01*
X22485000Y-8600000D02*
G75*
G02*
X22435000Y-8600000I-25000J0D01*
G01*
X22435000Y-8600000D02*
G75*
G02*
X22485000Y-8600000I25000J0D01*
G01*
X22427500Y-8625000D02*
X22492500Y-8625000D01*
X22492500Y-8575000D02*
G75*
G02*
X22492500Y-8625000I0J-25000D01*
G01*
X22492500Y-8575000D02*
X22427500Y-8575000D01*
X22427500Y-8575000D02*
G75*
G03*
X22427500Y-8625000I0J-25000D01*
G01*
X22190000Y-7972500D02*
X22190000Y-8027500D01*
X22162500Y-8000000D02*
X22217500Y-8000000D01*
X22217500Y-8015000D02*
X22217500Y-7985000D01*
X22162500Y-7985000D02*
G75*
G02*
X22217500Y-7985000I27500J0D01*
G01*
X22162500Y-7985000D02*
X22162500Y-8015000D01*
X22162500Y-8015000D02*
G75*
G03*
X22217500Y-8015000I27500J0D01*
G01*
X22190000Y-8472500D02*
X22190000Y-8527500D01*
X22162500Y-8500000D02*
X22217500Y-8500000D01*
X22217500Y-8515000D02*
X22217500Y-8485000D01*
X22162500Y-8485000D02*
G75*
G02*
X22217500Y-8485000I27500J0D01*
G01*
X22162500Y-8485000D02*
X22162500Y-8515000D01*
X22162500Y-8515000D02*
G75*
G03*
X22217500Y-8515000I27500J0D01*
G01*
X20139749Y-9139749D02*
X20139749Y-9090251D01*
X20090251Y-9090251D01*
X20090251Y-9139749D01*
X20139749Y-9139749D01*
X20554749Y-8204749D02*
X20554749Y-8155251D01*
X20505251Y-8155251D01*
X20505251Y-8204749D01*
X20554749Y-8204749D01*
X20844749Y-8204749D02*
X20844749Y-8155251D01*
X20795251Y-8155251D01*
X20795251Y-8204749D01*
X20844749Y-8204749D01*
X21200000Y-9137500D02*
X21237500Y-9100000D01*
X21200000Y-9062500D01*
X21162500Y-9100000D01*
X21200000Y-9137500D01*
X21200000Y-9337500D02*
X21237500Y-9300000D01*
X21200000Y-9262500D01*
X21162500Y-9300000D01*
X21200000Y-9337500D01*
X16475470Y-6950470D02*
X16574530Y-7049530D01*
X16574530Y-6950470D02*
X16475470Y-7049530D01*
X16574530Y-7000000D02*
G75*
G02*
X16475470Y-7000000I-49530J0D01*
G01*
X16475470Y-7000000D02*
G75*
G02*
X16574530Y-7000000I49530J0D01*
G01*
X16475470Y-7400470D02*
X16574530Y-7499530D01*
X16574530Y-7400470D02*
X16475470Y-7499530D01*
X16574530Y-7450000D02*
G75*
G02*
X16475470Y-7450000I-49530J0D01*
G01*
X16475470Y-7450000D02*
G75*
G02*
X16574530Y-7450000I49530J0D01*
G01*
X17125470Y-6950470D02*
X17224530Y-7049530D01*
X17224530Y-6950470D02*
X17125470Y-7049530D01*
X17224530Y-7000000D02*
G75*
G02*
X17125470Y-7000000I-49530J0D01*
G01*
X17125470Y-7000000D02*
G75*
G02*
X17224530Y-7000000I49530J0D01*
G01*
X17125470Y-7400470D02*
X17224530Y-7499530D01*
X17224530Y-7400470D02*
X17125470Y-7499530D01*
X17224530Y-7450000D02*
G75*
G02*
X17125470Y-7450000I-49530J0D01*
G01*
X17125470Y-7450000D02*
G75*
G02*
X17224530Y-7450000I49530J0D01*
G01*
X18725470Y-6950470D02*
X18824530Y-7049530D01*
X18824530Y-6950470D02*
X18725470Y-7049530D01*
X18824530Y-7000000D02*
G75*
G02*
X18725470Y-7000000I-49530J0D01*
G01*
X18725470Y-7000000D02*
G75*
G02*
X18824530Y-7000000I49530J0D01*
G01*
X18725470Y-7400470D02*
X18824530Y-7499530D01*
X18824530Y-7400470D02*
X18725470Y-7499530D01*
X18824530Y-7450000D02*
G75*
G02*
X18725470Y-7450000I-49530J0D01*
G01*
X18725470Y-7450000D02*
G75*
G02*
X18824530Y-7450000I49530J0D01*
G01*
X19375470Y-6950470D02*
X19474530Y-7049530D01*
X19474530Y-6950470D02*
X19375470Y-7049530D01*
X19474530Y-7000000D02*
G75*
G02*
X19375470Y-7000000I-49530J0D01*
G01*
X19375470Y-7000000D02*
G75*
G02*
X19474530Y-7000000I49530J0D01*
G01*
X19375470Y-7400470D02*
X19474530Y-7499530D01*
X19474530Y-7400470D02*
X19375470Y-7499530D01*
X19474530Y-7450000D02*
G75*
G02*
X19375470Y-7450000I-49530J0D01*
G01*
X19375470Y-7450000D02*
G75*
G02*
X19474530Y-7450000I49530J0D01*
G01*
X20975470Y-6950470D02*
X21074530Y-7049530D01*
X21074530Y-6950470D02*
X20975470Y-7049530D01*
X21074530Y-7000000D02*
G75*
G02*
X20975470Y-7000000I-49530J0D01*
G01*
X20975470Y-7000000D02*
G75*
G02*
X21074530Y-7000000I49530J0D01*
G01*
X20975470Y-7400470D02*
X21074530Y-7499530D01*
X21074530Y-7400470D02*
X20975470Y-7499530D01*
X21074530Y-7450000D02*
G75*
G02*
X20975470Y-7450000I-49530J0D01*
G01*
X20975470Y-7450000D02*
G75*
G02*
X21074530Y-7450000I49530J0D01*
G01*
X21625470Y-6950470D02*
X21724530Y-7049530D01*
X21724530Y-6950470D02*
X21625470Y-7049530D01*
X21724530Y-7000000D02*
G75*
G02*
X21625470Y-7000000I-49530J0D01*
G01*
X21625470Y-7000000D02*
G75*
G02*
X21724530Y-7000000I49530J0D01*
G01*
X21625470Y-7400470D02*
X21724530Y-7499530D01*
X21724530Y-7400470D02*
X21625470Y-7499530D01*
X21724530Y-7450000D02*
G75*
G02*
X21625470Y-7450000I-49530J0D01*
G01*
X21625470Y-7450000D02*
G75*
G02*
X21724530Y-7450000I49530J0D01*
G01*
X17277000Y-5369000D02*
X17377000Y-5469000D01*
X17377000Y-5369000D02*
X17277000Y-5469000D01*
X17327000Y-5369000D02*
X17327000Y-5469000D01*
X17277000Y-5419000D02*
X17377000Y-5419000D01*
X17277000Y-5623000D02*
X17377000Y-5723000D01*
X17377000Y-5623000D02*
X17277000Y-5723000D01*
X17327000Y-5623000D02*
X17327000Y-5723000D01*
X17277000Y-5673000D02*
X17377000Y-5673000D01*
X17277000Y-5877000D02*
X17377000Y-5977000D01*
X17377000Y-5877000D02*
X17277000Y-5977000D01*
X17327000Y-5877000D02*
X17327000Y-5977000D01*
X17277000Y-5927000D02*
X17377000Y-5927000D01*
X17277000Y-6131000D02*
X17377000Y-6231000D01*
X17377000Y-6131000D02*
X17277000Y-6231000D01*
X17327000Y-6131000D02*
X17327000Y-6231000D01*
X17277000Y-6181000D02*
X17377000Y-6181000D01*
X17933500Y-8912500D02*
X18033500Y-9012500D01*
X18033500Y-8912500D02*
X17933500Y-9012500D01*
X17983500Y-8912500D02*
X17983500Y-9012500D01*
X17933500Y-8962500D02*
X18033500Y-8962500D01*
X17933500Y-9166500D02*
X18033500Y-9266500D01*
X18033500Y-9166500D02*
X17933500Y-9266500D01*
X17983500Y-9166500D02*
X17983500Y-9266500D01*
X17933500Y-9216500D02*
X18033500Y-9216500D01*
X18187500Y-8912500D02*
X18287500Y-9012500D01*
X18287500Y-8912500D02*
X18187500Y-9012500D01*
X18237500Y-8912500D02*
X18237500Y-9012500D01*
X18187500Y-8962500D02*
X18287500Y-8962500D01*
X18187500Y-9166500D02*
X18287500Y-9266500D01*
X18287500Y-9166500D02*
X18187500Y-9266500D01*
X18237500Y-9166500D02*
X18237500Y-9266500D01*
X18187500Y-9216500D02*
X18287500Y-9216500D01*
D11*
X15858277Y-9913984D02*
X15858277Y-9713984D01*
X15858277Y-9713984D02*
X15905896Y-9713984D01*
X15905896Y-9713984D02*
X15934467Y-9723508D01*
X15934467Y-9723508D02*
X15953515Y-9742555D01*
X15953515Y-9742555D02*
X15963039Y-9761603D01*
X15963039Y-9761603D02*
X15972562Y-9799698D01*
X15972562Y-9799698D02*
X15972562Y-9828270D01*
X15972562Y-9828270D02*
X15963039Y-9866365D01*
X15963039Y-9866365D02*
X15953515Y-9885412D01*
X15953515Y-9885412D02*
X15934467Y-9904460D01*
X15934467Y-9904460D02*
X15905896Y-9913984D01*
X15905896Y-9913984D02*
X15858277Y-9913984D01*
X16058277Y-9913984D02*
X16058277Y-9780650D01*
X16058277Y-9818746D02*
X16067801Y-9799698D01*
X16067801Y-9799698D02*
X16077324Y-9790174D01*
X16077324Y-9790174D02*
X16096372Y-9780650D01*
X16096372Y-9780650D02*
X16115420Y-9780650D01*
X16182086Y-9913984D02*
X16182086Y-9780650D01*
X16182086Y-9713984D02*
X16172562Y-9723508D01*
X16172562Y-9723508D02*
X16182086Y-9733031D01*
X16182086Y-9733031D02*
X16191610Y-9723508D01*
X16191610Y-9723508D02*
X16182086Y-9713984D01*
X16182086Y-9713984D02*
X16182086Y-9733031D01*
X16305896Y-9913984D02*
X16286848Y-9904460D01*
X16286848Y-9904460D02*
X16277324Y-9885412D01*
X16277324Y-9885412D02*
X16277324Y-9713984D01*
X16410658Y-9913984D02*
X16391610Y-9904460D01*
X16391610Y-9904460D02*
X16382086Y-9885412D01*
X16382086Y-9885412D02*
X16382086Y-9713984D01*
X16639229Y-9913984D02*
X16639229Y-9713984D01*
X16639229Y-9713984D02*
X16705896Y-9856841D01*
X16705896Y-9856841D02*
X16772562Y-9713984D01*
X16772562Y-9713984D02*
X16772562Y-9913984D01*
X16953515Y-9913984D02*
X16953515Y-9809222D01*
X16953515Y-9809222D02*
X16943991Y-9790174D01*
X16943991Y-9790174D02*
X16924944Y-9780650D01*
X16924944Y-9780650D02*
X16886848Y-9780650D01*
X16886848Y-9780650D02*
X16867801Y-9790174D01*
X16953515Y-9904460D02*
X16934467Y-9913984D01*
X16934467Y-9913984D02*
X16886848Y-9913984D01*
X16886848Y-9913984D02*
X16867801Y-9904460D01*
X16867801Y-9904460D02*
X16858277Y-9885412D01*
X16858277Y-9885412D02*
X16858277Y-9866365D01*
X16858277Y-9866365D02*
X16867801Y-9847317D01*
X16867801Y-9847317D02*
X16886848Y-9837793D01*
X16886848Y-9837793D02*
X16934467Y-9837793D01*
X16934467Y-9837793D02*
X16953515Y-9828270D01*
X17048753Y-9780650D02*
X17048753Y-9980650D01*
X17048753Y-9790174D02*
X17067801Y-9780650D01*
X17067801Y-9780650D02*
X17105896Y-9780650D01*
X17105896Y-9780650D02*
X17124944Y-9790174D01*
X17124944Y-9790174D02*
X17134467Y-9799698D01*
X17134467Y-9799698D02*
X17143991Y-9818746D01*
X17143991Y-9818746D02*
X17143991Y-9875889D01*
X17143991Y-9875889D02*
X17134467Y-9894936D01*
X17134467Y-9894936D02*
X17124944Y-9904460D01*
X17124944Y-9904460D02*
X17105896Y-9913984D01*
X17105896Y-9913984D02*
X17067801Y-9913984D01*
X17067801Y-9913984D02*
X17048753Y-9904460D01*
X17229705Y-9894936D02*
X17239229Y-9904460D01*
X17239229Y-9904460D02*
X17229705Y-9913984D01*
X17229705Y-9913984D02*
X17220182Y-9904460D01*
X17220182Y-9904460D02*
X17229705Y-9894936D01*
X17229705Y-9894936D02*
X17229705Y-9913984D01*
X17229705Y-9790174D02*
X17239229Y-9799698D01*
X17239229Y-9799698D02*
X17229705Y-9809222D01*
X17229705Y-9809222D02*
X17220182Y-9799698D01*
X17220182Y-9799698D02*
X17229705Y-9790174D01*
X17229705Y-9790174D02*
X17229705Y-9809222D01*
D12*
X15567500Y-10227500D02*
X15597500Y-10257500D01*
X15597500Y-10227500D02*
X15567500Y-10257500D01*
D11*
X15896372Y-10133984D02*
X15915420Y-10133984D01*
X15915420Y-10133984D02*
X15934467Y-10143508D01*
X15934467Y-10143508D02*
X15943991Y-10153031D01*
X15943991Y-10153031D02*
X15953515Y-10172079D01*
X15953515Y-10172079D02*
X15963039Y-10210174D01*
X15963039Y-10210174D02*
X15963039Y-10257793D01*
X15963039Y-10257793D02*
X15953515Y-10295889D01*
X15953515Y-10295889D02*
X15943991Y-10314936D01*
X15943991Y-10314936D02*
X15934467Y-10324460D01*
X15934467Y-10324460D02*
X15915420Y-10333984D01*
X15915420Y-10333984D02*
X15896372Y-10333984D01*
X15896372Y-10333984D02*
X15877324Y-10324460D01*
X15877324Y-10324460D02*
X15867801Y-10314936D01*
X15867801Y-10314936D02*
X15858277Y-10295889D01*
X15858277Y-10295889D02*
X15848753Y-10257793D01*
X15848753Y-10257793D02*
X15848753Y-10210174D01*
X15848753Y-10210174D02*
X15858277Y-10172079D01*
X15858277Y-10172079D02*
X15867801Y-10153031D01*
X15867801Y-10153031D02*
X15877324Y-10143508D01*
X15877324Y-10143508D02*
X15896372Y-10133984D01*
X16048753Y-10314936D02*
X16058277Y-10324460D01*
X16058277Y-10324460D02*
X16048753Y-10333984D01*
X16048753Y-10333984D02*
X16039229Y-10324460D01*
X16039229Y-10324460D02*
X16048753Y-10314936D01*
X16048753Y-10314936D02*
X16048753Y-10333984D01*
X16124943Y-10133984D02*
X16248753Y-10133984D01*
X16248753Y-10133984D02*
X16182086Y-10210174D01*
X16182086Y-10210174D02*
X16210658Y-10210174D01*
X16210658Y-10210174D02*
X16229705Y-10219698D01*
X16229705Y-10219698D02*
X16239229Y-10229222D01*
X16239229Y-10229222D02*
X16248753Y-10248270D01*
X16248753Y-10248270D02*
X16248753Y-10295889D01*
X16248753Y-10295889D02*
X16239229Y-10314936D01*
X16239229Y-10314936D02*
X16229705Y-10324460D01*
X16229705Y-10324460D02*
X16210658Y-10333984D01*
X16210658Y-10333984D02*
X16153515Y-10333984D01*
X16153515Y-10333984D02*
X16134467Y-10324460D01*
X16134467Y-10324460D02*
X16124943Y-10314936D01*
X16372562Y-10133984D02*
X16391610Y-10133984D01*
X16391610Y-10133984D02*
X16410658Y-10143508D01*
X16410658Y-10143508D02*
X16420182Y-10153031D01*
X16420182Y-10153031D02*
X16429705Y-10172079D01*
X16429705Y-10172079D02*
X16439229Y-10210174D01*
X16439229Y-10210174D02*
X16439229Y-10257793D01*
X16439229Y-10257793D02*
X16429705Y-10295889D01*
X16429705Y-10295889D02*
X16420182Y-10314936D01*
X16420182Y-10314936D02*
X16410658Y-10324460D01*
X16410658Y-10324460D02*
X16391610Y-10333984D01*
X16391610Y-10333984D02*
X16372562Y-10333984D01*
X16372562Y-10333984D02*
X16353515Y-10324460D01*
X16353515Y-10324460D02*
X16343991Y-10314936D01*
X16343991Y-10314936D02*
X16334467Y-10295889D01*
X16334467Y-10295889D02*
X16324943Y-10257793D01*
X16324943Y-10257793D02*
X16324943Y-10210174D01*
X16324943Y-10210174D02*
X16334467Y-10172079D01*
X16334467Y-10172079D02*
X16343991Y-10153031D01*
X16343991Y-10153031D02*
X16353515Y-10143508D01*
X16353515Y-10143508D02*
X16372562Y-10133984D01*
X16563039Y-10133984D02*
X16582086Y-10133984D01*
X16582086Y-10133984D02*
X16601134Y-10143508D01*
X16601134Y-10143508D02*
X16610658Y-10153031D01*
X16610658Y-10153031D02*
X16620182Y-10172079D01*
X16620182Y-10172079D02*
X16629705Y-10210174D01*
X16629705Y-10210174D02*
X16629705Y-10257793D01*
X16629705Y-10257793D02*
X16620182Y-10295889D01*
X16620182Y-10295889D02*
X16610658Y-10314936D01*
X16610658Y-10314936D02*
X16601134Y-10324460D01*
X16601134Y-10324460D02*
X16582086Y-10333984D01*
X16582086Y-10333984D02*
X16563039Y-10333984D01*
X16563039Y-10333984D02*
X16543991Y-10324460D01*
X16543991Y-10324460D02*
X16534467Y-10314936D01*
X16534467Y-10314936D02*
X16524943Y-10295889D01*
X16524943Y-10295889D02*
X16515420Y-10257793D01*
X16515420Y-10257793D02*
X16515420Y-10210174D01*
X16515420Y-10210174D02*
X16524943Y-10172079D01*
X16524943Y-10172079D02*
X16534467Y-10153031D01*
X16534467Y-10153031D02*
X16543991Y-10143508D01*
X16543991Y-10143508D02*
X16563039Y-10133984D01*
X16715420Y-10333984D02*
X16715420Y-10200650D01*
X16715420Y-10219698D02*
X16724943Y-10210174D01*
X16724943Y-10210174D02*
X16743991Y-10200650D01*
X16743991Y-10200650D02*
X16772563Y-10200650D01*
X16772563Y-10200650D02*
X16791610Y-10210174D01*
X16791610Y-10210174D02*
X16801134Y-10229222D01*
X16801134Y-10229222D02*
X16801134Y-10333984D01*
X16801134Y-10229222D02*
X16810658Y-10210174D01*
X16810658Y-10210174D02*
X16829705Y-10200650D01*
X16829705Y-10200650D02*
X16858277Y-10200650D01*
X16858277Y-10200650D02*
X16877325Y-10210174D01*
X16877325Y-10210174D02*
X16886848Y-10229222D01*
X16886848Y-10229222D02*
X16886848Y-10333984D01*
X16982086Y-10333984D02*
X16982086Y-10200650D01*
X16982086Y-10219698D02*
X16991610Y-10210174D01*
X16991610Y-10210174D02*
X17010658Y-10200650D01*
X17010658Y-10200650D02*
X17039229Y-10200650D01*
X17039229Y-10200650D02*
X17058277Y-10210174D01*
X17058277Y-10210174D02*
X17067801Y-10229222D01*
X17067801Y-10229222D02*
X17067801Y-10333984D01*
X17067801Y-10229222D02*
X17077325Y-10210174D01*
X17077325Y-10210174D02*
X17096372Y-10200650D01*
X17096372Y-10200650D02*
X17124944Y-10200650D01*
X17124944Y-10200650D02*
X17143991Y-10210174D01*
X17143991Y-10210174D02*
X17153515Y-10229222D01*
X17153515Y-10229222D02*
X17153515Y-10333984D01*
X17543991Y-10124460D02*
X17372563Y-10381603D01*
X17801134Y-10133984D02*
X17820182Y-10133984D01*
X17820182Y-10133984D02*
X17839229Y-10143508D01*
X17839229Y-10143508D02*
X17848753Y-10153031D01*
X17848753Y-10153031D02*
X17858277Y-10172079D01*
X17858277Y-10172079D02*
X17867801Y-10210174D01*
X17867801Y-10210174D02*
X17867801Y-10257793D01*
X17867801Y-10257793D02*
X17858277Y-10295889D01*
X17858277Y-10295889D02*
X17848753Y-10314936D01*
X17848753Y-10314936D02*
X17839229Y-10324460D01*
X17839229Y-10324460D02*
X17820182Y-10333984D01*
X17820182Y-10333984D02*
X17801134Y-10333984D01*
X17801134Y-10333984D02*
X17782087Y-10324460D01*
X17782087Y-10324460D02*
X17772563Y-10314936D01*
X17772563Y-10314936D02*
X17763039Y-10295889D01*
X17763039Y-10295889D02*
X17753515Y-10257793D01*
X17753515Y-10257793D02*
X17753515Y-10210174D01*
X17753515Y-10210174D02*
X17763039Y-10172079D01*
X17763039Y-10172079D02*
X17772563Y-10153031D01*
X17772563Y-10153031D02*
X17782087Y-10143508D01*
X17782087Y-10143508D02*
X17801134Y-10133984D01*
X17953515Y-10314936D02*
X17963039Y-10324460D01*
X17963039Y-10324460D02*
X17953515Y-10333984D01*
X17953515Y-10333984D02*
X17943991Y-10324460D01*
X17943991Y-10324460D02*
X17953515Y-10314936D01*
X17953515Y-10314936D02*
X17953515Y-10333984D01*
X18086848Y-10133984D02*
X18105896Y-10133984D01*
X18105896Y-10133984D02*
X18124944Y-10143508D01*
X18124944Y-10143508D02*
X18134468Y-10153031D01*
X18134468Y-10153031D02*
X18143991Y-10172079D01*
X18143991Y-10172079D02*
X18153515Y-10210174D01*
X18153515Y-10210174D02*
X18153515Y-10257793D01*
X18153515Y-10257793D02*
X18143991Y-10295889D01*
X18143991Y-10295889D02*
X18134468Y-10314936D01*
X18134468Y-10314936D02*
X18124944Y-10324460D01*
X18124944Y-10324460D02*
X18105896Y-10333984D01*
X18105896Y-10333984D02*
X18086848Y-10333984D01*
X18086848Y-10333984D02*
X18067801Y-10324460D01*
X18067801Y-10324460D02*
X18058277Y-10314936D01*
X18058277Y-10314936D02*
X18048753Y-10295889D01*
X18048753Y-10295889D02*
X18039229Y-10257793D01*
X18039229Y-10257793D02*
X18039229Y-10210174D01*
X18039229Y-10210174D02*
X18048753Y-10172079D01*
X18048753Y-10172079D02*
X18058277Y-10153031D01*
X18058277Y-10153031D02*
X18067801Y-10143508D01*
X18067801Y-10143508D02*
X18086848Y-10133984D01*
X18343991Y-10333984D02*
X18229706Y-10333984D01*
X18286848Y-10333984D02*
X18286848Y-10133984D01*
X18286848Y-10133984D02*
X18267801Y-10162555D01*
X18267801Y-10162555D02*
X18248753Y-10181603D01*
X18248753Y-10181603D02*
X18229706Y-10191127D01*
X18534468Y-10333984D02*
X18420182Y-10333984D01*
X18477325Y-10333984D02*
X18477325Y-10133984D01*
X18477325Y-10133984D02*
X18458277Y-10162555D01*
X18458277Y-10162555D02*
X18439229Y-10181603D01*
X18439229Y-10181603D02*
X18420182Y-10191127D01*
X18648753Y-10219698D02*
X18629706Y-10210174D01*
X18629706Y-10210174D02*
X18620182Y-10200650D01*
X18620182Y-10200650D02*
X18610658Y-10181603D01*
X18610658Y-10181603D02*
X18610658Y-10172079D01*
X18610658Y-10172079D02*
X18620182Y-10153031D01*
X18620182Y-10153031D02*
X18629706Y-10143508D01*
X18629706Y-10143508D02*
X18648753Y-10133984D01*
X18648753Y-10133984D02*
X18686849Y-10133984D01*
X18686849Y-10133984D02*
X18705896Y-10143508D01*
X18705896Y-10143508D02*
X18715420Y-10153031D01*
X18715420Y-10153031D02*
X18724944Y-10172079D01*
X18724944Y-10172079D02*
X18724944Y-10181603D01*
X18724944Y-10181603D02*
X18715420Y-10200650D01*
X18715420Y-10200650D02*
X18705896Y-10210174D01*
X18705896Y-10210174D02*
X18686849Y-10219698D01*
X18686849Y-10219698D02*
X18648753Y-10219698D01*
X18648753Y-10219698D02*
X18629706Y-10229222D01*
X18629706Y-10229222D02*
X18620182Y-10238746D01*
X18620182Y-10238746D02*
X18610658Y-10257793D01*
X18610658Y-10257793D02*
X18610658Y-10295889D01*
X18610658Y-10295889D02*
X18620182Y-10314936D01*
X18620182Y-10314936D02*
X18629706Y-10324460D01*
X18629706Y-10324460D02*
X18648753Y-10333984D01*
X18648753Y-10333984D02*
X18686849Y-10333984D01*
X18686849Y-10333984D02*
X18705896Y-10324460D01*
X18705896Y-10324460D02*
X18715420Y-10314936D01*
X18715420Y-10314936D02*
X18724944Y-10295889D01*
X18724944Y-10295889D02*
X18724944Y-10257793D01*
X18724944Y-10257793D02*
X18715420Y-10238746D01*
X18715420Y-10238746D02*
X18705896Y-10229222D01*
X18705896Y-10229222D02*
X18686849Y-10219698D01*
X18801134Y-10133984D02*
X18801134Y-10172079D01*
X18877325Y-10133984D02*
X18877325Y-10172079D01*
X19172563Y-10410174D02*
X19163039Y-10400650D01*
X19163039Y-10400650D02*
X19143991Y-10372079D01*
X19143991Y-10372079D02*
X19134468Y-10353031D01*
X19134468Y-10353031D02*
X19124944Y-10324460D01*
X19124944Y-10324460D02*
X19115420Y-10276841D01*
X19115420Y-10276841D02*
X19115420Y-10238746D01*
X19115420Y-10238746D02*
X19124944Y-10191127D01*
X19124944Y-10191127D02*
X19134468Y-10162555D01*
X19134468Y-10162555D02*
X19143991Y-10143508D01*
X19143991Y-10143508D02*
X19163039Y-10114936D01*
X19163039Y-10114936D02*
X19172563Y-10105412D01*
X19343991Y-10133984D02*
X19248753Y-10133984D01*
X19248753Y-10133984D02*
X19239230Y-10229222D01*
X19239230Y-10229222D02*
X19248753Y-10219698D01*
X19248753Y-10219698D02*
X19267801Y-10210174D01*
X19267801Y-10210174D02*
X19315420Y-10210174D01*
X19315420Y-10210174D02*
X19334468Y-10219698D01*
X19334468Y-10219698D02*
X19343991Y-10229222D01*
X19343991Y-10229222D02*
X19353515Y-10248270D01*
X19353515Y-10248270D02*
X19353515Y-10295889D01*
X19353515Y-10295889D02*
X19343991Y-10314936D01*
X19343991Y-10314936D02*
X19334468Y-10324460D01*
X19334468Y-10324460D02*
X19315420Y-10333984D01*
X19315420Y-10333984D02*
X19267801Y-10333984D01*
X19267801Y-10333984D02*
X19248753Y-10324460D01*
X19248753Y-10324460D02*
X19239230Y-10314936D01*
X19534468Y-10133984D02*
X19439230Y-10133984D01*
X19439230Y-10133984D02*
X19429706Y-10229222D01*
X19429706Y-10229222D02*
X19439230Y-10219698D01*
X19439230Y-10219698D02*
X19458277Y-10210174D01*
X19458277Y-10210174D02*
X19505896Y-10210174D01*
X19505896Y-10210174D02*
X19524944Y-10219698D01*
X19524944Y-10219698D02*
X19534468Y-10229222D01*
X19534468Y-10229222D02*
X19543991Y-10248270D01*
X19543991Y-10248270D02*
X19543991Y-10295889D01*
X19543991Y-10295889D02*
X19534468Y-10314936D01*
X19534468Y-10314936D02*
X19524944Y-10324460D01*
X19524944Y-10324460D02*
X19505896Y-10333984D01*
X19505896Y-10333984D02*
X19458277Y-10333984D01*
X19458277Y-10333984D02*
X19439230Y-10324460D01*
X19439230Y-10324460D02*
X19429706Y-10314936D01*
X19782087Y-10333984D02*
X19782087Y-10133984D01*
X19867801Y-10333984D02*
X19867801Y-10229222D01*
X19867801Y-10229222D02*
X19858277Y-10210174D01*
X19858277Y-10210174D02*
X19839230Y-10200650D01*
X19839230Y-10200650D02*
X19810658Y-10200650D01*
X19810658Y-10200650D02*
X19791611Y-10210174D01*
X19791611Y-10210174D02*
X19782087Y-10219698D01*
X19991611Y-10333984D02*
X19972563Y-10324460D01*
X19972563Y-10324460D02*
X19963039Y-10314936D01*
X19963039Y-10314936D02*
X19953515Y-10295889D01*
X19953515Y-10295889D02*
X19953515Y-10238746D01*
X19953515Y-10238746D02*
X19963039Y-10219698D01*
X19963039Y-10219698D02*
X19972563Y-10210174D01*
X19972563Y-10210174D02*
X19991611Y-10200650D01*
X19991611Y-10200650D02*
X20020182Y-10200650D01*
X20020182Y-10200650D02*
X20039230Y-10210174D01*
X20039230Y-10210174D02*
X20048753Y-10219698D01*
X20048753Y-10219698D02*
X20058277Y-10238746D01*
X20058277Y-10238746D02*
X20058277Y-10295889D01*
X20058277Y-10295889D02*
X20048753Y-10314936D01*
X20048753Y-10314936D02*
X20039230Y-10324460D01*
X20039230Y-10324460D02*
X20020182Y-10333984D01*
X20020182Y-10333984D02*
X19991611Y-10333984D01*
X20172563Y-10333984D02*
X20153515Y-10324460D01*
X20153515Y-10324460D02*
X20143992Y-10305412D01*
X20143992Y-10305412D02*
X20143992Y-10133984D01*
X20324944Y-10324460D02*
X20305896Y-10333984D01*
X20305896Y-10333984D02*
X20267801Y-10333984D01*
X20267801Y-10333984D02*
X20248753Y-10324460D01*
X20248753Y-10324460D02*
X20239230Y-10305412D01*
X20239230Y-10305412D02*
X20239230Y-10229222D01*
X20239230Y-10229222D02*
X20248753Y-10210174D01*
X20248753Y-10210174D02*
X20267801Y-10200650D01*
X20267801Y-10200650D02*
X20305896Y-10200650D01*
X20305896Y-10200650D02*
X20324944Y-10210174D01*
X20324944Y-10210174D02*
X20334468Y-10229222D01*
X20334468Y-10229222D02*
X20334468Y-10248270D01*
X20334468Y-10248270D02*
X20239230Y-10267317D01*
X20410658Y-10324460D02*
X20429706Y-10333984D01*
X20429706Y-10333984D02*
X20467801Y-10333984D01*
X20467801Y-10333984D02*
X20486849Y-10324460D01*
X20486849Y-10324460D02*
X20496373Y-10305412D01*
X20496373Y-10305412D02*
X20496373Y-10295889D01*
X20496373Y-10295889D02*
X20486849Y-10276841D01*
X20486849Y-10276841D02*
X20467801Y-10267317D01*
X20467801Y-10267317D02*
X20439230Y-10267317D01*
X20439230Y-10267317D02*
X20420182Y-10257793D01*
X20420182Y-10257793D02*
X20410658Y-10238746D01*
X20410658Y-10238746D02*
X20410658Y-10229222D01*
X20410658Y-10229222D02*
X20420182Y-10210174D01*
X20420182Y-10210174D02*
X20439230Y-10200650D01*
X20439230Y-10200650D02*
X20467801Y-10200650D01*
X20467801Y-10200650D02*
X20486849Y-10210174D01*
X20563039Y-10410174D02*
X20572563Y-10400650D01*
X20572563Y-10400650D02*
X20591611Y-10372079D01*
X20591611Y-10372079D02*
X20601134Y-10353031D01*
X20601134Y-10353031D02*
X20610658Y-10324460D01*
X20610658Y-10324460D02*
X20620182Y-10276841D01*
X20620182Y-10276841D02*
X20620182Y-10238746D01*
X20620182Y-10238746D02*
X20610658Y-10191127D01*
X20610658Y-10191127D02*
X20601134Y-10162555D01*
X20601134Y-10162555D02*
X20591611Y-10143508D01*
X20591611Y-10143508D02*
X20572563Y-10114936D01*
X20572563Y-10114936D02*
X20563039Y-10105412D01*
D12*
X15597500Y-10506500D02*
G75*
G02*
X15547500Y-10506500I-25000J0D01*
G01*
X15547500Y-10506500D02*
G75*
G02*
X15597500Y-10506500I25000J0D01*
G01*
D11*
X15896372Y-10397984D02*
X15915420Y-10397984D01*
X15915420Y-10397984D02*
X15934467Y-10407508D01*
X15934467Y-10407508D02*
X15943991Y-10417031D01*
X15943991Y-10417031D02*
X15953515Y-10436079D01*
X15953515Y-10436079D02*
X15963039Y-10474174D01*
X15963039Y-10474174D02*
X15963039Y-10521793D01*
X15963039Y-10521793D02*
X15953515Y-10559889D01*
X15953515Y-10559889D02*
X15943991Y-10578936D01*
X15943991Y-10578936D02*
X15934467Y-10588460D01*
X15934467Y-10588460D02*
X15915420Y-10597984D01*
X15915420Y-10597984D02*
X15896372Y-10597984D01*
X15896372Y-10597984D02*
X15877324Y-10588460D01*
X15877324Y-10588460D02*
X15867801Y-10578936D01*
X15867801Y-10578936D02*
X15858277Y-10559889D01*
X15858277Y-10559889D02*
X15848753Y-10521793D01*
X15848753Y-10521793D02*
X15848753Y-10474174D01*
X15848753Y-10474174D02*
X15858277Y-10436079D01*
X15858277Y-10436079D02*
X15867801Y-10417031D01*
X15867801Y-10417031D02*
X15877324Y-10407508D01*
X15877324Y-10407508D02*
X15896372Y-10397984D01*
X16048753Y-10578936D02*
X16058277Y-10588460D01*
X16058277Y-10588460D02*
X16048753Y-10597984D01*
X16048753Y-10597984D02*
X16039229Y-10588460D01*
X16039229Y-10588460D02*
X16048753Y-10578936D01*
X16048753Y-10578936D02*
X16048753Y-10597984D01*
X16239229Y-10397984D02*
X16143991Y-10397984D01*
X16143991Y-10397984D02*
X16134467Y-10493222D01*
X16134467Y-10493222D02*
X16143991Y-10483698D01*
X16143991Y-10483698D02*
X16163039Y-10474174D01*
X16163039Y-10474174D02*
X16210658Y-10474174D01*
X16210658Y-10474174D02*
X16229705Y-10483698D01*
X16229705Y-10483698D02*
X16239229Y-10493222D01*
X16239229Y-10493222D02*
X16248753Y-10512270D01*
X16248753Y-10512270D02*
X16248753Y-10559889D01*
X16248753Y-10559889D02*
X16239229Y-10578936D01*
X16239229Y-10578936D02*
X16229705Y-10588460D01*
X16229705Y-10588460D02*
X16210658Y-10597984D01*
X16210658Y-10597984D02*
X16163039Y-10597984D01*
X16163039Y-10597984D02*
X16143991Y-10588460D01*
X16143991Y-10588460D02*
X16134467Y-10578936D01*
X16372562Y-10397984D02*
X16391610Y-10397984D01*
X16391610Y-10397984D02*
X16410658Y-10407508D01*
X16410658Y-10407508D02*
X16420182Y-10417031D01*
X16420182Y-10417031D02*
X16429705Y-10436079D01*
X16429705Y-10436079D02*
X16439229Y-10474174D01*
X16439229Y-10474174D02*
X16439229Y-10521793D01*
X16439229Y-10521793D02*
X16429705Y-10559889D01*
X16429705Y-10559889D02*
X16420182Y-10578936D01*
X16420182Y-10578936D02*
X16410658Y-10588460D01*
X16410658Y-10588460D02*
X16391610Y-10597984D01*
X16391610Y-10597984D02*
X16372562Y-10597984D01*
X16372562Y-10597984D02*
X16353515Y-10588460D01*
X16353515Y-10588460D02*
X16343991Y-10578936D01*
X16343991Y-10578936D02*
X16334467Y-10559889D01*
X16334467Y-10559889D02*
X16324943Y-10521793D01*
X16324943Y-10521793D02*
X16324943Y-10474174D01*
X16324943Y-10474174D02*
X16334467Y-10436079D01*
X16334467Y-10436079D02*
X16343991Y-10417031D01*
X16343991Y-10417031D02*
X16353515Y-10407508D01*
X16353515Y-10407508D02*
X16372562Y-10397984D01*
X16563039Y-10397984D02*
X16582086Y-10397984D01*
X16582086Y-10397984D02*
X16601134Y-10407508D01*
X16601134Y-10407508D02*
X16610658Y-10417031D01*
X16610658Y-10417031D02*
X16620182Y-10436079D01*
X16620182Y-10436079D02*
X16629705Y-10474174D01*
X16629705Y-10474174D02*
X16629705Y-10521793D01*
X16629705Y-10521793D02*
X16620182Y-10559889D01*
X16620182Y-10559889D02*
X16610658Y-10578936D01*
X16610658Y-10578936D02*
X16601134Y-10588460D01*
X16601134Y-10588460D02*
X16582086Y-10597984D01*
X16582086Y-10597984D02*
X16563039Y-10597984D01*
X16563039Y-10597984D02*
X16543991Y-10588460D01*
X16543991Y-10588460D02*
X16534467Y-10578936D01*
X16534467Y-10578936D02*
X16524943Y-10559889D01*
X16524943Y-10559889D02*
X16515420Y-10521793D01*
X16515420Y-10521793D02*
X16515420Y-10474174D01*
X16515420Y-10474174D02*
X16524943Y-10436079D01*
X16524943Y-10436079D02*
X16534467Y-10417031D01*
X16534467Y-10417031D02*
X16543991Y-10407508D01*
X16543991Y-10407508D02*
X16563039Y-10397984D01*
X16715420Y-10597984D02*
X16715420Y-10464650D01*
X16715420Y-10483698D02*
X16724943Y-10474174D01*
X16724943Y-10474174D02*
X16743991Y-10464650D01*
X16743991Y-10464650D02*
X16772563Y-10464650D01*
X16772563Y-10464650D02*
X16791610Y-10474174D01*
X16791610Y-10474174D02*
X16801134Y-10493222D01*
X16801134Y-10493222D02*
X16801134Y-10597984D01*
X16801134Y-10493222D02*
X16810658Y-10474174D01*
X16810658Y-10474174D02*
X16829705Y-10464650D01*
X16829705Y-10464650D02*
X16858277Y-10464650D01*
X16858277Y-10464650D02*
X16877325Y-10474174D01*
X16877325Y-10474174D02*
X16886848Y-10493222D01*
X16886848Y-10493222D02*
X16886848Y-10597984D01*
X16982086Y-10597984D02*
X16982086Y-10464650D01*
X16982086Y-10483698D02*
X16991610Y-10474174D01*
X16991610Y-10474174D02*
X17010658Y-10464650D01*
X17010658Y-10464650D02*
X17039229Y-10464650D01*
X17039229Y-10464650D02*
X17058277Y-10474174D01*
X17058277Y-10474174D02*
X17067801Y-10493222D01*
X17067801Y-10493222D02*
X17067801Y-10597984D01*
X17067801Y-10493222D02*
X17077325Y-10474174D01*
X17077325Y-10474174D02*
X17096372Y-10464650D01*
X17096372Y-10464650D02*
X17124944Y-10464650D01*
X17124944Y-10464650D02*
X17143991Y-10474174D01*
X17143991Y-10474174D02*
X17153515Y-10493222D01*
X17153515Y-10493222D02*
X17153515Y-10597984D01*
X17543991Y-10388460D02*
X17372563Y-10645603D01*
X17801134Y-10397984D02*
X17820182Y-10397984D01*
X17820182Y-10397984D02*
X17839229Y-10407508D01*
X17839229Y-10407508D02*
X17848753Y-10417031D01*
X17848753Y-10417031D02*
X17858277Y-10436079D01*
X17858277Y-10436079D02*
X17867801Y-10474174D01*
X17867801Y-10474174D02*
X17867801Y-10521793D01*
X17867801Y-10521793D02*
X17858277Y-10559889D01*
X17858277Y-10559889D02*
X17848753Y-10578936D01*
X17848753Y-10578936D02*
X17839229Y-10588460D01*
X17839229Y-10588460D02*
X17820182Y-10597984D01*
X17820182Y-10597984D02*
X17801134Y-10597984D01*
X17801134Y-10597984D02*
X17782087Y-10588460D01*
X17782087Y-10588460D02*
X17772563Y-10578936D01*
X17772563Y-10578936D02*
X17763039Y-10559889D01*
X17763039Y-10559889D02*
X17753515Y-10521793D01*
X17753515Y-10521793D02*
X17753515Y-10474174D01*
X17753515Y-10474174D02*
X17763039Y-10436079D01*
X17763039Y-10436079D02*
X17772563Y-10417031D01*
X17772563Y-10417031D02*
X17782087Y-10407508D01*
X17782087Y-10407508D02*
X17801134Y-10397984D01*
X17953515Y-10578936D02*
X17963039Y-10588460D01*
X17963039Y-10588460D02*
X17953515Y-10597984D01*
X17953515Y-10597984D02*
X17943991Y-10588460D01*
X17943991Y-10588460D02*
X17953515Y-10578936D01*
X17953515Y-10578936D02*
X17953515Y-10597984D01*
X18086848Y-10397984D02*
X18105896Y-10397984D01*
X18105896Y-10397984D02*
X18124944Y-10407508D01*
X18124944Y-10407508D02*
X18134468Y-10417031D01*
X18134468Y-10417031D02*
X18143991Y-10436079D01*
X18143991Y-10436079D02*
X18153515Y-10474174D01*
X18153515Y-10474174D02*
X18153515Y-10521793D01*
X18153515Y-10521793D02*
X18143991Y-10559889D01*
X18143991Y-10559889D02*
X18134468Y-10578936D01*
X18134468Y-10578936D02*
X18124944Y-10588460D01*
X18124944Y-10588460D02*
X18105896Y-10597984D01*
X18105896Y-10597984D02*
X18086848Y-10597984D01*
X18086848Y-10597984D02*
X18067801Y-10588460D01*
X18067801Y-10588460D02*
X18058277Y-10578936D01*
X18058277Y-10578936D02*
X18048753Y-10559889D01*
X18048753Y-10559889D02*
X18039229Y-10521793D01*
X18039229Y-10521793D02*
X18039229Y-10474174D01*
X18039229Y-10474174D02*
X18048753Y-10436079D01*
X18048753Y-10436079D02*
X18058277Y-10417031D01*
X18058277Y-10417031D02*
X18067801Y-10407508D01*
X18067801Y-10407508D02*
X18086848Y-10397984D01*
X18343991Y-10597984D02*
X18229706Y-10597984D01*
X18286848Y-10597984D02*
X18286848Y-10397984D01*
X18286848Y-10397984D02*
X18267801Y-10426555D01*
X18267801Y-10426555D02*
X18248753Y-10445603D01*
X18248753Y-10445603D02*
X18229706Y-10455127D01*
X18439229Y-10597984D02*
X18477325Y-10597984D01*
X18477325Y-10597984D02*
X18496372Y-10588460D01*
X18496372Y-10588460D02*
X18505896Y-10578936D01*
X18505896Y-10578936D02*
X18524944Y-10550365D01*
X18524944Y-10550365D02*
X18534468Y-10512270D01*
X18534468Y-10512270D02*
X18534468Y-10436079D01*
X18534468Y-10436079D02*
X18524944Y-10417031D01*
X18524944Y-10417031D02*
X18515420Y-10407508D01*
X18515420Y-10407508D02*
X18496372Y-10397984D01*
X18496372Y-10397984D02*
X18458277Y-10397984D01*
X18458277Y-10397984D02*
X18439229Y-10407508D01*
X18439229Y-10407508D02*
X18429706Y-10417031D01*
X18429706Y-10417031D02*
X18420182Y-10436079D01*
X18420182Y-10436079D02*
X18420182Y-10483698D01*
X18420182Y-10483698D02*
X18429706Y-10502746D01*
X18429706Y-10502746D02*
X18439229Y-10512270D01*
X18439229Y-10512270D02*
X18458277Y-10521793D01*
X18458277Y-10521793D02*
X18496372Y-10521793D01*
X18496372Y-10521793D02*
X18515420Y-10512270D01*
X18515420Y-10512270D02*
X18524944Y-10502746D01*
X18524944Y-10502746D02*
X18534468Y-10483698D01*
X18601134Y-10397984D02*
X18734468Y-10397984D01*
X18734468Y-10397984D02*
X18648753Y-10597984D01*
X18801134Y-10397984D02*
X18801134Y-10436079D01*
X18877325Y-10397984D02*
X18877325Y-10436079D01*
X19172563Y-10674174D02*
X19163039Y-10664650D01*
X19163039Y-10664650D02*
X19143991Y-10636079D01*
X19143991Y-10636079D02*
X19134468Y-10617031D01*
X19134468Y-10617031D02*
X19124944Y-10588460D01*
X19124944Y-10588460D02*
X19115420Y-10540841D01*
X19115420Y-10540841D02*
X19115420Y-10502746D01*
X19115420Y-10502746D02*
X19124944Y-10455127D01*
X19124944Y-10455127D02*
X19134468Y-10426555D01*
X19134468Y-10426555D02*
X19143991Y-10407508D01*
X19143991Y-10407508D02*
X19163039Y-10378936D01*
X19163039Y-10378936D02*
X19172563Y-10369412D01*
X19286849Y-10397984D02*
X19305896Y-10397984D01*
X19305896Y-10397984D02*
X19324944Y-10407508D01*
X19324944Y-10407508D02*
X19334468Y-10417031D01*
X19334468Y-10417031D02*
X19343991Y-10436079D01*
X19343991Y-10436079D02*
X19353515Y-10474174D01*
X19353515Y-10474174D02*
X19353515Y-10521793D01*
X19353515Y-10521793D02*
X19343991Y-10559889D01*
X19343991Y-10559889D02*
X19334468Y-10578936D01*
X19334468Y-10578936D02*
X19324944Y-10588460D01*
X19324944Y-10588460D02*
X19305896Y-10597984D01*
X19305896Y-10597984D02*
X19286849Y-10597984D01*
X19286849Y-10597984D02*
X19267801Y-10588460D01*
X19267801Y-10588460D02*
X19258277Y-10578936D01*
X19258277Y-10578936D02*
X19248753Y-10559889D01*
X19248753Y-10559889D02*
X19239230Y-10521793D01*
X19239230Y-10521793D02*
X19239230Y-10474174D01*
X19239230Y-10474174D02*
X19248753Y-10436079D01*
X19248753Y-10436079D02*
X19258277Y-10417031D01*
X19258277Y-10417031D02*
X19267801Y-10407508D01*
X19267801Y-10407508D02*
X19286849Y-10397984D01*
X19591611Y-10597984D02*
X19591611Y-10397984D01*
X19677325Y-10597984D02*
X19677325Y-10493222D01*
X19677325Y-10493222D02*
X19667801Y-10474174D01*
X19667801Y-10474174D02*
X19648753Y-10464650D01*
X19648753Y-10464650D02*
X19620182Y-10464650D01*
X19620182Y-10464650D02*
X19601134Y-10474174D01*
X19601134Y-10474174D02*
X19591611Y-10483698D01*
X19801134Y-10597984D02*
X19782087Y-10588460D01*
X19782087Y-10588460D02*
X19772563Y-10578936D01*
X19772563Y-10578936D02*
X19763039Y-10559889D01*
X19763039Y-10559889D02*
X19763039Y-10502746D01*
X19763039Y-10502746D02*
X19772563Y-10483698D01*
X19772563Y-10483698D02*
X19782087Y-10474174D01*
X19782087Y-10474174D02*
X19801134Y-10464650D01*
X19801134Y-10464650D02*
X19829706Y-10464650D01*
X19829706Y-10464650D02*
X19848753Y-10474174D01*
X19848753Y-10474174D02*
X19858277Y-10483698D01*
X19858277Y-10483698D02*
X19867801Y-10502746D01*
X19867801Y-10502746D02*
X19867801Y-10559889D01*
X19867801Y-10559889D02*
X19858277Y-10578936D01*
X19858277Y-10578936D02*
X19848753Y-10588460D01*
X19848753Y-10588460D02*
X19829706Y-10597984D01*
X19829706Y-10597984D02*
X19801134Y-10597984D01*
X19982087Y-10597984D02*
X19963039Y-10588460D01*
X19963039Y-10588460D02*
X19953515Y-10569412D01*
X19953515Y-10569412D02*
X19953515Y-10397984D01*
X20134468Y-10588460D02*
X20115420Y-10597984D01*
X20115420Y-10597984D02*
X20077325Y-10597984D01*
X20077325Y-10597984D02*
X20058277Y-10588460D01*
X20058277Y-10588460D02*
X20048753Y-10569412D01*
X20048753Y-10569412D02*
X20048753Y-10493222D01*
X20048753Y-10493222D02*
X20058277Y-10474174D01*
X20058277Y-10474174D02*
X20077325Y-10464650D01*
X20077325Y-10464650D02*
X20115420Y-10464650D01*
X20115420Y-10464650D02*
X20134468Y-10474174D01*
X20134468Y-10474174D02*
X20143992Y-10493222D01*
X20143992Y-10493222D02*
X20143992Y-10512270D01*
X20143992Y-10512270D02*
X20048753Y-10531317D01*
X20220182Y-10588460D02*
X20239230Y-10597984D01*
X20239230Y-10597984D02*
X20277325Y-10597984D01*
X20277325Y-10597984D02*
X20296373Y-10588460D01*
X20296373Y-10588460D02*
X20305896Y-10569412D01*
X20305896Y-10569412D02*
X20305896Y-10559889D01*
X20305896Y-10559889D02*
X20296373Y-10540841D01*
X20296373Y-10540841D02*
X20277325Y-10531317D01*
X20277325Y-10531317D02*
X20248753Y-10531317D01*
X20248753Y-10531317D02*
X20229706Y-10521793D01*
X20229706Y-10521793D02*
X20220182Y-10502746D01*
X20220182Y-10502746D02*
X20220182Y-10493222D01*
X20220182Y-10493222D02*
X20229706Y-10474174D01*
X20229706Y-10474174D02*
X20248753Y-10464650D01*
X20248753Y-10464650D02*
X20277325Y-10464650D01*
X20277325Y-10464650D02*
X20296373Y-10474174D01*
X20543992Y-10521793D02*
X20696373Y-10521793D01*
X20620182Y-10597984D02*
X20620182Y-10445603D01*
X20934468Y-10417031D02*
X20943992Y-10407508D01*
X20943992Y-10407508D02*
X20963039Y-10397984D01*
X20963039Y-10397984D02*
X21010658Y-10397984D01*
X21010658Y-10397984D02*
X21029706Y-10407508D01*
X21029706Y-10407508D02*
X21039230Y-10417031D01*
X21039230Y-10417031D02*
X21048754Y-10436079D01*
X21048754Y-10436079D02*
X21048754Y-10455127D01*
X21048754Y-10455127D02*
X21039230Y-10483698D01*
X21039230Y-10483698D02*
X20924944Y-10597984D01*
X20924944Y-10597984D02*
X21048754Y-10597984D01*
X21277325Y-10588460D02*
X21296373Y-10597984D01*
X21296373Y-10597984D02*
X21334468Y-10597984D01*
X21334468Y-10597984D02*
X21353516Y-10588460D01*
X21353516Y-10588460D02*
X21363039Y-10569412D01*
X21363039Y-10569412D02*
X21363039Y-10559889D01*
X21363039Y-10559889D02*
X21353516Y-10540841D01*
X21353516Y-10540841D02*
X21334468Y-10531317D01*
X21334468Y-10531317D02*
X21305896Y-10531317D01*
X21305896Y-10531317D02*
X21286849Y-10521793D01*
X21286849Y-10521793D02*
X21277325Y-10502746D01*
X21277325Y-10502746D02*
X21277325Y-10493222D01*
X21277325Y-10493222D02*
X21286849Y-10474174D01*
X21286849Y-10474174D02*
X21305896Y-10464650D01*
X21305896Y-10464650D02*
X21334468Y-10464650D01*
X21334468Y-10464650D02*
X21353516Y-10474174D01*
X21477325Y-10597984D02*
X21458277Y-10588460D01*
X21458277Y-10588460D02*
X21448754Y-10569412D01*
X21448754Y-10569412D02*
X21448754Y-10397984D01*
X21582087Y-10597984D02*
X21563039Y-10588460D01*
X21563039Y-10588460D02*
X21553516Y-10578936D01*
X21553516Y-10578936D02*
X21543992Y-10559889D01*
X21543992Y-10559889D02*
X21543992Y-10502746D01*
X21543992Y-10502746D02*
X21553516Y-10483698D01*
X21553516Y-10483698D02*
X21563039Y-10474174D01*
X21563039Y-10474174D02*
X21582087Y-10464650D01*
X21582087Y-10464650D02*
X21610658Y-10464650D01*
X21610658Y-10464650D02*
X21629706Y-10474174D01*
X21629706Y-10474174D02*
X21639230Y-10483698D01*
X21639230Y-10483698D02*
X21648754Y-10502746D01*
X21648754Y-10502746D02*
X21648754Y-10559889D01*
X21648754Y-10559889D02*
X21639230Y-10578936D01*
X21639230Y-10578936D02*
X21629706Y-10588460D01*
X21629706Y-10588460D02*
X21610658Y-10597984D01*
X21610658Y-10597984D02*
X21582087Y-10597984D01*
X21705897Y-10464650D02*
X21782087Y-10464650D01*
X21734468Y-10397984D02*
X21734468Y-10569412D01*
X21734468Y-10569412D02*
X21743992Y-10588460D01*
X21743992Y-10588460D02*
X21763039Y-10597984D01*
X21763039Y-10597984D02*
X21782087Y-10597984D01*
X21839230Y-10588460D02*
X21858277Y-10597984D01*
X21858277Y-10597984D02*
X21896373Y-10597984D01*
X21896373Y-10597984D02*
X21915420Y-10588460D01*
X21915420Y-10588460D02*
X21924944Y-10569412D01*
X21924944Y-10569412D02*
X21924944Y-10559889D01*
X21924944Y-10559889D02*
X21915420Y-10540841D01*
X21915420Y-10540841D02*
X21896373Y-10531317D01*
X21896373Y-10531317D02*
X21867801Y-10531317D01*
X21867801Y-10531317D02*
X21848754Y-10521793D01*
X21848754Y-10521793D02*
X21839230Y-10502746D01*
X21839230Y-10502746D02*
X21839230Y-10493222D01*
X21839230Y-10493222D02*
X21848754Y-10474174D01*
X21848754Y-10474174D02*
X21867801Y-10464650D01*
X21867801Y-10464650D02*
X21896373Y-10464650D01*
X21896373Y-10464650D02*
X21915420Y-10474174D01*
X21991611Y-10674174D02*
X22001135Y-10664650D01*
X22001135Y-10664650D02*
X22020182Y-10636079D01*
X22020182Y-10636079D02*
X22029706Y-10617031D01*
X22029706Y-10617031D02*
X22039230Y-10588460D01*
X22039230Y-10588460D02*
X22048754Y-10540841D01*
X22048754Y-10540841D02*
X22048754Y-10502746D01*
X22048754Y-10502746D02*
X22039230Y-10455127D01*
X22039230Y-10455127D02*
X22029706Y-10426555D01*
X22029706Y-10426555D02*
X22020182Y-10407508D01*
X22020182Y-10407508D02*
X22001135Y-10378936D01*
X22001135Y-10378936D02*
X21991611Y-10369412D01*
D12*
X15570000Y-10743000D02*
X15570000Y-10798000D01*
X15542500Y-10770500D02*
X15597500Y-10770500D01*
D11*
X15896372Y-10661984D02*
X15915420Y-10661984D01*
X15915420Y-10661984D02*
X15934467Y-10671508D01*
X15934467Y-10671508D02*
X15943991Y-10681031D01*
X15943991Y-10681031D02*
X15953515Y-10700079D01*
X15953515Y-10700079D02*
X15963039Y-10738174D01*
X15963039Y-10738174D02*
X15963039Y-10785793D01*
X15963039Y-10785793D02*
X15953515Y-10823889D01*
X15953515Y-10823889D02*
X15943991Y-10842936D01*
X15943991Y-10842936D02*
X15934467Y-10852460D01*
X15934467Y-10852460D02*
X15915420Y-10861984D01*
X15915420Y-10861984D02*
X15896372Y-10861984D01*
X15896372Y-10861984D02*
X15877324Y-10852460D01*
X15877324Y-10852460D02*
X15867801Y-10842936D01*
X15867801Y-10842936D02*
X15858277Y-10823889D01*
X15858277Y-10823889D02*
X15848753Y-10785793D01*
X15848753Y-10785793D02*
X15848753Y-10738174D01*
X15848753Y-10738174D02*
X15858277Y-10700079D01*
X15858277Y-10700079D02*
X15867801Y-10681031D01*
X15867801Y-10681031D02*
X15877324Y-10671508D01*
X15877324Y-10671508D02*
X15896372Y-10661984D01*
X16048753Y-10842936D02*
X16058277Y-10852460D01*
X16058277Y-10852460D02*
X16048753Y-10861984D01*
X16048753Y-10861984D02*
X16039229Y-10852460D01*
X16039229Y-10852460D02*
X16048753Y-10842936D01*
X16048753Y-10842936D02*
X16048753Y-10861984D01*
X16239229Y-10661984D02*
X16143991Y-10661984D01*
X16143991Y-10661984D02*
X16134467Y-10757222D01*
X16134467Y-10757222D02*
X16143991Y-10747698D01*
X16143991Y-10747698D02*
X16163039Y-10738174D01*
X16163039Y-10738174D02*
X16210658Y-10738174D01*
X16210658Y-10738174D02*
X16229705Y-10747698D01*
X16229705Y-10747698D02*
X16239229Y-10757222D01*
X16239229Y-10757222D02*
X16248753Y-10776270D01*
X16248753Y-10776270D02*
X16248753Y-10823889D01*
X16248753Y-10823889D02*
X16239229Y-10842936D01*
X16239229Y-10842936D02*
X16229705Y-10852460D01*
X16229705Y-10852460D02*
X16210658Y-10861984D01*
X16210658Y-10861984D02*
X16163039Y-10861984D01*
X16163039Y-10861984D02*
X16143991Y-10852460D01*
X16143991Y-10852460D02*
X16134467Y-10842936D01*
X16429705Y-10661984D02*
X16334467Y-10661984D01*
X16334467Y-10661984D02*
X16324943Y-10757222D01*
X16324943Y-10757222D02*
X16334467Y-10747698D01*
X16334467Y-10747698D02*
X16353515Y-10738174D01*
X16353515Y-10738174D02*
X16401134Y-10738174D01*
X16401134Y-10738174D02*
X16420182Y-10747698D01*
X16420182Y-10747698D02*
X16429705Y-10757222D01*
X16429705Y-10757222D02*
X16439229Y-10776270D01*
X16439229Y-10776270D02*
X16439229Y-10823889D01*
X16439229Y-10823889D02*
X16429705Y-10842936D01*
X16429705Y-10842936D02*
X16420182Y-10852460D01*
X16420182Y-10852460D02*
X16401134Y-10861984D01*
X16401134Y-10861984D02*
X16353515Y-10861984D01*
X16353515Y-10861984D02*
X16334467Y-10852460D01*
X16334467Y-10852460D02*
X16324943Y-10842936D01*
X16563039Y-10661984D02*
X16582086Y-10661984D01*
X16582086Y-10661984D02*
X16601134Y-10671508D01*
X16601134Y-10671508D02*
X16610658Y-10681031D01*
X16610658Y-10681031D02*
X16620182Y-10700079D01*
X16620182Y-10700079D02*
X16629705Y-10738174D01*
X16629705Y-10738174D02*
X16629705Y-10785793D01*
X16629705Y-10785793D02*
X16620182Y-10823889D01*
X16620182Y-10823889D02*
X16610658Y-10842936D01*
X16610658Y-10842936D02*
X16601134Y-10852460D01*
X16601134Y-10852460D02*
X16582086Y-10861984D01*
X16582086Y-10861984D02*
X16563039Y-10861984D01*
X16563039Y-10861984D02*
X16543991Y-10852460D01*
X16543991Y-10852460D02*
X16534467Y-10842936D01*
X16534467Y-10842936D02*
X16524943Y-10823889D01*
X16524943Y-10823889D02*
X16515420Y-10785793D01*
X16515420Y-10785793D02*
X16515420Y-10738174D01*
X16515420Y-10738174D02*
X16524943Y-10700079D01*
X16524943Y-10700079D02*
X16534467Y-10681031D01*
X16534467Y-10681031D02*
X16543991Y-10671508D01*
X16543991Y-10671508D02*
X16563039Y-10661984D01*
X16715420Y-10861984D02*
X16715420Y-10728650D01*
X16715420Y-10747698D02*
X16724943Y-10738174D01*
X16724943Y-10738174D02*
X16743991Y-10728650D01*
X16743991Y-10728650D02*
X16772563Y-10728650D01*
X16772563Y-10728650D02*
X16791610Y-10738174D01*
X16791610Y-10738174D02*
X16801134Y-10757222D01*
X16801134Y-10757222D02*
X16801134Y-10861984D01*
X16801134Y-10757222D02*
X16810658Y-10738174D01*
X16810658Y-10738174D02*
X16829705Y-10728650D01*
X16829705Y-10728650D02*
X16858277Y-10728650D01*
X16858277Y-10728650D02*
X16877325Y-10738174D01*
X16877325Y-10738174D02*
X16886848Y-10757222D01*
X16886848Y-10757222D02*
X16886848Y-10861984D01*
X16982086Y-10861984D02*
X16982086Y-10728650D01*
X16982086Y-10747698D02*
X16991610Y-10738174D01*
X16991610Y-10738174D02*
X17010658Y-10728650D01*
X17010658Y-10728650D02*
X17039229Y-10728650D01*
X17039229Y-10728650D02*
X17058277Y-10738174D01*
X17058277Y-10738174D02*
X17067801Y-10757222D01*
X17067801Y-10757222D02*
X17067801Y-10861984D01*
X17067801Y-10757222D02*
X17077325Y-10738174D01*
X17077325Y-10738174D02*
X17096372Y-10728650D01*
X17096372Y-10728650D02*
X17124944Y-10728650D01*
X17124944Y-10728650D02*
X17143991Y-10738174D01*
X17143991Y-10738174D02*
X17153515Y-10757222D01*
X17153515Y-10757222D02*
X17153515Y-10861984D01*
X17543991Y-10652460D02*
X17372563Y-10909603D01*
X17801134Y-10661984D02*
X17820182Y-10661984D01*
X17820182Y-10661984D02*
X17839229Y-10671508D01*
X17839229Y-10671508D02*
X17848753Y-10681031D01*
X17848753Y-10681031D02*
X17858277Y-10700079D01*
X17858277Y-10700079D02*
X17867801Y-10738174D01*
X17867801Y-10738174D02*
X17867801Y-10785793D01*
X17867801Y-10785793D02*
X17858277Y-10823889D01*
X17858277Y-10823889D02*
X17848753Y-10842936D01*
X17848753Y-10842936D02*
X17839229Y-10852460D01*
X17839229Y-10852460D02*
X17820182Y-10861984D01*
X17820182Y-10861984D02*
X17801134Y-10861984D01*
X17801134Y-10861984D02*
X17782087Y-10852460D01*
X17782087Y-10852460D02*
X17772563Y-10842936D01*
X17772563Y-10842936D02*
X17763039Y-10823889D01*
X17763039Y-10823889D02*
X17753515Y-10785793D01*
X17753515Y-10785793D02*
X17753515Y-10738174D01*
X17753515Y-10738174D02*
X17763039Y-10700079D01*
X17763039Y-10700079D02*
X17772563Y-10681031D01*
X17772563Y-10681031D02*
X17782087Y-10671508D01*
X17782087Y-10671508D02*
X17801134Y-10661984D01*
X17953515Y-10842936D02*
X17963039Y-10852460D01*
X17963039Y-10852460D02*
X17953515Y-10861984D01*
X17953515Y-10861984D02*
X17943991Y-10852460D01*
X17943991Y-10852460D02*
X17953515Y-10842936D01*
X17953515Y-10842936D02*
X17953515Y-10861984D01*
X18086848Y-10661984D02*
X18105896Y-10661984D01*
X18105896Y-10661984D02*
X18124944Y-10671508D01*
X18124944Y-10671508D02*
X18134468Y-10681031D01*
X18134468Y-10681031D02*
X18143991Y-10700079D01*
X18143991Y-10700079D02*
X18153515Y-10738174D01*
X18153515Y-10738174D02*
X18153515Y-10785793D01*
X18153515Y-10785793D02*
X18143991Y-10823889D01*
X18143991Y-10823889D02*
X18134468Y-10842936D01*
X18134468Y-10842936D02*
X18124944Y-10852460D01*
X18124944Y-10852460D02*
X18105896Y-10861984D01*
X18105896Y-10861984D02*
X18086848Y-10861984D01*
X18086848Y-10861984D02*
X18067801Y-10852460D01*
X18067801Y-10852460D02*
X18058277Y-10842936D01*
X18058277Y-10842936D02*
X18048753Y-10823889D01*
X18048753Y-10823889D02*
X18039229Y-10785793D01*
X18039229Y-10785793D02*
X18039229Y-10738174D01*
X18039229Y-10738174D02*
X18048753Y-10700079D01*
X18048753Y-10700079D02*
X18058277Y-10681031D01*
X18058277Y-10681031D02*
X18067801Y-10671508D01*
X18067801Y-10671508D02*
X18086848Y-10661984D01*
X18229706Y-10681031D02*
X18239229Y-10671508D01*
X18239229Y-10671508D02*
X18258277Y-10661984D01*
X18258277Y-10661984D02*
X18305896Y-10661984D01*
X18305896Y-10661984D02*
X18324944Y-10671508D01*
X18324944Y-10671508D02*
X18334468Y-10681031D01*
X18334468Y-10681031D02*
X18343991Y-10700079D01*
X18343991Y-10700079D02*
X18343991Y-10719127D01*
X18343991Y-10719127D02*
X18334468Y-10747698D01*
X18334468Y-10747698D02*
X18220182Y-10861984D01*
X18220182Y-10861984D02*
X18343991Y-10861984D01*
X18534468Y-10861984D02*
X18420182Y-10861984D01*
X18477325Y-10861984D02*
X18477325Y-10661984D01*
X18477325Y-10661984D02*
X18458277Y-10690555D01*
X18458277Y-10690555D02*
X18439229Y-10709603D01*
X18439229Y-10709603D02*
X18420182Y-10719127D01*
X18601134Y-10661984D02*
X18734468Y-10661984D01*
X18734468Y-10661984D02*
X18648753Y-10861984D01*
X18801134Y-10661984D02*
X18801134Y-10700079D01*
X18877325Y-10661984D02*
X18877325Y-10700079D01*
X19172563Y-10938174D02*
X19163039Y-10928650D01*
X19163039Y-10928650D02*
X19143991Y-10900079D01*
X19143991Y-10900079D02*
X19134468Y-10881031D01*
X19134468Y-10881031D02*
X19124944Y-10852460D01*
X19124944Y-10852460D02*
X19115420Y-10804841D01*
X19115420Y-10804841D02*
X19115420Y-10766746D01*
X19115420Y-10766746D02*
X19124944Y-10719127D01*
X19124944Y-10719127D02*
X19134468Y-10690555D01*
X19134468Y-10690555D02*
X19143991Y-10671508D01*
X19143991Y-10671508D02*
X19163039Y-10642936D01*
X19163039Y-10642936D02*
X19172563Y-10633412D01*
X19286849Y-10661984D02*
X19305896Y-10661984D01*
X19305896Y-10661984D02*
X19324944Y-10671508D01*
X19324944Y-10671508D02*
X19334468Y-10681031D01*
X19334468Y-10681031D02*
X19343991Y-10700079D01*
X19343991Y-10700079D02*
X19353515Y-10738174D01*
X19353515Y-10738174D02*
X19353515Y-10785793D01*
X19353515Y-10785793D02*
X19343991Y-10823889D01*
X19343991Y-10823889D02*
X19334468Y-10842936D01*
X19334468Y-10842936D02*
X19324944Y-10852460D01*
X19324944Y-10852460D02*
X19305896Y-10861984D01*
X19305896Y-10861984D02*
X19286849Y-10861984D01*
X19286849Y-10861984D02*
X19267801Y-10852460D01*
X19267801Y-10852460D02*
X19258277Y-10842936D01*
X19258277Y-10842936D02*
X19248753Y-10823889D01*
X19248753Y-10823889D02*
X19239230Y-10785793D01*
X19239230Y-10785793D02*
X19239230Y-10738174D01*
X19239230Y-10738174D02*
X19248753Y-10700079D01*
X19248753Y-10700079D02*
X19258277Y-10681031D01*
X19258277Y-10681031D02*
X19267801Y-10671508D01*
X19267801Y-10671508D02*
X19286849Y-10661984D01*
X19591611Y-10861984D02*
X19591611Y-10661984D01*
X19677325Y-10861984D02*
X19677325Y-10757222D01*
X19677325Y-10757222D02*
X19667801Y-10738174D01*
X19667801Y-10738174D02*
X19648753Y-10728650D01*
X19648753Y-10728650D02*
X19620182Y-10728650D01*
X19620182Y-10728650D02*
X19601134Y-10738174D01*
X19601134Y-10738174D02*
X19591611Y-10747698D01*
X19801134Y-10861984D02*
X19782087Y-10852460D01*
X19782087Y-10852460D02*
X19772563Y-10842936D01*
X19772563Y-10842936D02*
X19763039Y-10823889D01*
X19763039Y-10823889D02*
X19763039Y-10766746D01*
X19763039Y-10766746D02*
X19772563Y-10747698D01*
X19772563Y-10747698D02*
X19782087Y-10738174D01*
X19782087Y-10738174D02*
X19801134Y-10728650D01*
X19801134Y-10728650D02*
X19829706Y-10728650D01*
X19829706Y-10728650D02*
X19848753Y-10738174D01*
X19848753Y-10738174D02*
X19858277Y-10747698D01*
X19858277Y-10747698D02*
X19867801Y-10766746D01*
X19867801Y-10766746D02*
X19867801Y-10823889D01*
X19867801Y-10823889D02*
X19858277Y-10842936D01*
X19858277Y-10842936D02*
X19848753Y-10852460D01*
X19848753Y-10852460D02*
X19829706Y-10861984D01*
X19829706Y-10861984D02*
X19801134Y-10861984D01*
X19982087Y-10861984D02*
X19963039Y-10852460D01*
X19963039Y-10852460D02*
X19953515Y-10833412D01*
X19953515Y-10833412D02*
X19953515Y-10661984D01*
X20134468Y-10852460D02*
X20115420Y-10861984D01*
X20115420Y-10861984D02*
X20077325Y-10861984D01*
X20077325Y-10861984D02*
X20058277Y-10852460D01*
X20058277Y-10852460D02*
X20048753Y-10833412D01*
X20048753Y-10833412D02*
X20048753Y-10757222D01*
X20048753Y-10757222D02*
X20058277Y-10738174D01*
X20058277Y-10738174D02*
X20077325Y-10728650D01*
X20077325Y-10728650D02*
X20115420Y-10728650D01*
X20115420Y-10728650D02*
X20134468Y-10738174D01*
X20134468Y-10738174D02*
X20143992Y-10757222D01*
X20143992Y-10757222D02*
X20143992Y-10776270D01*
X20143992Y-10776270D02*
X20048753Y-10795317D01*
X20220182Y-10852460D02*
X20239230Y-10861984D01*
X20239230Y-10861984D02*
X20277325Y-10861984D01*
X20277325Y-10861984D02*
X20296373Y-10852460D01*
X20296373Y-10852460D02*
X20305896Y-10833412D01*
X20305896Y-10833412D02*
X20305896Y-10823889D01*
X20305896Y-10823889D02*
X20296373Y-10804841D01*
X20296373Y-10804841D02*
X20277325Y-10795317D01*
X20277325Y-10795317D02*
X20248753Y-10795317D01*
X20248753Y-10795317D02*
X20229706Y-10785793D01*
X20229706Y-10785793D02*
X20220182Y-10766746D01*
X20220182Y-10766746D02*
X20220182Y-10757222D01*
X20220182Y-10757222D02*
X20229706Y-10738174D01*
X20229706Y-10738174D02*
X20248753Y-10728650D01*
X20248753Y-10728650D02*
X20277325Y-10728650D01*
X20277325Y-10728650D02*
X20296373Y-10738174D01*
X20543992Y-10785793D02*
X20696373Y-10785793D01*
X20620182Y-10861984D02*
X20620182Y-10709603D01*
X20934468Y-10681031D02*
X20943992Y-10671508D01*
X20943992Y-10671508D02*
X20963039Y-10661984D01*
X20963039Y-10661984D02*
X21010658Y-10661984D01*
X21010658Y-10661984D02*
X21029706Y-10671508D01*
X21029706Y-10671508D02*
X21039230Y-10681031D01*
X21039230Y-10681031D02*
X21048754Y-10700079D01*
X21048754Y-10700079D02*
X21048754Y-10719127D01*
X21048754Y-10719127D02*
X21039230Y-10747698D01*
X21039230Y-10747698D02*
X20924944Y-10861984D01*
X20924944Y-10861984D02*
X21048754Y-10861984D01*
X21277325Y-10852460D02*
X21296373Y-10861984D01*
X21296373Y-10861984D02*
X21334468Y-10861984D01*
X21334468Y-10861984D02*
X21353516Y-10852460D01*
X21353516Y-10852460D02*
X21363039Y-10833412D01*
X21363039Y-10833412D02*
X21363039Y-10823889D01*
X21363039Y-10823889D02*
X21353516Y-10804841D01*
X21353516Y-10804841D02*
X21334468Y-10795317D01*
X21334468Y-10795317D02*
X21305896Y-10795317D01*
X21305896Y-10795317D02*
X21286849Y-10785793D01*
X21286849Y-10785793D02*
X21277325Y-10766746D01*
X21277325Y-10766746D02*
X21277325Y-10757222D01*
X21277325Y-10757222D02*
X21286849Y-10738174D01*
X21286849Y-10738174D02*
X21305896Y-10728650D01*
X21305896Y-10728650D02*
X21334468Y-10728650D01*
X21334468Y-10728650D02*
X21353516Y-10738174D01*
X21477325Y-10861984D02*
X21458277Y-10852460D01*
X21458277Y-10852460D02*
X21448754Y-10833412D01*
X21448754Y-10833412D02*
X21448754Y-10661984D01*
X21582087Y-10861984D02*
X21563039Y-10852460D01*
X21563039Y-10852460D02*
X21553516Y-10842936D01*
X21553516Y-10842936D02*
X21543992Y-10823889D01*
X21543992Y-10823889D02*
X21543992Y-10766746D01*
X21543992Y-10766746D02*
X21553516Y-10747698D01*
X21553516Y-10747698D02*
X21563039Y-10738174D01*
X21563039Y-10738174D02*
X21582087Y-10728650D01*
X21582087Y-10728650D02*
X21610658Y-10728650D01*
X21610658Y-10728650D02*
X21629706Y-10738174D01*
X21629706Y-10738174D02*
X21639230Y-10747698D01*
X21639230Y-10747698D02*
X21648754Y-10766746D01*
X21648754Y-10766746D02*
X21648754Y-10823889D01*
X21648754Y-10823889D02*
X21639230Y-10842936D01*
X21639230Y-10842936D02*
X21629706Y-10852460D01*
X21629706Y-10852460D02*
X21610658Y-10861984D01*
X21610658Y-10861984D02*
X21582087Y-10861984D01*
X21705897Y-10728650D02*
X21782087Y-10728650D01*
X21734468Y-10661984D02*
X21734468Y-10833412D01*
X21734468Y-10833412D02*
X21743992Y-10852460D01*
X21743992Y-10852460D02*
X21763039Y-10861984D01*
X21763039Y-10861984D02*
X21782087Y-10861984D01*
X21839230Y-10852460D02*
X21858277Y-10861984D01*
X21858277Y-10861984D02*
X21896373Y-10861984D01*
X21896373Y-10861984D02*
X21915420Y-10852460D01*
X21915420Y-10852460D02*
X21924944Y-10833412D01*
X21924944Y-10833412D02*
X21924944Y-10823889D01*
X21924944Y-10823889D02*
X21915420Y-10804841D01*
X21915420Y-10804841D02*
X21896373Y-10795317D01*
X21896373Y-10795317D02*
X21867801Y-10795317D01*
X21867801Y-10795317D02*
X21848754Y-10785793D01*
X21848754Y-10785793D02*
X21839230Y-10766746D01*
X21839230Y-10766746D02*
X21839230Y-10757222D01*
X21839230Y-10757222D02*
X21848754Y-10738174D01*
X21848754Y-10738174D02*
X21867801Y-10728650D01*
X21867801Y-10728650D02*
X21896373Y-10728650D01*
X21896373Y-10728650D02*
X21915420Y-10738174D01*
X21991611Y-10938174D02*
X22001135Y-10928650D01*
X22001135Y-10928650D02*
X22020182Y-10900079D01*
X22020182Y-10900079D02*
X22029706Y-10881031D01*
X22029706Y-10881031D02*
X22039230Y-10852460D01*
X22039230Y-10852460D02*
X22048754Y-10804841D01*
X22048754Y-10804841D02*
X22048754Y-10766746D01*
X22048754Y-10766746D02*
X22039230Y-10719127D01*
X22039230Y-10719127D02*
X22029706Y-10690555D01*
X22029706Y-10690555D02*
X22020182Y-10671508D01*
X22020182Y-10671508D02*
X22001135Y-10642936D01*
X22001135Y-10642936D02*
X21991611Y-10633412D01*
D12*
X15587249Y-11059249D02*
X15587249Y-11009751D01*
X15537751Y-11009751D01*
X15537751Y-11059249D01*
X15587249Y-11059249D01*
D11*
X15896372Y-10925984D02*
X15915420Y-10925984D01*
X15915420Y-10925984D02*
X15934467Y-10935508D01*
X15934467Y-10935508D02*
X15943991Y-10945031D01*
X15943991Y-10945031D02*
X15953515Y-10964079D01*
X15953515Y-10964079D02*
X15963039Y-11002174D01*
X15963039Y-11002174D02*
X15963039Y-11049793D01*
X15963039Y-11049793D02*
X15953515Y-11087889D01*
X15953515Y-11087889D02*
X15943991Y-11106936D01*
X15943991Y-11106936D02*
X15934467Y-11116460D01*
X15934467Y-11116460D02*
X15915420Y-11125984D01*
X15915420Y-11125984D02*
X15896372Y-11125984D01*
X15896372Y-11125984D02*
X15877324Y-11116460D01*
X15877324Y-11116460D02*
X15867801Y-11106936D01*
X15867801Y-11106936D02*
X15858277Y-11087889D01*
X15858277Y-11087889D02*
X15848753Y-11049793D01*
X15848753Y-11049793D02*
X15848753Y-11002174D01*
X15848753Y-11002174D02*
X15858277Y-10964079D01*
X15858277Y-10964079D02*
X15867801Y-10945031D01*
X15867801Y-10945031D02*
X15877324Y-10935508D01*
X15877324Y-10935508D02*
X15896372Y-10925984D01*
X16048753Y-11106936D02*
X16058277Y-11116460D01*
X16058277Y-11116460D02*
X16048753Y-11125984D01*
X16048753Y-11125984D02*
X16039229Y-11116460D01*
X16039229Y-11116460D02*
X16048753Y-11106936D01*
X16048753Y-11106936D02*
X16048753Y-11125984D01*
X16124943Y-10925984D02*
X16258277Y-10925984D01*
X16258277Y-10925984D02*
X16172562Y-11125984D01*
X16372562Y-10925984D02*
X16391610Y-10925984D01*
X16391610Y-10925984D02*
X16410658Y-10935508D01*
X16410658Y-10935508D02*
X16420182Y-10945031D01*
X16420182Y-10945031D02*
X16429705Y-10964079D01*
X16429705Y-10964079D02*
X16439229Y-11002174D01*
X16439229Y-11002174D02*
X16439229Y-11049793D01*
X16439229Y-11049793D02*
X16429705Y-11087889D01*
X16429705Y-11087889D02*
X16420182Y-11106936D01*
X16420182Y-11106936D02*
X16410658Y-11116460D01*
X16410658Y-11116460D02*
X16391610Y-11125984D01*
X16391610Y-11125984D02*
X16372562Y-11125984D01*
X16372562Y-11125984D02*
X16353515Y-11116460D01*
X16353515Y-11116460D02*
X16343991Y-11106936D01*
X16343991Y-11106936D02*
X16334467Y-11087889D01*
X16334467Y-11087889D02*
X16324943Y-11049793D01*
X16324943Y-11049793D02*
X16324943Y-11002174D01*
X16324943Y-11002174D02*
X16334467Y-10964079D01*
X16334467Y-10964079D02*
X16343991Y-10945031D01*
X16343991Y-10945031D02*
X16353515Y-10935508D01*
X16353515Y-10935508D02*
X16372562Y-10925984D01*
X16563039Y-10925984D02*
X16582086Y-10925984D01*
X16582086Y-10925984D02*
X16601134Y-10935508D01*
X16601134Y-10935508D02*
X16610658Y-10945031D01*
X16610658Y-10945031D02*
X16620182Y-10964079D01*
X16620182Y-10964079D02*
X16629705Y-11002174D01*
X16629705Y-11002174D02*
X16629705Y-11049793D01*
X16629705Y-11049793D02*
X16620182Y-11087889D01*
X16620182Y-11087889D02*
X16610658Y-11106936D01*
X16610658Y-11106936D02*
X16601134Y-11116460D01*
X16601134Y-11116460D02*
X16582086Y-11125984D01*
X16582086Y-11125984D02*
X16563039Y-11125984D01*
X16563039Y-11125984D02*
X16543991Y-11116460D01*
X16543991Y-11116460D02*
X16534467Y-11106936D01*
X16534467Y-11106936D02*
X16524943Y-11087889D01*
X16524943Y-11087889D02*
X16515420Y-11049793D01*
X16515420Y-11049793D02*
X16515420Y-11002174D01*
X16515420Y-11002174D02*
X16524943Y-10964079D01*
X16524943Y-10964079D02*
X16534467Y-10945031D01*
X16534467Y-10945031D02*
X16543991Y-10935508D01*
X16543991Y-10935508D02*
X16563039Y-10925984D01*
X16715420Y-11125984D02*
X16715420Y-10992650D01*
X16715420Y-11011698D02*
X16724943Y-11002174D01*
X16724943Y-11002174D02*
X16743991Y-10992650D01*
X16743991Y-10992650D02*
X16772563Y-10992650D01*
X16772563Y-10992650D02*
X16791610Y-11002174D01*
X16791610Y-11002174D02*
X16801134Y-11021222D01*
X16801134Y-11021222D02*
X16801134Y-11125984D01*
X16801134Y-11021222D02*
X16810658Y-11002174D01*
X16810658Y-11002174D02*
X16829705Y-10992650D01*
X16829705Y-10992650D02*
X16858277Y-10992650D01*
X16858277Y-10992650D02*
X16877325Y-11002174D01*
X16877325Y-11002174D02*
X16886848Y-11021222D01*
X16886848Y-11021222D02*
X16886848Y-11125984D01*
X16982086Y-11125984D02*
X16982086Y-10992650D01*
X16982086Y-11011698D02*
X16991610Y-11002174D01*
X16991610Y-11002174D02*
X17010658Y-10992650D01*
X17010658Y-10992650D02*
X17039229Y-10992650D01*
X17039229Y-10992650D02*
X17058277Y-11002174D01*
X17058277Y-11002174D02*
X17067801Y-11021222D01*
X17067801Y-11021222D02*
X17067801Y-11125984D01*
X17067801Y-11021222D02*
X17077325Y-11002174D01*
X17077325Y-11002174D02*
X17096372Y-10992650D01*
X17096372Y-10992650D02*
X17124944Y-10992650D01*
X17124944Y-10992650D02*
X17143991Y-11002174D01*
X17143991Y-11002174D02*
X17153515Y-11021222D01*
X17153515Y-11021222D02*
X17153515Y-11125984D01*
X17543991Y-10916460D02*
X17372563Y-11173603D01*
X17801134Y-10925984D02*
X17820182Y-10925984D01*
X17820182Y-10925984D02*
X17839229Y-10935508D01*
X17839229Y-10935508D02*
X17848753Y-10945031D01*
X17848753Y-10945031D02*
X17858277Y-10964079D01*
X17858277Y-10964079D02*
X17867801Y-11002174D01*
X17867801Y-11002174D02*
X17867801Y-11049793D01*
X17867801Y-11049793D02*
X17858277Y-11087889D01*
X17858277Y-11087889D02*
X17848753Y-11106936D01*
X17848753Y-11106936D02*
X17839229Y-11116460D01*
X17839229Y-11116460D02*
X17820182Y-11125984D01*
X17820182Y-11125984D02*
X17801134Y-11125984D01*
X17801134Y-11125984D02*
X17782087Y-11116460D01*
X17782087Y-11116460D02*
X17772563Y-11106936D01*
X17772563Y-11106936D02*
X17763039Y-11087889D01*
X17763039Y-11087889D02*
X17753515Y-11049793D01*
X17753515Y-11049793D02*
X17753515Y-11002174D01*
X17753515Y-11002174D02*
X17763039Y-10964079D01*
X17763039Y-10964079D02*
X17772563Y-10945031D01*
X17772563Y-10945031D02*
X17782087Y-10935508D01*
X17782087Y-10935508D02*
X17801134Y-10925984D01*
X17953515Y-11106936D02*
X17963039Y-11116460D01*
X17963039Y-11116460D02*
X17953515Y-11125984D01*
X17953515Y-11125984D02*
X17943991Y-11116460D01*
X17943991Y-11116460D02*
X17953515Y-11106936D01*
X17953515Y-11106936D02*
X17953515Y-11125984D01*
X18086848Y-10925984D02*
X18105896Y-10925984D01*
X18105896Y-10925984D02*
X18124944Y-10935508D01*
X18124944Y-10935508D02*
X18134468Y-10945031D01*
X18134468Y-10945031D02*
X18143991Y-10964079D01*
X18143991Y-10964079D02*
X18153515Y-11002174D01*
X18153515Y-11002174D02*
X18153515Y-11049793D01*
X18153515Y-11049793D02*
X18143991Y-11087889D01*
X18143991Y-11087889D02*
X18134468Y-11106936D01*
X18134468Y-11106936D02*
X18124944Y-11116460D01*
X18124944Y-11116460D02*
X18105896Y-11125984D01*
X18105896Y-11125984D02*
X18086848Y-11125984D01*
X18086848Y-11125984D02*
X18067801Y-11116460D01*
X18067801Y-11116460D02*
X18058277Y-11106936D01*
X18058277Y-11106936D02*
X18048753Y-11087889D01*
X18048753Y-11087889D02*
X18039229Y-11049793D01*
X18039229Y-11049793D02*
X18039229Y-11002174D01*
X18039229Y-11002174D02*
X18048753Y-10964079D01*
X18048753Y-10964079D02*
X18058277Y-10945031D01*
X18058277Y-10945031D02*
X18067801Y-10935508D01*
X18067801Y-10935508D02*
X18086848Y-10925984D01*
X18229706Y-10945031D02*
X18239229Y-10935508D01*
X18239229Y-10935508D02*
X18258277Y-10925984D01*
X18258277Y-10925984D02*
X18305896Y-10925984D01*
X18305896Y-10925984D02*
X18324944Y-10935508D01*
X18324944Y-10935508D02*
X18334468Y-10945031D01*
X18334468Y-10945031D02*
X18343991Y-10964079D01*
X18343991Y-10964079D02*
X18343991Y-10983127D01*
X18343991Y-10983127D02*
X18334468Y-11011698D01*
X18334468Y-11011698D02*
X18220182Y-11125984D01*
X18220182Y-11125984D02*
X18343991Y-11125984D01*
X18410658Y-10925984D02*
X18543991Y-10925984D01*
X18543991Y-10925984D02*
X18458277Y-11125984D01*
X18705896Y-10925984D02*
X18667801Y-10925984D01*
X18667801Y-10925984D02*
X18648753Y-10935508D01*
X18648753Y-10935508D02*
X18639229Y-10945031D01*
X18639229Y-10945031D02*
X18620182Y-10973603D01*
X18620182Y-10973603D02*
X18610658Y-11011698D01*
X18610658Y-11011698D02*
X18610658Y-11087889D01*
X18610658Y-11087889D02*
X18620182Y-11106936D01*
X18620182Y-11106936D02*
X18629706Y-11116460D01*
X18629706Y-11116460D02*
X18648753Y-11125984D01*
X18648753Y-11125984D02*
X18686849Y-11125984D01*
X18686849Y-11125984D02*
X18705896Y-11116460D01*
X18705896Y-11116460D02*
X18715420Y-11106936D01*
X18715420Y-11106936D02*
X18724944Y-11087889D01*
X18724944Y-11087889D02*
X18724944Y-11040270D01*
X18724944Y-11040270D02*
X18715420Y-11021222D01*
X18715420Y-11021222D02*
X18705896Y-11011698D01*
X18705896Y-11011698D02*
X18686849Y-11002174D01*
X18686849Y-11002174D02*
X18648753Y-11002174D01*
X18648753Y-11002174D02*
X18629706Y-11011698D01*
X18629706Y-11011698D02*
X18620182Y-11021222D01*
X18620182Y-11021222D02*
X18610658Y-11040270D01*
X18801134Y-10925984D02*
X18801134Y-10964079D01*
X18877325Y-10925984D02*
X18877325Y-10964079D01*
X19172563Y-11202174D02*
X19163039Y-11192650D01*
X19163039Y-11192650D02*
X19143991Y-11164079D01*
X19143991Y-11164079D02*
X19134468Y-11145031D01*
X19134468Y-11145031D02*
X19124944Y-11116460D01*
X19124944Y-11116460D02*
X19115420Y-11068841D01*
X19115420Y-11068841D02*
X19115420Y-11030746D01*
X19115420Y-11030746D02*
X19124944Y-10983127D01*
X19124944Y-10983127D02*
X19134468Y-10954555D01*
X19134468Y-10954555D02*
X19143991Y-10935508D01*
X19143991Y-10935508D02*
X19163039Y-10906936D01*
X19163039Y-10906936D02*
X19172563Y-10897412D01*
X19229706Y-10925984D02*
X19353515Y-10925984D01*
X19353515Y-10925984D02*
X19286849Y-11002174D01*
X19286849Y-11002174D02*
X19315420Y-11002174D01*
X19315420Y-11002174D02*
X19334468Y-11011698D01*
X19334468Y-11011698D02*
X19343991Y-11021222D01*
X19343991Y-11021222D02*
X19353515Y-11040270D01*
X19353515Y-11040270D02*
X19353515Y-11087889D01*
X19353515Y-11087889D02*
X19343991Y-11106936D01*
X19343991Y-11106936D02*
X19334468Y-11116460D01*
X19334468Y-11116460D02*
X19315420Y-11125984D01*
X19315420Y-11125984D02*
X19258277Y-11125984D01*
X19258277Y-11125984D02*
X19239230Y-11116460D01*
X19239230Y-11116460D02*
X19229706Y-11106936D01*
X19591611Y-11125984D02*
X19591611Y-10925984D01*
X19677325Y-11125984D02*
X19677325Y-11021222D01*
X19677325Y-11021222D02*
X19667801Y-11002174D01*
X19667801Y-11002174D02*
X19648753Y-10992650D01*
X19648753Y-10992650D02*
X19620182Y-10992650D01*
X19620182Y-10992650D02*
X19601134Y-11002174D01*
X19601134Y-11002174D02*
X19591611Y-11011698D01*
X19801134Y-11125984D02*
X19782087Y-11116460D01*
X19782087Y-11116460D02*
X19772563Y-11106936D01*
X19772563Y-11106936D02*
X19763039Y-11087889D01*
X19763039Y-11087889D02*
X19763039Y-11030746D01*
X19763039Y-11030746D02*
X19772563Y-11011698D01*
X19772563Y-11011698D02*
X19782087Y-11002174D01*
X19782087Y-11002174D02*
X19801134Y-10992650D01*
X19801134Y-10992650D02*
X19829706Y-10992650D01*
X19829706Y-10992650D02*
X19848753Y-11002174D01*
X19848753Y-11002174D02*
X19858277Y-11011698D01*
X19858277Y-11011698D02*
X19867801Y-11030746D01*
X19867801Y-11030746D02*
X19867801Y-11087889D01*
X19867801Y-11087889D02*
X19858277Y-11106936D01*
X19858277Y-11106936D02*
X19848753Y-11116460D01*
X19848753Y-11116460D02*
X19829706Y-11125984D01*
X19829706Y-11125984D02*
X19801134Y-11125984D01*
X19982087Y-11125984D02*
X19963039Y-11116460D01*
X19963039Y-11116460D02*
X19953515Y-11097412D01*
X19953515Y-11097412D02*
X19953515Y-10925984D01*
X20134468Y-11116460D02*
X20115420Y-11125984D01*
X20115420Y-11125984D02*
X20077325Y-11125984D01*
X20077325Y-11125984D02*
X20058277Y-11116460D01*
X20058277Y-11116460D02*
X20048753Y-11097412D01*
X20048753Y-11097412D02*
X20048753Y-11021222D01*
X20048753Y-11021222D02*
X20058277Y-11002174D01*
X20058277Y-11002174D02*
X20077325Y-10992650D01*
X20077325Y-10992650D02*
X20115420Y-10992650D01*
X20115420Y-10992650D02*
X20134468Y-11002174D01*
X20134468Y-11002174D02*
X20143992Y-11021222D01*
X20143992Y-11021222D02*
X20143992Y-11040270D01*
X20143992Y-11040270D02*
X20048753Y-11059317D01*
X20220182Y-11116460D02*
X20239230Y-11125984D01*
X20239230Y-11125984D02*
X20277325Y-11125984D01*
X20277325Y-11125984D02*
X20296373Y-11116460D01*
X20296373Y-11116460D02*
X20305896Y-11097412D01*
X20305896Y-11097412D02*
X20305896Y-11087889D01*
X20305896Y-11087889D02*
X20296373Y-11068841D01*
X20296373Y-11068841D02*
X20277325Y-11059317D01*
X20277325Y-11059317D02*
X20248753Y-11059317D01*
X20248753Y-11059317D02*
X20229706Y-11049793D01*
X20229706Y-11049793D02*
X20220182Y-11030746D01*
X20220182Y-11030746D02*
X20220182Y-11021222D01*
X20220182Y-11021222D02*
X20229706Y-11002174D01*
X20229706Y-11002174D02*
X20248753Y-10992650D01*
X20248753Y-10992650D02*
X20277325Y-10992650D01*
X20277325Y-10992650D02*
X20296373Y-11002174D01*
X20372563Y-11202174D02*
X20382087Y-11192650D01*
X20382087Y-11192650D02*
X20401134Y-11164079D01*
X20401134Y-11164079D02*
X20410658Y-11145031D01*
X20410658Y-11145031D02*
X20420182Y-11116460D01*
X20420182Y-11116460D02*
X20429706Y-11068841D01*
X20429706Y-11068841D02*
X20429706Y-11030746D01*
X20429706Y-11030746D02*
X20420182Y-10983127D01*
X20420182Y-10983127D02*
X20410658Y-10954555D01*
X20410658Y-10954555D02*
X20401134Y-10935508D01*
X20401134Y-10935508D02*
X20382087Y-10906936D01*
X20382087Y-10906936D02*
X20372563Y-10897412D01*
D12*
X15560000Y-11336000D02*
X15597500Y-11298500D01*
X15560000Y-11261000D01*
X15522500Y-11298500D01*
X15560000Y-11336000D01*
D11*
X15896372Y-11189984D02*
X15915420Y-11189984D01*
X15915420Y-11189984D02*
X15934467Y-11199508D01*
X15934467Y-11199508D02*
X15943991Y-11209031D01*
X15943991Y-11209031D02*
X15953515Y-11228079D01*
X15953515Y-11228079D02*
X15963039Y-11266174D01*
X15963039Y-11266174D02*
X15963039Y-11313793D01*
X15963039Y-11313793D02*
X15953515Y-11351888D01*
X15953515Y-11351888D02*
X15943991Y-11370936D01*
X15943991Y-11370936D02*
X15934467Y-11380460D01*
X15934467Y-11380460D02*
X15915420Y-11389984D01*
X15915420Y-11389984D02*
X15896372Y-11389984D01*
X15896372Y-11389984D02*
X15877324Y-11380460D01*
X15877324Y-11380460D02*
X15867801Y-11370936D01*
X15867801Y-11370936D02*
X15858277Y-11351888D01*
X15858277Y-11351888D02*
X15848753Y-11313793D01*
X15848753Y-11313793D02*
X15848753Y-11266174D01*
X15848753Y-11266174D02*
X15858277Y-11228079D01*
X15858277Y-11228079D02*
X15867801Y-11209031D01*
X15867801Y-11209031D02*
X15877324Y-11199508D01*
X15877324Y-11199508D02*
X15896372Y-11189984D01*
X16048753Y-11370936D02*
X16058277Y-11380460D01*
X16058277Y-11380460D02*
X16048753Y-11389984D01*
X16048753Y-11389984D02*
X16039229Y-11380460D01*
X16039229Y-11380460D02*
X16048753Y-11370936D01*
X16048753Y-11370936D02*
X16048753Y-11389984D01*
X16124943Y-11189984D02*
X16258277Y-11189984D01*
X16258277Y-11189984D02*
X16172562Y-11389984D01*
X16429705Y-11189984D02*
X16334467Y-11189984D01*
X16334467Y-11189984D02*
X16324943Y-11285222D01*
X16324943Y-11285222D02*
X16334467Y-11275698D01*
X16334467Y-11275698D02*
X16353515Y-11266174D01*
X16353515Y-11266174D02*
X16401134Y-11266174D01*
X16401134Y-11266174D02*
X16420182Y-11275698D01*
X16420182Y-11275698D02*
X16429705Y-11285222D01*
X16429705Y-11285222D02*
X16439229Y-11304269D01*
X16439229Y-11304269D02*
X16439229Y-11351888D01*
X16439229Y-11351888D02*
X16429705Y-11370936D01*
X16429705Y-11370936D02*
X16420182Y-11380460D01*
X16420182Y-11380460D02*
X16401134Y-11389984D01*
X16401134Y-11389984D02*
X16353515Y-11389984D01*
X16353515Y-11389984D02*
X16334467Y-11380460D01*
X16334467Y-11380460D02*
X16324943Y-11370936D01*
X16563039Y-11189984D02*
X16582086Y-11189984D01*
X16582086Y-11189984D02*
X16601134Y-11199508D01*
X16601134Y-11199508D02*
X16610658Y-11209031D01*
X16610658Y-11209031D02*
X16620182Y-11228079D01*
X16620182Y-11228079D02*
X16629705Y-11266174D01*
X16629705Y-11266174D02*
X16629705Y-11313793D01*
X16629705Y-11313793D02*
X16620182Y-11351888D01*
X16620182Y-11351888D02*
X16610658Y-11370936D01*
X16610658Y-11370936D02*
X16601134Y-11380460D01*
X16601134Y-11380460D02*
X16582086Y-11389984D01*
X16582086Y-11389984D02*
X16563039Y-11389984D01*
X16563039Y-11389984D02*
X16543991Y-11380460D01*
X16543991Y-11380460D02*
X16534467Y-11370936D01*
X16534467Y-11370936D02*
X16524943Y-11351888D01*
X16524943Y-11351888D02*
X16515420Y-11313793D01*
X16515420Y-11313793D02*
X16515420Y-11266174D01*
X16515420Y-11266174D02*
X16524943Y-11228079D01*
X16524943Y-11228079D02*
X16534467Y-11209031D01*
X16534467Y-11209031D02*
X16543991Y-11199508D01*
X16543991Y-11199508D02*
X16563039Y-11189984D01*
X16715420Y-11389984D02*
X16715420Y-11256650D01*
X16715420Y-11275698D02*
X16724943Y-11266174D01*
X16724943Y-11266174D02*
X16743991Y-11256650D01*
X16743991Y-11256650D02*
X16772563Y-11256650D01*
X16772563Y-11256650D02*
X16791610Y-11266174D01*
X16791610Y-11266174D02*
X16801134Y-11285222D01*
X16801134Y-11285222D02*
X16801134Y-11389984D01*
X16801134Y-11285222D02*
X16810658Y-11266174D01*
X16810658Y-11266174D02*
X16829705Y-11256650D01*
X16829705Y-11256650D02*
X16858277Y-11256650D01*
X16858277Y-11256650D02*
X16877325Y-11266174D01*
X16877325Y-11266174D02*
X16886848Y-11285222D01*
X16886848Y-11285222D02*
X16886848Y-11389984D01*
X16982086Y-11389984D02*
X16982086Y-11256650D01*
X16982086Y-11275698D02*
X16991610Y-11266174D01*
X16991610Y-11266174D02*
X17010658Y-11256650D01*
X17010658Y-11256650D02*
X17039229Y-11256650D01*
X17039229Y-11256650D02*
X17058277Y-11266174D01*
X17058277Y-11266174D02*
X17067801Y-11285222D01*
X17067801Y-11285222D02*
X17067801Y-11389984D01*
X17067801Y-11285222D02*
X17077325Y-11266174D01*
X17077325Y-11266174D02*
X17096372Y-11256650D01*
X17096372Y-11256650D02*
X17124944Y-11256650D01*
X17124944Y-11256650D02*
X17143991Y-11266174D01*
X17143991Y-11266174D02*
X17153515Y-11285222D01*
X17153515Y-11285222D02*
X17153515Y-11389984D01*
X17543991Y-11180460D02*
X17372563Y-11437603D01*
X17801134Y-11189984D02*
X17820182Y-11189984D01*
X17820182Y-11189984D02*
X17839229Y-11199508D01*
X17839229Y-11199508D02*
X17848753Y-11209031D01*
X17848753Y-11209031D02*
X17858277Y-11228079D01*
X17858277Y-11228079D02*
X17867801Y-11266174D01*
X17867801Y-11266174D02*
X17867801Y-11313793D01*
X17867801Y-11313793D02*
X17858277Y-11351888D01*
X17858277Y-11351888D02*
X17848753Y-11370936D01*
X17848753Y-11370936D02*
X17839229Y-11380460D01*
X17839229Y-11380460D02*
X17820182Y-11389984D01*
X17820182Y-11389984D02*
X17801134Y-11389984D01*
X17801134Y-11389984D02*
X17782087Y-11380460D01*
X17782087Y-11380460D02*
X17772563Y-11370936D01*
X17772563Y-11370936D02*
X17763039Y-11351888D01*
X17763039Y-11351888D02*
X17753515Y-11313793D01*
X17753515Y-11313793D02*
X17753515Y-11266174D01*
X17753515Y-11266174D02*
X17763039Y-11228079D01*
X17763039Y-11228079D02*
X17772563Y-11209031D01*
X17772563Y-11209031D02*
X17782087Y-11199508D01*
X17782087Y-11199508D02*
X17801134Y-11189984D01*
X17953515Y-11370936D02*
X17963039Y-11380460D01*
X17963039Y-11380460D02*
X17953515Y-11389984D01*
X17953515Y-11389984D02*
X17943991Y-11380460D01*
X17943991Y-11380460D02*
X17953515Y-11370936D01*
X17953515Y-11370936D02*
X17953515Y-11389984D01*
X18086848Y-11189984D02*
X18105896Y-11189984D01*
X18105896Y-11189984D02*
X18124944Y-11199508D01*
X18124944Y-11199508D02*
X18134468Y-11209031D01*
X18134468Y-11209031D02*
X18143991Y-11228079D01*
X18143991Y-11228079D02*
X18153515Y-11266174D01*
X18153515Y-11266174D02*
X18153515Y-11313793D01*
X18153515Y-11313793D02*
X18143991Y-11351888D01*
X18143991Y-11351888D02*
X18134468Y-11370936D01*
X18134468Y-11370936D02*
X18124944Y-11380460D01*
X18124944Y-11380460D02*
X18105896Y-11389984D01*
X18105896Y-11389984D02*
X18086848Y-11389984D01*
X18086848Y-11389984D02*
X18067801Y-11380460D01*
X18067801Y-11380460D02*
X18058277Y-11370936D01*
X18058277Y-11370936D02*
X18048753Y-11351888D01*
X18048753Y-11351888D02*
X18039229Y-11313793D01*
X18039229Y-11313793D02*
X18039229Y-11266174D01*
X18039229Y-11266174D02*
X18048753Y-11228079D01*
X18048753Y-11228079D02*
X18058277Y-11209031D01*
X18058277Y-11209031D02*
X18067801Y-11199508D01*
X18067801Y-11199508D02*
X18086848Y-11189984D01*
X18229706Y-11209031D02*
X18239229Y-11199508D01*
X18239229Y-11199508D02*
X18258277Y-11189984D01*
X18258277Y-11189984D02*
X18305896Y-11189984D01*
X18305896Y-11189984D02*
X18324944Y-11199508D01*
X18324944Y-11199508D02*
X18334468Y-11209031D01*
X18334468Y-11209031D02*
X18343991Y-11228079D01*
X18343991Y-11228079D02*
X18343991Y-11247127D01*
X18343991Y-11247127D02*
X18334468Y-11275698D01*
X18334468Y-11275698D02*
X18220182Y-11389984D01*
X18220182Y-11389984D02*
X18343991Y-11389984D01*
X18439229Y-11389984D02*
X18477325Y-11389984D01*
X18477325Y-11389984D02*
X18496372Y-11380460D01*
X18496372Y-11380460D02*
X18505896Y-11370936D01*
X18505896Y-11370936D02*
X18524944Y-11342365D01*
X18524944Y-11342365D02*
X18534468Y-11304269D01*
X18534468Y-11304269D02*
X18534468Y-11228079D01*
X18534468Y-11228079D02*
X18524944Y-11209031D01*
X18524944Y-11209031D02*
X18515420Y-11199508D01*
X18515420Y-11199508D02*
X18496372Y-11189984D01*
X18496372Y-11189984D02*
X18458277Y-11189984D01*
X18458277Y-11189984D02*
X18439229Y-11199508D01*
X18439229Y-11199508D02*
X18429706Y-11209031D01*
X18429706Y-11209031D02*
X18420182Y-11228079D01*
X18420182Y-11228079D02*
X18420182Y-11275698D01*
X18420182Y-11275698D02*
X18429706Y-11294746D01*
X18429706Y-11294746D02*
X18439229Y-11304269D01*
X18439229Y-11304269D02*
X18458277Y-11313793D01*
X18458277Y-11313793D02*
X18496372Y-11313793D01*
X18496372Y-11313793D02*
X18515420Y-11304269D01*
X18515420Y-11304269D02*
X18524944Y-11294746D01*
X18524944Y-11294746D02*
X18534468Y-11275698D01*
X18715420Y-11189984D02*
X18620182Y-11189984D01*
X18620182Y-11189984D02*
X18610658Y-11285222D01*
X18610658Y-11285222D02*
X18620182Y-11275698D01*
X18620182Y-11275698D02*
X18639229Y-11266174D01*
X18639229Y-11266174D02*
X18686849Y-11266174D01*
X18686849Y-11266174D02*
X18705896Y-11275698D01*
X18705896Y-11275698D02*
X18715420Y-11285222D01*
X18715420Y-11285222D02*
X18724944Y-11304269D01*
X18724944Y-11304269D02*
X18724944Y-11351888D01*
X18724944Y-11351888D02*
X18715420Y-11370936D01*
X18715420Y-11370936D02*
X18705896Y-11380460D01*
X18705896Y-11380460D02*
X18686849Y-11389984D01*
X18686849Y-11389984D02*
X18639229Y-11389984D01*
X18639229Y-11389984D02*
X18620182Y-11380460D01*
X18620182Y-11380460D02*
X18610658Y-11370936D01*
X18801134Y-11189984D02*
X18801134Y-11228079D01*
X18877325Y-11189984D02*
X18877325Y-11228079D01*
X19172563Y-11466174D02*
X19163039Y-11456650D01*
X19163039Y-11456650D02*
X19143991Y-11428079D01*
X19143991Y-11428079D02*
X19134468Y-11409031D01*
X19134468Y-11409031D02*
X19124944Y-11380460D01*
X19124944Y-11380460D02*
X19115420Y-11332841D01*
X19115420Y-11332841D02*
X19115420Y-11294746D01*
X19115420Y-11294746D02*
X19124944Y-11247127D01*
X19124944Y-11247127D02*
X19134468Y-11218555D01*
X19134468Y-11218555D02*
X19143991Y-11199508D01*
X19143991Y-11199508D02*
X19163039Y-11170936D01*
X19163039Y-11170936D02*
X19172563Y-11161412D01*
X19239230Y-11209031D02*
X19248753Y-11199508D01*
X19248753Y-11199508D02*
X19267801Y-11189984D01*
X19267801Y-11189984D02*
X19315420Y-11189984D01*
X19315420Y-11189984D02*
X19334468Y-11199508D01*
X19334468Y-11199508D02*
X19343991Y-11209031D01*
X19343991Y-11209031D02*
X19353515Y-11228079D01*
X19353515Y-11228079D02*
X19353515Y-11247127D01*
X19353515Y-11247127D02*
X19343991Y-11275698D01*
X19343991Y-11275698D02*
X19229706Y-11389984D01*
X19229706Y-11389984D02*
X19353515Y-11389984D01*
X19591611Y-11389984D02*
X19591611Y-11189984D01*
X19677325Y-11389984D02*
X19677325Y-11285222D01*
X19677325Y-11285222D02*
X19667801Y-11266174D01*
X19667801Y-11266174D02*
X19648753Y-11256650D01*
X19648753Y-11256650D02*
X19620182Y-11256650D01*
X19620182Y-11256650D02*
X19601134Y-11266174D01*
X19601134Y-11266174D02*
X19591611Y-11275698D01*
X19801134Y-11389984D02*
X19782087Y-11380460D01*
X19782087Y-11380460D02*
X19772563Y-11370936D01*
X19772563Y-11370936D02*
X19763039Y-11351888D01*
X19763039Y-11351888D02*
X19763039Y-11294746D01*
X19763039Y-11294746D02*
X19772563Y-11275698D01*
X19772563Y-11275698D02*
X19782087Y-11266174D01*
X19782087Y-11266174D02*
X19801134Y-11256650D01*
X19801134Y-11256650D02*
X19829706Y-11256650D01*
X19829706Y-11256650D02*
X19848753Y-11266174D01*
X19848753Y-11266174D02*
X19858277Y-11275698D01*
X19858277Y-11275698D02*
X19867801Y-11294746D01*
X19867801Y-11294746D02*
X19867801Y-11351888D01*
X19867801Y-11351888D02*
X19858277Y-11370936D01*
X19858277Y-11370936D02*
X19848753Y-11380460D01*
X19848753Y-11380460D02*
X19829706Y-11389984D01*
X19829706Y-11389984D02*
X19801134Y-11389984D01*
X19982087Y-11389984D02*
X19963039Y-11380460D01*
X19963039Y-11380460D02*
X19953515Y-11361412D01*
X19953515Y-11361412D02*
X19953515Y-11189984D01*
X20134468Y-11380460D02*
X20115420Y-11389984D01*
X20115420Y-11389984D02*
X20077325Y-11389984D01*
X20077325Y-11389984D02*
X20058277Y-11380460D01*
X20058277Y-11380460D02*
X20048753Y-11361412D01*
X20048753Y-11361412D02*
X20048753Y-11285222D01*
X20048753Y-11285222D02*
X20058277Y-11266174D01*
X20058277Y-11266174D02*
X20077325Y-11256650D01*
X20077325Y-11256650D02*
X20115420Y-11256650D01*
X20115420Y-11256650D02*
X20134468Y-11266174D01*
X20134468Y-11266174D02*
X20143992Y-11285222D01*
X20143992Y-11285222D02*
X20143992Y-11304269D01*
X20143992Y-11304269D02*
X20048753Y-11323317D01*
X20220182Y-11380460D02*
X20239230Y-11389984D01*
X20239230Y-11389984D02*
X20277325Y-11389984D01*
X20277325Y-11389984D02*
X20296373Y-11380460D01*
X20296373Y-11380460D02*
X20305896Y-11361412D01*
X20305896Y-11361412D02*
X20305896Y-11351888D01*
X20305896Y-11351888D02*
X20296373Y-11332841D01*
X20296373Y-11332841D02*
X20277325Y-11323317D01*
X20277325Y-11323317D02*
X20248753Y-11323317D01*
X20248753Y-11323317D02*
X20229706Y-11313793D01*
X20229706Y-11313793D02*
X20220182Y-11294746D01*
X20220182Y-11294746D02*
X20220182Y-11285222D01*
X20220182Y-11285222D02*
X20229706Y-11266174D01*
X20229706Y-11266174D02*
X20248753Y-11256650D01*
X20248753Y-11256650D02*
X20277325Y-11256650D01*
X20277325Y-11256650D02*
X20296373Y-11266174D01*
X20372563Y-11466174D02*
X20382087Y-11456650D01*
X20382087Y-11456650D02*
X20401134Y-11428079D01*
X20401134Y-11428079D02*
X20410658Y-11409031D01*
X20410658Y-11409031D02*
X20420182Y-11380460D01*
X20420182Y-11380460D02*
X20429706Y-11332841D01*
X20429706Y-11332841D02*
X20429706Y-11294746D01*
X20429706Y-11294746D02*
X20420182Y-11247127D01*
X20420182Y-11247127D02*
X20410658Y-11218555D01*
X20410658Y-11218555D02*
X20401134Y-11199508D01*
X20401134Y-11199508D02*
X20382087Y-11170936D01*
X20382087Y-11170936D02*
X20372563Y-11161412D01*
D12*
X15498440Y-11512970D02*
X15597500Y-11612030D01*
X15597500Y-11512970D02*
X15498440Y-11612030D01*
X15597500Y-11562500D02*
G75*
G02*
X15498440Y-11562500I-49530J0D01*
G01*
X15498440Y-11562500D02*
G75*
G02*
X15597500Y-11562500I49530J0D01*
G01*
D11*
X15896372Y-11453984D02*
X15915420Y-11453984D01*
X15915420Y-11453984D02*
X15934467Y-11463508D01*
X15934467Y-11463508D02*
X15943991Y-11473031D01*
X15943991Y-11473031D02*
X15953515Y-11492079D01*
X15953515Y-11492079D02*
X15963039Y-11530174D01*
X15963039Y-11530174D02*
X15963039Y-11577793D01*
X15963039Y-11577793D02*
X15953515Y-11615888D01*
X15953515Y-11615888D02*
X15943991Y-11634936D01*
X15943991Y-11634936D02*
X15934467Y-11644460D01*
X15934467Y-11644460D02*
X15915420Y-11653984D01*
X15915420Y-11653984D02*
X15896372Y-11653984D01*
X15896372Y-11653984D02*
X15877324Y-11644460D01*
X15877324Y-11644460D02*
X15867801Y-11634936D01*
X15867801Y-11634936D02*
X15858277Y-11615888D01*
X15858277Y-11615888D02*
X15848753Y-11577793D01*
X15848753Y-11577793D02*
X15848753Y-11530174D01*
X15848753Y-11530174D02*
X15858277Y-11492079D01*
X15858277Y-11492079D02*
X15867801Y-11473031D01*
X15867801Y-11473031D02*
X15877324Y-11463508D01*
X15877324Y-11463508D02*
X15896372Y-11453984D01*
X16048753Y-11634936D02*
X16058277Y-11644460D01*
X16058277Y-11644460D02*
X16048753Y-11653984D01*
X16048753Y-11653984D02*
X16039229Y-11644460D01*
X16039229Y-11644460D02*
X16048753Y-11634936D01*
X16048753Y-11634936D02*
X16048753Y-11653984D01*
X16153515Y-11653984D02*
X16191610Y-11653984D01*
X16191610Y-11653984D02*
X16210658Y-11644460D01*
X16210658Y-11644460D02*
X16220182Y-11634936D01*
X16220182Y-11634936D02*
X16239229Y-11606365D01*
X16239229Y-11606365D02*
X16248753Y-11568269D01*
X16248753Y-11568269D02*
X16248753Y-11492079D01*
X16248753Y-11492079D02*
X16239229Y-11473031D01*
X16239229Y-11473031D02*
X16229705Y-11463508D01*
X16229705Y-11463508D02*
X16210658Y-11453984D01*
X16210658Y-11453984D02*
X16172562Y-11453984D01*
X16172562Y-11453984D02*
X16153515Y-11463508D01*
X16153515Y-11463508D02*
X16143991Y-11473031D01*
X16143991Y-11473031D02*
X16134467Y-11492079D01*
X16134467Y-11492079D02*
X16134467Y-11539698D01*
X16134467Y-11539698D02*
X16143991Y-11558746D01*
X16143991Y-11558746D02*
X16153515Y-11568269D01*
X16153515Y-11568269D02*
X16172562Y-11577793D01*
X16172562Y-11577793D02*
X16210658Y-11577793D01*
X16210658Y-11577793D02*
X16229705Y-11568269D01*
X16229705Y-11568269D02*
X16239229Y-11558746D01*
X16239229Y-11558746D02*
X16248753Y-11539698D01*
X16343991Y-11653984D02*
X16382086Y-11653984D01*
X16382086Y-11653984D02*
X16401134Y-11644460D01*
X16401134Y-11644460D02*
X16410658Y-11634936D01*
X16410658Y-11634936D02*
X16429705Y-11606365D01*
X16429705Y-11606365D02*
X16439229Y-11568269D01*
X16439229Y-11568269D02*
X16439229Y-11492079D01*
X16439229Y-11492079D02*
X16429705Y-11473031D01*
X16429705Y-11473031D02*
X16420182Y-11463508D01*
X16420182Y-11463508D02*
X16401134Y-11453984D01*
X16401134Y-11453984D02*
X16363039Y-11453984D01*
X16363039Y-11453984D02*
X16343991Y-11463508D01*
X16343991Y-11463508D02*
X16334467Y-11473031D01*
X16334467Y-11473031D02*
X16324943Y-11492079D01*
X16324943Y-11492079D02*
X16324943Y-11539698D01*
X16324943Y-11539698D02*
X16334467Y-11558746D01*
X16334467Y-11558746D02*
X16343991Y-11568269D01*
X16343991Y-11568269D02*
X16363039Y-11577793D01*
X16363039Y-11577793D02*
X16401134Y-11577793D01*
X16401134Y-11577793D02*
X16420182Y-11568269D01*
X16420182Y-11568269D02*
X16429705Y-11558746D01*
X16429705Y-11558746D02*
X16439229Y-11539698D01*
X16629705Y-11653984D02*
X16515420Y-11653984D01*
X16572562Y-11653984D02*
X16572562Y-11453984D01*
X16572562Y-11453984D02*
X16553515Y-11482555D01*
X16553515Y-11482555D02*
X16534467Y-11501603D01*
X16534467Y-11501603D02*
X16515420Y-11511127D01*
X16715420Y-11653984D02*
X16715420Y-11520650D01*
X16715420Y-11539698D02*
X16724943Y-11530174D01*
X16724943Y-11530174D02*
X16743991Y-11520650D01*
X16743991Y-11520650D02*
X16772563Y-11520650D01*
X16772563Y-11520650D02*
X16791610Y-11530174D01*
X16791610Y-11530174D02*
X16801134Y-11549222D01*
X16801134Y-11549222D02*
X16801134Y-11653984D01*
X16801134Y-11549222D02*
X16810658Y-11530174D01*
X16810658Y-11530174D02*
X16829705Y-11520650D01*
X16829705Y-11520650D02*
X16858277Y-11520650D01*
X16858277Y-11520650D02*
X16877325Y-11530174D01*
X16877325Y-11530174D02*
X16886848Y-11549222D01*
X16886848Y-11549222D02*
X16886848Y-11653984D01*
X16982086Y-11653984D02*
X16982086Y-11520650D01*
X16982086Y-11539698D02*
X16991610Y-11530174D01*
X16991610Y-11530174D02*
X17010658Y-11520650D01*
X17010658Y-11520650D02*
X17039229Y-11520650D01*
X17039229Y-11520650D02*
X17058277Y-11530174D01*
X17058277Y-11530174D02*
X17067801Y-11549222D01*
X17067801Y-11549222D02*
X17067801Y-11653984D01*
X17067801Y-11549222D02*
X17077325Y-11530174D01*
X17077325Y-11530174D02*
X17096372Y-11520650D01*
X17096372Y-11520650D02*
X17124944Y-11520650D01*
X17124944Y-11520650D02*
X17143991Y-11530174D01*
X17143991Y-11530174D02*
X17153515Y-11549222D01*
X17153515Y-11549222D02*
X17153515Y-11653984D01*
X17543991Y-11444460D02*
X17372563Y-11701603D01*
X17801134Y-11453984D02*
X17820182Y-11453984D01*
X17820182Y-11453984D02*
X17839229Y-11463508D01*
X17839229Y-11463508D02*
X17848753Y-11473031D01*
X17848753Y-11473031D02*
X17858277Y-11492079D01*
X17858277Y-11492079D02*
X17867801Y-11530174D01*
X17867801Y-11530174D02*
X17867801Y-11577793D01*
X17867801Y-11577793D02*
X17858277Y-11615888D01*
X17858277Y-11615888D02*
X17848753Y-11634936D01*
X17848753Y-11634936D02*
X17839229Y-11644460D01*
X17839229Y-11644460D02*
X17820182Y-11653984D01*
X17820182Y-11653984D02*
X17801134Y-11653984D01*
X17801134Y-11653984D02*
X17782087Y-11644460D01*
X17782087Y-11644460D02*
X17772563Y-11634936D01*
X17772563Y-11634936D02*
X17763039Y-11615888D01*
X17763039Y-11615888D02*
X17753515Y-11577793D01*
X17753515Y-11577793D02*
X17753515Y-11530174D01*
X17753515Y-11530174D02*
X17763039Y-11492079D01*
X17763039Y-11492079D02*
X17772563Y-11473031D01*
X17772563Y-11473031D02*
X17782087Y-11463508D01*
X17782087Y-11463508D02*
X17801134Y-11453984D01*
X17953515Y-11634936D02*
X17963039Y-11644460D01*
X17963039Y-11644460D02*
X17953515Y-11653984D01*
X17953515Y-11653984D02*
X17943991Y-11644460D01*
X17943991Y-11644460D02*
X17953515Y-11634936D01*
X17953515Y-11634936D02*
X17953515Y-11653984D01*
X18086848Y-11453984D02*
X18105896Y-11453984D01*
X18105896Y-11453984D02*
X18124944Y-11463508D01*
X18124944Y-11463508D02*
X18134468Y-11473031D01*
X18134468Y-11473031D02*
X18143991Y-11492079D01*
X18143991Y-11492079D02*
X18153515Y-11530174D01*
X18153515Y-11530174D02*
X18153515Y-11577793D01*
X18153515Y-11577793D02*
X18143991Y-11615888D01*
X18143991Y-11615888D02*
X18134468Y-11634936D01*
X18134468Y-11634936D02*
X18124944Y-11644460D01*
X18124944Y-11644460D02*
X18105896Y-11653984D01*
X18105896Y-11653984D02*
X18086848Y-11653984D01*
X18086848Y-11653984D02*
X18067801Y-11644460D01*
X18067801Y-11644460D02*
X18058277Y-11634936D01*
X18058277Y-11634936D02*
X18048753Y-11615888D01*
X18048753Y-11615888D02*
X18039229Y-11577793D01*
X18039229Y-11577793D02*
X18039229Y-11530174D01*
X18039229Y-11530174D02*
X18048753Y-11492079D01*
X18048753Y-11492079D02*
X18058277Y-11473031D01*
X18058277Y-11473031D02*
X18067801Y-11463508D01*
X18067801Y-11463508D02*
X18086848Y-11453984D01*
X18220182Y-11453984D02*
X18343991Y-11453984D01*
X18343991Y-11453984D02*
X18277325Y-11530174D01*
X18277325Y-11530174D02*
X18305896Y-11530174D01*
X18305896Y-11530174D02*
X18324944Y-11539698D01*
X18324944Y-11539698D02*
X18334468Y-11549222D01*
X18334468Y-11549222D02*
X18343991Y-11568269D01*
X18343991Y-11568269D02*
X18343991Y-11615888D01*
X18343991Y-11615888D02*
X18334468Y-11634936D01*
X18334468Y-11634936D02*
X18324944Y-11644460D01*
X18324944Y-11644460D02*
X18305896Y-11653984D01*
X18305896Y-11653984D02*
X18248753Y-11653984D01*
X18248753Y-11653984D02*
X18229706Y-11644460D01*
X18229706Y-11644460D02*
X18220182Y-11634936D01*
X18439229Y-11653984D02*
X18477325Y-11653984D01*
X18477325Y-11653984D02*
X18496372Y-11644460D01*
X18496372Y-11644460D02*
X18505896Y-11634936D01*
X18505896Y-11634936D02*
X18524944Y-11606365D01*
X18524944Y-11606365D02*
X18534468Y-11568269D01*
X18534468Y-11568269D02*
X18534468Y-11492079D01*
X18534468Y-11492079D02*
X18524944Y-11473031D01*
X18524944Y-11473031D02*
X18515420Y-11463508D01*
X18515420Y-11463508D02*
X18496372Y-11453984D01*
X18496372Y-11453984D02*
X18458277Y-11453984D01*
X18458277Y-11453984D02*
X18439229Y-11463508D01*
X18439229Y-11463508D02*
X18429706Y-11473031D01*
X18429706Y-11473031D02*
X18420182Y-11492079D01*
X18420182Y-11492079D02*
X18420182Y-11539698D01*
X18420182Y-11539698D02*
X18429706Y-11558746D01*
X18429706Y-11558746D02*
X18439229Y-11568269D01*
X18439229Y-11568269D02*
X18458277Y-11577793D01*
X18458277Y-11577793D02*
X18496372Y-11577793D01*
X18496372Y-11577793D02*
X18515420Y-11568269D01*
X18515420Y-11568269D02*
X18524944Y-11558746D01*
X18524944Y-11558746D02*
X18534468Y-11539698D01*
X18658277Y-11453984D02*
X18677325Y-11453984D01*
X18677325Y-11453984D02*
X18696372Y-11463508D01*
X18696372Y-11463508D02*
X18705896Y-11473031D01*
X18705896Y-11473031D02*
X18715420Y-11492079D01*
X18715420Y-11492079D02*
X18724944Y-11530174D01*
X18724944Y-11530174D02*
X18724944Y-11577793D01*
X18724944Y-11577793D02*
X18715420Y-11615888D01*
X18715420Y-11615888D02*
X18705896Y-11634936D01*
X18705896Y-11634936D02*
X18696372Y-11644460D01*
X18696372Y-11644460D02*
X18677325Y-11653984D01*
X18677325Y-11653984D02*
X18658277Y-11653984D01*
X18658277Y-11653984D02*
X18639229Y-11644460D01*
X18639229Y-11644460D02*
X18629706Y-11634936D01*
X18629706Y-11634936D02*
X18620182Y-11615888D01*
X18620182Y-11615888D02*
X18610658Y-11577793D01*
X18610658Y-11577793D02*
X18610658Y-11530174D01*
X18610658Y-11530174D02*
X18620182Y-11492079D01*
X18620182Y-11492079D02*
X18629706Y-11473031D01*
X18629706Y-11473031D02*
X18639229Y-11463508D01*
X18639229Y-11463508D02*
X18658277Y-11453984D01*
X18801134Y-11453984D02*
X18801134Y-11492079D01*
X18877325Y-11453984D02*
X18877325Y-11492079D01*
X19172563Y-11730174D02*
X19163039Y-11720650D01*
X19163039Y-11720650D02*
X19143991Y-11692079D01*
X19143991Y-11692079D02*
X19134468Y-11673031D01*
X19134468Y-11673031D02*
X19124944Y-11644460D01*
X19124944Y-11644460D02*
X19115420Y-11596841D01*
X19115420Y-11596841D02*
X19115420Y-11558746D01*
X19115420Y-11558746D02*
X19124944Y-11511127D01*
X19124944Y-11511127D02*
X19134468Y-11482555D01*
X19134468Y-11482555D02*
X19143991Y-11463508D01*
X19143991Y-11463508D02*
X19163039Y-11434936D01*
X19163039Y-11434936D02*
X19172563Y-11425412D01*
X19353515Y-11653984D02*
X19239230Y-11653984D01*
X19296372Y-11653984D02*
X19296372Y-11453984D01*
X19296372Y-11453984D02*
X19277325Y-11482555D01*
X19277325Y-11482555D02*
X19258277Y-11501603D01*
X19258277Y-11501603D02*
X19239230Y-11511127D01*
X19429706Y-11473031D02*
X19439230Y-11463508D01*
X19439230Y-11463508D02*
X19458277Y-11453984D01*
X19458277Y-11453984D02*
X19505896Y-11453984D01*
X19505896Y-11453984D02*
X19524944Y-11463508D01*
X19524944Y-11463508D02*
X19534468Y-11473031D01*
X19534468Y-11473031D02*
X19543991Y-11492079D01*
X19543991Y-11492079D02*
X19543991Y-11511127D01*
X19543991Y-11511127D02*
X19534468Y-11539698D01*
X19534468Y-11539698D02*
X19420182Y-11653984D01*
X19420182Y-11653984D02*
X19543991Y-11653984D01*
X19782087Y-11653984D02*
X19782087Y-11453984D01*
X19867801Y-11653984D02*
X19867801Y-11549222D01*
X19867801Y-11549222D02*
X19858277Y-11530174D01*
X19858277Y-11530174D02*
X19839230Y-11520650D01*
X19839230Y-11520650D02*
X19810658Y-11520650D01*
X19810658Y-11520650D02*
X19791611Y-11530174D01*
X19791611Y-11530174D02*
X19782087Y-11539698D01*
X19991611Y-11653984D02*
X19972563Y-11644460D01*
X19972563Y-11644460D02*
X19963039Y-11634936D01*
X19963039Y-11634936D02*
X19953515Y-11615888D01*
X19953515Y-11615888D02*
X19953515Y-11558746D01*
X19953515Y-11558746D02*
X19963039Y-11539698D01*
X19963039Y-11539698D02*
X19972563Y-11530174D01*
X19972563Y-11530174D02*
X19991611Y-11520650D01*
X19991611Y-11520650D02*
X20020182Y-11520650D01*
X20020182Y-11520650D02*
X20039230Y-11530174D01*
X20039230Y-11530174D02*
X20048753Y-11539698D01*
X20048753Y-11539698D02*
X20058277Y-11558746D01*
X20058277Y-11558746D02*
X20058277Y-11615888D01*
X20058277Y-11615888D02*
X20048753Y-11634936D01*
X20048753Y-11634936D02*
X20039230Y-11644460D01*
X20039230Y-11644460D02*
X20020182Y-11653984D01*
X20020182Y-11653984D02*
X19991611Y-11653984D01*
X20172563Y-11653984D02*
X20153515Y-11644460D01*
X20153515Y-11644460D02*
X20143992Y-11625412D01*
X20143992Y-11625412D02*
X20143992Y-11453984D01*
X20324944Y-11644460D02*
X20305896Y-11653984D01*
X20305896Y-11653984D02*
X20267801Y-11653984D01*
X20267801Y-11653984D02*
X20248753Y-11644460D01*
X20248753Y-11644460D02*
X20239230Y-11625412D01*
X20239230Y-11625412D02*
X20239230Y-11549222D01*
X20239230Y-11549222D02*
X20248753Y-11530174D01*
X20248753Y-11530174D02*
X20267801Y-11520650D01*
X20267801Y-11520650D02*
X20305896Y-11520650D01*
X20305896Y-11520650D02*
X20324944Y-11530174D01*
X20324944Y-11530174D02*
X20334468Y-11549222D01*
X20334468Y-11549222D02*
X20334468Y-11568269D01*
X20334468Y-11568269D02*
X20239230Y-11587317D01*
X20410658Y-11644460D02*
X20429706Y-11653984D01*
X20429706Y-11653984D02*
X20467801Y-11653984D01*
X20467801Y-11653984D02*
X20486849Y-11644460D01*
X20486849Y-11644460D02*
X20496373Y-11625412D01*
X20496373Y-11625412D02*
X20496373Y-11615888D01*
X20496373Y-11615888D02*
X20486849Y-11596841D01*
X20486849Y-11596841D02*
X20467801Y-11587317D01*
X20467801Y-11587317D02*
X20439230Y-11587317D01*
X20439230Y-11587317D02*
X20420182Y-11577793D01*
X20420182Y-11577793D02*
X20410658Y-11558746D01*
X20410658Y-11558746D02*
X20410658Y-11549222D01*
X20410658Y-11549222D02*
X20420182Y-11530174D01*
X20420182Y-11530174D02*
X20439230Y-11520650D01*
X20439230Y-11520650D02*
X20467801Y-11520650D01*
X20467801Y-11520650D02*
X20486849Y-11530174D01*
X20563039Y-11730174D02*
X20572563Y-11720650D01*
X20572563Y-11720650D02*
X20591611Y-11692079D01*
X20591611Y-11692079D02*
X20601134Y-11673031D01*
X20601134Y-11673031D02*
X20610658Y-11644460D01*
X20610658Y-11644460D02*
X20620182Y-11596841D01*
X20620182Y-11596841D02*
X20620182Y-11558746D01*
X20620182Y-11558746D02*
X20610658Y-11511127D01*
X20610658Y-11511127D02*
X20601134Y-11482555D01*
X20601134Y-11482555D02*
X20591611Y-11463508D01*
X20591611Y-11463508D02*
X20572563Y-11434936D01*
X20572563Y-11434936D02*
X20563039Y-11425412D01*
D12*
X15497500Y-11776500D02*
X15597500Y-11876500D01*
X15597500Y-11776500D02*
X15497500Y-11876500D01*
X15547500Y-11776500D02*
X15547500Y-11876500D01*
X15497500Y-11826500D02*
X15597500Y-11826500D01*
D11*
X15963039Y-11917984D02*
X15848753Y-11917984D01*
X15905896Y-11917984D02*
X15905896Y-11717984D01*
X15905896Y-11717984D02*
X15886848Y-11746555D01*
X15886848Y-11746555D02*
X15867801Y-11765603D01*
X15867801Y-11765603D02*
X15848753Y-11775127D01*
X16048753Y-11898936D02*
X16058277Y-11908460D01*
X16058277Y-11908460D02*
X16048753Y-11917984D01*
X16048753Y-11917984D02*
X16039229Y-11908460D01*
X16039229Y-11908460D02*
X16048753Y-11898936D01*
X16048753Y-11898936D02*
X16048753Y-11917984D01*
X16182086Y-11717984D02*
X16201134Y-11717984D01*
X16201134Y-11717984D02*
X16220182Y-11727508D01*
X16220182Y-11727508D02*
X16229705Y-11737031D01*
X16229705Y-11737031D02*
X16239229Y-11756079D01*
X16239229Y-11756079D02*
X16248753Y-11794174D01*
X16248753Y-11794174D02*
X16248753Y-11841793D01*
X16248753Y-11841793D02*
X16239229Y-11879888D01*
X16239229Y-11879888D02*
X16229705Y-11898936D01*
X16229705Y-11898936D02*
X16220182Y-11908460D01*
X16220182Y-11908460D02*
X16201134Y-11917984D01*
X16201134Y-11917984D02*
X16182086Y-11917984D01*
X16182086Y-11917984D02*
X16163039Y-11908460D01*
X16163039Y-11908460D02*
X16153515Y-11898936D01*
X16153515Y-11898936D02*
X16143991Y-11879888D01*
X16143991Y-11879888D02*
X16134467Y-11841793D01*
X16134467Y-11841793D02*
X16134467Y-11794174D01*
X16134467Y-11794174D02*
X16143991Y-11756079D01*
X16143991Y-11756079D02*
X16153515Y-11737031D01*
X16153515Y-11737031D02*
X16163039Y-11727508D01*
X16163039Y-11727508D02*
X16182086Y-11717984D01*
X16372562Y-11717984D02*
X16391610Y-11717984D01*
X16391610Y-11717984D02*
X16410658Y-11727508D01*
X16410658Y-11727508D02*
X16420182Y-11737031D01*
X16420182Y-11737031D02*
X16429705Y-11756079D01*
X16429705Y-11756079D02*
X16439229Y-11794174D01*
X16439229Y-11794174D02*
X16439229Y-11841793D01*
X16439229Y-11841793D02*
X16429705Y-11879888D01*
X16429705Y-11879888D02*
X16420182Y-11898936D01*
X16420182Y-11898936D02*
X16410658Y-11908460D01*
X16410658Y-11908460D02*
X16391610Y-11917984D01*
X16391610Y-11917984D02*
X16372562Y-11917984D01*
X16372562Y-11917984D02*
X16353515Y-11908460D01*
X16353515Y-11908460D02*
X16343991Y-11898936D01*
X16343991Y-11898936D02*
X16334467Y-11879888D01*
X16334467Y-11879888D02*
X16324943Y-11841793D01*
X16324943Y-11841793D02*
X16324943Y-11794174D01*
X16324943Y-11794174D02*
X16334467Y-11756079D01*
X16334467Y-11756079D02*
X16343991Y-11737031D01*
X16343991Y-11737031D02*
X16353515Y-11727508D01*
X16353515Y-11727508D02*
X16372562Y-11717984D01*
X16563039Y-11717984D02*
X16582086Y-11717984D01*
X16582086Y-11717984D02*
X16601134Y-11727508D01*
X16601134Y-11727508D02*
X16610658Y-11737031D01*
X16610658Y-11737031D02*
X16620182Y-11756079D01*
X16620182Y-11756079D02*
X16629705Y-11794174D01*
X16629705Y-11794174D02*
X16629705Y-11841793D01*
X16629705Y-11841793D02*
X16620182Y-11879888D01*
X16620182Y-11879888D02*
X16610658Y-11898936D01*
X16610658Y-11898936D02*
X16601134Y-11908460D01*
X16601134Y-11908460D02*
X16582086Y-11917984D01*
X16582086Y-11917984D02*
X16563039Y-11917984D01*
X16563039Y-11917984D02*
X16543991Y-11908460D01*
X16543991Y-11908460D02*
X16534467Y-11898936D01*
X16534467Y-11898936D02*
X16524943Y-11879888D01*
X16524943Y-11879888D02*
X16515420Y-11841793D01*
X16515420Y-11841793D02*
X16515420Y-11794174D01*
X16515420Y-11794174D02*
X16524943Y-11756079D01*
X16524943Y-11756079D02*
X16534467Y-11737031D01*
X16534467Y-11737031D02*
X16543991Y-11727508D01*
X16543991Y-11727508D02*
X16563039Y-11717984D01*
X16715420Y-11917984D02*
X16715420Y-11784650D01*
X16715420Y-11803698D02*
X16724943Y-11794174D01*
X16724943Y-11794174D02*
X16743991Y-11784650D01*
X16743991Y-11784650D02*
X16772563Y-11784650D01*
X16772563Y-11784650D02*
X16791610Y-11794174D01*
X16791610Y-11794174D02*
X16801134Y-11813222D01*
X16801134Y-11813222D02*
X16801134Y-11917984D01*
X16801134Y-11813222D02*
X16810658Y-11794174D01*
X16810658Y-11794174D02*
X16829705Y-11784650D01*
X16829705Y-11784650D02*
X16858277Y-11784650D01*
X16858277Y-11784650D02*
X16877325Y-11794174D01*
X16877325Y-11794174D02*
X16886848Y-11813222D01*
X16886848Y-11813222D02*
X16886848Y-11917984D01*
X16982086Y-11917984D02*
X16982086Y-11784650D01*
X16982086Y-11803698D02*
X16991610Y-11794174D01*
X16991610Y-11794174D02*
X17010658Y-11784650D01*
X17010658Y-11784650D02*
X17039229Y-11784650D01*
X17039229Y-11784650D02*
X17058277Y-11794174D01*
X17058277Y-11794174D02*
X17067801Y-11813222D01*
X17067801Y-11813222D02*
X17067801Y-11917984D01*
X17067801Y-11813222D02*
X17077325Y-11794174D01*
X17077325Y-11794174D02*
X17096372Y-11784650D01*
X17096372Y-11784650D02*
X17124944Y-11784650D01*
X17124944Y-11784650D02*
X17143991Y-11794174D01*
X17143991Y-11794174D02*
X17153515Y-11813222D01*
X17153515Y-11813222D02*
X17153515Y-11917984D01*
X17543991Y-11708460D02*
X17372563Y-11965603D01*
X17801134Y-11717984D02*
X17820182Y-11717984D01*
X17820182Y-11717984D02*
X17839229Y-11727508D01*
X17839229Y-11727508D02*
X17848753Y-11737031D01*
X17848753Y-11737031D02*
X17858277Y-11756079D01*
X17858277Y-11756079D02*
X17867801Y-11794174D01*
X17867801Y-11794174D02*
X17867801Y-11841793D01*
X17867801Y-11841793D02*
X17858277Y-11879888D01*
X17858277Y-11879888D02*
X17848753Y-11898936D01*
X17848753Y-11898936D02*
X17839229Y-11908460D01*
X17839229Y-11908460D02*
X17820182Y-11917984D01*
X17820182Y-11917984D02*
X17801134Y-11917984D01*
X17801134Y-11917984D02*
X17782087Y-11908460D01*
X17782087Y-11908460D02*
X17772563Y-11898936D01*
X17772563Y-11898936D02*
X17763039Y-11879888D01*
X17763039Y-11879888D02*
X17753515Y-11841793D01*
X17753515Y-11841793D02*
X17753515Y-11794174D01*
X17753515Y-11794174D02*
X17763039Y-11756079D01*
X17763039Y-11756079D02*
X17772563Y-11737031D01*
X17772563Y-11737031D02*
X17782087Y-11727508D01*
X17782087Y-11727508D02*
X17801134Y-11717984D01*
X17953515Y-11898936D02*
X17963039Y-11908460D01*
X17963039Y-11908460D02*
X17953515Y-11917984D01*
X17953515Y-11917984D02*
X17943991Y-11908460D01*
X17943991Y-11908460D02*
X17953515Y-11898936D01*
X17953515Y-11898936D02*
X17953515Y-11917984D01*
X18086848Y-11717984D02*
X18105896Y-11717984D01*
X18105896Y-11717984D02*
X18124944Y-11727508D01*
X18124944Y-11727508D02*
X18134468Y-11737031D01*
X18134468Y-11737031D02*
X18143991Y-11756079D01*
X18143991Y-11756079D02*
X18153515Y-11794174D01*
X18153515Y-11794174D02*
X18153515Y-11841793D01*
X18153515Y-11841793D02*
X18143991Y-11879888D01*
X18143991Y-11879888D02*
X18134468Y-11898936D01*
X18134468Y-11898936D02*
X18124944Y-11908460D01*
X18124944Y-11908460D02*
X18105896Y-11917984D01*
X18105896Y-11917984D02*
X18086848Y-11917984D01*
X18086848Y-11917984D02*
X18067801Y-11908460D01*
X18067801Y-11908460D02*
X18058277Y-11898936D01*
X18058277Y-11898936D02*
X18048753Y-11879888D01*
X18048753Y-11879888D02*
X18039229Y-11841793D01*
X18039229Y-11841793D02*
X18039229Y-11794174D01*
X18039229Y-11794174D02*
X18048753Y-11756079D01*
X18048753Y-11756079D02*
X18058277Y-11737031D01*
X18058277Y-11737031D02*
X18067801Y-11727508D01*
X18067801Y-11727508D02*
X18086848Y-11717984D01*
X18220182Y-11717984D02*
X18343991Y-11717984D01*
X18343991Y-11717984D02*
X18277325Y-11794174D01*
X18277325Y-11794174D02*
X18305896Y-11794174D01*
X18305896Y-11794174D02*
X18324944Y-11803698D01*
X18324944Y-11803698D02*
X18334468Y-11813222D01*
X18334468Y-11813222D02*
X18343991Y-11832269D01*
X18343991Y-11832269D02*
X18343991Y-11879888D01*
X18343991Y-11879888D02*
X18334468Y-11898936D01*
X18334468Y-11898936D02*
X18324944Y-11908460D01*
X18324944Y-11908460D02*
X18305896Y-11917984D01*
X18305896Y-11917984D02*
X18248753Y-11917984D01*
X18248753Y-11917984D02*
X18229706Y-11908460D01*
X18229706Y-11908460D02*
X18220182Y-11898936D01*
X18439229Y-11917984D02*
X18477325Y-11917984D01*
X18477325Y-11917984D02*
X18496372Y-11908460D01*
X18496372Y-11908460D02*
X18505896Y-11898936D01*
X18505896Y-11898936D02*
X18524944Y-11870365D01*
X18524944Y-11870365D02*
X18534468Y-11832269D01*
X18534468Y-11832269D02*
X18534468Y-11756079D01*
X18534468Y-11756079D02*
X18524944Y-11737031D01*
X18524944Y-11737031D02*
X18515420Y-11727508D01*
X18515420Y-11727508D02*
X18496372Y-11717984D01*
X18496372Y-11717984D02*
X18458277Y-11717984D01*
X18458277Y-11717984D02*
X18439229Y-11727508D01*
X18439229Y-11727508D02*
X18429706Y-11737031D01*
X18429706Y-11737031D02*
X18420182Y-11756079D01*
X18420182Y-11756079D02*
X18420182Y-11803698D01*
X18420182Y-11803698D02*
X18429706Y-11822746D01*
X18429706Y-11822746D02*
X18439229Y-11832269D01*
X18439229Y-11832269D02*
X18458277Y-11841793D01*
X18458277Y-11841793D02*
X18496372Y-11841793D01*
X18496372Y-11841793D02*
X18515420Y-11832269D01*
X18515420Y-11832269D02*
X18524944Y-11822746D01*
X18524944Y-11822746D02*
X18534468Y-11803698D01*
X18705896Y-11784650D02*
X18705896Y-11917984D01*
X18658277Y-11708460D02*
X18610658Y-11851317D01*
X18610658Y-11851317D02*
X18734468Y-11851317D01*
X18801134Y-11717984D02*
X18801134Y-11756079D01*
X18877325Y-11717984D02*
X18877325Y-11756079D01*
X19172563Y-11994174D02*
X19163039Y-11984650D01*
X19163039Y-11984650D02*
X19143991Y-11956079D01*
X19143991Y-11956079D02*
X19134468Y-11937031D01*
X19134468Y-11937031D02*
X19124944Y-11908460D01*
X19124944Y-11908460D02*
X19115420Y-11860841D01*
X19115420Y-11860841D02*
X19115420Y-11822746D01*
X19115420Y-11822746D02*
X19124944Y-11775127D01*
X19124944Y-11775127D02*
X19134468Y-11746555D01*
X19134468Y-11746555D02*
X19143991Y-11727508D01*
X19143991Y-11727508D02*
X19163039Y-11698936D01*
X19163039Y-11698936D02*
X19172563Y-11689412D01*
X19277325Y-11803698D02*
X19258277Y-11794174D01*
X19258277Y-11794174D02*
X19248753Y-11784650D01*
X19248753Y-11784650D02*
X19239230Y-11765603D01*
X19239230Y-11765603D02*
X19239230Y-11756079D01*
X19239230Y-11756079D02*
X19248753Y-11737031D01*
X19248753Y-11737031D02*
X19258277Y-11727508D01*
X19258277Y-11727508D02*
X19277325Y-11717984D01*
X19277325Y-11717984D02*
X19315420Y-11717984D01*
X19315420Y-11717984D02*
X19334468Y-11727508D01*
X19334468Y-11727508D02*
X19343991Y-11737031D01*
X19343991Y-11737031D02*
X19353515Y-11756079D01*
X19353515Y-11756079D02*
X19353515Y-11765603D01*
X19353515Y-11765603D02*
X19343991Y-11784650D01*
X19343991Y-11784650D02*
X19334468Y-11794174D01*
X19334468Y-11794174D02*
X19315420Y-11803698D01*
X19315420Y-11803698D02*
X19277325Y-11803698D01*
X19277325Y-11803698D02*
X19258277Y-11813222D01*
X19258277Y-11813222D02*
X19248753Y-11822746D01*
X19248753Y-11822746D02*
X19239230Y-11841793D01*
X19239230Y-11841793D02*
X19239230Y-11879888D01*
X19239230Y-11879888D02*
X19248753Y-11898936D01*
X19248753Y-11898936D02*
X19258277Y-11908460D01*
X19258277Y-11908460D02*
X19277325Y-11917984D01*
X19277325Y-11917984D02*
X19315420Y-11917984D01*
X19315420Y-11917984D02*
X19334468Y-11908460D01*
X19334468Y-11908460D02*
X19343991Y-11898936D01*
X19343991Y-11898936D02*
X19353515Y-11879888D01*
X19353515Y-11879888D02*
X19353515Y-11841793D01*
X19353515Y-11841793D02*
X19343991Y-11822746D01*
X19343991Y-11822746D02*
X19334468Y-11813222D01*
X19334468Y-11813222D02*
X19315420Y-11803698D01*
X19591611Y-11917984D02*
X19591611Y-11717984D01*
X19677325Y-11917984D02*
X19677325Y-11813222D01*
X19677325Y-11813222D02*
X19667801Y-11794174D01*
X19667801Y-11794174D02*
X19648753Y-11784650D01*
X19648753Y-11784650D02*
X19620182Y-11784650D01*
X19620182Y-11784650D02*
X19601134Y-11794174D01*
X19601134Y-11794174D02*
X19591611Y-11803698D01*
X19801134Y-11917984D02*
X19782087Y-11908460D01*
X19782087Y-11908460D02*
X19772563Y-11898936D01*
X19772563Y-11898936D02*
X19763039Y-11879888D01*
X19763039Y-11879888D02*
X19763039Y-11822746D01*
X19763039Y-11822746D02*
X19772563Y-11803698D01*
X19772563Y-11803698D02*
X19782087Y-11794174D01*
X19782087Y-11794174D02*
X19801134Y-11784650D01*
X19801134Y-11784650D02*
X19829706Y-11784650D01*
X19829706Y-11784650D02*
X19848753Y-11794174D01*
X19848753Y-11794174D02*
X19858277Y-11803698D01*
X19858277Y-11803698D02*
X19867801Y-11822746D01*
X19867801Y-11822746D02*
X19867801Y-11879888D01*
X19867801Y-11879888D02*
X19858277Y-11898936D01*
X19858277Y-11898936D02*
X19848753Y-11908460D01*
X19848753Y-11908460D02*
X19829706Y-11917984D01*
X19829706Y-11917984D02*
X19801134Y-11917984D01*
X19982087Y-11917984D02*
X19963039Y-11908460D01*
X19963039Y-11908460D02*
X19953515Y-11889412D01*
X19953515Y-11889412D02*
X19953515Y-11717984D01*
X20134468Y-11908460D02*
X20115420Y-11917984D01*
X20115420Y-11917984D02*
X20077325Y-11917984D01*
X20077325Y-11917984D02*
X20058277Y-11908460D01*
X20058277Y-11908460D02*
X20048753Y-11889412D01*
X20048753Y-11889412D02*
X20048753Y-11813222D01*
X20048753Y-11813222D02*
X20058277Y-11794174D01*
X20058277Y-11794174D02*
X20077325Y-11784650D01*
X20077325Y-11784650D02*
X20115420Y-11784650D01*
X20115420Y-11784650D02*
X20134468Y-11794174D01*
X20134468Y-11794174D02*
X20143992Y-11813222D01*
X20143992Y-11813222D02*
X20143992Y-11832269D01*
X20143992Y-11832269D02*
X20048753Y-11851317D01*
X20220182Y-11908460D02*
X20239230Y-11917984D01*
X20239230Y-11917984D02*
X20277325Y-11917984D01*
X20277325Y-11917984D02*
X20296373Y-11908460D01*
X20296373Y-11908460D02*
X20305896Y-11889412D01*
X20305896Y-11889412D02*
X20305896Y-11879888D01*
X20305896Y-11879888D02*
X20296373Y-11860841D01*
X20296373Y-11860841D02*
X20277325Y-11851317D01*
X20277325Y-11851317D02*
X20248753Y-11851317D01*
X20248753Y-11851317D02*
X20229706Y-11841793D01*
X20229706Y-11841793D02*
X20220182Y-11822746D01*
X20220182Y-11822746D02*
X20220182Y-11813222D01*
X20220182Y-11813222D02*
X20229706Y-11794174D01*
X20229706Y-11794174D02*
X20248753Y-11784650D01*
X20248753Y-11784650D02*
X20277325Y-11784650D01*
X20277325Y-11784650D02*
X20296373Y-11794174D01*
X20372563Y-11994174D02*
X20382087Y-11984650D01*
X20382087Y-11984650D02*
X20401134Y-11956079D01*
X20401134Y-11956079D02*
X20410658Y-11937031D01*
X20410658Y-11937031D02*
X20420182Y-11908460D01*
X20420182Y-11908460D02*
X20429706Y-11860841D01*
X20429706Y-11860841D02*
X20429706Y-11822746D01*
X20429706Y-11822746D02*
X20420182Y-11775127D01*
X20420182Y-11775127D02*
X20410658Y-11746555D01*
X20410658Y-11746555D02*
X20401134Y-11727508D01*
X20401134Y-11727508D02*
X20382087Y-11698936D01*
X20382087Y-11698936D02*
X20372563Y-11689412D01*
M02*
