%TF.GenerationSoftware,KiCad,Pcbnew,8.0.5*%
%TF.CreationDate,2024-11-06T09:26:01-07:00*%
%TF.ProjectId,STM32G041F8P6_dev,53544d33-3247-4303-9431-463850365f64,rev?*%
%TF.SameCoordinates,Original*%
%TF.FileFunction,Copper,L3,Inr*%
%TF.FilePolarity,Positive*%
%FSLAX46Y46*%
G04 Gerber Fmt 4.6, Leading zero omitted, Abs format (unit mm)*
G04 Created by KiCad (PCBNEW 8.0.5) date 2024-11-06 09:26:01*
%MOMM*%
%LPD*%
G01*
G04 APERTURE LIST*
G04 Aperture macros list*
%AMRoundRect*
0 Rectangle with rounded corners*
0 $1 Rounding radius*
0 $2 $3 $4 $5 $6 $7 $8 $9 X,Y pos of 4 corners*
0 Add a 4 corners polygon primitive as box body*
4,1,4,$2,$3,$4,$5,$6,$7,$8,$9,$2,$3,0*
0 Add four circle primitives for the rounded corners*
1,1,$1+$1,$2,$3*
1,1,$1+$1,$4,$5*
1,1,$1+$1,$6,$7*
1,1,$1+$1,$8,$9*
0 Add four rect primitives between the rounded corners*
20,1,$1+$1,$2,$3,$4,$5,0*
20,1,$1+$1,$4,$5,$6,$7,0*
20,1,$1+$1,$6,$7,$8,$9,0*
20,1,$1+$1,$8,$9,$2,$3,0*%
G04 Aperture macros list end*
%TA.AperFunction,ComponentPad*%
%ADD10C,1.700000*%
%TD*%
%TA.AperFunction,ComponentPad*%
%ADD11O,1.550000X0.890000*%
%TD*%
%TA.AperFunction,ComponentPad*%
%ADD12O,0.950000X1.250000*%
%TD*%
%TA.AperFunction,ComponentPad*%
%ADD13R,1.498600X1.498600*%
%TD*%
%TA.AperFunction,ComponentPad*%
%ADD14C,1.498600*%
%TD*%
%TA.AperFunction,ComponentPad*%
%ADD15RoundRect,0.250000X0.625000X-0.350000X0.625000X0.350000X-0.625000X0.350000X-0.625000X-0.350000X0*%
%TD*%
%TA.AperFunction,ComponentPad*%
%ADD16O,1.750000X1.200000*%
%TD*%
%TA.AperFunction,ComponentPad*%
%ADD17R,1.700000X1.700000*%
%TD*%
%TA.AperFunction,ComponentPad*%
%ADD18O,1.700000X1.700000*%
%TD*%
%TA.AperFunction,ViaPad*%
%ADD19C,0.600000*%
%TD*%
%TA.AperFunction,ViaPad*%
%ADD20C,1.000000*%
%TD*%
G04 APERTURE END LIST*
D10*
%TO.N,SDA*%
%TO.C,D4*%
X173270000Y-54190000D03*
%TO.N,SCL*%
X173270000Y-56730000D03*
%TO.N,+3.3V*%
X173270000Y-59270000D03*
%TO.N,GND*%
X173270000Y-61810000D03*
%TD*%
D11*
%TO.N,Net-(J1-Shield)*%
%TO.C,J1*%
X224600000Y-86000000D03*
D12*
X221900000Y-85000000D03*
X221900000Y-80000000D03*
D11*
X224600000Y-79000000D03*
%TD*%
D13*
%TO.N,/PA6*%
%TO.C,SW2*%
X165249999Y-70000000D03*
D14*
X171750000Y-70000000D03*
%TO.N,+3.3V*%
X165249999Y-74500001D03*
X171750000Y-74500001D03*
%TD*%
D13*
%TO.N,/PA4*%
%TO.C,SW4*%
X210250001Y-70000000D03*
D14*
X216750002Y-70000000D03*
%TO.N,+3.3V*%
X210250001Y-74500001D03*
X216750002Y-74500001D03*
%TD*%
D13*
%TO.N,/PA5*%
%TO.C,SW3*%
X187750000Y-70000000D03*
D14*
X194250001Y-70000000D03*
%TO.N,+3.3V*%
X187750000Y-74500001D03*
X194250001Y-74500001D03*
%TD*%
D15*
%TO.N,GND*%
%TO.C,J2*%
X212000000Y-93000000D03*
D16*
%TO.N,+BATT*%
X212000000Y-91000000D03*
%TD*%
D17*
%TO.N,/USART2_TX*%
%TO.C,J3*%
X182375000Y-89625000D03*
D18*
%TO.N,/VCP_TX*%
X179835000Y-89625000D03*
%TO.N,/USART2_RX*%
X182375000Y-92165000D03*
%TO.N,/VCP_RX*%
X179835000Y-92165000D03*
%TD*%
D19*
%TO.N,GND*%
X195400000Y-82000000D03*
X221600000Y-76800000D03*
X222700000Y-73400000D03*
X223100000Y-56000000D03*
X199300000Y-90100000D03*
X191000000Y-88700000D03*
X175300000Y-57950000D03*
X215600000Y-77500000D03*
X219750000Y-72975000D03*
X184350000Y-87650000D03*
X223100000Y-60000000D03*
X194750000Y-92250000D03*
X178400000Y-79600000D03*
X183350000Y-84500000D03*
X210500000Y-88000000D03*
D20*
X208200000Y-81800000D03*
D19*
X190987500Y-91400000D03*
D20*
X201150000Y-91150000D03*
D19*
X194500000Y-85900000D03*
X197250000Y-73000000D03*
X174750000Y-73000000D03*
X170100000Y-94800000D03*
X171400000Y-94800000D03*
X216100000Y-86500000D03*
X158925000Y-73525000D03*
X173900000Y-94800000D03*
%TO.N,+3.3V*%
X167500000Y-56700000D03*
X181050000Y-83450000D03*
X167500000Y-54200000D03*
X166000000Y-94600000D03*
X192500000Y-92300000D03*
D20*
X205300000Y-81800000D03*
D19*
X197200000Y-94400000D03*
%TO.N,Net-(J4-~{RST})*%
X175100000Y-86100000D03*
X177400000Y-94400000D03*
%TO.N,Net-(D1-K)*%
X217800000Y-85800000D03*
X210200000Y-86400000D03*
%TO.N,/PA1*%
X174000000Y-81000000D03*
X186600000Y-67500000D03*
%TO.N,/PA6*%
X189700000Y-84900000D03*
X182600000Y-85800000D03*
%TO.N,/PA0*%
X198200000Y-76100000D03*
X192700000Y-81600000D03*
X187187500Y-84275000D03*
X212300000Y-56000000D03*
%TO.N,SCL*%
X192600000Y-78400000D03*
X192600000Y-80400000D03*
X197200000Y-88100000D03*
%TO.N,/SWDIO*%
X189200000Y-81700000D03*
X168900000Y-85900000D03*
%TO.N,/SWCLK*%
X188300000Y-80400000D03*
X170100000Y-85900000D03*
%TO.N,SDA*%
X198200000Y-88100000D03*
X185500000Y-79400000D03*
%TO.N,AI1*%
X199300000Y-93300000D03*
X193700000Y-84700000D03*
%TO.N,AI2*%
X199300000Y-92500000D03*
X193300000Y-83000000D03*
%TD*%
%TA.AperFunction,Conductor*%
%TO.N,+3.3V*%
G36*
X225442539Y-46520185D02*
G01*
X225488294Y-46572989D01*
X225499500Y-46624500D01*
X225499500Y-78251934D01*
X225479815Y-78318973D01*
X225427011Y-78364728D01*
X225357853Y-78374672D01*
X225306611Y-78355037D01*
X225283136Y-78339352D01*
X225283124Y-78339345D01*
X225147454Y-78283149D01*
X225147446Y-78283147D01*
X225003429Y-78254500D01*
X225003425Y-78254500D01*
X224196575Y-78254500D01*
X224196570Y-78254500D01*
X224052553Y-78283147D01*
X224052545Y-78283149D01*
X223916875Y-78339345D01*
X223916866Y-78339350D01*
X223794772Y-78420931D01*
X223794768Y-78420934D01*
X223690934Y-78524768D01*
X223690931Y-78524772D01*
X223609350Y-78646866D01*
X223609345Y-78646875D01*
X223553149Y-78782545D01*
X223553147Y-78782553D01*
X223524500Y-78926570D01*
X223524500Y-79073429D01*
X223553147Y-79217446D01*
X223553149Y-79217454D01*
X223609345Y-79353124D01*
X223609350Y-79353133D01*
X223690931Y-79475227D01*
X223690934Y-79475231D01*
X223794768Y-79579065D01*
X223794772Y-79579068D01*
X223916866Y-79660649D01*
X223916872Y-79660652D01*
X223916873Y-79660653D01*
X224052546Y-79716851D01*
X224196570Y-79745499D01*
X224196574Y-79745500D01*
X224196575Y-79745500D01*
X225003426Y-79745500D01*
X225003427Y-79745499D01*
X225147454Y-79716851D01*
X225283127Y-79660653D01*
X225283132Y-79660649D01*
X225283135Y-79660648D01*
X225306608Y-79644964D01*
X225373285Y-79624085D01*
X225440666Y-79642569D01*
X225487356Y-79694547D01*
X225499500Y-79748065D01*
X225499500Y-85251934D01*
X225479815Y-85318973D01*
X225427011Y-85364728D01*
X225357853Y-85374672D01*
X225306611Y-85355037D01*
X225283136Y-85339352D01*
X225283124Y-85339345D01*
X225147454Y-85283149D01*
X225147446Y-85283147D01*
X225003429Y-85254500D01*
X225003425Y-85254500D01*
X224196575Y-85254500D01*
X224196570Y-85254500D01*
X224052553Y-85283147D01*
X224052545Y-85283149D01*
X223916875Y-85339345D01*
X223916866Y-85339350D01*
X223794772Y-85420931D01*
X223794768Y-85420934D01*
X223690934Y-85524768D01*
X223690931Y-85524772D01*
X223609350Y-85646866D01*
X223609345Y-85646875D01*
X223553149Y-85782545D01*
X223553147Y-85782553D01*
X223524500Y-85926570D01*
X223524500Y-86073429D01*
X223553147Y-86217446D01*
X223553149Y-86217454D01*
X223609345Y-86353124D01*
X223609350Y-86353133D01*
X223690931Y-86475227D01*
X223690934Y-86475231D01*
X223794768Y-86579065D01*
X223794772Y-86579068D01*
X223916866Y-86660649D01*
X223916872Y-86660652D01*
X223916873Y-86660653D01*
X224052546Y-86716851D01*
X224196570Y-86745499D01*
X224196574Y-86745500D01*
X224196575Y-86745500D01*
X225003426Y-86745500D01*
X225003427Y-86745499D01*
X225147454Y-86716851D01*
X225283127Y-86660653D01*
X225283132Y-86660649D01*
X225283135Y-86660648D01*
X225306608Y-86644964D01*
X225373285Y-86624085D01*
X225440666Y-86642569D01*
X225487356Y-86694547D01*
X225499500Y-86748065D01*
X225499500Y-95375500D01*
X225479815Y-95442539D01*
X225427011Y-95488294D01*
X225375500Y-95499500D01*
X174340116Y-95499500D01*
X174273077Y-95479815D01*
X174227322Y-95427011D01*
X174217378Y-95357853D01*
X174246403Y-95294297D01*
X174264625Y-95277126D01*
X174328282Y-95228282D01*
X174424536Y-95102841D01*
X174485044Y-94956762D01*
X174505682Y-94800000D01*
X174485044Y-94643238D01*
X174424536Y-94497159D01*
X174349982Y-94399998D01*
X176794318Y-94399998D01*
X176794318Y-94400001D01*
X176814955Y-94556760D01*
X176814956Y-94556762D01*
X176850775Y-94643238D01*
X176875464Y-94702841D01*
X176971718Y-94828282D01*
X177097159Y-94924536D01*
X177243238Y-94985044D01*
X177321619Y-94995363D01*
X177399999Y-95005682D01*
X177400000Y-95005682D01*
X177400001Y-95005682D01*
X177452254Y-94998802D01*
X177556762Y-94985044D01*
X177702841Y-94924536D01*
X177828282Y-94828282D01*
X177924536Y-94702841D01*
X177985044Y-94556762D01*
X178005682Y-94400000D01*
X177985044Y-94243238D01*
X177924536Y-94097159D01*
X177828282Y-93971718D01*
X177702841Y-93875464D01*
X177556762Y-93814956D01*
X177556760Y-93814955D01*
X177400001Y-93794318D01*
X177399999Y-93794318D01*
X177243239Y-93814955D01*
X177243237Y-93814956D01*
X177097160Y-93875463D01*
X176971718Y-93971718D01*
X176875463Y-94097160D01*
X176814956Y-94243237D01*
X176814955Y-94243239D01*
X176794318Y-94399998D01*
X174349982Y-94399998D01*
X174328282Y-94371718D01*
X174202841Y-94275464D01*
X174155976Y-94256052D01*
X174056762Y-94214956D01*
X174056760Y-94214955D01*
X173900001Y-94194318D01*
X173899999Y-94194318D01*
X173743239Y-94214955D01*
X173743237Y-94214956D01*
X173597160Y-94275463D01*
X173471718Y-94371718D01*
X173375463Y-94497160D01*
X173314956Y-94643237D01*
X173314955Y-94643239D01*
X173294318Y-94799998D01*
X173294318Y-94800001D01*
X173314955Y-94956760D01*
X173314956Y-94956762D01*
X173332886Y-95000050D01*
X173375464Y-95102841D01*
X173471718Y-95228282D01*
X173535371Y-95277125D01*
X173576573Y-95333552D01*
X173580728Y-95403298D01*
X173546515Y-95464219D01*
X173484798Y-95496971D01*
X173459884Y-95499500D01*
X171840116Y-95499500D01*
X171773077Y-95479815D01*
X171727322Y-95427011D01*
X171717378Y-95357853D01*
X171746403Y-95294297D01*
X171764625Y-95277126D01*
X171828282Y-95228282D01*
X171924536Y-95102841D01*
X171985044Y-94956762D01*
X172005682Y-94800000D01*
X171985044Y-94643238D01*
X171924536Y-94497159D01*
X171828282Y-94371718D01*
X171702841Y-94275464D01*
X171655976Y-94256052D01*
X171556762Y-94214956D01*
X171556760Y-94214955D01*
X171400001Y-94194318D01*
X171399999Y-94194318D01*
X171243239Y-94214955D01*
X171243237Y-94214956D01*
X171097160Y-94275463D01*
X170971718Y-94371718D01*
X170875463Y-94497160D01*
X170864561Y-94523481D01*
X170820720Y-94577884D01*
X170754425Y-94599949D01*
X170686726Y-94582670D01*
X170639116Y-94531532D01*
X170635439Y-94523481D01*
X170624536Y-94497160D01*
X170624536Y-94497159D01*
X170528282Y-94371718D01*
X170402841Y-94275464D01*
X170355976Y-94256052D01*
X170256762Y-94214956D01*
X170256760Y-94214955D01*
X170100001Y-94194318D01*
X170099999Y-94194318D01*
X169943239Y-94214955D01*
X169943237Y-94214956D01*
X169797160Y-94275463D01*
X169671718Y-94371718D01*
X169575463Y-94497160D01*
X169514956Y-94643237D01*
X169514955Y-94643239D01*
X169494318Y-94799998D01*
X169494318Y-94800001D01*
X169514955Y-94956760D01*
X169514956Y-94956762D01*
X169532886Y-95000050D01*
X169575464Y-95102841D01*
X169671718Y-95228282D01*
X169735371Y-95277125D01*
X169776573Y-95333552D01*
X169780728Y-95403298D01*
X169746515Y-95464219D01*
X169684798Y-95496971D01*
X169659884Y-95499500D01*
X156624500Y-95499500D01*
X156557461Y-95479815D01*
X156511706Y-95427011D01*
X156500500Y-95375500D01*
X156500500Y-92378711D01*
X157649500Y-92378711D01*
X157649500Y-92621288D01*
X157681161Y-92861785D01*
X157743947Y-93096104D01*
X157786691Y-93199297D01*
X157836776Y-93320212D01*
X157958064Y-93530289D01*
X157958066Y-93530292D01*
X157958067Y-93530293D01*
X158105733Y-93722736D01*
X158105739Y-93722743D01*
X158277256Y-93894260D01*
X158277263Y-93894266D01*
X158292141Y-93905682D01*
X158469711Y-94041936D01*
X158679788Y-94163224D01*
X158903900Y-94256054D01*
X159138211Y-94318838D01*
X159318586Y-94342584D01*
X159378711Y-94350500D01*
X159378712Y-94350500D01*
X159621289Y-94350500D01*
X159669388Y-94344167D01*
X159861789Y-94318838D01*
X160096100Y-94256054D01*
X160320212Y-94163224D01*
X160530289Y-94041936D01*
X160722738Y-93894265D01*
X160894265Y-93722738D01*
X161041936Y-93530289D01*
X161163224Y-93320212D01*
X161256054Y-93096100D01*
X161318838Y-92861789D01*
X161350500Y-92621288D01*
X161350500Y-92378712D01*
X161350315Y-92377310D01*
X161342584Y-92318586D01*
X161318838Y-92138211D01*
X161256054Y-91903900D01*
X161163224Y-91679788D01*
X161041936Y-91469711D01*
X160894265Y-91277262D01*
X160894260Y-91277256D01*
X160722743Y-91105739D01*
X160722736Y-91105733D01*
X160530293Y-90958067D01*
X160530292Y-90958066D01*
X160530289Y-90958064D01*
X160320212Y-90836776D01*
X160267534Y-90814956D01*
X160096104Y-90743947D01*
X159953298Y-90705682D01*
X159861789Y-90681162D01*
X159861788Y-90681161D01*
X159861785Y-90681161D01*
X159621289Y-90649500D01*
X159621288Y-90649500D01*
X159378712Y-90649500D01*
X159378711Y-90649500D01*
X159138214Y-90681161D01*
X158903895Y-90743947D01*
X158679794Y-90836773D01*
X158679785Y-90836777D01*
X158469706Y-90958067D01*
X158277263Y-91105733D01*
X158277256Y-91105739D01*
X158105739Y-91277256D01*
X158105733Y-91277263D01*
X157958067Y-91469706D01*
X157836777Y-91679785D01*
X157836773Y-91679794D01*
X157743947Y-91903895D01*
X157681161Y-92138214D01*
X157649500Y-92378711D01*
X156500500Y-92378711D01*
X156500500Y-89624999D01*
X178679571Y-89624999D01*
X178679571Y-89625000D01*
X178699244Y-89837310D01*
X178757596Y-90042392D01*
X178757596Y-90042394D01*
X178852632Y-90233253D01*
X178981127Y-90403406D01*
X178981128Y-90403407D01*
X179138698Y-90547052D01*
X179319981Y-90659298D01*
X179518802Y-90736321D01*
X179715613Y-90773111D01*
X179777893Y-90804779D01*
X179813166Y-90865092D01*
X179810232Y-90934900D01*
X179770023Y-90992040D01*
X179715613Y-91016888D01*
X179518802Y-91053679D01*
X179518799Y-91053679D01*
X179518799Y-91053680D01*
X179319982Y-91130701D01*
X179319980Y-91130702D01*
X179138699Y-91242947D01*
X178981127Y-91386593D01*
X178852632Y-91556746D01*
X178757596Y-91747605D01*
X178757596Y-91747607D01*
X178699244Y-91952689D01*
X178686221Y-92093238D01*
X178679571Y-92165000D01*
X178699244Y-92377310D01*
X178739398Y-92518436D01*
X178757596Y-92582392D01*
X178757596Y-92582394D01*
X178852632Y-92773253D01*
X178919489Y-92861785D01*
X178981128Y-92943407D01*
X179138698Y-93087052D01*
X179319981Y-93199298D01*
X179518802Y-93276321D01*
X179728390Y-93315500D01*
X179728392Y-93315500D01*
X179941608Y-93315500D01*
X179941610Y-93315500D01*
X180151198Y-93276321D01*
X180350019Y-93199298D01*
X180531302Y-93087052D01*
X180688872Y-92943407D01*
X180817366Y-92773255D01*
X180817367Y-92773253D01*
X180912403Y-92582394D01*
X180912403Y-92582393D01*
X180912405Y-92582389D01*
X180970756Y-92377310D01*
X180981529Y-92261047D01*
X181007315Y-92196111D01*
X181051869Y-92164194D01*
X181015497Y-92143331D01*
X180983307Y-92081318D01*
X180981529Y-92068951D01*
X180980849Y-92061613D01*
X180970756Y-91952690D01*
X180912405Y-91747611D01*
X180912403Y-91747606D01*
X180912403Y-91747605D01*
X180817367Y-91556746D01*
X180688872Y-91386593D01*
X180531302Y-91242948D01*
X180350019Y-91130702D01*
X180350017Y-91130701D01*
X180241575Y-91088691D01*
X180151198Y-91053679D01*
X179954385Y-91016888D01*
X179892106Y-90985221D01*
X179856833Y-90924908D01*
X179859767Y-90855100D01*
X179899976Y-90797960D01*
X179954384Y-90773111D01*
X180151198Y-90736321D01*
X180350019Y-90659298D01*
X180531302Y-90547052D01*
X180688872Y-90403407D01*
X180817366Y-90233255D01*
X180832934Y-90201990D01*
X180912403Y-90042394D01*
X180912403Y-90042393D01*
X180912405Y-90042389D01*
X180970756Y-89837310D01*
X180977029Y-89769605D01*
X181002814Y-89704669D01*
X181059614Y-89663981D01*
X181129395Y-89660461D01*
X181190002Y-89695225D01*
X181222193Y-89757238D01*
X181224500Y-89781047D01*
X181224500Y-90519856D01*
X181224502Y-90519882D01*
X181227413Y-90544987D01*
X181227415Y-90544991D01*
X181272793Y-90647764D01*
X181272794Y-90647765D01*
X181352235Y-90727206D01*
X181455009Y-90772585D01*
X181480135Y-90775500D01*
X182208758Y-90775499D01*
X182275795Y-90795183D01*
X182321550Y-90847987D01*
X182331494Y-90917146D01*
X182302469Y-90980702D01*
X182243691Y-91018476D01*
X182231542Y-91021388D01*
X182175116Y-91031935D01*
X182058802Y-91053679D01*
X182058800Y-91053679D01*
X182058798Y-91053680D01*
X181859982Y-91130701D01*
X181859980Y-91130702D01*
X181678699Y-91242947D01*
X181521127Y-91386593D01*
X181392632Y-91556746D01*
X181297596Y-91747605D01*
X181297596Y-91747607D01*
X181239244Y-91952689D01*
X181228471Y-92068951D01*
X181202685Y-92133888D01*
X181158130Y-92165804D01*
X181194503Y-92186668D01*
X181226693Y-92248681D01*
X181228470Y-92261047D01*
X181239244Y-92377310D01*
X181279398Y-92518436D01*
X181297596Y-92582392D01*
X181297596Y-92582394D01*
X181392632Y-92773253D01*
X181459489Y-92861785D01*
X181521128Y-92943407D01*
X181678698Y-93087052D01*
X181859981Y-93199298D01*
X182058802Y-93276321D01*
X182268390Y-93315500D01*
X182268392Y-93315500D01*
X182481608Y-93315500D01*
X182481610Y-93315500D01*
X182691198Y-93276321D01*
X182890019Y-93199298D01*
X183071302Y-93087052D01*
X183228872Y-92943407D01*
X183357366Y-92773255D01*
X183357367Y-92773253D01*
X183452403Y-92582394D01*
X183452403Y-92582393D01*
X183452405Y-92582389D01*
X183510756Y-92377310D01*
X183522553Y-92249998D01*
X194144318Y-92249998D01*
X194144318Y-92250001D01*
X194164955Y-92406760D01*
X194164956Y-92406762D01*
X194203576Y-92500000D01*
X194225464Y-92552841D01*
X194321718Y-92678282D01*
X194447159Y-92774536D01*
X194593238Y-92835044D01*
X194671619Y-92845363D01*
X194749999Y-92855682D01*
X194750000Y-92855682D01*
X194750001Y-92855682D01*
X194802254Y-92848802D01*
X194906762Y-92835044D01*
X195052841Y-92774536D01*
X195178282Y-92678282D01*
X195274536Y-92552841D01*
X195296424Y-92499998D01*
X198694318Y-92499998D01*
X198694318Y-92500001D01*
X198714955Y-92656760D01*
X198714956Y-92656762D01*
X198775464Y-92802841D01*
X198792095Y-92824516D01*
X198817287Y-92889686D01*
X198803247Y-92958130D01*
X198792095Y-92975484D01*
X198775464Y-92997158D01*
X198714956Y-93143237D01*
X198714955Y-93143239D01*
X198694318Y-93299998D01*
X198694318Y-93300001D01*
X198714955Y-93456760D01*
X198714956Y-93456762D01*
X198745413Y-93530293D01*
X198775464Y-93602841D01*
X198871718Y-93728282D01*
X198997159Y-93824536D01*
X199143238Y-93885044D01*
X199221619Y-93895363D01*
X199299999Y-93905682D01*
X199300000Y-93905682D01*
X199300001Y-93905682D01*
X199352254Y-93898802D01*
X199456762Y-93885044D01*
X199602841Y-93824536D01*
X199728282Y-93728282D01*
X199824536Y-93602841D01*
X199885044Y-93456762D01*
X199905682Y-93300000D01*
X199902564Y-93276319D01*
X199885044Y-93143239D01*
X199885043Y-93143237D01*
X199824536Y-92997159D01*
X199807904Y-92975484D01*
X199782711Y-92910319D01*
X199796748Y-92841874D01*
X199807899Y-92824521D01*
X199824536Y-92802841D01*
X199885044Y-92656762D01*
X199905682Y-92500000D01*
X199885044Y-92343238D01*
X199824536Y-92197159D01*
X199728282Y-92071718D01*
X199602841Y-91975464D01*
X199592240Y-91971073D01*
X199456762Y-91914956D01*
X199456760Y-91914955D01*
X199300001Y-91894318D01*
X199299999Y-91894318D01*
X199143239Y-91914955D01*
X199143237Y-91914956D01*
X198997160Y-91975463D01*
X198871718Y-92071718D01*
X198775463Y-92197160D01*
X198714956Y-92343237D01*
X198714955Y-92343239D01*
X198694318Y-92499998D01*
X195296424Y-92499998D01*
X195335044Y-92406762D01*
X195355682Y-92250000D01*
X195355508Y-92248681D01*
X195335044Y-92093239D01*
X195335044Y-92093238D01*
X195274536Y-91947159D01*
X195178282Y-91821718D01*
X195052841Y-91725464D01*
X194998224Y-91702841D01*
X194906762Y-91664956D01*
X194906760Y-91664955D01*
X194750001Y-91644318D01*
X194749999Y-91644318D01*
X194593239Y-91664955D01*
X194593237Y-91664956D01*
X194447160Y-91725463D01*
X194321718Y-91821718D01*
X194225463Y-91947160D01*
X194164956Y-92093237D01*
X194164955Y-92093239D01*
X194144318Y-92249998D01*
X183522553Y-92249998D01*
X183530429Y-92165000D01*
X183510756Y-91952690D01*
X183452405Y-91747611D01*
X183452403Y-91747606D01*
X183452403Y-91747605D01*
X183357367Y-91556746D01*
X183238995Y-91399998D01*
X190381818Y-91399998D01*
X190381818Y-91400001D01*
X190402455Y-91556760D01*
X190402456Y-91556762D01*
X190453417Y-91679794D01*
X190462964Y-91702841D01*
X190559218Y-91828282D01*
X190684659Y-91924536D01*
X190830738Y-91985044D01*
X190909119Y-91995363D01*
X190987499Y-92005682D01*
X190987500Y-92005682D01*
X190987501Y-92005682D01*
X191039754Y-91998802D01*
X191144262Y-91985044D01*
X191290341Y-91924536D01*
X191415782Y-91828282D01*
X191512036Y-91702841D01*
X191572544Y-91556762D01*
X191593182Y-91400000D01*
X191572544Y-91243238D01*
X191533922Y-91149996D01*
X200344435Y-91149996D01*
X200344435Y-91150003D01*
X200364630Y-91329249D01*
X200364631Y-91329254D01*
X200424211Y-91499523D01*
X200515192Y-91644318D01*
X200520184Y-91652262D01*
X200647738Y-91779816D01*
X200800478Y-91875789D01*
X200880815Y-91903900D01*
X200970745Y-91935368D01*
X200970750Y-91935369D01*
X201149996Y-91955565D01*
X201150000Y-91955565D01*
X201150004Y-91955565D01*
X201329249Y-91935369D01*
X201329252Y-91935368D01*
X201329255Y-91935368D01*
X201499522Y-91875789D01*
X201652262Y-91779816D01*
X201779816Y-91652262D01*
X201875789Y-91499522D01*
X201935368Y-91329255D01*
X201945060Y-91243237D01*
X201955565Y-91150003D01*
X201955565Y-91149996D01*
X201935369Y-90970750D01*
X201935368Y-90970745D01*
X201914569Y-90911304D01*
X210824500Y-90911304D01*
X210824500Y-91088695D01*
X210859103Y-91262658D01*
X210859106Y-91262667D01*
X210926983Y-91426540D01*
X210926990Y-91426553D01*
X211025535Y-91574034D01*
X211025538Y-91574038D01*
X211150961Y-91699461D01*
X211150965Y-91699464D01*
X211298446Y-91798009D01*
X211298458Y-91798016D01*
X211420134Y-91848414D01*
X211450372Y-91860939D01*
X211504776Y-91904779D01*
X211526841Y-91971073D01*
X211509562Y-92038773D01*
X211458425Y-92086383D01*
X211402920Y-92099500D01*
X211331898Y-92099500D01*
X211292853Y-92104188D01*
X211243438Y-92110122D01*
X211102656Y-92165639D01*
X210982077Y-92257077D01*
X210890639Y-92377656D01*
X210835122Y-92518438D01*
X210830991Y-92552841D01*
X210824500Y-92606898D01*
X210824500Y-93393102D01*
X210830126Y-93439954D01*
X210835122Y-93481561D01*
X210890639Y-93622343D01*
X210982077Y-93742922D01*
X211102656Y-93834360D01*
X211102657Y-93834360D01*
X211102658Y-93834361D01*
X211243436Y-93889877D01*
X211331898Y-93900500D01*
X211331903Y-93900500D01*
X212668097Y-93900500D01*
X212668102Y-93900500D01*
X212756564Y-93889877D01*
X212897342Y-93834361D01*
X213017922Y-93742922D01*
X213109361Y-93622342D01*
X213164877Y-93481564D01*
X213175500Y-93393102D01*
X213175500Y-92606898D01*
X213164877Y-92518436D01*
X213109776Y-92378711D01*
X220649500Y-92378711D01*
X220649500Y-92621288D01*
X220681161Y-92861785D01*
X220743947Y-93096104D01*
X220786691Y-93199297D01*
X220836776Y-93320212D01*
X220958064Y-93530289D01*
X220958066Y-93530292D01*
X220958067Y-93530293D01*
X221105733Y-93722736D01*
X221105739Y-93722743D01*
X221277256Y-93894260D01*
X221277263Y-93894266D01*
X221292141Y-93905682D01*
X221469711Y-94041936D01*
X221679788Y-94163224D01*
X221903900Y-94256054D01*
X222138211Y-94318838D01*
X222318586Y-94342584D01*
X222378711Y-94350500D01*
X222378712Y-94350500D01*
X222621289Y-94350500D01*
X222669388Y-94344167D01*
X222861789Y-94318838D01*
X223096100Y-94256054D01*
X223320212Y-94163224D01*
X223530289Y-94041936D01*
X223722738Y-93894265D01*
X223894265Y-93722738D01*
X224041936Y-93530289D01*
X224163224Y-93320212D01*
X224256054Y-93096100D01*
X224318838Y-92861789D01*
X224350500Y-92621288D01*
X224350500Y-92378712D01*
X224350315Y-92377310D01*
X224342584Y-92318586D01*
X224318838Y-92138211D01*
X224256054Y-91903900D01*
X224163224Y-91679788D01*
X224041936Y-91469711D01*
X223894265Y-91277262D01*
X223894260Y-91277256D01*
X223722743Y-91105739D01*
X223722736Y-91105733D01*
X223530293Y-90958067D01*
X223530292Y-90958066D01*
X223530289Y-90958064D01*
X223320212Y-90836776D01*
X223267534Y-90814956D01*
X223096104Y-90743947D01*
X222953298Y-90705682D01*
X222861789Y-90681162D01*
X222861788Y-90681161D01*
X222861785Y-90681161D01*
X222621289Y-90649500D01*
X222621288Y-90649500D01*
X222378712Y-90649500D01*
X222378711Y-90649500D01*
X222138214Y-90681161D01*
X221903895Y-90743947D01*
X221679794Y-90836773D01*
X221679785Y-90836777D01*
X221469706Y-90958067D01*
X221277263Y-91105733D01*
X221277256Y-91105739D01*
X221105739Y-91277256D01*
X221105733Y-91277263D01*
X220958067Y-91469706D01*
X220836777Y-91679785D01*
X220836773Y-91679794D01*
X220743947Y-91903895D01*
X220681161Y-92138214D01*
X220649500Y-92378711D01*
X213109776Y-92378711D01*
X213109361Y-92377658D01*
X213109360Y-92377657D01*
X213109360Y-92377656D01*
X213017922Y-92257077D01*
X212897343Y-92165639D01*
X212756561Y-92110122D01*
X212710926Y-92104642D01*
X212668102Y-92099500D01*
X212597080Y-92099500D01*
X212530041Y-92079815D01*
X212484286Y-92027011D01*
X212474342Y-91957853D01*
X212503367Y-91894297D01*
X212549627Y-91860939D01*
X212596663Y-91841456D01*
X212701541Y-91798016D01*
X212701544Y-91798014D01*
X212701547Y-91798013D01*
X212849035Y-91699464D01*
X212974464Y-91574035D01*
X213073013Y-91426547D01*
X213140894Y-91262666D01*
X213144759Y-91243239D01*
X213173815Y-91097160D01*
X213175500Y-91088691D01*
X213175500Y-90911309D01*
X213175500Y-90911306D01*
X213175499Y-90911304D01*
X213140896Y-90737341D01*
X213140893Y-90737332D01*
X213140473Y-90736319D01*
X213108571Y-90659298D01*
X213073016Y-90573459D01*
X213073009Y-90573446D01*
X212974464Y-90425965D01*
X212974461Y-90425961D01*
X212849038Y-90300538D01*
X212849034Y-90300535D01*
X212701553Y-90201990D01*
X212701540Y-90201983D01*
X212537667Y-90134106D01*
X212537658Y-90134103D01*
X212363694Y-90099500D01*
X212363691Y-90099500D01*
X211636309Y-90099500D01*
X211636306Y-90099500D01*
X211462341Y-90134103D01*
X211462332Y-90134106D01*
X211298459Y-90201983D01*
X211298446Y-90201990D01*
X211150965Y-90300535D01*
X211150961Y-90300538D01*
X211025538Y-90425961D01*
X211025535Y-90425965D01*
X210926990Y-90573446D01*
X210926983Y-90573459D01*
X210859106Y-90737332D01*
X210859103Y-90737341D01*
X210824500Y-90911304D01*
X201914569Y-90911304D01*
X201892413Y-90847987D01*
X201875789Y-90800478D01*
X201871918Y-90794318D01*
X201803256Y-90685043D01*
X201779816Y-90647738D01*
X201652262Y-90520184D01*
X201651740Y-90519856D01*
X201499523Y-90424211D01*
X201329254Y-90364631D01*
X201329249Y-90364630D01*
X201150004Y-90344435D01*
X201149996Y-90344435D01*
X200970750Y-90364630D01*
X200970745Y-90364631D01*
X200800476Y-90424211D01*
X200647737Y-90520184D01*
X200520184Y-90647737D01*
X200424211Y-90800476D01*
X200364631Y-90970745D01*
X200364630Y-90970750D01*
X200344435Y-91149996D01*
X191533922Y-91149996D01*
X191512036Y-91097159D01*
X191415782Y-90971718D01*
X191290341Y-90875464D01*
X191196942Y-90836777D01*
X191144262Y-90814956D01*
X191144260Y-90814955D01*
X190987501Y-90794318D01*
X190987499Y-90794318D01*
X190830739Y-90814955D01*
X190830737Y-90814956D01*
X190684660Y-90875463D01*
X190559218Y-90971718D01*
X190462963Y-91097160D01*
X190402456Y-91243237D01*
X190402455Y-91243239D01*
X190381818Y-91399998D01*
X183238995Y-91399998D01*
X183228872Y-91386593D01*
X183071302Y-91242948D01*
X182890019Y-91130702D01*
X182890017Y-91130701D01*
X182781575Y-91088691D01*
X182691198Y-91053679D01*
X182518456Y-91021387D01*
X182456176Y-90989719D01*
X182420903Y-90929407D01*
X182423837Y-90859599D01*
X182464046Y-90802459D01*
X182528764Y-90776128D01*
X182541233Y-90775499D01*
X183269864Y-90775499D01*
X183269879Y-90775497D01*
X183269882Y-90775497D01*
X183294987Y-90772586D01*
X183294988Y-90772585D01*
X183294991Y-90772585D01*
X183397765Y-90727206D01*
X183477206Y-90647765D01*
X183522585Y-90544991D01*
X183525500Y-90519865D01*
X183525500Y-90099998D01*
X198694318Y-90099998D01*
X198694318Y-90100001D01*
X198714955Y-90256760D01*
X198714956Y-90256762D01*
X198775464Y-90402841D01*
X198871718Y-90528282D01*
X198997159Y-90624536D01*
X199143238Y-90685044D01*
X199221619Y-90695363D01*
X199299999Y-90705682D01*
X199300000Y-90705682D01*
X199300001Y-90705682D01*
X199352254Y-90698802D01*
X199456762Y-90685044D01*
X199602841Y-90624536D01*
X199728282Y-90528282D01*
X199824536Y-90402841D01*
X199885044Y-90256762D01*
X199905682Y-90100000D01*
X199898097Y-90042389D01*
X199885044Y-89943239D01*
X199885044Y-89943238D01*
X199824536Y-89797159D01*
X199728282Y-89671718D01*
X199602841Y-89575464D01*
X199507542Y-89535990D01*
X199456762Y-89514956D01*
X199456760Y-89514955D01*
X199300001Y-89494318D01*
X199299999Y-89494318D01*
X199143239Y-89514955D01*
X199143237Y-89514956D01*
X198997160Y-89575463D01*
X198871718Y-89671718D01*
X198775463Y-89797160D01*
X198714956Y-89943237D01*
X198714955Y-89943239D01*
X198694318Y-90099998D01*
X183525500Y-90099998D01*
X183525499Y-88730136D01*
X183525497Y-88730117D01*
X183522586Y-88705012D01*
X183522585Y-88705010D01*
X183522585Y-88705009D01*
X183520372Y-88699998D01*
X190394318Y-88699998D01*
X190394318Y-88700001D01*
X190414955Y-88856760D01*
X190414956Y-88856762D01*
X190475464Y-89002841D01*
X190571718Y-89128282D01*
X190697159Y-89224536D01*
X190843238Y-89285044D01*
X190921619Y-89295363D01*
X190999999Y-89305682D01*
X191000000Y-89305682D01*
X191000001Y-89305682D01*
X191052254Y-89298802D01*
X191156762Y-89285044D01*
X191302841Y-89224536D01*
X191428282Y-89128282D01*
X191524536Y-89002841D01*
X191585044Y-88856762D01*
X191605682Y-88700000D01*
X191585044Y-88543238D01*
X191524536Y-88397159D01*
X191428282Y-88271718D01*
X191302841Y-88175464D01*
X191257690Y-88156762D01*
X191156762Y-88114956D01*
X191156760Y-88114955D01*
X191043146Y-88099998D01*
X196594318Y-88099998D01*
X196594318Y-88100001D01*
X196614955Y-88256760D01*
X196614956Y-88256762D01*
X196675464Y-88402841D01*
X196771718Y-88528282D01*
X196897159Y-88624536D01*
X197043238Y-88685044D01*
X197121619Y-88695363D01*
X197199999Y-88705682D01*
X197200000Y-88705682D01*
X197200001Y-88705682D01*
X197252254Y-88698802D01*
X197356762Y-88685044D01*
X197502841Y-88624536D01*
X197624515Y-88531171D01*
X197689683Y-88505979D01*
X197758127Y-88520017D01*
X197775478Y-88531167D01*
X197897159Y-88624536D01*
X198043238Y-88685044D01*
X198121619Y-88695363D01*
X198199999Y-88705682D01*
X198200000Y-88705682D01*
X198200001Y-88705682D01*
X198252254Y-88698802D01*
X198356762Y-88685044D01*
X198502841Y-88624536D01*
X198628282Y-88528282D01*
X198724536Y-88402841D01*
X198785044Y-88256762D01*
X198805682Y-88100000D01*
X198792517Y-87999998D01*
X209894318Y-87999998D01*
X209894318Y-88000001D01*
X209914955Y-88156760D01*
X209914956Y-88156762D01*
X209956376Y-88256760D01*
X209975464Y-88302841D01*
X210071718Y-88428282D01*
X210197159Y-88524536D01*
X210343238Y-88585044D01*
X210386215Y-88590702D01*
X210499999Y-88605682D01*
X210500000Y-88605682D01*
X210500001Y-88605682D01*
X210552254Y-88598802D01*
X210656762Y-88585044D01*
X210802841Y-88524536D01*
X210928282Y-88428282D01*
X211024536Y-88302841D01*
X211085044Y-88156762D01*
X211105682Y-88000000D01*
X211099473Y-87952841D01*
X211085044Y-87843239D01*
X211085044Y-87843238D01*
X211024536Y-87697159D01*
X210928282Y-87571718D01*
X210802841Y-87475464D01*
X210656762Y-87414956D01*
X210656760Y-87414955D01*
X210500001Y-87394318D01*
X210499999Y-87394318D01*
X210343239Y-87414955D01*
X210343237Y-87414956D01*
X210197160Y-87475463D01*
X210071718Y-87571718D01*
X209975463Y-87697160D01*
X209914956Y-87843237D01*
X209914955Y-87843239D01*
X209894318Y-87999998D01*
X198792517Y-87999998D01*
X198785044Y-87943238D01*
X198724536Y-87797159D01*
X198628282Y-87671718D01*
X198502841Y-87575464D01*
X198493797Y-87571718D01*
X198356762Y-87514956D01*
X198356760Y-87514955D01*
X198200001Y-87494318D01*
X198199999Y-87494318D01*
X198043239Y-87514955D01*
X198043237Y-87514956D01*
X197897157Y-87575464D01*
X197775486Y-87668826D01*
X197710317Y-87694020D01*
X197641872Y-87679981D01*
X197624514Y-87668826D01*
X197502842Y-87575464D01*
X197356762Y-87514956D01*
X197356760Y-87514955D01*
X197200001Y-87494318D01*
X197199999Y-87494318D01*
X197043239Y-87514955D01*
X197043237Y-87514956D01*
X196897160Y-87575463D01*
X196771718Y-87671718D01*
X196675463Y-87797160D01*
X196614956Y-87943237D01*
X196614955Y-87943239D01*
X196594318Y-88099998D01*
X191043146Y-88099998D01*
X191000001Y-88094318D01*
X190999999Y-88094318D01*
X190843239Y-88114955D01*
X190843237Y-88114956D01*
X190697160Y-88175463D01*
X190571718Y-88271718D01*
X190475463Y-88397160D01*
X190414956Y-88543237D01*
X190414955Y-88543239D01*
X190394318Y-88699998D01*
X183520372Y-88699998D01*
X183477206Y-88602235D01*
X183397765Y-88522794D01*
X183377124Y-88513680D01*
X183294992Y-88477415D01*
X183269865Y-88474500D01*
X181480143Y-88474500D01*
X181480117Y-88474502D01*
X181455012Y-88477413D01*
X181455008Y-88477415D01*
X181352235Y-88522793D01*
X181272794Y-88602234D01*
X181227415Y-88705006D01*
X181227415Y-88705008D01*
X181224500Y-88730131D01*
X181224500Y-89468951D01*
X181204815Y-89535990D01*
X181152011Y-89581745D01*
X181082853Y-89591689D01*
X181019297Y-89562664D01*
X180981523Y-89503886D01*
X180977029Y-89480391D01*
X180970756Y-89412689D01*
X180934437Y-89285044D01*
X180912405Y-89207611D01*
X180912403Y-89207606D01*
X180912403Y-89207605D01*
X180817367Y-89016746D01*
X180688872Y-88846593D01*
X180561133Y-88730143D01*
X180531302Y-88702948D01*
X180350019Y-88590702D01*
X180350017Y-88590701D01*
X180227497Y-88543237D01*
X180151198Y-88513679D01*
X179941610Y-88474500D01*
X179728390Y-88474500D01*
X179518802Y-88513679D01*
X179518799Y-88513679D01*
X179518799Y-88513680D01*
X179319982Y-88590701D01*
X179319980Y-88590702D01*
X179138699Y-88702947D01*
X178981127Y-88846593D01*
X178852632Y-89016746D01*
X178757596Y-89207605D01*
X178757596Y-89207607D01*
X178699244Y-89412689D01*
X178679571Y-89624999D01*
X156500500Y-89624999D01*
X156500500Y-87649998D01*
X183744318Y-87649998D01*
X183744318Y-87650001D01*
X183764955Y-87806760D01*
X183764956Y-87806762D01*
X183825464Y-87952841D01*
X183921718Y-88078282D01*
X184047159Y-88174536D01*
X184193238Y-88235044D01*
X184271619Y-88245363D01*
X184349999Y-88255682D01*
X184350000Y-88255682D01*
X184350001Y-88255682D01*
X184402254Y-88248802D01*
X184506762Y-88235044D01*
X184652841Y-88174536D01*
X184778282Y-88078282D01*
X184874536Y-87952841D01*
X184935044Y-87806762D01*
X184955682Y-87650000D01*
X184935044Y-87493238D01*
X184874536Y-87347159D01*
X184778282Y-87221718D01*
X184652841Y-87125464D01*
X184506762Y-87064956D01*
X184506760Y-87064955D01*
X184350001Y-87044318D01*
X184349999Y-87044318D01*
X184193239Y-87064955D01*
X184193237Y-87064956D01*
X184047160Y-87125463D01*
X183921718Y-87221718D01*
X183825463Y-87347160D01*
X183764956Y-87493237D01*
X183764955Y-87493239D01*
X183744318Y-87649998D01*
X156500500Y-87649998D01*
X156500500Y-85899998D01*
X168294318Y-85899998D01*
X168294318Y-85900001D01*
X168314955Y-86056760D01*
X168314956Y-86056762D01*
X168375464Y-86202841D01*
X168471718Y-86328282D01*
X168597159Y-86424536D01*
X168743238Y-86485044D01*
X168821619Y-86495363D01*
X168899999Y-86505682D01*
X168900000Y-86505682D01*
X168900001Y-86505682D01*
X168952254Y-86498802D01*
X169056762Y-86485044D01*
X169202841Y-86424536D01*
X169328282Y-86328282D01*
X169401625Y-86232699D01*
X169458052Y-86191497D01*
X169527798Y-86187342D01*
X169588718Y-86221554D01*
X169598372Y-86232695D01*
X169616839Y-86256762D01*
X169668843Y-86324536D01*
X169671718Y-86328282D01*
X169797159Y-86424536D01*
X169943238Y-86485044D01*
X170021619Y-86495363D01*
X170099999Y-86505682D01*
X170100000Y-86505682D01*
X170100001Y-86505682D01*
X170152254Y-86498802D01*
X170256762Y-86485044D01*
X170402841Y-86424536D01*
X170528282Y-86328282D01*
X170624536Y-86202841D01*
X170667135Y-86099998D01*
X174494318Y-86099998D01*
X174494318Y-86100001D01*
X174514955Y-86256760D01*
X174514956Y-86256762D01*
X174574287Y-86400001D01*
X174575464Y-86402841D01*
X174671718Y-86528282D01*
X174797159Y-86624536D01*
X174943238Y-86685044D01*
X175015421Y-86694547D01*
X175099999Y-86705682D01*
X175100000Y-86705682D01*
X175100001Y-86705682D01*
X175184579Y-86694547D01*
X175256762Y-86685044D01*
X175402841Y-86624536D01*
X175528282Y-86528282D01*
X175624536Y-86402841D01*
X175685044Y-86256762D01*
X175705682Y-86100000D01*
X175702183Y-86073425D01*
X175685044Y-85943239D01*
X175685044Y-85943238D01*
X175625712Y-85799998D01*
X181994318Y-85799998D01*
X181994318Y-85800001D01*
X182014955Y-85956760D01*
X182014956Y-85956762D01*
X182074287Y-86100001D01*
X182075464Y-86102841D01*
X182171718Y-86228282D01*
X182297159Y-86324536D01*
X182443238Y-86385044D01*
X182521619Y-86395363D01*
X182599999Y-86405682D01*
X182600000Y-86405682D01*
X182600001Y-86405682D01*
X182652254Y-86398802D01*
X182756762Y-86385044D01*
X182902841Y-86324536D01*
X183028282Y-86228282D01*
X183124536Y-86102841D01*
X183185044Y-85956762D01*
X183192517Y-85899998D01*
X193894318Y-85899998D01*
X193894318Y-85900001D01*
X193914955Y-86056760D01*
X193914956Y-86056762D01*
X193975464Y-86202841D01*
X194071718Y-86328282D01*
X194197159Y-86424536D01*
X194343238Y-86485044D01*
X194421619Y-86495363D01*
X194499999Y-86505682D01*
X194500000Y-86505682D01*
X194500001Y-86505682D01*
X194552254Y-86498802D01*
X194656762Y-86485044D01*
X194802841Y-86424536D01*
X194834820Y-86399998D01*
X209594318Y-86399998D01*
X209594318Y-86400001D01*
X209614955Y-86556760D01*
X209614956Y-86556762D01*
X209672028Y-86694547D01*
X209675464Y-86702841D01*
X209771718Y-86828282D01*
X209897159Y-86924536D01*
X210043238Y-86985044D01*
X210121619Y-86995363D01*
X210199999Y-87005682D01*
X210200000Y-87005682D01*
X210200001Y-87005682D01*
X210252254Y-86998802D01*
X210356762Y-86985044D01*
X210502841Y-86924536D01*
X210628282Y-86828282D01*
X210724536Y-86702841D01*
X210785044Y-86556762D01*
X210792517Y-86499998D01*
X215494318Y-86499998D01*
X215494318Y-86500001D01*
X215514955Y-86656760D01*
X215514956Y-86656762D01*
X215551712Y-86745500D01*
X215575464Y-86802841D01*
X215671718Y-86928282D01*
X215797159Y-87024536D01*
X215943238Y-87085044D01*
X216021619Y-87095363D01*
X216099999Y-87105682D01*
X216100000Y-87105682D01*
X216100001Y-87105682D01*
X216152254Y-87098802D01*
X216256762Y-87085044D01*
X216402841Y-87024536D01*
X216528282Y-86928282D01*
X216624536Y-86802841D01*
X216685044Y-86656762D01*
X216705682Y-86500000D01*
X216703680Y-86484796D01*
X216686346Y-86353127D01*
X216685044Y-86343238D01*
X216624536Y-86197159D01*
X216528282Y-86071718D01*
X216402841Y-85975464D01*
X216393797Y-85971718D01*
X216256762Y-85914956D01*
X216256760Y-85914955D01*
X216100001Y-85894318D01*
X216099999Y-85894318D01*
X215943239Y-85914955D01*
X215943237Y-85914956D01*
X215797160Y-85975463D01*
X215671718Y-86071718D01*
X215575463Y-86197160D01*
X215514956Y-86343237D01*
X215514955Y-86343239D01*
X215494318Y-86499998D01*
X210792517Y-86499998D01*
X210805682Y-86400000D01*
X210785044Y-86243238D01*
X210724536Y-86097159D01*
X210628282Y-85971718D01*
X210502841Y-85875464D01*
X210356762Y-85814956D01*
X210356760Y-85814955D01*
X210243146Y-85799998D01*
X217194318Y-85799998D01*
X217194318Y-85800001D01*
X217214955Y-85956760D01*
X217214956Y-85956762D01*
X217274287Y-86100001D01*
X217275464Y-86102841D01*
X217371718Y-86228282D01*
X217497159Y-86324536D01*
X217643238Y-86385044D01*
X217721619Y-86395363D01*
X217799999Y-86405682D01*
X217800000Y-86405682D01*
X217800001Y-86405682D01*
X217852254Y-86398802D01*
X217956762Y-86385044D01*
X218102841Y-86324536D01*
X218228282Y-86228282D01*
X218324536Y-86102841D01*
X218385044Y-85956762D01*
X218405682Y-85800000D01*
X218399411Y-85752370D01*
X218385523Y-85646875D01*
X218385044Y-85643238D01*
X218324536Y-85497159D01*
X218228282Y-85371718D01*
X218102841Y-85275464D01*
X217956762Y-85214956D01*
X217956760Y-85214955D01*
X217800001Y-85194318D01*
X217799999Y-85194318D01*
X217643239Y-85214955D01*
X217643237Y-85214956D01*
X217497160Y-85275463D01*
X217371718Y-85371718D01*
X217275463Y-85497160D01*
X217214956Y-85643237D01*
X217214955Y-85643239D01*
X217194318Y-85799998D01*
X210243146Y-85799998D01*
X210200001Y-85794318D01*
X210199999Y-85794318D01*
X210043239Y-85814955D01*
X210043237Y-85814956D01*
X209897160Y-85875463D01*
X209771718Y-85971718D01*
X209675463Y-86097160D01*
X209614956Y-86243237D01*
X209614955Y-86243239D01*
X209594318Y-86399998D01*
X194834820Y-86399998D01*
X194928282Y-86328282D01*
X195024536Y-86202841D01*
X195085044Y-86056762D01*
X195105682Y-85900000D01*
X195097419Y-85837239D01*
X195085044Y-85743239D01*
X195085044Y-85743238D01*
X195024536Y-85597159D01*
X194928282Y-85471718D01*
X194802841Y-85375464D01*
X194800021Y-85374296D01*
X194656762Y-85314956D01*
X194656760Y-85314955D01*
X194500001Y-85294318D01*
X194499999Y-85294318D01*
X194343239Y-85314955D01*
X194343234Y-85314957D01*
X194217655Y-85366973D01*
X194148186Y-85374442D01*
X194147894Y-85374296D01*
X194147450Y-85386746D01*
X194107602Y-85444138D01*
X194105285Y-85445960D01*
X194071718Y-85471718D01*
X194052196Y-85497160D01*
X193975463Y-85597160D01*
X193914956Y-85743237D01*
X193914955Y-85743239D01*
X193894318Y-85899998D01*
X183192517Y-85899998D01*
X183205682Y-85800000D01*
X183199411Y-85752370D01*
X183185523Y-85646875D01*
X183185044Y-85643238D01*
X183124536Y-85497159D01*
X183028282Y-85371718D01*
X182902841Y-85275464D01*
X182756762Y-85214956D01*
X182756760Y-85214955D01*
X182600001Y-85194318D01*
X182599999Y-85194318D01*
X182443239Y-85214955D01*
X182443237Y-85214956D01*
X182297160Y-85275463D01*
X182171718Y-85371718D01*
X182075463Y-85497160D01*
X182014956Y-85643237D01*
X182014955Y-85643239D01*
X181994318Y-85799998D01*
X175625712Y-85799998D01*
X175624536Y-85797159D01*
X175528282Y-85671718D01*
X175402841Y-85575464D01*
X175383131Y-85567300D01*
X175256762Y-85514956D01*
X175256760Y-85514955D01*
X175100001Y-85494318D01*
X175099999Y-85494318D01*
X174943239Y-85514955D01*
X174943237Y-85514956D01*
X174797160Y-85575463D01*
X174671718Y-85671718D01*
X174575463Y-85797160D01*
X174514956Y-85943237D01*
X174514955Y-85943239D01*
X174494318Y-86099998D01*
X170667135Y-86099998D01*
X170685044Y-86056762D01*
X170705682Y-85900000D01*
X170697419Y-85837239D01*
X170685044Y-85743239D01*
X170685044Y-85743238D01*
X170624536Y-85597159D01*
X170528282Y-85471718D01*
X170402841Y-85375464D01*
X170400021Y-85374296D01*
X170256762Y-85314956D01*
X170256760Y-85314955D01*
X170100001Y-85294318D01*
X170099999Y-85294318D01*
X169943239Y-85314955D01*
X169943237Y-85314956D01*
X169797160Y-85375463D01*
X169796193Y-85376205D01*
X169671718Y-85471718D01*
X169631009Y-85524772D01*
X169598376Y-85567300D01*
X169541948Y-85608502D01*
X169472202Y-85612657D01*
X169411281Y-85578444D01*
X169401624Y-85567300D01*
X169328282Y-85471718D01*
X169202841Y-85375464D01*
X169200021Y-85374296D01*
X169056762Y-85314956D01*
X169056760Y-85314955D01*
X168900001Y-85294318D01*
X168899999Y-85294318D01*
X168743239Y-85314955D01*
X168743237Y-85314956D01*
X168597160Y-85375463D01*
X168471718Y-85471718D01*
X168375463Y-85597160D01*
X168314956Y-85743237D01*
X168314955Y-85743239D01*
X168294318Y-85899998D01*
X156500500Y-85899998D01*
X156500500Y-84499998D01*
X182744318Y-84499998D01*
X182744318Y-84500001D01*
X182764955Y-84656760D01*
X182764956Y-84656762D01*
X182800775Y-84743238D01*
X182825464Y-84802841D01*
X182921718Y-84928282D01*
X183047159Y-85024536D01*
X183193238Y-85085044D01*
X183271619Y-85095363D01*
X183349999Y-85105682D01*
X183350000Y-85105682D01*
X183350001Y-85105682D01*
X183402254Y-85098802D01*
X183506762Y-85085044D01*
X183652841Y-85024536D01*
X183778282Y-84928282D01*
X183799985Y-84899998D01*
X189094318Y-84899998D01*
X189094318Y-84900001D01*
X189114955Y-85056760D01*
X189114956Y-85056762D01*
X189171933Y-85194318D01*
X189175464Y-85202841D01*
X189271718Y-85328282D01*
X189397159Y-85424536D01*
X189543238Y-85485044D01*
X189613681Y-85494318D01*
X189699999Y-85505682D01*
X189700000Y-85505682D01*
X189700001Y-85505682D01*
X189764739Y-85497159D01*
X189856762Y-85485044D01*
X190002841Y-85424536D01*
X190128282Y-85328282D01*
X190224536Y-85202841D01*
X190285044Y-85056762D01*
X190305682Y-84900000D01*
X190299989Y-84856760D01*
X190285044Y-84743239D01*
X190285044Y-84743238D01*
X190267133Y-84699998D01*
X193094318Y-84699998D01*
X193094318Y-84700001D01*
X193114955Y-84856760D01*
X193114956Y-84856762D01*
X193175464Y-85002841D01*
X193271718Y-85128282D01*
X193397159Y-85224536D01*
X193543238Y-85285044D01*
X193613681Y-85294318D01*
X193699999Y-85305682D01*
X193700000Y-85305682D01*
X193700001Y-85305682D01*
X193752254Y-85298802D01*
X193856762Y-85285044D01*
X193982344Y-85233025D01*
X194051812Y-85225557D01*
X194052104Y-85225703D01*
X194052549Y-85213252D01*
X194092398Y-85155860D01*
X194094640Y-85154095D01*
X194128282Y-85128282D01*
X194224536Y-85002841D01*
X194285044Y-84856762D01*
X194295990Y-84773615D01*
X221124500Y-84773615D01*
X221124500Y-85226384D01*
X221154300Y-85376197D01*
X221154302Y-85376205D01*
X221212759Y-85517334D01*
X221212764Y-85517343D01*
X221297629Y-85644351D01*
X221297632Y-85644355D01*
X221405644Y-85752367D01*
X221405648Y-85752370D01*
X221532656Y-85837235D01*
X221532662Y-85837238D01*
X221532663Y-85837239D01*
X221673795Y-85895698D01*
X221770607Y-85914955D01*
X221823615Y-85925499D01*
X221823619Y-85925500D01*
X221823620Y-85925500D01*
X221976381Y-85925500D01*
X221976382Y-85925499D01*
X222126205Y-85895698D01*
X222267337Y-85837239D01*
X222394352Y-85752370D01*
X222502370Y-85644352D01*
X222587239Y-85517337D01*
X222645698Y-85376205D01*
X222675500Y-85226380D01*
X222675500Y-84773620D01*
X222645698Y-84623795D01*
X222587239Y-84482663D01*
X222587238Y-84482662D01*
X222587235Y-84482656D01*
X222502370Y-84355648D01*
X222502367Y-84355644D01*
X222394355Y-84247632D01*
X222394351Y-84247629D01*
X222267343Y-84162764D01*
X222267334Y-84162759D01*
X222126205Y-84104302D01*
X222126197Y-84104300D01*
X221976384Y-84074500D01*
X221976380Y-84074500D01*
X221823620Y-84074500D01*
X221823615Y-84074500D01*
X221673802Y-84104300D01*
X221673794Y-84104302D01*
X221532665Y-84162759D01*
X221532656Y-84162764D01*
X221405648Y-84247629D01*
X221405644Y-84247632D01*
X221297632Y-84355644D01*
X221297629Y-84355648D01*
X221212764Y-84482656D01*
X221212759Y-84482665D01*
X221154302Y-84623794D01*
X221154300Y-84623802D01*
X221124500Y-84773615D01*
X194295990Y-84773615D01*
X194305682Y-84700000D01*
X194299989Y-84656760D01*
X194285044Y-84543239D01*
X194285044Y-84543238D01*
X194224536Y-84397159D01*
X194128282Y-84271718D01*
X194002841Y-84175464D01*
X193972173Y-84162761D01*
X193856762Y-84114956D01*
X193856760Y-84114955D01*
X193700001Y-84094318D01*
X193699999Y-84094318D01*
X193543239Y-84114955D01*
X193543237Y-84114956D01*
X193397160Y-84175463D01*
X193271718Y-84271718D01*
X193175463Y-84397160D01*
X193114956Y-84543237D01*
X193114955Y-84543239D01*
X193094318Y-84699998D01*
X190267133Y-84699998D01*
X190224536Y-84597159D01*
X190128282Y-84471718D01*
X190002841Y-84375464D01*
X189954991Y-84355644D01*
X189856762Y-84314956D01*
X189856760Y-84314955D01*
X189700001Y-84294318D01*
X189699999Y-84294318D01*
X189543239Y-84314955D01*
X189543237Y-84314956D01*
X189397160Y-84375463D01*
X189271718Y-84471718D01*
X189175463Y-84597160D01*
X189114956Y-84743237D01*
X189114955Y-84743239D01*
X189094318Y-84899998D01*
X183799985Y-84899998D01*
X183874536Y-84802841D01*
X183935044Y-84656762D01*
X183955682Y-84500000D01*
X183935044Y-84343238D01*
X183906778Y-84274998D01*
X186581818Y-84274998D01*
X186581818Y-84275001D01*
X186602455Y-84431760D01*
X186602456Y-84431762D01*
X186648630Y-84543237D01*
X186662964Y-84577841D01*
X186759218Y-84703282D01*
X186884659Y-84799536D01*
X187030738Y-84860044D01*
X187109119Y-84870363D01*
X187187499Y-84880682D01*
X187187500Y-84880682D01*
X187187501Y-84880682D01*
X187239754Y-84873802D01*
X187344262Y-84860044D01*
X187490341Y-84799536D01*
X187615782Y-84703282D01*
X187712036Y-84577841D01*
X187772544Y-84431762D01*
X187793182Y-84275000D01*
X187772544Y-84118238D01*
X187712036Y-83972159D01*
X187615782Y-83846718D01*
X187490341Y-83750464D01*
X187344262Y-83689956D01*
X187344260Y-83689955D01*
X187187501Y-83669318D01*
X187187499Y-83669318D01*
X187030739Y-83689955D01*
X187030737Y-83689956D01*
X186884660Y-83750463D01*
X186759218Y-83846718D01*
X186662963Y-83972160D01*
X186602456Y-84118237D01*
X186602455Y-84118239D01*
X186581818Y-84274998D01*
X183906778Y-84274998D01*
X183874536Y-84197159D01*
X183778282Y-84071718D01*
X183652841Y-83975464D01*
X183644864Y-83972160D01*
X183506762Y-83914956D01*
X183506760Y-83914955D01*
X183350001Y-83894318D01*
X183349999Y-83894318D01*
X183193239Y-83914955D01*
X183193237Y-83914956D01*
X183047160Y-83975463D01*
X182921718Y-84071718D01*
X182825463Y-84197160D01*
X182764956Y-84343237D01*
X182764955Y-84343239D01*
X182744318Y-84499998D01*
X156500500Y-84499998D01*
X156500500Y-82999998D01*
X192694318Y-82999998D01*
X192694318Y-83000001D01*
X192714955Y-83156760D01*
X192714956Y-83156762D01*
X192775464Y-83302841D01*
X192871718Y-83428282D01*
X192997159Y-83524536D01*
X193143238Y-83585044D01*
X193221619Y-83595363D01*
X193299999Y-83605682D01*
X193300000Y-83605682D01*
X193300001Y-83605682D01*
X193352254Y-83598802D01*
X193456762Y-83585044D01*
X193602841Y-83524536D01*
X193728282Y-83428282D01*
X193824536Y-83302841D01*
X193885044Y-83156762D01*
X193905682Y-83000000D01*
X193885044Y-82843238D01*
X193824536Y-82697159D01*
X193728282Y-82571718D01*
X193602841Y-82475464D01*
X193456762Y-82414956D01*
X193456760Y-82414955D01*
X193300001Y-82394318D01*
X193299999Y-82394318D01*
X193143239Y-82414955D01*
X193143237Y-82414956D01*
X192997160Y-82475463D01*
X192871718Y-82571718D01*
X192775463Y-82697160D01*
X192714956Y-82843237D01*
X192714955Y-82843239D01*
X192694318Y-82999998D01*
X156500500Y-82999998D01*
X156500500Y-81699998D01*
X188594318Y-81699998D01*
X188594318Y-81700001D01*
X188614955Y-81856760D01*
X188614956Y-81856762D01*
X188674287Y-82000001D01*
X188675464Y-82002841D01*
X188771718Y-82128282D01*
X188897159Y-82224536D01*
X189043238Y-82285044D01*
X189121619Y-82295363D01*
X189199999Y-82305682D01*
X189200000Y-82305682D01*
X189200001Y-82305682D01*
X189252254Y-82298802D01*
X189356762Y-82285044D01*
X189502841Y-82224536D01*
X189628282Y-82128282D01*
X189724536Y-82002841D01*
X189785044Y-81856762D01*
X189805682Y-81700000D01*
X189785044Y-81543238D01*
X189724536Y-81397159D01*
X189628282Y-81271718D01*
X189502841Y-81175464D01*
X189493797Y-81171718D01*
X189356762Y-81114956D01*
X189356760Y-81114955D01*
X189200001Y-81094318D01*
X189199999Y-81094318D01*
X189043239Y-81114955D01*
X189043237Y-81114956D01*
X188897160Y-81175463D01*
X188771718Y-81271718D01*
X188675463Y-81397160D01*
X188614956Y-81543237D01*
X188614955Y-81543239D01*
X188594318Y-81699998D01*
X156500500Y-81699998D01*
X156500500Y-80999998D01*
X173394318Y-80999998D01*
X173394318Y-81000001D01*
X173414955Y-81156760D01*
X173414956Y-81156762D01*
X173475464Y-81302841D01*
X173571718Y-81428282D01*
X173697159Y-81524536D01*
X173843238Y-81585044D01*
X173921619Y-81595363D01*
X173999999Y-81605682D01*
X174000000Y-81605682D01*
X174000001Y-81605682D01*
X174052254Y-81598802D01*
X174156762Y-81585044D01*
X174302841Y-81524536D01*
X174428282Y-81428282D01*
X174524536Y-81302841D01*
X174585044Y-81156762D01*
X174605682Y-81000000D01*
X174604949Y-80994435D01*
X174585044Y-80843239D01*
X174585044Y-80843238D01*
X174524536Y-80697159D01*
X174428282Y-80571718D01*
X174302841Y-80475464D01*
X174156762Y-80414956D01*
X174156760Y-80414955D01*
X174043146Y-80399998D01*
X187694318Y-80399998D01*
X187694318Y-80400001D01*
X187714955Y-80556760D01*
X187714956Y-80556762D01*
X187775464Y-80702841D01*
X187871718Y-80828282D01*
X187997159Y-80924536D01*
X188143238Y-80985044D01*
X188213681Y-80994318D01*
X188299999Y-81005682D01*
X188300000Y-81005682D01*
X188300001Y-81005682D01*
X188352254Y-80998802D01*
X188456762Y-80985044D01*
X188602841Y-80924536D01*
X188728282Y-80828282D01*
X188824536Y-80702841D01*
X188885044Y-80556762D01*
X188905682Y-80400000D01*
X188905682Y-80399998D01*
X191994318Y-80399998D01*
X191994318Y-80400001D01*
X192014955Y-80556760D01*
X192014956Y-80556762D01*
X192075464Y-80702841D01*
X192171718Y-80828282D01*
X192259578Y-80895699D01*
X192297163Y-80924539D01*
X192304196Y-80928599D01*
X192302674Y-80931234D01*
X192345808Y-80965984D01*
X192367881Y-81032276D01*
X192350611Y-81099977D01*
X192319449Y-81135091D01*
X192271721Y-81171715D01*
X192271719Y-81171716D01*
X192271718Y-81171718D01*
X192268844Y-81175464D01*
X192175463Y-81297160D01*
X192114956Y-81443237D01*
X192114955Y-81443239D01*
X192094318Y-81599998D01*
X192094318Y-81600001D01*
X192114955Y-81756760D01*
X192114956Y-81756762D01*
X192156376Y-81856760D01*
X192175464Y-81902841D01*
X192271718Y-82028282D01*
X192397159Y-82124536D01*
X192543238Y-82185044D01*
X192621619Y-82195363D01*
X192699999Y-82205682D01*
X192700000Y-82205682D01*
X192700001Y-82205682D01*
X192752254Y-82198802D01*
X192856762Y-82185044D01*
X193002841Y-82124536D01*
X193128282Y-82028282D01*
X193149985Y-81999998D01*
X194794318Y-81999998D01*
X194794318Y-82000001D01*
X194814955Y-82156760D01*
X194814956Y-82156762D01*
X194875464Y-82302841D01*
X194971718Y-82428282D01*
X195097159Y-82524536D01*
X195243238Y-82585044D01*
X195321619Y-82595363D01*
X195399999Y-82605682D01*
X195400000Y-82605682D01*
X195400001Y-82605682D01*
X195452254Y-82598802D01*
X195556762Y-82585044D01*
X195702841Y-82524536D01*
X195828282Y-82428282D01*
X195924536Y-82302841D01*
X195985044Y-82156762D01*
X196005682Y-82000000D01*
X195985044Y-81843238D01*
X195967133Y-81799996D01*
X207394435Y-81799996D01*
X207394435Y-81800003D01*
X207414630Y-81979249D01*
X207414631Y-81979254D01*
X207474211Y-82149523D01*
X207521345Y-82224536D01*
X207570184Y-82302262D01*
X207697738Y-82429816D01*
X207770385Y-82475463D01*
X207848483Y-82524536D01*
X207850478Y-82525789D01*
X207981736Y-82571718D01*
X208020745Y-82585368D01*
X208020750Y-82585369D01*
X208199996Y-82605565D01*
X208200000Y-82605565D01*
X208200004Y-82605565D01*
X208379249Y-82585369D01*
X208379252Y-82585368D01*
X208379255Y-82585368D01*
X208549522Y-82525789D01*
X208702262Y-82429816D01*
X208829816Y-82302262D01*
X208925789Y-82149522D01*
X208985368Y-81979255D01*
X208999170Y-81856760D01*
X209005565Y-81800003D01*
X209005565Y-81799996D01*
X208985369Y-81620750D01*
X208985368Y-81620745D01*
X208934532Y-81475464D01*
X208925789Y-81450478D01*
X208921240Y-81443239D01*
X208829815Y-81297737D01*
X208702262Y-81170184D01*
X208549523Y-81074211D01*
X208379254Y-81014631D01*
X208379249Y-81014630D01*
X208200004Y-80994435D01*
X208199996Y-80994435D01*
X208020750Y-81014630D01*
X208020745Y-81014631D01*
X207850476Y-81074211D01*
X207697737Y-81170184D01*
X207570184Y-81297737D01*
X207474211Y-81450476D01*
X207414631Y-81620745D01*
X207414630Y-81620750D01*
X207394435Y-81799996D01*
X195967133Y-81799996D01*
X195924536Y-81697159D01*
X195828282Y-81571718D01*
X195702841Y-81475464D01*
X195556762Y-81414956D01*
X195556760Y-81414955D01*
X195400001Y-81394318D01*
X195399999Y-81394318D01*
X195243239Y-81414955D01*
X195243237Y-81414956D01*
X195097160Y-81475463D01*
X194971718Y-81571718D01*
X194875463Y-81697160D01*
X194814956Y-81843237D01*
X194814955Y-81843239D01*
X194794318Y-81999998D01*
X193149985Y-81999998D01*
X193224536Y-81902841D01*
X193285044Y-81756762D01*
X193305682Y-81600000D01*
X193285044Y-81443238D01*
X193224536Y-81297159D01*
X193128282Y-81171718D01*
X193002841Y-81075464D01*
X193002836Y-81075460D01*
X192995804Y-81071401D01*
X192997322Y-81068771D01*
X192954171Y-81033986D01*
X192932116Y-80967688D01*
X192949406Y-80899992D01*
X192980550Y-80864907D01*
X193028282Y-80828282D01*
X193124536Y-80702841D01*
X193185044Y-80556762D01*
X193205682Y-80400000D01*
X193202549Y-80376205D01*
X193185044Y-80243239D01*
X193185044Y-80243238D01*
X193124536Y-80097159D01*
X193028282Y-79971718D01*
X192902841Y-79875464D01*
X192756762Y-79814956D01*
X192756760Y-79814955D01*
X192600001Y-79794318D01*
X192599999Y-79794318D01*
X192443239Y-79814955D01*
X192443237Y-79814956D01*
X192297160Y-79875463D01*
X192171718Y-79971718D01*
X192075463Y-80097160D01*
X192014956Y-80243237D01*
X192014955Y-80243239D01*
X191994318Y-80399998D01*
X188905682Y-80399998D01*
X188902549Y-80376205D01*
X188885044Y-80243239D01*
X188885044Y-80243238D01*
X188824536Y-80097159D01*
X188728282Y-79971718D01*
X188602841Y-79875464D01*
X188456762Y-79814956D01*
X188456760Y-79814955D01*
X188300001Y-79794318D01*
X188299999Y-79794318D01*
X188143239Y-79814955D01*
X188143237Y-79814956D01*
X187997160Y-79875463D01*
X187871718Y-79971718D01*
X187775463Y-80097160D01*
X187714956Y-80243237D01*
X187714955Y-80243239D01*
X187694318Y-80399998D01*
X174043146Y-80399998D01*
X174000001Y-80394318D01*
X173999999Y-80394318D01*
X173843239Y-80414955D01*
X173843237Y-80414956D01*
X173697160Y-80475463D01*
X173571718Y-80571718D01*
X173475463Y-80697160D01*
X173414956Y-80843237D01*
X173414955Y-80843239D01*
X173394318Y-80999998D01*
X156500500Y-80999998D01*
X156500500Y-79599998D01*
X177794318Y-79599998D01*
X177794318Y-79600001D01*
X177814955Y-79756760D01*
X177814956Y-79756762D01*
X177875464Y-79902841D01*
X177971718Y-80028282D01*
X178097159Y-80124536D01*
X178243238Y-80185044D01*
X178321619Y-80195363D01*
X178399999Y-80205682D01*
X178400000Y-80205682D01*
X178400001Y-80205682D01*
X178452254Y-80198802D01*
X178556762Y-80185044D01*
X178702841Y-80124536D01*
X178828282Y-80028282D01*
X178924536Y-79902841D01*
X178985044Y-79756762D01*
X179002549Y-79623795D01*
X179005682Y-79600001D01*
X179005682Y-79599998D01*
X178989256Y-79475231D01*
X178985044Y-79443238D01*
X178967133Y-79399998D01*
X184894318Y-79399998D01*
X184894318Y-79400001D01*
X184914955Y-79556760D01*
X184914956Y-79556762D01*
X184972028Y-79694547D01*
X184975464Y-79702841D01*
X185071718Y-79828282D01*
X185197159Y-79924536D01*
X185343238Y-79985044D01*
X185421619Y-79995363D01*
X185499999Y-80005682D01*
X185500000Y-80005682D01*
X185500001Y-80005682D01*
X185552254Y-79998802D01*
X185656762Y-79985044D01*
X185802841Y-79924536D01*
X185928282Y-79828282D01*
X185970229Y-79773615D01*
X221124500Y-79773615D01*
X221124500Y-80226384D01*
X221154300Y-80376197D01*
X221154302Y-80376205D01*
X221212759Y-80517334D01*
X221212764Y-80517343D01*
X221297629Y-80644351D01*
X221297632Y-80644355D01*
X221405644Y-80752367D01*
X221405648Y-80752370D01*
X221532656Y-80837235D01*
X221532662Y-80837238D01*
X221532663Y-80837239D01*
X221673795Y-80895698D01*
X221818774Y-80924536D01*
X221823615Y-80925499D01*
X221823619Y-80925500D01*
X221823620Y-80925500D01*
X221976381Y-80925500D01*
X221976382Y-80925499D01*
X222126205Y-80895698D01*
X222267337Y-80837239D01*
X222394352Y-80752370D01*
X222502370Y-80644352D01*
X222587239Y-80517337D01*
X222645698Y-80376205D01*
X222675500Y-80226380D01*
X222675500Y-79773620D01*
X222645698Y-79623795D01*
X222587239Y-79482663D01*
X222587238Y-79482662D01*
X222587235Y-79482656D01*
X222502370Y-79355648D01*
X222502367Y-79355644D01*
X222394355Y-79247632D01*
X222394351Y-79247629D01*
X222267343Y-79162764D01*
X222267334Y-79162759D01*
X222126205Y-79104302D01*
X222126197Y-79104300D01*
X221976384Y-79074500D01*
X221976380Y-79074500D01*
X221823620Y-79074500D01*
X221823615Y-79074500D01*
X221673802Y-79104300D01*
X221673794Y-79104302D01*
X221532665Y-79162759D01*
X221532656Y-79162764D01*
X221405648Y-79247629D01*
X221405644Y-79247632D01*
X221297632Y-79355644D01*
X221297629Y-79355648D01*
X221212764Y-79482656D01*
X221212759Y-79482665D01*
X221154302Y-79623794D01*
X221154300Y-79623802D01*
X221124500Y-79773615D01*
X185970229Y-79773615D01*
X186024536Y-79702841D01*
X186085044Y-79556762D01*
X186105682Y-79400000D01*
X186099842Y-79355644D01*
X186085044Y-79243239D01*
X186085044Y-79243238D01*
X186024536Y-79097159D01*
X185928282Y-78971718D01*
X185802841Y-78875464D01*
X185656762Y-78814956D01*
X185656760Y-78814955D01*
X185500001Y-78794318D01*
X185499999Y-78794318D01*
X185343239Y-78814955D01*
X185343237Y-78814956D01*
X185197160Y-78875463D01*
X185071718Y-78971718D01*
X184975463Y-79097160D01*
X184914956Y-79243237D01*
X184914955Y-79243239D01*
X184894318Y-79399998D01*
X178967133Y-79399998D01*
X178924536Y-79297159D01*
X178828282Y-79171718D01*
X178702841Y-79075464D01*
X178697918Y-79073425D01*
X178556762Y-79014956D01*
X178556760Y-79014955D01*
X178400001Y-78994318D01*
X178399999Y-78994318D01*
X178243239Y-79014955D01*
X178243237Y-79014956D01*
X178097160Y-79075463D01*
X177971718Y-79171718D01*
X177875463Y-79297160D01*
X177814956Y-79443237D01*
X177814955Y-79443239D01*
X177794318Y-79599998D01*
X156500500Y-79599998D01*
X156500500Y-78399998D01*
X191994318Y-78399998D01*
X191994318Y-78400001D01*
X192014955Y-78556760D01*
X192014956Y-78556762D01*
X192075464Y-78702841D01*
X192171718Y-78828282D01*
X192297159Y-78924536D01*
X192443238Y-78985044D01*
X192513681Y-78994318D01*
X192599999Y-79005682D01*
X192600000Y-79005682D01*
X192600001Y-79005682D01*
X192652254Y-78998802D01*
X192756762Y-78985044D01*
X192902841Y-78924536D01*
X193028282Y-78828282D01*
X193124536Y-78702841D01*
X193185044Y-78556762D01*
X193205682Y-78400000D01*
X193201038Y-78364728D01*
X193185044Y-78243239D01*
X193185044Y-78243238D01*
X193124536Y-78097159D01*
X193028282Y-77971718D01*
X192902841Y-77875464D01*
X192756762Y-77814956D01*
X192756760Y-77814955D01*
X192600001Y-77794318D01*
X192599999Y-77794318D01*
X192443239Y-77814955D01*
X192443237Y-77814956D01*
X192297160Y-77875463D01*
X192171718Y-77971718D01*
X192075463Y-78097160D01*
X192014956Y-78243237D01*
X192014955Y-78243239D01*
X191994318Y-78399998D01*
X156500500Y-78399998D01*
X156500500Y-77499998D01*
X214994318Y-77499998D01*
X214994318Y-77500001D01*
X215014955Y-77656760D01*
X215014956Y-77656762D01*
X215071933Y-77794318D01*
X215075464Y-77802841D01*
X215171718Y-77928282D01*
X215297159Y-78024536D01*
X215443238Y-78085044D01*
X215521619Y-78095363D01*
X215599999Y-78105682D01*
X215600000Y-78105682D01*
X215600001Y-78105682D01*
X215664739Y-78097159D01*
X215756762Y-78085044D01*
X215902841Y-78024536D01*
X216028282Y-77928282D01*
X216124536Y-77802841D01*
X216185044Y-77656762D01*
X216205682Y-77500000D01*
X216185044Y-77343238D01*
X216124536Y-77197159D01*
X216028282Y-77071718D01*
X215902841Y-76975464D01*
X215857690Y-76956762D01*
X215756762Y-76914956D01*
X215756760Y-76914955D01*
X215600001Y-76894318D01*
X215599999Y-76894318D01*
X215443239Y-76914955D01*
X215443237Y-76914956D01*
X215297160Y-76975463D01*
X215171718Y-77071718D01*
X215075463Y-77197160D01*
X215014956Y-77343237D01*
X215014955Y-77343239D01*
X214994318Y-77499998D01*
X156500500Y-77499998D01*
X156500500Y-76799998D01*
X220994318Y-76799998D01*
X220994318Y-76800001D01*
X221014955Y-76956760D01*
X221014956Y-76956762D01*
X221075464Y-77102841D01*
X221171718Y-77228282D01*
X221297159Y-77324536D01*
X221443238Y-77385044D01*
X221521619Y-77395363D01*
X221599999Y-77405682D01*
X221600000Y-77405682D01*
X221600001Y-77405682D01*
X221652254Y-77398802D01*
X221756762Y-77385044D01*
X221902841Y-77324536D01*
X222028282Y-77228282D01*
X222124536Y-77102841D01*
X222185044Y-76956762D01*
X222205682Y-76800000D01*
X222185044Y-76643238D01*
X222124536Y-76497159D01*
X222028282Y-76371718D01*
X221902841Y-76275464D01*
X221857690Y-76256762D01*
X221756762Y-76214956D01*
X221756760Y-76214955D01*
X221600001Y-76194318D01*
X221599999Y-76194318D01*
X221443239Y-76214955D01*
X221443237Y-76214956D01*
X221297160Y-76275463D01*
X221171718Y-76371718D01*
X221075463Y-76497160D01*
X221014956Y-76643237D01*
X221014955Y-76643239D01*
X220994318Y-76799998D01*
X156500500Y-76799998D01*
X156500500Y-76099998D01*
X197594318Y-76099998D01*
X197594318Y-76100001D01*
X197614955Y-76256760D01*
X197614956Y-76256762D01*
X197675464Y-76402841D01*
X197771718Y-76528282D01*
X197897159Y-76624536D01*
X198043238Y-76685044D01*
X198121619Y-76695363D01*
X198199999Y-76705682D01*
X198200000Y-76705682D01*
X198200001Y-76705682D01*
X198252254Y-76698802D01*
X198356762Y-76685044D01*
X198502841Y-76624536D01*
X198628282Y-76528282D01*
X198724536Y-76402841D01*
X198785044Y-76256762D01*
X198805682Y-76100000D01*
X198785044Y-75943238D01*
X198724536Y-75797159D01*
X198628282Y-75671718D01*
X198502841Y-75575464D01*
X198356762Y-75514956D01*
X198356760Y-75514955D01*
X198200001Y-75494318D01*
X198199999Y-75494318D01*
X198043239Y-75514955D01*
X198043237Y-75514956D01*
X197897160Y-75575463D01*
X197771718Y-75671718D01*
X197675463Y-75797160D01*
X197614956Y-75943237D01*
X197614955Y-75943239D01*
X197594318Y-76099998D01*
X156500500Y-76099998D01*
X156500500Y-74499999D01*
X163995927Y-74499999D01*
X163995927Y-74500002D01*
X164014978Y-74717762D01*
X164014980Y-74717772D01*
X164071554Y-74928911D01*
X164071558Y-74928920D01*
X164163940Y-75127035D01*
X164163941Y-75127037D01*
X164207376Y-75189068D01*
X164207377Y-75189069D01*
X164770873Y-74625572D01*
X164788453Y-74691180D01*
X164853660Y-74804122D01*
X164945878Y-74896340D01*
X165058820Y-74961547D01*
X165124426Y-74979126D01*
X164560929Y-75542622D01*
X164622963Y-75586058D01*
X164821079Y-75678441D01*
X164821088Y-75678445D01*
X165032227Y-75735019D01*
X165032237Y-75735021D01*
X165249997Y-75754073D01*
X165250001Y-75754073D01*
X165467760Y-75735021D01*
X165467770Y-75735019D01*
X165678909Y-75678445D01*
X165678918Y-75678441D01*
X165877034Y-75586059D01*
X165877038Y-75586057D01*
X165939067Y-75542623D01*
X165939067Y-75542622D01*
X165375571Y-74979126D01*
X165441178Y-74961547D01*
X165554120Y-74896340D01*
X165646338Y-74804122D01*
X165711545Y-74691180D01*
X165729124Y-74625573D01*
X166292620Y-75189069D01*
X166292621Y-75189069D01*
X166336055Y-75127040D01*
X166336057Y-75127036D01*
X166428439Y-74928920D01*
X166428443Y-74928911D01*
X166485017Y-74717772D01*
X166485019Y-74717762D01*
X166504071Y-74500002D01*
X166504071Y-74499999D01*
X170495928Y-74499999D01*
X170495928Y-74500002D01*
X170514979Y-74717762D01*
X170514981Y-74717772D01*
X170571555Y-74928911D01*
X170571559Y-74928920D01*
X170663941Y-75127035D01*
X170663942Y-75127037D01*
X170707377Y-75189068D01*
X170707378Y-75189069D01*
X171270874Y-74625572D01*
X171288454Y-74691180D01*
X171353661Y-74804122D01*
X171445879Y-74896340D01*
X171558821Y-74961547D01*
X171624427Y-74979126D01*
X171060930Y-75542622D01*
X171122964Y-75586058D01*
X171321080Y-75678441D01*
X171321089Y-75678445D01*
X171532228Y-75735019D01*
X171532238Y-75735021D01*
X171749998Y-75754073D01*
X171750002Y-75754073D01*
X171967761Y-75735021D01*
X171967771Y-75735019D01*
X172178910Y-75678445D01*
X172178919Y-75678441D01*
X172377035Y-75586059D01*
X172377039Y-75586057D01*
X172439068Y-75542623D01*
X172439068Y-75542622D01*
X171875572Y-74979126D01*
X171941179Y-74961547D01*
X172054121Y-74896340D01*
X172146339Y-74804122D01*
X172211546Y-74691180D01*
X172229125Y-74625573D01*
X172792621Y-75189069D01*
X172792622Y-75189069D01*
X172836056Y-75127040D01*
X172836058Y-75127036D01*
X172928440Y-74928920D01*
X172928444Y-74928911D01*
X172985018Y-74717772D01*
X172985020Y-74717762D01*
X173004072Y-74500002D01*
X173004072Y-74499999D01*
X186495928Y-74499999D01*
X186495928Y-74500002D01*
X186514979Y-74717762D01*
X186514981Y-74717772D01*
X186571555Y-74928911D01*
X186571559Y-74928920D01*
X186663941Y-75127035D01*
X186663942Y-75127037D01*
X186707377Y-75189068D01*
X186707378Y-75189069D01*
X187270874Y-74625572D01*
X187288454Y-74691180D01*
X187353661Y-74804122D01*
X187445879Y-74896340D01*
X187558821Y-74961547D01*
X187624427Y-74979126D01*
X187060930Y-75542622D01*
X187122964Y-75586058D01*
X187321080Y-75678441D01*
X187321089Y-75678445D01*
X187532228Y-75735019D01*
X187532238Y-75735021D01*
X187749998Y-75754073D01*
X187750002Y-75754073D01*
X187967761Y-75735021D01*
X187967771Y-75735019D01*
X188178910Y-75678445D01*
X188178919Y-75678441D01*
X188377035Y-75586059D01*
X188377039Y-75586057D01*
X188439068Y-75542623D01*
X188439068Y-75542622D01*
X187875572Y-74979126D01*
X187941179Y-74961547D01*
X188054121Y-74896340D01*
X188146339Y-74804122D01*
X188211546Y-74691180D01*
X188229125Y-74625573D01*
X188792621Y-75189069D01*
X188792622Y-75189069D01*
X188836056Y-75127040D01*
X188836058Y-75127036D01*
X188928440Y-74928920D01*
X188928444Y-74928911D01*
X188985018Y-74717772D01*
X188985020Y-74717762D01*
X189004072Y-74500002D01*
X189004072Y-74499999D01*
X192995929Y-74499999D01*
X192995929Y-74500002D01*
X193014980Y-74717762D01*
X193014982Y-74717772D01*
X193071556Y-74928911D01*
X193071560Y-74928920D01*
X193163942Y-75127035D01*
X193163943Y-75127037D01*
X193207378Y-75189068D01*
X193207379Y-75189069D01*
X193770875Y-74625572D01*
X193788455Y-74691180D01*
X193853662Y-74804122D01*
X193945880Y-74896340D01*
X194058822Y-74961547D01*
X194124428Y-74979126D01*
X193560931Y-75542622D01*
X193622965Y-75586058D01*
X193821081Y-75678441D01*
X193821090Y-75678445D01*
X194032229Y-75735019D01*
X194032239Y-75735021D01*
X194249999Y-75754073D01*
X194250003Y-75754073D01*
X194467762Y-75735021D01*
X194467772Y-75735019D01*
X194678911Y-75678445D01*
X194678920Y-75678441D01*
X194877036Y-75586059D01*
X194877040Y-75586057D01*
X194939069Y-75542623D01*
X194939069Y-75542622D01*
X194375573Y-74979126D01*
X194441180Y-74961547D01*
X194554122Y-74896340D01*
X194646340Y-74804122D01*
X194711547Y-74691180D01*
X194729126Y-74625573D01*
X195292622Y-75189069D01*
X195292623Y-75189069D01*
X195336057Y-75127040D01*
X195336059Y-75127036D01*
X195428441Y-74928920D01*
X195428445Y-74928911D01*
X195485019Y-74717772D01*
X195485021Y-74717762D01*
X195504073Y-74500002D01*
X195504073Y-74499999D01*
X208995929Y-74499999D01*
X208995929Y-74500002D01*
X209014980Y-74717762D01*
X209014982Y-74717772D01*
X209071556Y-74928911D01*
X209071560Y-74928920D01*
X209163942Y-75127035D01*
X209163943Y-75127037D01*
X209207378Y-75189068D01*
X209207379Y-75189069D01*
X209770875Y-74625572D01*
X209788455Y-74691180D01*
X209853662Y-74804122D01*
X209945880Y-74896340D01*
X210058822Y-74961547D01*
X210124428Y-74979126D01*
X209560931Y-75542622D01*
X209622965Y-75586058D01*
X209821081Y-75678441D01*
X209821090Y-75678445D01*
X210032229Y-75735019D01*
X210032239Y-75735021D01*
X210249999Y-75754073D01*
X210250003Y-75754073D01*
X210467762Y-75735021D01*
X210467772Y-75735019D01*
X210678911Y-75678445D01*
X210678920Y-75678441D01*
X210877036Y-75586059D01*
X210877040Y-75586057D01*
X210939069Y-75542623D01*
X210939069Y-75542622D01*
X210375573Y-74979126D01*
X210441180Y-74961547D01*
X210554122Y-74896340D01*
X210646340Y-74804122D01*
X210711547Y-74691180D01*
X210729126Y-74625573D01*
X211292622Y-75189069D01*
X211292623Y-75189069D01*
X211336057Y-75127040D01*
X211336059Y-75127036D01*
X211428441Y-74928920D01*
X211428445Y-74928911D01*
X211485019Y-74717772D01*
X211485021Y-74717762D01*
X211504073Y-74500002D01*
X211504073Y-74499999D01*
X215495930Y-74499999D01*
X215495930Y-74500002D01*
X215514981Y-74717762D01*
X215514983Y-74717772D01*
X215571557Y-74928911D01*
X215571561Y-74928920D01*
X215663943Y-75127035D01*
X215663944Y-75127037D01*
X215707379Y-75189068D01*
X215707380Y-75189069D01*
X216270876Y-74625572D01*
X216288456Y-74691180D01*
X216353663Y-74804122D01*
X216445881Y-74896340D01*
X216558823Y-74961547D01*
X216624429Y-74979126D01*
X216060932Y-75542622D01*
X216122966Y-75586058D01*
X216321082Y-75678441D01*
X216321091Y-75678445D01*
X216532230Y-75735019D01*
X216532240Y-75735021D01*
X216750000Y-75754073D01*
X216750004Y-75754073D01*
X216967763Y-75735021D01*
X216967773Y-75735019D01*
X217178912Y-75678445D01*
X217178921Y-75678441D01*
X217377037Y-75586059D01*
X217377041Y-75586057D01*
X217439070Y-75542623D01*
X217439070Y-75542622D01*
X216875574Y-74979126D01*
X216941181Y-74961547D01*
X217054123Y-74896340D01*
X217146341Y-74804122D01*
X217211548Y-74691180D01*
X217229127Y-74625573D01*
X217792623Y-75189069D01*
X217792624Y-75189069D01*
X217836058Y-75127040D01*
X217836060Y-75127036D01*
X217928442Y-74928920D01*
X217928446Y-74928911D01*
X217985020Y-74717772D01*
X217985022Y-74717762D01*
X218004074Y-74500002D01*
X218004074Y-74499999D01*
X217985022Y-74282239D01*
X217985020Y-74282229D01*
X217928446Y-74071090D01*
X217928442Y-74071081D01*
X217836059Y-73872965D01*
X217792623Y-73810931D01*
X217229126Y-74374427D01*
X217211548Y-74308822D01*
X217146341Y-74195880D01*
X217054123Y-74103662D01*
X216941181Y-74038455D01*
X216875574Y-74020875D01*
X217439070Y-73457379D01*
X217439069Y-73457378D01*
X217377038Y-73413943D01*
X217377036Y-73413942D01*
X217178921Y-73321560D01*
X217178912Y-73321556D01*
X216967773Y-73264982D01*
X216967763Y-73264980D01*
X216750004Y-73245929D01*
X216750000Y-73245929D01*
X216532240Y-73264980D01*
X216532230Y-73264982D01*
X216321091Y-73321556D01*
X216321082Y-73321560D01*
X216122962Y-73413945D01*
X216060933Y-73457377D01*
X216060932Y-73457378D01*
X216624430Y-74020875D01*
X216558823Y-74038455D01*
X216445881Y-74103662D01*
X216353663Y-74195880D01*
X216288456Y-74308822D01*
X216270876Y-74374428D01*
X215707379Y-73810931D01*
X215707378Y-73810932D01*
X215663946Y-73872961D01*
X215571561Y-74071081D01*
X215571557Y-74071090D01*
X215514983Y-74282229D01*
X215514981Y-74282239D01*
X215495930Y-74499999D01*
X211504073Y-74499999D01*
X211485021Y-74282239D01*
X211485019Y-74282229D01*
X211428445Y-74071090D01*
X211428441Y-74071081D01*
X211336058Y-73872965D01*
X211292622Y-73810931D01*
X210729125Y-74374427D01*
X210711547Y-74308822D01*
X210646340Y-74195880D01*
X210554122Y-74103662D01*
X210441180Y-74038455D01*
X210375573Y-74020875D01*
X210939069Y-73457379D01*
X210939068Y-73457378D01*
X210877037Y-73413943D01*
X210877035Y-73413942D01*
X210678920Y-73321560D01*
X210678911Y-73321556D01*
X210467772Y-73264982D01*
X210467762Y-73264980D01*
X210250003Y-73245929D01*
X210249999Y-73245929D01*
X210032239Y-73264980D01*
X210032229Y-73264982D01*
X209821090Y-73321556D01*
X209821081Y-73321560D01*
X209622961Y-73413945D01*
X209560932Y-73457377D01*
X209560931Y-73457378D01*
X210124429Y-74020875D01*
X210058822Y-74038455D01*
X209945880Y-74103662D01*
X209853662Y-74195880D01*
X209788455Y-74308822D01*
X209770875Y-74374428D01*
X209207378Y-73810931D01*
X209207377Y-73810932D01*
X209163945Y-73872961D01*
X209071560Y-74071081D01*
X209071556Y-74071090D01*
X209014982Y-74282229D01*
X209014980Y-74282239D01*
X208995929Y-74499999D01*
X195504073Y-74499999D01*
X195485021Y-74282239D01*
X195485019Y-74282229D01*
X195428445Y-74071090D01*
X195428441Y-74071081D01*
X195336058Y-73872965D01*
X195292622Y-73810931D01*
X194729125Y-74374427D01*
X194711547Y-74308822D01*
X194646340Y-74195880D01*
X194554122Y-74103662D01*
X194441180Y-74038455D01*
X194375573Y-74020875D01*
X194939069Y-73457379D01*
X194939068Y-73457378D01*
X194877037Y-73413943D01*
X194877035Y-73413942D01*
X194678920Y-73321560D01*
X194678911Y-73321556D01*
X194467772Y-73264982D01*
X194467762Y-73264980D01*
X194250003Y-73245929D01*
X194249999Y-73245929D01*
X194032239Y-73264980D01*
X194032229Y-73264982D01*
X193821090Y-73321556D01*
X193821081Y-73321560D01*
X193622961Y-73413945D01*
X193560932Y-73457377D01*
X193560931Y-73457378D01*
X194124429Y-74020875D01*
X194058822Y-74038455D01*
X193945880Y-74103662D01*
X193853662Y-74195880D01*
X193788455Y-74308822D01*
X193770875Y-74374428D01*
X193207378Y-73810931D01*
X193207377Y-73810932D01*
X193163945Y-73872961D01*
X193071560Y-74071081D01*
X193071556Y-74071090D01*
X193014982Y-74282229D01*
X193014980Y-74282239D01*
X192995929Y-74499999D01*
X189004072Y-74499999D01*
X188985020Y-74282239D01*
X188985018Y-74282229D01*
X188928444Y-74071090D01*
X188928440Y-74071081D01*
X188836057Y-73872965D01*
X188792621Y-73810931D01*
X188229124Y-74374427D01*
X188211546Y-74308822D01*
X188146339Y-74195880D01*
X188054121Y-74103662D01*
X187941179Y-74038455D01*
X187875572Y-74020875D01*
X188439068Y-73457379D01*
X188439067Y-73457378D01*
X188377036Y-73413943D01*
X188377034Y-73413942D01*
X188178919Y-73321560D01*
X188178910Y-73321556D01*
X187967771Y-73264982D01*
X187967761Y-73264980D01*
X187750002Y-73245929D01*
X187749998Y-73245929D01*
X187532238Y-73264980D01*
X187532228Y-73264982D01*
X187321089Y-73321556D01*
X187321080Y-73321560D01*
X187122960Y-73413945D01*
X187060931Y-73457377D01*
X187060930Y-73457378D01*
X187624428Y-74020875D01*
X187558821Y-74038455D01*
X187445879Y-74103662D01*
X187353661Y-74195880D01*
X187288454Y-74308822D01*
X187270874Y-74374428D01*
X186707377Y-73810931D01*
X186707376Y-73810932D01*
X186663944Y-73872961D01*
X186571559Y-74071081D01*
X186571555Y-74071090D01*
X186514981Y-74282229D01*
X186514979Y-74282239D01*
X186495928Y-74499999D01*
X173004072Y-74499999D01*
X172985020Y-74282239D01*
X172985018Y-74282229D01*
X172928444Y-74071090D01*
X172928440Y-74071081D01*
X172836057Y-73872965D01*
X172792621Y-73810931D01*
X172229124Y-74374427D01*
X172211546Y-74308822D01*
X172146339Y-74195880D01*
X172054121Y-74103662D01*
X171941179Y-74038455D01*
X171875572Y-74020875D01*
X172439068Y-73457379D01*
X172439067Y-73457378D01*
X172377036Y-73413943D01*
X172377034Y-73413942D01*
X172178919Y-73321560D01*
X172178910Y-73321556D01*
X171967771Y-73264982D01*
X171967761Y-73264980D01*
X171750002Y-73245929D01*
X171749998Y-73245929D01*
X171532238Y-73264980D01*
X171532228Y-73264982D01*
X171321089Y-73321556D01*
X171321080Y-73321560D01*
X171122960Y-73413945D01*
X171060931Y-73457377D01*
X171060930Y-73457378D01*
X171624428Y-74020875D01*
X171558821Y-74038455D01*
X171445879Y-74103662D01*
X171353661Y-74195880D01*
X171288454Y-74308822D01*
X171270874Y-74374428D01*
X170707377Y-73810931D01*
X170707376Y-73810932D01*
X170663944Y-73872961D01*
X170571559Y-74071081D01*
X170571555Y-74071090D01*
X170514981Y-74282229D01*
X170514979Y-74282239D01*
X170495928Y-74499999D01*
X166504071Y-74499999D01*
X166485019Y-74282239D01*
X166485017Y-74282229D01*
X166428443Y-74071090D01*
X166428439Y-74071081D01*
X166336056Y-73872965D01*
X166292620Y-73810931D01*
X165729123Y-74374427D01*
X165711545Y-74308822D01*
X165646338Y-74195880D01*
X165554120Y-74103662D01*
X165441178Y-74038455D01*
X165375571Y-74020875D01*
X165939067Y-73457379D01*
X165939066Y-73457378D01*
X165877035Y-73413943D01*
X165877033Y-73413942D01*
X165678918Y-73321560D01*
X165678909Y-73321556D01*
X165467770Y-73264982D01*
X165467760Y-73264980D01*
X165250001Y-73245929D01*
X165249997Y-73245929D01*
X165032237Y-73264980D01*
X165032227Y-73264982D01*
X164821088Y-73321556D01*
X164821079Y-73321560D01*
X164622959Y-73413945D01*
X164560930Y-73457377D01*
X164560929Y-73457378D01*
X165124427Y-74020875D01*
X165058820Y-74038455D01*
X164945878Y-74103662D01*
X164853660Y-74195880D01*
X164788453Y-74308822D01*
X164770873Y-74374428D01*
X164207376Y-73810931D01*
X164207375Y-73810932D01*
X164163943Y-73872961D01*
X164071558Y-74071081D01*
X164071554Y-74071090D01*
X164014980Y-74282229D01*
X164014978Y-74282239D01*
X163995927Y-74499999D01*
X156500500Y-74499999D01*
X156500500Y-73524998D01*
X158319318Y-73524998D01*
X158319318Y-73525001D01*
X158339955Y-73681760D01*
X158339956Y-73681762D01*
X158393459Y-73810931D01*
X158400464Y-73827841D01*
X158496718Y-73953282D01*
X158622159Y-74049536D01*
X158768238Y-74110044D01*
X158846619Y-74120363D01*
X158924999Y-74130682D01*
X158925000Y-74130682D01*
X158925001Y-74130682D01*
X158977254Y-74123802D01*
X159081762Y-74110044D01*
X159227841Y-74049536D01*
X159353282Y-73953282D01*
X159449536Y-73827841D01*
X159510044Y-73681762D01*
X159526069Y-73560043D01*
X159530682Y-73525001D01*
X159530682Y-73524998D01*
X159514226Y-73400001D01*
X159510044Y-73368238D01*
X159449536Y-73222159D01*
X159353282Y-73096718D01*
X159227841Y-73000464D01*
X159226723Y-73000001D01*
X159226716Y-72999998D01*
X174144318Y-72999998D01*
X174144318Y-73000001D01*
X174164955Y-73156760D01*
X174164956Y-73156762D01*
X174200775Y-73243238D01*
X174225464Y-73302841D01*
X174321718Y-73428282D01*
X174447159Y-73524536D01*
X174593238Y-73585044D01*
X174671619Y-73595363D01*
X174749999Y-73605682D01*
X174750000Y-73605682D01*
X174750001Y-73605682D01*
X174802254Y-73598802D01*
X174906762Y-73585044D01*
X175052841Y-73524536D01*
X175178282Y-73428282D01*
X175274536Y-73302841D01*
X175335044Y-73156762D01*
X175355682Y-73000000D01*
X175355682Y-72999998D01*
X196644318Y-72999998D01*
X196644318Y-73000001D01*
X196664955Y-73156760D01*
X196664956Y-73156762D01*
X196700775Y-73243238D01*
X196725464Y-73302841D01*
X196821718Y-73428282D01*
X196947159Y-73524536D01*
X197093238Y-73585044D01*
X197171619Y-73595363D01*
X197249999Y-73605682D01*
X197250000Y-73605682D01*
X197250001Y-73605682D01*
X197302254Y-73598802D01*
X197406762Y-73585044D01*
X197552841Y-73524536D01*
X197678282Y-73428282D01*
X197774536Y-73302841D01*
X197835044Y-73156762D01*
X197855682Y-73000000D01*
X197852390Y-72974998D01*
X219144318Y-72974998D01*
X219144318Y-72975001D01*
X219164955Y-73131760D01*
X219164956Y-73131762D01*
X219220137Y-73264982D01*
X219225464Y-73277841D01*
X219321718Y-73403282D01*
X219447159Y-73499536D01*
X219593238Y-73560044D01*
X219671619Y-73570363D01*
X219749999Y-73580682D01*
X219750000Y-73580682D01*
X219750001Y-73580682D01*
X219802254Y-73573802D01*
X219906762Y-73560044D01*
X220052841Y-73499536D01*
X220178282Y-73403282D01*
X220180802Y-73399998D01*
X222094318Y-73399998D01*
X222094318Y-73400001D01*
X222114955Y-73556760D01*
X222114956Y-73556762D01*
X222175464Y-73702841D01*
X222271718Y-73828282D01*
X222397159Y-73924536D01*
X222543238Y-73985044D01*
X222621619Y-73995363D01*
X222699999Y-74005682D01*
X222700000Y-74005682D01*
X222700001Y-74005682D01*
X222752254Y-73998802D01*
X222856762Y-73985044D01*
X223002841Y-73924536D01*
X223128282Y-73828282D01*
X223224536Y-73702841D01*
X223285044Y-73556762D01*
X223305682Y-73400000D01*
X223301500Y-73368238D01*
X223285044Y-73243239D01*
X223285044Y-73243238D01*
X223224536Y-73097159D01*
X223128282Y-72971718D01*
X223002841Y-72875464D01*
X222856762Y-72814956D01*
X222856760Y-72814955D01*
X222700001Y-72794318D01*
X222699999Y-72794318D01*
X222543239Y-72814955D01*
X222543237Y-72814956D01*
X222397160Y-72875463D01*
X222271718Y-72971718D01*
X222175463Y-73097160D01*
X222114956Y-73243237D01*
X222114955Y-73243239D01*
X222094318Y-73399998D01*
X220180802Y-73399998D01*
X220274536Y-73277841D01*
X220335044Y-73131762D01*
X220355682Y-72975000D01*
X220351068Y-72939956D01*
X220335044Y-72818239D01*
X220335044Y-72818238D01*
X220274536Y-72672159D01*
X220178282Y-72546718D01*
X220052841Y-72450464D01*
X219906762Y-72389956D01*
X219906760Y-72389955D01*
X219750001Y-72369318D01*
X219749999Y-72369318D01*
X219593239Y-72389955D01*
X219593237Y-72389956D01*
X219447160Y-72450463D01*
X219321718Y-72546718D01*
X219225463Y-72672160D01*
X219164956Y-72818237D01*
X219164955Y-72818239D01*
X219144318Y-72974998D01*
X197852390Y-72974998D01*
X197835044Y-72843239D01*
X197835044Y-72843238D01*
X197774536Y-72697159D01*
X197678282Y-72571718D01*
X197552841Y-72475464D01*
X197492483Y-72450463D01*
X197406762Y-72414956D01*
X197406760Y-72414955D01*
X197250001Y-72394318D01*
X197249999Y-72394318D01*
X197093239Y-72414955D01*
X197093237Y-72414956D01*
X196947160Y-72475463D01*
X196821718Y-72571718D01*
X196725463Y-72697160D01*
X196664956Y-72843237D01*
X196664955Y-72843239D01*
X196644318Y-72999998D01*
X175355682Y-72999998D01*
X175352390Y-72974998D01*
X175335044Y-72843239D01*
X175335044Y-72843238D01*
X175274536Y-72697159D01*
X175178282Y-72571718D01*
X175052841Y-72475464D01*
X174992483Y-72450463D01*
X174906762Y-72414956D01*
X174906760Y-72414955D01*
X174750001Y-72394318D01*
X174749999Y-72394318D01*
X174593239Y-72414955D01*
X174593237Y-72414956D01*
X174447160Y-72475463D01*
X174321718Y-72571718D01*
X174225463Y-72697160D01*
X174164956Y-72843237D01*
X174164955Y-72843239D01*
X174144318Y-72999998D01*
X159226716Y-72999998D01*
X159081762Y-72939956D01*
X159081760Y-72939955D01*
X158925001Y-72919318D01*
X158924999Y-72919318D01*
X158768239Y-72939955D01*
X158768237Y-72939956D01*
X158622160Y-73000463D01*
X158496718Y-73096718D01*
X158400463Y-73222160D01*
X158339956Y-73368237D01*
X158339955Y-73368239D01*
X158319318Y-73524998D01*
X156500500Y-73524998D01*
X156500500Y-69205831D01*
X164200199Y-69205831D01*
X164200199Y-70794156D01*
X164200201Y-70794182D01*
X164203112Y-70819287D01*
X164203114Y-70819291D01*
X164248492Y-70922064D01*
X164248493Y-70922065D01*
X164327934Y-71001506D01*
X164430708Y-71046885D01*
X164455834Y-71049800D01*
X166044163Y-71049799D01*
X166044178Y-71049797D01*
X166044181Y-71049797D01*
X166069286Y-71046886D01*
X166069287Y-71046885D01*
X166069290Y-71046885D01*
X166172064Y-71001506D01*
X166251505Y-70922065D01*
X166296884Y-70819291D01*
X166299799Y-70794165D01*
X166299798Y-70000000D01*
X170695120Y-70000000D01*
X170715388Y-70205794D01*
X170775420Y-70403691D01*
X170872897Y-70586058D01*
X170872899Y-70586061D01*
X171004086Y-70745913D01*
X171163938Y-70877100D01*
X171163941Y-70877102D01*
X171346308Y-70974579D01*
X171346311Y-70974579D01*
X171346315Y-70974582D01*
X171544203Y-71034611D01*
X171750000Y-71054880D01*
X171955797Y-71034611D01*
X172153685Y-70974582D01*
X172336060Y-70877101D01*
X172495913Y-70745913D01*
X172627101Y-70586060D01*
X172724582Y-70403685D01*
X172784611Y-70205797D01*
X172804880Y-70000000D01*
X172784611Y-69794203D01*
X172724582Y-69596315D01*
X172724579Y-69596311D01*
X172724579Y-69596308D01*
X172627102Y-69413941D01*
X172627100Y-69413938D01*
X172495913Y-69254086D01*
X172437114Y-69205831D01*
X186700200Y-69205831D01*
X186700200Y-70794156D01*
X186700202Y-70794182D01*
X186703113Y-70819287D01*
X186703115Y-70819291D01*
X186748493Y-70922064D01*
X186748494Y-70922065D01*
X186827935Y-71001506D01*
X186930709Y-71046885D01*
X186955835Y-71049800D01*
X188544164Y-71049799D01*
X188544179Y-71049797D01*
X188544182Y-71049797D01*
X188569287Y-71046886D01*
X188569288Y-71046885D01*
X188569291Y-71046885D01*
X188672065Y-71001506D01*
X188751506Y-70922065D01*
X188796885Y-70819291D01*
X188799800Y-70794165D01*
X188799799Y-70000000D01*
X193195121Y-70000000D01*
X193215389Y-70205794D01*
X193275421Y-70403691D01*
X193372898Y-70586058D01*
X193372900Y-70586061D01*
X193504087Y-70745913D01*
X193663939Y-70877100D01*
X193663942Y-70877102D01*
X193846309Y-70974579D01*
X193846312Y-70974579D01*
X193846316Y-70974582D01*
X194044204Y-71034611D01*
X194250001Y-71054880D01*
X194455798Y-71034611D01*
X194653686Y-70974582D01*
X194836061Y-70877101D01*
X194995914Y-70745913D01*
X195127102Y-70586060D01*
X195224583Y-70403685D01*
X195284612Y-70205797D01*
X195304881Y-70000000D01*
X195284612Y-69794203D01*
X195224583Y-69596315D01*
X195224580Y-69596311D01*
X195224580Y-69596308D01*
X195127103Y-69413941D01*
X195127101Y-69413938D01*
X194995914Y-69254086D01*
X194937115Y-69205831D01*
X209200201Y-69205831D01*
X209200201Y-70794156D01*
X209200203Y-70794182D01*
X209203114Y-70819287D01*
X209203116Y-70819291D01*
X209248494Y-70922064D01*
X209248495Y-70922065D01*
X209327936Y-71001506D01*
X209430710Y-71046885D01*
X209455836Y-71049800D01*
X211044165Y-71049799D01*
X211044180Y-71049797D01*
X211044183Y-71049797D01*
X211069288Y-71046886D01*
X211069289Y-71046885D01*
X211069292Y-71046885D01*
X211172066Y-71001506D01*
X211251507Y-70922065D01*
X211296886Y-70819291D01*
X211299801Y-70794165D01*
X211299800Y-70000000D01*
X215695122Y-70000000D01*
X215715390Y-70205794D01*
X215775422Y-70403691D01*
X215872899Y-70586058D01*
X215872901Y-70586061D01*
X216004088Y-70745913D01*
X216163940Y-70877100D01*
X216163943Y-70877102D01*
X216346310Y-70974579D01*
X216346313Y-70974579D01*
X216346317Y-70974582D01*
X216544205Y-71034611D01*
X216750002Y-71054880D01*
X216955799Y-71034611D01*
X217153687Y-70974582D01*
X217336062Y-70877101D01*
X217495915Y-70745913D01*
X217627103Y-70586060D01*
X217724584Y-70403685D01*
X217784613Y-70205797D01*
X217804882Y-70000000D01*
X217784613Y-69794203D01*
X217724584Y-69596315D01*
X217724581Y-69596311D01*
X217724581Y-69596308D01*
X217627104Y-69413941D01*
X217627102Y-69413938D01*
X217495915Y-69254086D01*
X217336063Y-69122899D01*
X217336060Y-69122897D01*
X217153693Y-69025420D01*
X217153687Y-69025418D01*
X216955799Y-68965389D01*
X216955796Y-68965388D01*
X216750002Y-68945120D01*
X216544207Y-68965388D01*
X216346310Y-69025420D01*
X216163943Y-69122897D01*
X216163940Y-69122899D01*
X216004088Y-69254086D01*
X215872901Y-69413938D01*
X215872899Y-69413941D01*
X215775422Y-69596308D01*
X215715390Y-69794205D01*
X215695122Y-70000000D01*
X211299800Y-70000000D01*
X211299800Y-69205836D01*
X211299798Y-69205817D01*
X211296887Y-69180712D01*
X211296886Y-69180710D01*
X211296886Y-69180709D01*
X211251507Y-69077935D01*
X211172066Y-68998494D01*
X211172064Y-68998493D01*
X211069293Y-68953115D01*
X211044166Y-68950200D01*
X209455844Y-68950200D01*
X209455818Y-68950202D01*
X209430713Y-68953113D01*
X209430709Y-68953115D01*
X209327936Y-68998493D01*
X209248495Y-69077934D01*
X209203116Y-69180706D01*
X209203116Y-69180708D01*
X209200201Y-69205831D01*
X194937115Y-69205831D01*
X194836062Y-69122899D01*
X194836059Y-69122897D01*
X194653692Y-69025420D01*
X194653686Y-69025418D01*
X194455798Y-68965389D01*
X194455795Y-68965388D01*
X194250001Y-68945120D01*
X194044206Y-68965388D01*
X193846309Y-69025420D01*
X193663942Y-69122897D01*
X193663939Y-69122899D01*
X193504087Y-69254086D01*
X193372900Y-69413938D01*
X193372898Y-69413941D01*
X193275421Y-69596308D01*
X193215389Y-69794205D01*
X193195121Y-70000000D01*
X188799799Y-70000000D01*
X188799799Y-69205836D01*
X188799797Y-69205817D01*
X188796886Y-69180712D01*
X188796885Y-69180710D01*
X188796885Y-69180709D01*
X188751506Y-69077935D01*
X188672065Y-68998494D01*
X188672063Y-68998493D01*
X188569292Y-68953115D01*
X188544165Y-68950200D01*
X186955843Y-68950200D01*
X186955817Y-68950202D01*
X186930712Y-68953113D01*
X186930708Y-68953115D01*
X186827935Y-68998493D01*
X186748494Y-69077934D01*
X186703115Y-69180706D01*
X186703115Y-69180708D01*
X186700200Y-69205831D01*
X172437114Y-69205831D01*
X172336061Y-69122899D01*
X172336058Y-69122897D01*
X172153691Y-69025420D01*
X172153685Y-69025418D01*
X171955797Y-68965389D01*
X171955794Y-68965388D01*
X171750000Y-68945120D01*
X171544205Y-68965388D01*
X171346308Y-69025420D01*
X171163941Y-69122897D01*
X171163938Y-69122899D01*
X171004086Y-69254086D01*
X170872899Y-69413938D01*
X170872897Y-69413941D01*
X170775420Y-69596308D01*
X170715388Y-69794205D01*
X170695120Y-70000000D01*
X166299798Y-70000000D01*
X166299798Y-69205836D01*
X166299796Y-69205817D01*
X166296885Y-69180712D01*
X166296884Y-69180710D01*
X166296884Y-69180709D01*
X166251505Y-69077935D01*
X166172064Y-68998494D01*
X166172062Y-68998493D01*
X166069291Y-68953115D01*
X166044164Y-68950200D01*
X164455842Y-68950200D01*
X164455816Y-68950202D01*
X164430711Y-68953113D01*
X164430707Y-68953115D01*
X164327934Y-68998493D01*
X164248493Y-69077934D01*
X164203114Y-69180706D01*
X164203114Y-69180708D01*
X164200199Y-69205831D01*
X156500500Y-69205831D01*
X156500500Y-67499998D01*
X185994318Y-67499998D01*
X185994318Y-67500001D01*
X186014955Y-67656760D01*
X186014956Y-67656762D01*
X186075464Y-67802841D01*
X186171718Y-67928282D01*
X186297159Y-68024536D01*
X186443238Y-68085044D01*
X186521619Y-68095363D01*
X186599999Y-68105682D01*
X186600000Y-68105682D01*
X186600001Y-68105682D01*
X186652254Y-68098802D01*
X186756762Y-68085044D01*
X186902841Y-68024536D01*
X187028282Y-67928282D01*
X187124536Y-67802841D01*
X187185044Y-67656762D01*
X187205682Y-67500000D01*
X187185044Y-67343238D01*
X187124536Y-67197159D01*
X187028282Y-67071718D01*
X186902841Y-66975464D01*
X186756762Y-66914956D01*
X186756760Y-66914955D01*
X186600001Y-66894318D01*
X186599999Y-66894318D01*
X186443239Y-66914955D01*
X186443237Y-66914956D01*
X186297160Y-66975463D01*
X186171718Y-67071718D01*
X186075463Y-67197160D01*
X186014956Y-67343237D01*
X186014955Y-67343239D01*
X185994318Y-67499998D01*
X156500500Y-67499998D01*
X156500500Y-59269998D01*
X171914843Y-59269998D01*
X171914843Y-59270001D01*
X171935430Y-59505315D01*
X171935432Y-59505326D01*
X171996566Y-59733483D01*
X171996570Y-59733492D01*
X172096400Y-59947579D01*
X172096402Y-59947583D01*
X172155072Y-60031373D01*
X172155073Y-60031373D01*
X172787037Y-59399409D01*
X172804075Y-59462993D01*
X172869901Y-59577007D01*
X172962993Y-59670099D01*
X173077007Y-59735925D01*
X173140590Y-59752962D01*
X172508625Y-60384925D01*
X172592421Y-60443599D01*
X172791573Y-60536466D01*
X172844012Y-60582638D01*
X172863164Y-60649832D01*
X172842948Y-60716713D01*
X172789783Y-60762048D01*
X172783968Y-60764472D01*
X172776771Y-60767260D01*
X172754982Y-60775701D01*
X172754980Y-60775702D01*
X172573699Y-60887947D01*
X172416127Y-61031593D01*
X172287632Y-61201746D01*
X172192596Y-61392605D01*
X172192596Y-61392607D01*
X172134244Y-61597689D01*
X172114571Y-61809999D01*
X172114571Y-61810000D01*
X172134244Y-62022310D01*
X172192596Y-62227392D01*
X172192596Y-62227394D01*
X172287632Y-62418253D01*
X172287634Y-62418255D01*
X172416128Y-62588407D01*
X172573698Y-62732052D01*
X172754981Y-62844298D01*
X172953802Y-62921321D01*
X173163390Y-62960500D01*
X173163392Y-62960500D01*
X173376608Y-62960500D01*
X173376610Y-62960500D01*
X173586198Y-62921321D01*
X173785019Y-62844298D01*
X173966302Y-62732052D01*
X174123872Y-62588407D01*
X174252366Y-62418255D01*
X174347405Y-62227389D01*
X174405756Y-62022310D01*
X174425429Y-61810000D01*
X174405756Y-61597690D01*
X174347405Y-61392611D01*
X174347403Y-61392606D01*
X174347403Y-61392605D01*
X174252367Y-61201746D01*
X174123872Y-61031593D01*
X173966302Y-60887948D01*
X173785019Y-60775702D01*
X173785014Y-60775700D01*
X173778129Y-60773032D01*
X173756037Y-60764474D01*
X173700636Y-60721903D01*
X173677045Y-60656136D01*
X173692756Y-60588056D01*
X173742779Y-60539276D01*
X173748427Y-60536466D01*
X173947574Y-60443602D01*
X173947582Y-60443598D01*
X174031373Y-60384926D01*
X174031373Y-60384925D01*
X173399409Y-59752962D01*
X173462993Y-59735925D01*
X173577007Y-59670099D01*
X173670099Y-59577007D01*
X173735925Y-59462993D01*
X173752962Y-59399410D01*
X174384925Y-60031373D01*
X174384926Y-60031373D01*
X174406895Y-59999998D01*
X222494318Y-59999998D01*
X222494318Y-60000001D01*
X222514955Y-60156760D01*
X222514956Y-60156762D01*
X222575464Y-60302841D01*
X222671718Y-60428282D01*
X222797159Y-60524536D01*
X222943238Y-60585044D01*
X222966117Y-60588056D01*
X223099999Y-60605682D01*
X223100000Y-60605682D01*
X223100001Y-60605682D01*
X223152254Y-60598802D01*
X223256762Y-60585044D01*
X223402841Y-60524536D01*
X223528282Y-60428282D01*
X223624536Y-60302841D01*
X223685044Y-60156762D01*
X223705682Y-60000000D01*
X223685044Y-59843238D01*
X223624536Y-59697159D01*
X223528282Y-59571718D01*
X223402841Y-59475464D01*
X223372733Y-59462993D01*
X223256762Y-59414956D01*
X223256760Y-59414955D01*
X223100001Y-59394318D01*
X223099999Y-59394318D01*
X222943239Y-59414955D01*
X222943237Y-59414956D01*
X222797160Y-59475463D01*
X222671718Y-59571718D01*
X222575463Y-59697160D01*
X222514956Y-59843237D01*
X222514955Y-59843239D01*
X222494318Y-59999998D01*
X174406895Y-59999998D01*
X174443598Y-59947582D01*
X174443600Y-59947578D01*
X174543429Y-59733492D01*
X174543433Y-59733483D01*
X174604567Y-59505326D01*
X174604569Y-59505315D01*
X174625157Y-59270001D01*
X174625157Y-59269998D01*
X174604569Y-59034684D01*
X174604567Y-59034673D01*
X174543433Y-58806516D01*
X174543429Y-58806507D01*
X174443600Y-58592423D01*
X174443599Y-58592421D01*
X174384925Y-58508626D01*
X174384925Y-58508625D01*
X173752962Y-59140589D01*
X173735925Y-59077007D01*
X173670099Y-58962993D01*
X173577007Y-58869901D01*
X173462993Y-58804075D01*
X173399410Y-58787037D01*
X174031373Y-58155073D01*
X174031373Y-58155072D01*
X173947583Y-58096402D01*
X173947579Y-58096400D01*
X173748426Y-58003533D01*
X173695987Y-57957360D01*
X173693889Y-57949998D01*
X174694318Y-57949998D01*
X174694318Y-57950001D01*
X174714955Y-58106760D01*
X174714956Y-58106762D01*
X174775464Y-58252841D01*
X174871718Y-58378282D01*
X174997159Y-58474536D01*
X175143238Y-58535044D01*
X175221619Y-58545363D01*
X175299999Y-58555682D01*
X175300000Y-58555682D01*
X175300001Y-58555682D01*
X175352254Y-58548802D01*
X175456762Y-58535044D01*
X175602841Y-58474536D01*
X175728282Y-58378282D01*
X175824536Y-58252841D01*
X175885044Y-58106762D01*
X175905682Y-57950000D01*
X175885044Y-57793238D01*
X175824536Y-57647159D01*
X175728282Y-57521718D01*
X175602841Y-57425464D01*
X175456762Y-57364956D01*
X175456760Y-57364955D01*
X175300001Y-57344318D01*
X175299999Y-57344318D01*
X175143239Y-57364955D01*
X175143237Y-57364956D01*
X174997160Y-57425463D01*
X174871718Y-57521718D01*
X174775463Y-57647160D01*
X174714956Y-57793237D01*
X174714955Y-57793239D01*
X174694318Y-57949998D01*
X173693889Y-57949998D01*
X173676835Y-57890167D01*
X173697051Y-57823286D01*
X173750216Y-57777951D01*
X173756005Y-57775537D01*
X173785019Y-57764298D01*
X173966302Y-57652052D01*
X174123872Y-57508407D01*
X174252366Y-57338255D01*
X174347405Y-57147389D01*
X174405756Y-56942310D01*
X174425429Y-56730000D01*
X174405756Y-56517690D01*
X174347405Y-56312611D01*
X174347403Y-56312606D01*
X174347403Y-56312605D01*
X174252367Y-56121746D01*
X174160426Y-55999998D01*
X211694318Y-55999998D01*
X211694318Y-56000001D01*
X211714955Y-56156760D01*
X211714956Y-56156762D01*
X211775464Y-56302841D01*
X211871718Y-56428282D01*
X211997159Y-56524536D01*
X212143238Y-56585044D01*
X212221619Y-56595363D01*
X212299999Y-56605682D01*
X212300000Y-56605682D01*
X212300001Y-56605682D01*
X212352254Y-56598802D01*
X212456762Y-56585044D01*
X212602841Y-56524536D01*
X212728282Y-56428282D01*
X212824536Y-56302841D01*
X212885044Y-56156762D01*
X212905682Y-56000000D01*
X212905682Y-55999998D01*
X222494318Y-55999998D01*
X222494318Y-56000001D01*
X222514955Y-56156760D01*
X222514956Y-56156762D01*
X222575464Y-56302841D01*
X222671718Y-56428282D01*
X222797159Y-56524536D01*
X222943238Y-56585044D01*
X223021619Y-56595363D01*
X223099999Y-56605682D01*
X223100000Y-56605682D01*
X223100001Y-56605682D01*
X223152254Y-56598802D01*
X223256762Y-56585044D01*
X223402841Y-56524536D01*
X223528282Y-56428282D01*
X223624536Y-56302841D01*
X223685044Y-56156762D01*
X223705682Y-56000000D01*
X223685044Y-55843238D01*
X223624536Y-55697159D01*
X223528282Y-55571718D01*
X223402841Y-55475464D01*
X223293303Y-55430092D01*
X223256762Y-55414956D01*
X223256760Y-55414955D01*
X223100001Y-55394318D01*
X223099999Y-55394318D01*
X222943239Y-55414955D01*
X222943237Y-55414956D01*
X222797160Y-55475463D01*
X222671718Y-55571718D01*
X222575463Y-55697160D01*
X222514956Y-55843237D01*
X222514955Y-55843239D01*
X222494318Y-55999998D01*
X212905682Y-55999998D01*
X212885044Y-55843238D01*
X212824536Y-55697159D01*
X212728282Y-55571718D01*
X212602841Y-55475464D01*
X212493303Y-55430092D01*
X212456762Y-55414956D01*
X212456760Y-55414955D01*
X212300001Y-55394318D01*
X212299999Y-55394318D01*
X212143239Y-55414955D01*
X212143237Y-55414956D01*
X211997160Y-55475463D01*
X211871718Y-55571718D01*
X211775463Y-55697160D01*
X211714956Y-55843237D01*
X211714955Y-55843239D01*
X211694318Y-55999998D01*
X174160426Y-55999998D01*
X174123872Y-55951593D01*
X173966302Y-55807948D01*
X173785019Y-55695702D01*
X173785017Y-55695701D01*
X173685608Y-55657190D01*
X173586198Y-55618679D01*
X173389385Y-55581888D01*
X173327106Y-55550221D01*
X173291833Y-55489908D01*
X173294767Y-55420100D01*
X173334976Y-55362960D01*
X173389384Y-55338111D01*
X173586198Y-55301321D01*
X173785019Y-55224298D01*
X173966302Y-55112052D01*
X174123872Y-54968407D01*
X174252366Y-54798255D01*
X174347405Y-54607389D01*
X174405756Y-54402310D01*
X174425429Y-54190000D01*
X174405756Y-53977690D01*
X174347405Y-53772611D01*
X174347403Y-53772606D01*
X174347403Y-53772605D01*
X174252367Y-53581746D01*
X174123872Y-53411593D01*
X173966302Y-53267948D01*
X173785019Y-53155702D01*
X173785017Y-53155701D01*
X173685608Y-53117190D01*
X173586198Y-53078679D01*
X173376610Y-53039500D01*
X173163390Y-53039500D01*
X172953802Y-53078679D01*
X172953799Y-53078679D01*
X172953799Y-53078680D01*
X172754982Y-53155701D01*
X172754980Y-53155702D01*
X172573699Y-53267947D01*
X172416127Y-53411593D01*
X172287632Y-53581746D01*
X172192596Y-53772605D01*
X172192596Y-53772607D01*
X172134244Y-53977689D01*
X172114571Y-54189999D01*
X172114571Y-54190000D01*
X172134244Y-54402310D01*
X172192596Y-54607392D01*
X172192596Y-54607394D01*
X172287632Y-54798253D01*
X172287634Y-54798255D01*
X172416128Y-54968407D01*
X172573698Y-55112052D01*
X172754981Y-55224298D01*
X172953802Y-55301321D01*
X173150613Y-55338111D01*
X173212893Y-55369779D01*
X173248166Y-55430092D01*
X173245232Y-55499900D01*
X173205023Y-55557040D01*
X173150613Y-55581888D01*
X172953802Y-55618679D01*
X172953799Y-55618679D01*
X172953799Y-55618680D01*
X172754982Y-55695701D01*
X172754980Y-55695702D01*
X172573699Y-55807947D01*
X172416127Y-55951593D01*
X172287632Y-56121746D01*
X172192596Y-56312605D01*
X172192596Y-56312607D01*
X172134244Y-56517689D01*
X172114571Y-56729999D01*
X172114571Y-56730000D01*
X172134244Y-56942310D01*
X172192596Y-57147392D01*
X172192596Y-57147394D01*
X172287632Y-57338253D01*
X172416127Y-57508406D01*
X172416128Y-57508407D01*
X172573698Y-57652052D01*
X172754981Y-57764298D01*
X172783961Y-57775525D01*
X172839362Y-57818095D01*
X172862954Y-57883861D01*
X172847244Y-57951942D01*
X172797222Y-58000722D01*
X172791573Y-58003533D01*
X172592419Y-58096401D01*
X172508625Y-58155072D01*
X173140590Y-58787037D01*
X173077007Y-58804075D01*
X172962993Y-58869901D01*
X172869901Y-58962993D01*
X172804075Y-59077007D01*
X172787037Y-59140589D01*
X172155073Y-58508625D01*
X172155072Y-58508625D01*
X172096401Y-58592419D01*
X171996570Y-58806507D01*
X171996566Y-58806516D01*
X171935432Y-59034673D01*
X171935430Y-59034684D01*
X171914843Y-59269998D01*
X156500500Y-59269998D01*
X156500500Y-49378711D01*
X157649500Y-49378711D01*
X157649500Y-49621288D01*
X157681161Y-49861785D01*
X157743947Y-50096104D01*
X157836773Y-50320205D01*
X157836776Y-50320212D01*
X157958064Y-50530289D01*
X157958066Y-50530292D01*
X157958067Y-50530293D01*
X158105733Y-50722736D01*
X158105739Y-50722743D01*
X158277256Y-50894260D01*
X158277262Y-50894265D01*
X158469711Y-51041936D01*
X158679788Y-51163224D01*
X158903900Y-51256054D01*
X159138211Y-51318838D01*
X159318586Y-51342584D01*
X159378711Y-51350500D01*
X159378712Y-51350500D01*
X159621289Y-51350500D01*
X159669388Y-51344167D01*
X159861789Y-51318838D01*
X160096100Y-51256054D01*
X160320212Y-51163224D01*
X160530289Y-51041936D01*
X160722738Y-50894265D01*
X160894265Y-50722738D01*
X161041936Y-50530289D01*
X161163224Y-50320212D01*
X161256054Y-50096100D01*
X161318838Y-49861789D01*
X161350500Y-49621288D01*
X161350500Y-49378712D01*
X161350500Y-49378711D01*
X220649500Y-49378711D01*
X220649500Y-49621288D01*
X220681161Y-49861785D01*
X220743947Y-50096104D01*
X220836773Y-50320205D01*
X220836776Y-50320212D01*
X220958064Y-50530289D01*
X220958066Y-50530292D01*
X220958067Y-50530293D01*
X221105733Y-50722736D01*
X221105739Y-50722743D01*
X221277256Y-50894260D01*
X221277262Y-50894265D01*
X221469711Y-51041936D01*
X221679788Y-51163224D01*
X221903900Y-51256054D01*
X222138211Y-51318838D01*
X222318586Y-51342584D01*
X222378711Y-51350500D01*
X222378712Y-51350500D01*
X222621289Y-51350500D01*
X222669388Y-51344167D01*
X222861789Y-51318838D01*
X223096100Y-51256054D01*
X223320212Y-51163224D01*
X223530289Y-51041936D01*
X223722738Y-50894265D01*
X223894265Y-50722738D01*
X224041936Y-50530289D01*
X224163224Y-50320212D01*
X224256054Y-50096100D01*
X224318838Y-49861789D01*
X224350500Y-49621288D01*
X224350500Y-49378712D01*
X224318838Y-49138211D01*
X224256054Y-48903900D01*
X224163224Y-48679788D01*
X224041936Y-48469711D01*
X223894265Y-48277262D01*
X223894260Y-48277256D01*
X223722743Y-48105739D01*
X223722736Y-48105733D01*
X223530293Y-47958067D01*
X223530292Y-47958066D01*
X223530289Y-47958064D01*
X223320212Y-47836776D01*
X223320205Y-47836773D01*
X223096104Y-47743947D01*
X222861785Y-47681161D01*
X222621289Y-47649500D01*
X222621288Y-47649500D01*
X222378712Y-47649500D01*
X222378711Y-47649500D01*
X222138214Y-47681161D01*
X221903895Y-47743947D01*
X221679794Y-47836773D01*
X221679785Y-47836777D01*
X221469706Y-47958067D01*
X221277263Y-48105733D01*
X221277256Y-48105739D01*
X221105739Y-48277256D01*
X221105733Y-48277263D01*
X220958067Y-48469706D01*
X220836777Y-48679785D01*
X220836773Y-48679794D01*
X220743947Y-48903895D01*
X220681161Y-49138214D01*
X220649500Y-49378711D01*
X161350500Y-49378711D01*
X161318838Y-49138211D01*
X161256054Y-48903900D01*
X161163224Y-48679788D01*
X161041936Y-48469711D01*
X160894265Y-48277262D01*
X160894260Y-48277256D01*
X160722743Y-48105739D01*
X160722736Y-48105733D01*
X160530293Y-47958067D01*
X160530292Y-47958066D01*
X160530289Y-47958064D01*
X160320212Y-47836776D01*
X160320205Y-47836773D01*
X160096104Y-47743947D01*
X159861785Y-47681161D01*
X159621289Y-47649500D01*
X159621288Y-47649500D01*
X159378712Y-47649500D01*
X159378711Y-47649500D01*
X159138214Y-47681161D01*
X158903895Y-47743947D01*
X158679794Y-47836773D01*
X158679785Y-47836777D01*
X158469706Y-47958067D01*
X158277263Y-48105733D01*
X158277256Y-48105739D01*
X158105739Y-48277256D01*
X158105733Y-48277263D01*
X157958067Y-48469706D01*
X157836777Y-48679785D01*
X157836773Y-48679794D01*
X157743947Y-48903895D01*
X157681161Y-49138214D01*
X157649500Y-49378711D01*
X156500500Y-49378711D01*
X156500500Y-46624500D01*
X156520185Y-46557461D01*
X156572989Y-46511706D01*
X156624500Y-46500500D01*
X225375500Y-46500500D01*
X225442539Y-46520185D01*
G37*
%TD.AperFunction*%
%TD*%
M02*
