%TF.GenerationSoftware,KiCad,Pcbnew,8.0.5*%
%TF.CreationDate,2024-11-06T09:26:01-07:00*%
%TF.ProjectId,STM32G041F8P6_dev,53544d33-3247-4303-9431-463850365f64,rev?*%
%TF.SameCoordinates,Original*%
%TF.FileFunction,Legend,Top*%
%TF.FilePolarity,Positive*%
%FSLAX46Y46*%
G04 Gerber Fmt 4.6, Leading zero omitted, Abs format (unit mm)*
G04 Created by KiCad (PCBNEW 8.0.5) date 2024-11-06 09:26:01*
%MOMM*%
%LPD*%
G01*
G04 APERTURE LIST*
%ADD10C,0.100000*%
%ADD11C,0.150000*%
%ADD12C,0.120000*%
%ADD13C,0.152400*%
G04 APERTURE END LIST*
D10*
X166224264Y-93600000D02*
G75*
G02*
X165375736Y-93600000I-424264J0D01*
G01*
X165375736Y-93600000D02*
G75*
G02*
X166224264Y-93600000I424264J0D01*
G01*
X156179763Y-57118633D02*
X156489287Y-57118633D01*
X156489287Y-57118633D02*
X156322620Y-57385300D01*
X156322620Y-57385300D02*
X156394049Y-57385300D01*
X156394049Y-57385300D02*
X156441668Y-57418633D01*
X156441668Y-57418633D02*
X156465477Y-57451966D01*
X156465477Y-57451966D02*
X156489287Y-57518633D01*
X156489287Y-57518633D02*
X156489287Y-57685300D01*
X156489287Y-57685300D02*
X156465477Y-57751966D01*
X156465477Y-57751966D02*
X156441668Y-57785300D01*
X156441668Y-57785300D02*
X156394049Y-57818633D01*
X156394049Y-57818633D02*
X156251192Y-57818633D01*
X156251192Y-57818633D02*
X156203573Y-57785300D01*
X156203573Y-57785300D02*
X156179763Y-57751966D01*
X156703572Y-57751966D02*
X156727382Y-57785300D01*
X156727382Y-57785300D02*
X156703572Y-57818633D01*
X156703572Y-57818633D02*
X156679763Y-57785300D01*
X156679763Y-57785300D02*
X156703572Y-57751966D01*
X156703572Y-57751966D02*
X156703572Y-57818633D01*
X157155953Y-57351966D02*
X157155953Y-57818633D01*
X157036905Y-57085300D02*
X156917858Y-57585300D01*
X156917858Y-57585300D02*
X157227381Y-57585300D01*
X157655952Y-57118633D02*
X157417857Y-57118633D01*
X157417857Y-57118633D02*
X157394048Y-57451966D01*
X157394048Y-57451966D02*
X157417857Y-57418633D01*
X157417857Y-57418633D02*
X157465476Y-57385300D01*
X157465476Y-57385300D02*
X157584524Y-57385300D01*
X157584524Y-57385300D02*
X157632143Y-57418633D01*
X157632143Y-57418633D02*
X157655952Y-57451966D01*
X157655952Y-57451966D02*
X157679762Y-57518633D01*
X157679762Y-57518633D02*
X157679762Y-57685300D01*
X157679762Y-57685300D02*
X157655952Y-57751966D01*
X157655952Y-57751966D02*
X157632143Y-57785300D01*
X157632143Y-57785300D02*
X157584524Y-57818633D01*
X157584524Y-57818633D02*
X157465476Y-57818633D01*
X157465476Y-57818633D02*
X157417857Y-57785300D01*
X157417857Y-57785300D02*
X157394048Y-57751966D01*
X157989285Y-57118633D02*
X158036904Y-57118633D01*
X158036904Y-57118633D02*
X158084523Y-57151966D01*
X158084523Y-57151966D02*
X158108333Y-57185300D01*
X158108333Y-57185300D02*
X158132142Y-57251966D01*
X158132142Y-57251966D02*
X158155952Y-57385300D01*
X158155952Y-57385300D02*
X158155952Y-57551966D01*
X158155952Y-57551966D02*
X158132142Y-57685300D01*
X158132142Y-57685300D02*
X158108333Y-57751966D01*
X158108333Y-57751966D02*
X158084523Y-57785300D01*
X158084523Y-57785300D02*
X158036904Y-57818633D01*
X158036904Y-57818633D02*
X157989285Y-57818633D01*
X157989285Y-57818633D02*
X157941666Y-57785300D01*
X157941666Y-57785300D02*
X157917857Y-57751966D01*
X157917857Y-57751966D02*
X157894047Y-57685300D01*
X157894047Y-57685300D02*
X157870238Y-57551966D01*
X157870238Y-57551966D02*
X157870238Y-57385300D01*
X157870238Y-57385300D02*
X157894047Y-57251966D01*
X157894047Y-57251966D02*
X157917857Y-57185300D01*
X157917857Y-57185300D02*
X157941666Y-57151966D01*
X157941666Y-57151966D02*
X157989285Y-57118633D01*
X158465475Y-57118633D02*
X158513094Y-57118633D01*
X158513094Y-57118633D02*
X158560713Y-57151966D01*
X158560713Y-57151966D02*
X158584523Y-57185300D01*
X158584523Y-57185300D02*
X158608332Y-57251966D01*
X158608332Y-57251966D02*
X158632142Y-57385300D01*
X158632142Y-57385300D02*
X158632142Y-57551966D01*
X158632142Y-57551966D02*
X158608332Y-57685300D01*
X158608332Y-57685300D02*
X158584523Y-57751966D01*
X158584523Y-57751966D02*
X158560713Y-57785300D01*
X158560713Y-57785300D02*
X158513094Y-57818633D01*
X158513094Y-57818633D02*
X158465475Y-57818633D01*
X158465475Y-57818633D02*
X158417856Y-57785300D01*
X158417856Y-57785300D02*
X158394047Y-57751966D01*
X158394047Y-57751966D02*
X158370237Y-57685300D01*
X158370237Y-57685300D02*
X158346428Y-57551966D01*
X158346428Y-57551966D02*
X158346428Y-57385300D01*
X158346428Y-57385300D02*
X158370237Y-57251966D01*
X158370237Y-57251966D02*
X158394047Y-57185300D01*
X158394047Y-57185300D02*
X158417856Y-57151966D01*
X158417856Y-57151966D02*
X158465475Y-57118633D01*
X159227379Y-57818633D02*
X159227379Y-57351966D01*
X159227379Y-57418633D02*
X159251189Y-57385300D01*
X159251189Y-57385300D02*
X159298808Y-57351966D01*
X159298808Y-57351966D02*
X159370236Y-57351966D01*
X159370236Y-57351966D02*
X159417855Y-57385300D01*
X159417855Y-57385300D02*
X159441665Y-57451966D01*
X159441665Y-57451966D02*
X159441665Y-57818633D01*
X159441665Y-57451966D02*
X159465474Y-57385300D01*
X159465474Y-57385300D02*
X159513093Y-57351966D01*
X159513093Y-57351966D02*
X159584522Y-57351966D01*
X159584522Y-57351966D02*
X159632141Y-57385300D01*
X159632141Y-57385300D02*
X159655951Y-57451966D01*
X159655951Y-57451966D02*
X159655951Y-57818633D01*
X159894046Y-57818633D02*
X159894046Y-57351966D01*
X159894046Y-57418633D02*
X159917856Y-57385300D01*
X159917856Y-57385300D02*
X159965475Y-57351966D01*
X159965475Y-57351966D02*
X160036903Y-57351966D01*
X160036903Y-57351966D02*
X160084522Y-57385300D01*
X160084522Y-57385300D02*
X160108332Y-57451966D01*
X160108332Y-57451966D02*
X160108332Y-57818633D01*
X160108332Y-57451966D02*
X160132141Y-57385300D01*
X160132141Y-57385300D02*
X160179760Y-57351966D01*
X160179760Y-57351966D02*
X160251189Y-57351966D01*
X160251189Y-57351966D02*
X160298808Y-57385300D01*
X160298808Y-57385300D02*
X160322618Y-57451966D01*
X160322618Y-57451966D02*
X160322618Y-57818633D01*
X160000000Y-53600000D02*
X160000000Y-59186420D01*
X156550000Y-53600000D02*
X156550000Y-59186420D01*
X160000000Y-58600000D02*
X156550000Y-58600000D01*
X160000000Y-58600000D02*
X156550000Y-58600000D01*
X160000000Y-58600000D02*
X158873496Y-59186421D01*
X160000000Y-58600000D02*
X158873496Y-58013579D01*
X156550000Y-58600000D02*
X157676504Y-58013579D01*
X156550000Y-58600000D02*
X157676504Y-59186421D01*
X175130954Y-75702657D02*
X175178573Y-75655038D01*
X175178573Y-75655038D02*
X175273811Y-75607419D01*
X175273811Y-75607419D02*
X175511906Y-75607419D01*
X175511906Y-75607419D02*
X175607144Y-75655038D01*
X175607144Y-75655038D02*
X175654763Y-75702657D01*
X175654763Y-75702657D02*
X175702382Y-75797895D01*
X175702382Y-75797895D02*
X175702382Y-75893133D01*
X175702382Y-75893133D02*
X175654763Y-76035990D01*
X175654763Y-76035990D02*
X175083335Y-76607419D01*
X175083335Y-76607419D02*
X175702382Y-76607419D01*
X176083335Y-75702657D02*
X176130954Y-75655038D01*
X176130954Y-75655038D02*
X176226192Y-75607419D01*
X176226192Y-75607419D02*
X176464287Y-75607419D01*
X176464287Y-75607419D02*
X176559525Y-75655038D01*
X176559525Y-75655038D02*
X176607144Y-75702657D01*
X176607144Y-75702657D02*
X176654763Y-75797895D01*
X176654763Y-75797895D02*
X176654763Y-75893133D01*
X176654763Y-75893133D02*
X176607144Y-76035990D01*
X176607144Y-76035990D02*
X176035716Y-76607419D01*
X176035716Y-76607419D02*
X176654763Y-76607419D01*
X177083335Y-76512180D02*
X177130954Y-76559800D01*
X177130954Y-76559800D02*
X177083335Y-76607419D01*
X177083335Y-76607419D02*
X177035716Y-76559800D01*
X177035716Y-76559800D02*
X177083335Y-76512180D01*
X177083335Y-76512180D02*
X177083335Y-76607419D01*
X178035715Y-75607419D02*
X177559525Y-75607419D01*
X177559525Y-75607419D02*
X177511906Y-76083609D01*
X177511906Y-76083609D02*
X177559525Y-76035990D01*
X177559525Y-76035990D02*
X177654763Y-75988371D01*
X177654763Y-75988371D02*
X177892858Y-75988371D01*
X177892858Y-75988371D02*
X177988096Y-76035990D01*
X177988096Y-76035990D02*
X178035715Y-76083609D01*
X178035715Y-76083609D02*
X178083334Y-76178847D01*
X178083334Y-76178847D02*
X178083334Y-76416942D01*
X178083334Y-76416942D02*
X178035715Y-76512180D01*
X178035715Y-76512180D02*
X177988096Y-76559800D01*
X177988096Y-76559800D02*
X177892858Y-76607419D01*
X177892858Y-76607419D02*
X177654763Y-76607419D01*
X177654763Y-76607419D02*
X177559525Y-76559800D01*
X177559525Y-76559800D02*
X177511906Y-76512180D01*
X178702382Y-75607419D02*
X178797620Y-75607419D01*
X178797620Y-75607419D02*
X178892858Y-75655038D01*
X178892858Y-75655038D02*
X178940477Y-75702657D01*
X178940477Y-75702657D02*
X178988096Y-75797895D01*
X178988096Y-75797895D02*
X179035715Y-75988371D01*
X179035715Y-75988371D02*
X179035715Y-76226466D01*
X179035715Y-76226466D02*
X178988096Y-76416942D01*
X178988096Y-76416942D02*
X178940477Y-76512180D01*
X178940477Y-76512180D02*
X178892858Y-76559800D01*
X178892858Y-76559800D02*
X178797620Y-76607419D01*
X178797620Y-76607419D02*
X178702382Y-76607419D01*
X178702382Y-76607419D02*
X178607144Y-76559800D01*
X178607144Y-76559800D02*
X178559525Y-76512180D01*
X178559525Y-76512180D02*
X178511906Y-76416942D01*
X178511906Y-76416942D02*
X178464287Y-76226466D01*
X178464287Y-76226466D02*
X178464287Y-75988371D01*
X178464287Y-75988371D02*
X178511906Y-75797895D01*
X178511906Y-75797895D02*
X178559525Y-75702657D01*
X178559525Y-75702657D02*
X178607144Y-75655038D01*
X178607144Y-75655038D02*
X178702382Y-75607419D01*
X179654763Y-75607419D02*
X179750001Y-75607419D01*
X179750001Y-75607419D02*
X179845239Y-75655038D01*
X179845239Y-75655038D02*
X179892858Y-75702657D01*
X179892858Y-75702657D02*
X179940477Y-75797895D01*
X179940477Y-75797895D02*
X179988096Y-75988371D01*
X179988096Y-75988371D02*
X179988096Y-76226466D01*
X179988096Y-76226466D02*
X179940477Y-76416942D01*
X179940477Y-76416942D02*
X179892858Y-76512180D01*
X179892858Y-76512180D02*
X179845239Y-76559800D01*
X179845239Y-76559800D02*
X179750001Y-76607419D01*
X179750001Y-76607419D02*
X179654763Y-76607419D01*
X179654763Y-76607419D02*
X179559525Y-76559800D01*
X179559525Y-76559800D02*
X179511906Y-76512180D01*
X179511906Y-76512180D02*
X179464287Y-76416942D01*
X179464287Y-76416942D02*
X179416668Y-76226466D01*
X179416668Y-76226466D02*
X179416668Y-75988371D01*
X179416668Y-75988371D02*
X179464287Y-75797895D01*
X179464287Y-75797895D02*
X179511906Y-75702657D01*
X179511906Y-75702657D02*
X179559525Y-75655038D01*
X179559525Y-75655038D02*
X179654763Y-75607419D01*
X180607144Y-75607419D02*
X180702382Y-75607419D01*
X180702382Y-75607419D02*
X180797620Y-75655038D01*
X180797620Y-75655038D02*
X180845239Y-75702657D01*
X180845239Y-75702657D02*
X180892858Y-75797895D01*
X180892858Y-75797895D02*
X180940477Y-75988371D01*
X180940477Y-75988371D02*
X180940477Y-76226466D01*
X180940477Y-76226466D02*
X180892858Y-76416942D01*
X180892858Y-76416942D02*
X180845239Y-76512180D01*
X180845239Y-76512180D02*
X180797620Y-76559800D01*
X180797620Y-76559800D02*
X180702382Y-76607419D01*
X180702382Y-76607419D02*
X180607144Y-76607419D01*
X180607144Y-76607419D02*
X180511906Y-76559800D01*
X180511906Y-76559800D02*
X180464287Y-76512180D01*
X180464287Y-76512180D02*
X180416668Y-76416942D01*
X180416668Y-76416942D02*
X180369049Y-76226466D01*
X180369049Y-76226466D02*
X180369049Y-75988371D01*
X180369049Y-75988371D02*
X180416668Y-75797895D01*
X180416668Y-75797895D02*
X180464287Y-75702657D01*
X180464287Y-75702657D02*
X180511906Y-75655038D01*
X180511906Y-75655038D02*
X180607144Y-75607419D01*
X182130954Y-76607419D02*
X182130954Y-75940752D01*
X182130954Y-76035990D02*
X182178573Y-75988371D01*
X182178573Y-75988371D02*
X182273811Y-75940752D01*
X182273811Y-75940752D02*
X182416668Y-75940752D01*
X182416668Y-75940752D02*
X182511906Y-75988371D01*
X182511906Y-75988371D02*
X182559525Y-76083609D01*
X182559525Y-76083609D02*
X182559525Y-76607419D01*
X182559525Y-76083609D02*
X182607144Y-75988371D01*
X182607144Y-75988371D02*
X182702382Y-75940752D01*
X182702382Y-75940752D02*
X182845239Y-75940752D01*
X182845239Y-75940752D02*
X182940478Y-75988371D01*
X182940478Y-75988371D02*
X182988097Y-76083609D01*
X182988097Y-76083609D02*
X182988097Y-76607419D01*
X183464287Y-76607419D02*
X183464287Y-75940752D01*
X183464287Y-76035990D02*
X183511906Y-75988371D01*
X183511906Y-75988371D02*
X183607144Y-75940752D01*
X183607144Y-75940752D02*
X183750001Y-75940752D01*
X183750001Y-75940752D02*
X183845239Y-75988371D01*
X183845239Y-75988371D02*
X183892858Y-76083609D01*
X183892858Y-76083609D02*
X183892858Y-76607419D01*
X183892858Y-76083609D02*
X183940477Y-75988371D01*
X183940477Y-75988371D02*
X184035715Y-75940752D01*
X184035715Y-75940752D02*
X184178572Y-75940752D01*
X184178572Y-75940752D02*
X184273811Y-75988371D01*
X184273811Y-75988371D02*
X184321430Y-76083609D01*
X184321430Y-76083609D02*
X184321430Y-76607419D01*
X168500000Y-75990601D02*
X168500000Y-77836420D01*
X191000001Y-75990601D02*
X191000001Y-77836420D01*
X168500000Y-77250000D02*
X191000001Y-77250000D01*
X168500000Y-77250000D02*
X191000001Y-77250000D01*
X168500000Y-77250000D02*
X169626504Y-76663579D01*
X168500000Y-77250000D02*
X169626504Y-77836421D01*
X191000001Y-77250000D02*
X189873497Y-77836421D01*
X191000001Y-77250000D02*
X189873497Y-76663579D01*
X158701777Y-64155340D02*
X158130349Y-64155880D01*
X158416063Y-64155610D02*
X158415119Y-63155610D01*
X158415119Y-63155610D02*
X158320016Y-63298557D01*
X158320016Y-63298557D02*
X158224867Y-63393885D01*
X158224867Y-63393885D02*
X158129674Y-63441594D01*
X159081875Y-63250219D02*
X159129449Y-63202555D01*
X159129449Y-63202555D02*
X159224642Y-63154846D01*
X159224642Y-63154846D02*
X159462737Y-63154622D01*
X159462737Y-63154622D02*
X159558020Y-63202151D01*
X159558020Y-63202151D02*
X159605684Y-63249725D01*
X159605684Y-63249725D02*
X159653393Y-63344918D01*
X159653393Y-63344918D02*
X159653483Y-63440156D01*
X159653483Y-63440156D02*
X159605999Y-63583058D01*
X159605999Y-63583058D02*
X159035110Y-64155026D01*
X159035110Y-64155026D02*
X159654157Y-64154441D01*
X160082639Y-64058799D02*
X160130303Y-64106373D01*
X160130303Y-64106373D02*
X160082729Y-64154037D01*
X160082729Y-64154037D02*
X160035065Y-64106463D01*
X160035065Y-64106463D02*
X160082639Y-64058799D01*
X160082639Y-64058799D02*
X160082729Y-64154037D01*
X161034165Y-63153138D02*
X160557975Y-63153588D01*
X160557975Y-63153588D02*
X160510805Y-63629823D01*
X160510805Y-63629823D02*
X160558379Y-63582159D01*
X160558379Y-63582159D02*
X160653572Y-63534450D01*
X160653572Y-63534450D02*
X160891667Y-63534225D01*
X160891667Y-63534225D02*
X160986950Y-63581754D01*
X160986950Y-63581754D02*
X161034614Y-63629328D01*
X161034614Y-63629328D02*
X161082323Y-63724521D01*
X161082323Y-63724521D02*
X161082548Y-63962617D01*
X161082548Y-63962617D02*
X161035019Y-64057900D01*
X161035019Y-64057900D02*
X160987445Y-64105564D01*
X160987445Y-64105564D02*
X160892252Y-64153272D01*
X160892252Y-64153272D02*
X160654157Y-64153497D01*
X160654157Y-64153497D02*
X160558874Y-64105968D01*
X160558874Y-64105968D02*
X160511210Y-64058394D01*
X161700831Y-63152509D02*
X161796069Y-63152419D01*
X161796069Y-63152419D02*
X161891352Y-63199948D01*
X161891352Y-63199948D02*
X161939016Y-63247522D01*
X161939016Y-63247522D02*
X161986725Y-63342715D01*
X161986725Y-63342715D02*
X162034524Y-63533146D01*
X162034524Y-63533146D02*
X162034749Y-63771241D01*
X162034749Y-63771241D02*
X161987310Y-63961762D01*
X161987310Y-63961762D02*
X161939780Y-64057045D01*
X161939780Y-64057045D02*
X161892206Y-64104709D01*
X161892206Y-64104709D02*
X161797013Y-64152418D01*
X161797013Y-64152418D02*
X161701775Y-64152508D01*
X161701775Y-64152508D02*
X161606492Y-64104979D01*
X161606492Y-64104979D02*
X161558828Y-64057405D01*
X161558828Y-64057405D02*
X161511119Y-63962212D01*
X161511119Y-63962212D02*
X161463320Y-63771781D01*
X161463320Y-63771781D02*
X161463096Y-63533686D01*
X161463096Y-63533686D02*
X161510535Y-63343165D01*
X161510535Y-63343165D02*
X161558064Y-63247882D01*
X161558064Y-63247882D02*
X161605638Y-63200218D01*
X161605638Y-63200218D02*
X161700831Y-63152509D01*
X162653212Y-63151610D02*
X162748450Y-63151520D01*
X162748450Y-63151520D02*
X162843733Y-63199049D01*
X162843733Y-63199049D02*
X162891397Y-63246623D01*
X162891397Y-63246623D02*
X162939106Y-63341816D01*
X162939106Y-63341816D02*
X162986905Y-63532247D01*
X162986905Y-63532247D02*
X162987129Y-63770342D01*
X162987129Y-63770342D02*
X162939690Y-63960863D01*
X162939690Y-63960863D02*
X162892161Y-64056146D01*
X162892161Y-64056146D02*
X162844587Y-64103810D01*
X162844587Y-64103810D02*
X162749394Y-64151519D01*
X162749394Y-64151519D02*
X162654156Y-64151609D01*
X162654156Y-64151609D02*
X162558873Y-64104080D01*
X162558873Y-64104080D02*
X162511209Y-64056506D01*
X162511209Y-64056506D02*
X162463500Y-63961313D01*
X162463500Y-63961313D02*
X162415701Y-63770882D01*
X162415701Y-63770882D02*
X162415476Y-63532787D01*
X162415476Y-63532787D02*
X162462915Y-63342266D01*
X162462915Y-63342266D02*
X162510445Y-63246983D01*
X162510445Y-63246983D02*
X162558019Y-63199319D01*
X162558019Y-63199319D02*
X162653212Y-63151610D01*
X163605592Y-63150711D02*
X163700830Y-63150621D01*
X163700830Y-63150621D02*
X163796113Y-63198150D01*
X163796113Y-63198150D02*
X163843777Y-63245724D01*
X163843777Y-63245724D02*
X163891486Y-63340917D01*
X163891486Y-63340917D02*
X163939285Y-63531348D01*
X163939285Y-63531348D02*
X163939510Y-63769443D01*
X163939510Y-63769443D02*
X163892071Y-63959964D01*
X163892071Y-63959964D02*
X163844542Y-64055247D01*
X163844542Y-64055247D02*
X163796968Y-64102911D01*
X163796968Y-64102911D02*
X163701774Y-64150620D01*
X163701774Y-64150620D02*
X163606536Y-64150710D01*
X163606536Y-64150710D02*
X163511253Y-64103181D01*
X163511253Y-64103181D02*
X163463589Y-64055607D01*
X163463589Y-64055607D02*
X163415880Y-63960414D01*
X163415880Y-63960414D02*
X163368082Y-63769983D01*
X163368082Y-63769983D02*
X163367857Y-63531888D01*
X163367857Y-63531888D02*
X163415296Y-63341367D01*
X163415296Y-63341367D02*
X163462825Y-63246084D01*
X163462825Y-63246084D02*
X163510399Y-63198420D01*
X163510399Y-63198420D02*
X163605592Y-63150711D01*
X165130345Y-64149272D02*
X165129716Y-63482605D01*
X165129806Y-63577843D02*
X165177380Y-63530179D01*
X165177380Y-63530179D02*
X165272573Y-63482470D01*
X165272573Y-63482470D02*
X165415430Y-63482336D01*
X165415430Y-63482336D02*
X165510713Y-63529865D01*
X165510713Y-63529865D02*
X165558422Y-63625058D01*
X165558422Y-63625058D02*
X165558917Y-64148867D01*
X165558422Y-63625058D02*
X165605951Y-63529775D01*
X165605951Y-63529775D02*
X165701144Y-63482066D01*
X165701144Y-63482066D02*
X165844002Y-63481931D01*
X165844002Y-63481931D02*
X165939285Y-63529460D01*
X165939285Y-63529460D02*
X165986993Y-63624653D01*
X165986993Y-63624653D02*
X165987488Y-64148463D01*
X166463678Y-64148013D02*
X166463049Y-63481347D01*
X166463138Y-63576585D02*
X166510713Y-63528921D01*
X166510713Y-63528921D02*
X166605906Y-63481212D01*
X166605906Y-63481212D02*
X166748763Y-63481077D01*
X166748763Y-63481077D02*
X166844046Y-63528606D01*
X166844046Y-63528606D02*
X166891755Y-63623799D01*
X166891755Y-63623799D02*
X166892249Y-64147608D01*
X166891755Y-63623799D02*
X166939284Y-63528516D01*
X166939284Y-63528516D02*
X167034477Y-63480807D01*
X167034477Y-63480807D02*
X167177334Y-63480672D01*
X167177334Y-63480672D02*
X167272617Y-63528202D01*
X167272617Y-63528202D02*
X167320326Y-63623395D01*
X167320326Y-63623395D02*
X167320820Y-64147204D01*
X169001100Y-65953764D02*
X168999446Y-64201781D01*
X156501100Y-65965563D02*
X156499446Y-64213580D01*
X169000000Y-64788201D02*
X156500000Y-64800000D01*
X169000000Y-64788201D02*
X156500000Y-64800000D01*
X169000000Y-64788201D02*
X167874050Y-65375685D01*
X169000000Y-64788201D02*
X167872943Y-64202844D01*
X156500000Y-64800000D02*
X157625950Y-64212516D01*
X156500000Y-64800000D02*
X157627057Y-65385357D01*
X213452381Y-64357419D02*
X212880953Y-64357419D01*
X213166667Y-64357419D02*
X213166667Y-63357419D01*
X213166667Y-63357419D02*
X213071429Y-63500276D01*
X213071429Y-63500276D02*
X212976191Y-63595514D01*
X212976191Y-63595514D02*
X212880953Y-63643133D01*
X214309524Y-63357419D02*
X214119048Y-63357419D01*
X214119048Y-63357419D02*
X214023810Y-63405038D01*
X214023810Y-63405038D02*
X213976191Y-63452657D01*
X213976191Y-63452657D02*
X213880953Y-63595514D01*
X213880953Y-63595514D02*
X213833334Y-63785990D01*
X213833334Y-63785990D02*
X213833334Y-64166942D01*
X213833334Y-64166942D02*
X213880953Y-64262180D01*
X213880953Y-64262180D02*
X213928572Y-64309800D01*
X213928572Y-64309800D02*
X214023810Y-64357419D01*
X214023810Y-64357419D02*
X214214286Y-64357419D01*
X214214286Y-64357419D02*
X214309524Y-64309800D01*
X214309524Y-64309800D02*
X214357143Y-64262180D01*
X214357143Y-64262180D02*
X214404762Y-64166942D01*
X214404762Y-64166942D02*
X214404762Y-63928847D01*
X214404762Y-63928847D02*
X214357143Y-63833609D01*
X214357143Y-63833609D02*
X214309524Y-63785990D01*
X214309524Y-63785990D02*
X214214286Y-63738371D01*
X214214286Y-63738371D02*
X214023810Y-63738371D01*
X214023810Y-63738371D02*
X213928572Y-63785990D01*
X213928572Y-63785990D02*
X213880953Y-63833609D01*
X213880953Y-63833609D02*
X213833334Y-63928847D01*
X214833334Y-64262180D02*
X214880953Y-64309800D01*
X214880953Y-64309800D02*
X214833334Y-64357419D01*
X214833334Y-64357419D02*
X214785715Y-64309800D01*
X214785715Y-64309800D02*
X214833334Y-64262180D01*
X214833334Y-64262180D02*
X214833334Y-64357419D01*
X215500000Y-63357419D02*
X215595238Y-63357419D01*
X215595238Y-63357419D02*
X215690476Y-63405038D01*
X215690476Y-63405038D02*
X215738095Y-63452657D01*
X215738095Y-63452657D02*
X215785714Y-63547895D01*
X215785714Y-63547895D02*
X215833333Y-63738371D01*
X215833333Y-63738371D02*
X215833333Y-63976466D01*
X215833333Y-63976466D02*
X215785714Y-64166942D01*
X215785714Y-64166942D02*
X215738095Y-64262180D01*
X215738095Y-64262180D02*
X215690476Y-64309800D01*
X215690476Y-64309800D02*
X215595238Y-64357419D01*
X215595238Y-64357419D02*
X215500000Y-64357419D01*
X215500000Y-64357419D02*
X215404762Y-64309800D01*
X215404762Y-64309800D02*
X215357143Y-64262180D01*
X215357143Y-64262180D02*
X215309524Y-64166942D01*
X215309524Y-64166942D02*
X215261905Y-63976466D01*
X215261905Y-63976466D02*
X215261905Y-63738371D01*
X215261905Y-63738371D02*
X215309524Y-63547895D01*
X215309524Y-63547895D02*
X215357143Y-63452657D01*
X215357143Y-63452657D02*
X215404762Y-63405038D01*
X215404762Y-63405038D02*
X215500000Y-63357419D01*
X216452381Y-63357419D02*
X216547619Y-63357419D01*
X216547619Y-63357419D02*
X216642857Y-63405038D01*
X216642857Y-63405038D02*
X216690476Y-63452657D01*
X216690476Y-63452657D02*
X216738095Y-63547895D01*
X216738095Y-63547895D02*
X216785714Y-63738371D01*
X216785714Y-63738371D02*
X216785714Y-63976466D01*
X216785714Y-63976466D02*
X216738095Y-64166942D01*
X216738095Y-64166942D02*
X216690476Y-64262180D01*
X216690476Y-64262180D02*
X216642857Y-64309800D01*
X216642857Y-64309800D02*
X216547619Y-64357419D01*
X216547619Y-64357419D02*
X216452381Y-64357419D01*
X216452381Y-64357419D02*
X216357143Y-64309800D01*
X216357143Y-64309800D02*
X216309524Y-64262180D01*
X216309524Y-64262180D02*
X216261905Y-64166942D01*
X216261905Y-64166942D02*
X216214286Y-63976466D01*
X216214286Y-63976466D02*
X216214286Y-63738371D01*
X216214286Y-63738371D02*
X216261905Y-63547895D01*
X216261905Y-63547895D02*
X216309524Y-63452657D01*
X216309524Y-63452657D02*
X216357143Y-63405038D01*
X216357143Y-63405038D02*
X216452381Y-63357419D01*
X217404762Y-63357419D02*
X217500000Y-63357419D01*
X217500000Y-63357419D02*
X217595238Y-63405038D01*
X217595238Y-63405038D02*
X217642857Y-63452657D01*
X217642857Y-63452657D02*
X217690476Y-63547895D01*
X217690476Y-63547895D02*
X217738095Y-63738371D01*
X217738095Y-63738371D02*
X217738095Y-63976466D01*
X217738095Y-63976466D02*
X217690476Y-64166942D01*
X217690476Y-64166942D02*
X217642857Y-64262180D01*
X217642857Y-64262180D02*
X217595238Y-64309800D01*
X217595238Y-64309800D02*
X217500000Y-64357419D01*
X217500000Y-64357419D02*
X217404762Y-64357419D01*
X217404762Y-64357419D02*
X217309524Y-64309800D01*
X217309524Y-64309800D02*
X217261905Y-64262180D01*
X217261905Y-64262180D02*
X217214286Y-64166942D01*
X217214286Y-64166942D02*
X217166667Y-63976466D01*
X217166667Y-63976466D02*
X217166667Y-63738371D01*
X217166667Y-63738371D02*
X217214286Y-63547895D01*
X217214286Y-63547895D02*
X217261905Y-63452657D01*
X217261905Y-63452657D02*
X217309524Y-63405038D01*
X217309524Y-63405038D02*
X217404762Y-63357419D01*
X218357143Y-63357419D02*
X218452381Y-63357419D01*
X218452381Y-63357419D02*
X218547619Y-63405038D01*
X218547619Y-63405038D02*
X218595238Y-63452657D01*
X218595238Y-63452657D02*
X218642857Y-63547895D01*
X218642857Y-63547895D02*
X218690476Y-63738371D01*
X218690476Y-63738371D02*
X218690476Y-63976466D01*
X218690476Y-63976466D02*
X218642857Y-64166942D01*
X218642857Y-64166942D02*
X218595238Y-64262180D01*
X218595238Y-64262180D02*
X218547619Y-64309800D01*
X218547619Y-64309800D02*
X218452381Y-64357419D01*
X218452381Y-64357419D02*
X218357143Y-64357419D01*
X218357143Y-64357419D02*
X218261905Y-64309800D01*
X218261905Y-64309800D02*
X218214286Y-64262180D01*
X218214286Y-64262180D02*
X218166667Y-64166942D01*
X218166667Y-64166942D02*
X218119048Y-63976466D01*
X218119048Y-63976466D02*
X218119048Y-63738371D01*
X218119048Y-63738371D02*
X218166667Y-63547895D01*
X218166667Y-63547895D02*
X218214286Y-63452657D01*
X218214286Y-63452657D02*
X218261905Y-63405038D01*
X218261905Y-63405038D02*
X218357143Y-63357419D01*
X219880953Y-64357419D02*
X219880953Y-63690752D01*
X219880953Y-63785990D02*
X219928572Y-63738371D01*
X219928572Y-63738371D02*
X220023810Y-63690752D01*
X220023810Y-63690752D02*
X220166667Y-63690752D01*
X220166667Y-63690752D02*
X220261905Y-63738371D01*
X220261905Y-63738371D02*
X220309524Y-63833609D01*
X220309524Y-63833609D02*
X220309524Y-64357419D01*
X220309524Y-63833609D02*
X220357143Y-63738371D01*
X220357143Y-63738371D02*
X220452381Y-63690752D01*
X220452381Y-63690752D02*
X220595238Y-63690752D01*
X220595238Y-63690752D02*
X220690477Y-63738371D01*
X220690477Y-63738371D02*
X220738096Y-63833609D01*
X220738096Y-63833609D02*
X220738096Y-64357419D01*
X221214286Y-64357419D02*
X221214286Y-63690752D01*
X221214286Y-63785990D02*
X221261905Y-63738371D01*
X221261905Y-63738371D02*
X221357143Y-63690752D01*
X221357143Y-63690752D02*
X221500000Y-63690752D01*
X221500000Y-63690752D02*
X221595238Y-63738371D01*
X221595238Y-63738371D02*
X221642857Y-63833609D01*
X221642857Y-63833609D02*
X221642857Y-64357419D01*
X221642857Y-63833609D02*
X221690476Y-63738371D01*
X221690476Y-63738371D02*
X221785714Y-63690752D01*
X221785714Y-63690752D02*
X221928571Y-63690752D01*
X221928571Y-63690752D02*
X222023810Y-63738371D01*
X222023810Y-63738371D02*
X222071429Y-63833609D01*
X222071429Y-63833609D02*
X222071429Y-64357419D01*
X209500000Y-64250000D02*
X209500000Y-65586420D01*
X225500000Y-64250000D02*
X225500000Y-65586420D01*
X209500000Y-65000000D02*
X225500000Y-65000000D01*
X209500000Y-65000000D02*
X225500000Y-65000000D01*
X209500000Y-65000000D02*
X210626504Y-64413579D01*
X209500000Y-65000000D02*
X210626504Y-65586421D01*
X225500000Y-65000000D02*
X224373496Y-65586421D01*
X225500000Y-65000000D02*
X224373496Y-64413579D01*
X210557419Y-51875001D02*
X210557419Y-51989286D01*
X210557419Y-51989286D02*
X210605038Y-52046429D01*
X210605038Y-52046429D02*
X210652657Y-52075001D01*
X210652657Y-52075001D02*
X210795514Y-52132143D01*
X210795514Y-52132143D02*
X210985990Y-52160715D01*
X210985990Y-52160715D02*
X211366942Y-52160715D01*
X211366942Y-52160715D02*
X211462180Y-52132143D01*
X211462180Y-52132143D02*
X211509800Y-52103572D01*
X211509800Y-52103572D02*
X211557419Y-52046429D01*
X211557419Y-52046429D02*
X211557419Y-51932143D01*
X211557419Y-51932143D02*
X211509800Y-51875001D01*
X211509800Y-51875001D02*
X211462180Y-51846429D01*
X211462180Y-51846429D02*
X211366942Y-51817858D01*
X211366942Y-51817858D02*
X211128847Y-51817858D01*
X211128847Y-51817858D02*
X211033609Y-51846429D01*
X211033609Y-51846429D02*
X210985990Y-51875001D01*
X210985990Y-51875001D02*
X210938371Y-51932143D01*
X210938371Y-51932143D02*
X210938371Y-52046429D01*
X210938371Y-52046429D02*
X210985990Y-52103572D01*
X210985990Y-52103572D02*
X211033609Y-52132143D01*
X211033609Y-52132143D02*
X211128847Y-52160715D01*
X211462180Y-51560714D02*
X211509800Y-51532143D01*
X211509800Y-51532143D02*
X211557419Y-51560714D01*
X211557419Y-51560714D02*
X211509800Y-51589286D01*
X211509800Y-51589286D02*
X211462180Y-51560714D01*
X211462180Y-51560714D02*
X211557419Y-51560714D01*
X210652657Y-51303572D02*
X210605038Y-51275000D01*
X210605038Y-51275000D02*
X210557419Y-51217858D01*
X210557419Y-51217858D02*
X210557419Y-51075000D01*
X210557419Y-51075000D02*
X210605038Y-51017858D01*
X210605038Y-51017858D02*
X210652657Y-50989286D01*
X210652657Y-50989286D02*
X210747895Y-50960715D01*
X210747895Y-50960715D02*
X210843133Y-50960715D01*
X210843133Y-50960715D02*
X210985990Y-50989286D01*
X210985990Y-50989286D02*
X211557419Y-51332143D01*
X211557419Y-51332143D02*
X211557419Y-50960715D01*
X210557419Y-50417857D02*
X210557419Y-50703571D01*
X210557419Y-50703571D02*
X211033609Y-50732143D01*
X211033609Y-50732143D02*
X210985990Y-50703571D01*
X210985990Y-50703571D02*
X210938371Y-50646429D01*
X210938371Y-50646429D02*
X210938371Y-50503571D01*
X210938371Y-50503571D02*
X210985990Y-50446429D01*
X210985990Y-50446429D02*
X211033609Y-50417857D01*
X211033609Y-50417857D02*
X211128847Y-50389286D01*
X211128847Y-50389286D02*
X211366942Y-50389286D01*
X211366942Y-50389286D02*
X211462180Y-50417857D01*
X211462180Y-50417857D02*
X211509800Y-50446429D01*
X211509800Y-50446429D02*
X211557419Y-50503571D01*
X211557419Y-50503571D02*
X211557419Y-50646429D01*
X211557419Y-50646429D02*
X211509800Y-50703571D01*
X211509800Y-50703571D02*
X211462180Y-50732143D01*
X210557419Y-50017857D02*
X210557419Y-49960714D01*
X210557419Y-49960714D02*
X210605038Y-49903571D01*
X210605038Y-49903571D02*
X210652657Y-49875000D01*
X210652657Y-49875000D02*
X210747895Y-49846428D01*
X210747895Y-49846428D02*
X210938371Y-49817857D01*
X210938371Y-49817857D02*
X211176466Y-49817857D01*
X211176466Y-49817857D02*
X211366942Y-49846428D01*
X211366942Y-49846428D02*
X211462180Y-49875000D01*
X211462180Y-49875000D02*
X211509800Y-49903571D01*
X211509800Y-49903571D02*
X211557419Y-49960714D01*
X211557419Y-49960714D02*
X211557419Y-50017857D01*
X211557419Y-50017857D02*
X211509800Y-50075000D01*
X211509800Y-50075000D02*
X211462180Y-50103571D01*
X211462180Y-50103571D02*
X211366942Y-50132142D01*
X211366942Y-50132142D02*
X211176466Y-50160714D01*
X211176466Y-50160714D02*
X210938371Y-50160714D01*
X210938371Y-50160714D02*
X210747895Y-50132142D01*
X210747895Y-50132142D02*
X210652657Y-50103571D01*
X210652657Y-50103571D02*
X210605038Y-50075000D01*
X210605038Y-50075000D02*
X210557419Y-50017857D01*
X210557419Y-49446428D02*
X210557419Y-49389285D01*
X210557419Y-49389285D02*
X210605038Y-49332142D01*
X210605038Y-49332142D02*
X210652657Y-49303571D01*
X210652657Y-49303571D02*
X210747895Y-49274999D01*
X210747895Y-49274999D02*
X210938371Y-49246428D01*
X210938371Y-49246428D02*
X211176466Y-49246428D01*
X211176466Y-49246428D02*
X211366942Y-49274999D01*
X211366942Y-49274999D02*
X211462180Y-49303571D01*
X211462180Y-49303571D02*
X211509800Y-49332142D01*
X211509800Y-49332142D02*
X211557419Y-49389285D01*
X211557419Y-49389285D02*
X211557419Y-49446428D01*
X211557419Y-49446428D02*
X211509800Y-49503571D01*
X211509800Y-49503571D02*
X211462180Y-49532142D01*
X211462180Y-49532142D02*
X211366942Y-49560713D01*
X211366942Y-49560713D02*
X211176466Y-49589285D01*
X211176466Y-49589285D02*
X210938371Y-49589285D01*
X210938371Y-49589285D02*
X210747895Y-49560713D01*
X210747895Y-49560713D02*
X210652657Y-49532142D01*
X210652657Y-49532142D02*
X210605038Y-49503571D01*
X210605038Y-49503571D02*
X210557419Y-49446428D01*
X211557419Y-48532141D02*
X210890752Y-48532141D01*
X210985990Y-48532141D02*
X210938371Y-48503570D01*
X210938371Y-48503570D02*
X210890752Y-48446427D01*
X210890752Y-48446427D02*
X210890752Y-48360713D01*
X210890752Y-48360713D02*
X210938371Y-48303570D01*
X210938371Y-48303570D02*
X211033609Y-48274999D01*
X211033609Y-48274999D02*
X211557419Y-48274999D01*
X211033609Y-48274999D02*
X210938371Y-48246427D01*
X210938371Y-48246427D02*
X210890752Y-48189284D01*
X210890752Y-48189284D02*
X210890752Y-48103570D01*
X210890752Y-48103570D02*
X210938371Y-48046427D01*
X210938371Y-48046427D02*
X211033609Y-48017856D01*
X211033609Y-48017856D02*
X211557419Y-48017856D01*
X211557419Y-47732141D02*
X210890752Y-47732141D01*
X210985990Y-47732141D02*
X210938371Y-47703570D01*
X210938371Y-47703570D02*
X210890752Y-47646427D01*
X210890752Y-47646427D02*
X210890752Y-47560713D01*
X210890752Y-47560713D02*
X210938371Y-47503570D01*
X210938371Y-47503570D02*
X211033609Y-47474999D01*
X211033609Y-47474999D02*
X211557419Y-47474999D01*
X211033609Y-47474999D02*
X210938371Y-47446427D01*
X210938371Y-47446427D02*
X210890752Y-47389284D01*
X210890752Y-47389284D02*
X210890752Y-47303570D01*
X210890752Y-47303570D02*
X210938371Y-47246427D01*
X210938371Y-47246427D02*
X211033609Y-47217856D01*
X211033609Y-47217856D02*
X211557419Y-47217856D01*
X210450000Y-52800000D02*
X212786420Y-52800000D01*
X210450000Y-46550000D02*
X212786420Y-46550000D01*
X212200000Y-52800000D02*
X212200000Y-46550000D01*
X212200000Y-52800000D02*
X212200000Y-46550000D01*
X212200000Y-52800000D02*
X211613579Y-51673496D01*
X212200000Y-52800000D02*
X212786421Y-51673496D01*
X212200000Y-46550000D02*
X212786421Y-47676504D01*
X212200000Y-46550000D02*
X211613579Y-47676504D01*
D11*
X192857142Y-89829580D02*
X192809523Y-89877200D01*
X192809523Y-89877200D02*
X192666666Y-89924819D01*
X192666666Y-89924819D02*
X192571428Y-89924819D01*
X192571428Y-89924819D02*
X192428571Y-89877200D01*
X192428571Y-89877200D02*
X192333333Y-89781961D01*
X192333333Y-89781961D02*
X192285714Y-89686723D01*
X192285714Y-89686723D02*
X192238095Y-89496247D01*
X192238095Y-89496247D02*
X192238095Y-89353390D01*
X192238095Y-89353390D02*
X192285714Y-89162914D01*
X192285714Y-89162914D02*
X192333333Y-89067676D01*
X192333333Y-89067676D02*
X192428571Y-88972438D01*
X192428571Y-88972438D02*
X192571428Y-88924819D01*
X192571428Y-88924819D02*
X192666666Y-88924819D01*
X192666666Y-88924819D02*
X192809523Y-88972438D01*
X192809523Y-88972438D02*
X192857142Y-89020057D01*
X193809523Y-89924819D02*
X193238095Y-89924819D01*
X193523809Y-89924819D02*
X193523809Y-88924819D01*
X193523809Y-88924819D02*
X193428571Y-89067676D01*
X193428571Y-89067676D02*
X193333333Y-89162914D01*
X193333333Y-89162914D02*
X193238095Y-89210533D01*
X194190476Y-89020057D02*
X194238095Y-88972438D01*
X194238095Y-88972438D02*
X194333333Y-88924819D01*
X194333333Y-88924819D02*
X194571428Y-88924819D01*
X194571428Y-88924819D02*
X194666666Y-88972438D01*
X194666666Y-88972438D02*
X194714285Y-89020057D01*
X194714285Y-89020057D02*
X194761904Y-89115295D01*
X194761904Y-89115295D02*
X194761904Y-89210533D01*
X194761904Y-89210533D02*
X194714285Y-89353390D01*
X194714285Y-89353390D02*
X194142857Y-89924819D01*
X194142857Y-89924819D02*
X194761904Y-89924819D01*
X178589580Y-61242857D02*
X178637200Y-61290476D01*
X178637200Y-61290476D02*
X178684819Y-61433333D01*
X178684819Y-61433333D02*
X178684819Y-61528571D01*
X178684819Y-61528571D02*
X178637200Y-61671428D01*
X178637200Y-61671428D02*
X178541961Y-61766666D01*
X178541961Y-61766666D02*
X178446723Y-61814285D01*
X178446723Y-61814285D02*
X178256247Y-61861904D01*
X178256247Y-61861904D02*
X178113390Y-61861904D01*
X178113390Y-61861904D02*
X177922914Y-61814285D01*
X177922914Y-61814285D02*
X177827676Y-61766666D01*
X177827676Y-61766666D02*
X177732438Y-61671428D01*
X177732438Y-61671428D02*
X177684819Y-61528571D01*
X177684819Y-61528571D02*
X177684819Y-61433333D01*
X177684819Y-61433333D02*
X177732438Y-61290476D01*
X177732438Y-61290476D02*
X177780057Y-61242857D01*
X178684819Y-60290476D02*
X178684819Y-60861904D01*
X178684819Y-60576190D02*
X177684819Y-60576190D01*
X177684819Y-60576190D02*
X177827676Y-60671428D01*
X177827676Y-60671428D02*
X177922914Y-60766666D01*
X177922914Y-60766666D02*
X177970533Y-60861904D01*
X178684819Y-59338095D02*
X178684819Y-59909523D01*
X178684819Y-59623809D02*
X177684819Y-59623809D01*
X177684819Y-59623809D02*
X177827676Y-59719047D01*
X177827676Y-59719047D02*
X177922914Y-59814285D01*
X177922914Y-59814285D02*
X177970533Y-59909523D01*
D10*
X175761905Y-51857419D02*
X175761905Y-50857419D01*
X175761905Y-50857419D02*
X176000000Y-50857419D01*
X176000000Y-50857419D02*
X176142857Y-50905038D01*
X176142857Y-50905038D02*
X176238095Y-51000276D01*
X176238095Y-51000276D02*
X176285714Y-51095514D01*
X176285714Y-51095514D02*
X176333333Y-51285990D01*
X176333333Y-51285990D02*
X176333333Y-51428847D01*
X176333333Y-51428847D02*
X176285714Y-51619323D01*
X176285714Y-51619323D02*
X176238095Y-51714561D01*
X176238095Y-51714561D02*
X176142857Y-51809800D01*
X176142857Y-51809800D02*
X176000000Y-51857419D01*
X176000000Y-51857419D02*
X175761905Y-51857419D01*
X177190476Y-51190752D02*
X177190476Y-51857419D01*
X176952381Y-50809800D02*
X176714286Y-51524085D01*
X176714286Y-51524085D02*
X177333333Y-51524085D01*
D11*
X219254819Y-82833333D02*
X219969104Y-82833333D01*
X219969104Y-82833333D02*
X220111961Y-82880952D01*
X220111961Y-82880952D02*
X220207200Y-82976190D01*
X220207200Y-82976190D02*
X220254819Y-83119047D01*
X220254819Y-83119047D02*
X220254819Y-83214285D01*
X220254819Y-81833333D02*
X220254819Y-82404761D01*
X220254819Y-82119047D02*
X219254819Y-82119047D01*
X219254819Y-82119047D02*
X219397676Y-82214285D01*
X219397676Y-82214285D02*
X219492914Y-82309523D01*
X219492914Y-82309523D02*
X219540533Y-82404761D01*
X167266667Y-68507200D02*
X167409524Y-68554819D01*
X167409524Y-68554819D02*
X167647619Y-68554819D01*
X167647619Y-68554819D02*
X167742857Y-68507200D01*
X167742857Y-68507200D02*
X167790476Y-68459580D01*
X167790476Y-68459580D02*
X167838095Y-68364342D01*
X167838095Y-68364342D02*
X167838095Y-68269104D01*
X167838095Y-68269104D02*
X167790476Y-68173866D01*
X167790476Y-68173866D02*
X167742857Y-68126247D01*
X167742857Y-68126247D02*
X167647619Y-68078628D01*
X167647619Y-68078628D02*
X167457143Y-68031009D01*
X167457143Y-68031009D02*
X167361905Y-67983390D01*
X167361905Y-67983390D02*
X167314286Y-67935771D01*
X167314286Y-67935771D02*
X167266667Y-67840533D01*
X167266667Y-67840533D02*
X167266667Y-67745295D01*
X167266667Y-67745295D02*
X167314286Y-67650057D01*
X167314286Y-67650057D02*
X167361905Y-67602438D01*
X167361905Y-67602438D02*
X167457143Y-67554819D01*
X167457143Y-67554819D02*
X167695238Y-67554819D01*
X167695238Y-67554819D02*
X167838095Y-67602438D01*
X168171429Y-67554819D02*
X168409524Y-68554819D01*
X168409524Y-68554819D02*
X168600000Y-67840533D01*
X168600000Y-67840533D02*
X168790476Y-68554819D01*
X168790476Y-68554819D02*
X169028572Y-67554819D01*
X169361905Y-67650057D02*
X169409524Y-67602438D01*
X169409524Y-67602438D02*
X169504762Y-67554819D01*
X169504762Y-67554819D02*
X169742857Y-67554819D01*
X169742857Y-67554819D02*
X169838095Y-67602438D01*
X169838095Y-67602438D02*
X169885714Y-67650057D01*
X169885714Y-67650057D02*
X169933333Y-67745295D01*
X169933333Y-67745295D02*
X169933333Y-67840533D01*
X169933333Y-67840533D02*
X169885714Y-67983390D01*
X169885714Y-67983390D02*
X169314286Y-68554819D01*
X169314286Y-68554819D02*
X169933333Y-68554819D01*
X165250000Y-67943519D02*
X165250000Y-68181614D01*
X165011905Y-68086376D02*
X165250000Y-68181614D01*
X165250000Y-68181614D02*
X165488095Y-68086376D01*
X165107143Y-68372090D02*
X165250000Y-68181614D01*
X165250000Y-68181614D02*
X165392857Y-68372090D01*
X202538095Y-83654819D02*
X202538095Y-84464342D01*
X202538095Y-84464342D02*
X202585714Y-84559580D01*
X202585714Y-84559580D02*
X202633333Y-84607200D01*
X202633333Y-84607200D02*
X202728571Y-84654819D01*
X202728571Y-84654819D02*
X202919047Y-84654819D01*
X202919047Y-84654819D02*
X203014285Y-84607200D01*
X203014285Y-84607200D02*
X203061904Y-84559580D01*
X203061904Y-84559580D02*
X203109523Y-84464342D01*
X203109523Y-84464342D02*
X203109523Y-83654819D01*
X203538095Y-83750057D02*
X203585714Y-83702438D01*
X203585714Y-83702438D02*
X203680952Y-83654819D01*
X203680952Y-83654819D02*
X203919047Y-83654819D01*
X203919047Y-83654819D02*
X204014285Y-83702438D01*
X204014285Y-83702438D02*
X204061904Y-83750057D01*
X204061904Y-83750057D02*
X204109523Y-83845295D01*
X204109523Y-83845295D02*
X204109523Y-83940533D01*
X204109523Y-83940533D02*
X204061904Y-84083390D01*
X204061904Y-84083390D02*
X203490476Y-84654819D01*
X203490476Y-84654819D02*
X204109523Y-84654819D01*
X183773809Y-78228628D02*
X183773809Y-78704819D01*
X183440476Y-77704819D02*
X183773809Y-78228628D01*
X183773809Y-78228628D02*
X184107142Y-77704819D01*
X184964285Y-78704819D02*
X184392857Y-78704819D01*
X184678571Y-78704819D02*
X184678571Y-77704819D01*
X184678571Y-77704819D02*
X184583333Y-77847676D01*
X184583333Y-77847676D02*
X184488095Y-77942914D01*
X184488095Y-77942914D02*
X184392857Y-77990533D01*
X222154819Y-71066666D02*
X221678628Y-71399999D01*
X222154819Y-71638094D02*
X221154819Y-71638094D01*
X221154819Y-71638094D02*
X221154819Y-71257142D01*
X221154819Y-71257142D02*
X221202438Y-71161904D01*
X221202438Y-71161904D02*
X221250057Y-71114285D01*
X221250057Y-71114285D02*
X221345295Y-71066666D01*
X221345295Y-71066666D02*
X221488152Y-71066666D01*
X221488152Y-71066666D02*
X221583390Y-71114285D01*
X221583390Y-71114285D02*
X221631009Y-71161904D01*
X221631009Y-71161904D02*
X221678628Y-71257142D01*
X221678628Y-71257142D02*
X221678628Y-71638094D01*
X221583390Y-70495237D02*
X221535771Y-70590475D01*
X221535771Y-70590475D02*
X221488152Y-70638094D01*
X221488152Y-70638094D02*
X221392914Y-70685713D01*
X221392914Y-70685713D02*
X221345295Y-70685713D01*
X221345295Y-70685713D02*
X221250057Y-70638094D01*
X221250057Y-70638094D02*
X221202438Y-70590475D01*
X221202438Y-70590475D02*
X221154819Y-70495237D01*
X221154819Y-70495237D02*
X221154819Y-70304761D01*
X221154819Y-70304761D02*
X221202438Y-70209523D01*
X221202438Y-70209523D02*
X221250057Y-70161904D01*
X221250057Y-70161904D02*
X221345295Y-70114285D01*
X221345295Y-70114285D02*
X221392914Y-70114285D01*
X221392914Y-70114285D02*
X221488152Y-70161904D01*
X221488152Y-70161904D02*
X221535771Y-70209523D01*
X221535771Y-70209523D02*
X221583390Y-70304761D01*
X221583390Y-70304761D02*
X221583390Y-70495237D01*
X221583390Y-70495237D02*
X221631009Y-70590475D01*
X221631009Y-70590475D02*
X221678628Y-70638094D01*
X221678628Y-70638094D02*
X221773866Y-70685713D01*
X221773866Y-70685713D02*
X221964342Y-70685713D01*
X221964342Y-70685713D02*
X222059580Y-70638094D01*
X222059580Y-70638094D02*
X222107200Y-70590475D01*
X222107200Y-70590475D02*
X222154819Y-70495237D01*
X222154819Y-70495237D02*
X222154819Y-70304761D01*
X222154819Y-70304761D02*
X222107200Y-70209523D01*
X222107200Y-70209523D02*
X222059580Y-70161904D01*
X222059580Y-70161904D02*
X221964342Y-70114285D01*
X221964342Y-70114285D02*
X221773866Y-70114285D01*
X221773866Y-70114285D02*
X221678628Y-70161904D01*
X221678628Y-70161904D02*
X221631009Y-70209523D01*
X221631009Y-70209523D02*
X221583390Y-70304761D01*
X183408333Y-86109580D02*
X183360714Y-86157200D01*
X183360714Y-86157200D02*
X183217857Y-86204819D01*
X183217857Y-86204819D02*
X183122619Y-86204819D01*
X183122619Y-86204819D02*
X182979762Y-86157200D01*
X182979762Y-86157200D02*
X182884524Y-86061961D01*
X182884524Y-86061961D02*
X182836905Y-85966723D01*
X182836905Y-85966723D02*
X182789286Y-85776247D01*
X182789286Y-85776247D02*
X182789286Y-85633390D01*
X182789286Y-85633390D02*
X182836905Y-85442914D01*
X182836905Y-85442914D02*
X182884524Y-85347676D01*
X182884524Y-85347676D02*
X182979762Y-85252438D01*
X182979762Y-85252438D02*
X183122619Y-85204819D01*
X183122619Y-85204819D02*
X183217857Y-85204819D01*
X183217857Y-85204819D02*
X183360714Y-85252438D01*
X183360714Y-85252438D02*
X183408333Y-85300057D01*
X184360714Y-86204819D02*
X183789286Y-86204819D01*
X184075000Y-86204819D02*
X184075000Y-85204819D01*
X184075000Y-85204819D02*
X183979762Y-85347676D01*
X183979762Y-85347676D02*
X183884524Y-85442914D01*
X183884524Y-85442914D02*
X183789286Y-85490533D01*
X176433333Y-78709580D02*
X176385714Y-78757200D01*
X176385714Y-78757200D02*
X176242857Y-78804819D01*
X176242857Y-78804819D02*
X176147619Y-78804819D01*
X176147619Y-78804819D02*
X176004762Y-78757200D01*
X176004762Y-78757200D02*
X175909524Y-78661961D01*
X175909524Y-78661961D02*
X175861905Y-78566723D01*
X175861905Y-78566723D02*
X175814286Y-78376247D01*
X175814286Y-78376247D02*
X175814286Y-78233390D01*
X175814286Y-78233390D02*
X175861905Y-78042914D01*
X175861905Y-78042914D02*
X175909524Y-77947676D01*
X175909524Y-77947676D02*
X176004762Y-77852438D01*
X176004762Y-77852438D02*
X176147619Y-77804819D01*
X176147619Y-77804819D02*
X176242857Y-77804819D01*
X176242857Y-77804819D02*
X176385714Y-77852438D01*
X176385714Y-77852438D02*
X176433333Y-77900057D01*
X176766667Y-77804819D02*
X177385714Y-77804819D01*
X177385714Y-77804819D02*
X177052381Y-78185771D01*
X177052381Y-78185771D02*
X177195238Y-78185771D01*
X177195238Y-78185771D02*
X177290476Y-78233390D01*
X177290476Y-78233390D02*
X177338095Y-78281009D01*
X177338095Y-78281009D02*
X177385714Y-78376247D01*
X177385714Y-78376247D02*
X177385714Y-78614342D01*
X177385714Y-78614342D02*
X177338095Y-78709580D01*
X177338095Y-78709580D02*
X177290476Y-78757200D01*
X177290476Y-78757200D02*
X177195238Y-78804819D01*
X177195238Y-78804819D02*
X176909524Y-78804819D01*
X176909524Y-78804819D02*
X176814286Y-78757200D01*
X176814286Y-78757200D02*
X176766667Y-78709580D01*
X223483333Y-73359580D02*
X223435714Y-73407200D01*
X223435714Y-73407200D02*
X223292857Y-73454819D01*
X223292857Y-73454819D02*
X223197619Y-73454819D01*
X223197619Y-73454819D02*
X223054762Y-73407200D01*
X223054762Y-73407200D02*
X222959524Y-73311961D01*
X222959524Y-73311961D02*
X222911905Y-73216723D01*
X222911905Y-73216723D02*
X222864286Y-73026247D01*
X222864286Y-73026247D02*
X222864286Y-72883390D01*
X222864286Y-72883390D02*
X222911905Y-72692914D01*
X222911905Y-72692914D02*
X222959524Y-72597676D01*
X222959524Y-72597676D02*
X223054762Y-72502438D01*
X223054762Y-72502438D02*
X223197619Y-72454819D01*
X223197619Y-72454819D02*
X223292857Y-72454819D01*
X223292857Y-72454819D02*
X223435714Y-72502438D01*
X223435714Y-72502438D02*
X223483333Y-72550057D01*
X224388095Y-72454819D02*
X223911905Y-72454819D01*
X223911905Y-72454819D02*
X223864286Y-72931009D01*
X223864286Y-72931009D02*
X223911905Y-72883390D01*
X223911905Y-72883390D02*
X224007143Y-72835771D01*
X224007143Y-72835771D02*
X224245238Y-72835771D01*
X224245238Y-72835771D02*
X224340476Y-72883390D01*
X224340476Y-72883390D02*
X224388095Y-72931009D01*
X224388095Y-72931009D02*
X224435714Y-73026247D01*
X224435714Y-73026247D02*
X224435714Y-73264342D01*
X224435714Y-73264342D02*
X224388095Y-73359580D01*
X224388095Y-73359580D02*
X224340476Y-73407200D01*
X224340476Y-73407200D02*
X224245238Y-73454819D01*
X224245238Y-73454819D02*
X224007143Y-73454819D01*
X224007143Y-73454819D02*
X223911905Y-73407200D01*
X223911905Y-73407200D02*
X223864286Y-73359580D01*
X187525595Y-78554819D02*
X187525595Y-79364342D01*
X187525595Y-79364342D02*
X187573214Y-79459580D01*
X187573214Y-79459580D02*
X187620833Y-79507200D01*
X187620833Y-79507200D02*
X187716071Y-79554819D01*
X187716071Y-79554819D02*
X187906547Y-79554819D01*
X187906547Y-79554819D02*
X188001785Y-79507200D01*
X188001785Y-79507200D02*
X188049404Y-79459580D01*
X188049404Y-79459580D02*
X188097023Y-79364342D01*
X188097023Y-79364342D02*
X188097023Y-78554819D01*
X188477976Y-78554819D02*
X189097023Y-78554819D01*
X189097023Y-78554819D02*
X188763690Y-78935771D01*
X188763690Y-78935771D02*
X188906547Y-78935771D01*
X188906547Y-78935771D02*
X189001785Y-78983390D01*
X189001785Y-78983390D02*
X189049404Y-79031009D01*
X189049404Y-79031009D02*
X189097023Y-79126247D01*
X189097023Y-79126247D02*
X189097023Y-79364342D01*
X189097023Y-79364342D02*
X189049404Y-79459580D01*
X189049404Y-79459580D02*
X189001785Y-79507200D01*
X189001785Y-79507200D02*
X188906547Y-79554819D01*
X188906547Y-79554819D02*
X188620833Y-79554819D01*
X188620833Y-79554819D02*
X188525595Y-79507200D01*
X188525595Y-79507200D02*
X188477976Y-79459580D01*
X220695833Y-62104819D02*
X220362500Y-61628628D01*
X220124405Y-62104819D02*
X220124405Y-61104819D01*
X220124405Y-61104819D02*
X220505357Y-61104819D01*
X220505357Y-61104819D02*
X220600595Y-61152438D01*
X220600595Y-61152438D02*
X220648214Y-61200057D01*
X220648214Y-61200057D02*
X220695833Y-61295295D01*
X220695833Y-61295295D02*
X220695833Y-61438152D01*
X220695833Y-61438152D02*
X220648214Y-61533390D01*
X220648214Y-61533390D02*
X220600595Y-61581009D01*
X220600595Y-61581009D02*
X220505357Y-61628628D01*
X220505357Y-61628628D02*
X220124405Y-61628628D01*
X221600595Y-61104819D02*
X221124405Y-61104819D01*
X221124405Y-61104819D02*
X221076786Y-61581009D01*
X221076786Y-61581009D02*
X221124405Y-61533390D01*
X221124405Y-61533390D02*
X221219643Y-61485771D01*
X221219643Y-61485771D02*
X221457738Y-61485771D01*
X221457738Y-61485771D02*
X221552976Y-61533390D01*
X221552976Y-61533390D02*
X221600595Y-61581009D01*
X221600595Y-61581009D02*
X221648214Y-61676247D01*
X221648214Y-61676247D02*
X221648214Y-61914342D01*
X221648214Y-61914342D02*
X221600595Y-62009580D01*
X221600595Y-62009580D02*
X221552976Y-62057200D01*
X221552976Y-62057200D02*
X221457738Y-62104819D01*
X221457738Y-62104819D02*
X221219643Y-62104819D01*
X221219643Y-62104819D02*
X221124405Y-62057200D01*
X221124405Y-62057200D02*
X221076786Y-62009580D01*
X206333333Y-94559580D02*
X206285714Y-94607200D01*
X206285714Y-94607200D02*
X206142857Y-94654819D01*
X206142857Y-94654819D02*
X206047619Y-94654819D01*
X206047619Y-94654819D02*
X205904762Y-94607200D01*
X205904762Y-94607200D02*
X205809524Y-94511961D01*
X205809524Y-94511961D02*
X205761905Y-94416723D01*
X205761905Y-94416723D02*
X205714286Y-94226247D01*
X205714286Y-94226247D02*
X205714286Y-94083390D01*
X205714286Y-94083390D02*
X205761905Y-93892914D01*
X205761905Y-93892914D02*
X205809524Y-93797676D01*
X205809524Y-93797676D02*
X205904762Y-93702438D01*
X205904762Y-93702438D02*
X206047619Y-93654819D01*
X206047619Y-93654819D02*
X206142857Y-93654819D01*
X206142857Y-93654819D02*
X206285714Y-93702438D01*
X206285714Y-93702438D02*
X206333333Y-93750057D01*
X207333333Y-94654819D02*
X207000000Y-94178628D01*
X206761905Y-94654819D02*
X206761905Y-93654819D01*
X206761905Y-93654819D02*
X207142857Y-93654819D01*
X207142857Y-93654819D02*
X207238095Y-93702438D01*
X207238095Y-93702438D02*
X207285714Y-93750057D01*
X207285714Y-93750057D02*
X207333333Y-93845295D01*
X207333333Y-93845295D02*
X207333333Y-93988152D01*
X207333333Y-93988152D02*
X207285714Y-94083390D01*
X207285714Y-94083390D02*
X207238095Y-94131009D01*
X207238095Y-94131009D02*
X207142857Y-94178628D01*
X207142857Y-94178628D02*
X206761905Y-94178628D01*
X207714286Y-93750057D02*
X207761905Y-93702438D01*
X207761905Y-93702438D02*
X207857143Y-93654819D01*
X207857143Y-93654819D02*
X208095238Y-93654819D01*
X208095238Y-93654819D02*
X208190476Y-93702438D01*
X208190476Y-93702438D02*
X208238095Y-93750057D01*
X208238095Y-93750057D02*
X208285714Y-93845295D01*
X208285714Y-93845295D02*
X208285714Y-93940533D01*
X208285714Y-93940533D02*
X208238095Y-94083390D01*
X208238095Y-94083390D02*
X207666667Y-94654819D01*
X207666667Y-94654819D02*
X208285714Y-94654819D01*
X219959580Y-92641666D02*
X220007200Y-92689285D01*
X220007200Y-92689285D02*
X220054819Y-92832142D01*
X220054819Y-92832142D02*
X220054819Y-92927380D01*
X220054819Y-92927380D02*
X220007200Y-93070237D01*
X220007200Y-93070237D02*
X219911961Y-93165475D01*
X219911961Y-93165475D02*
X219816723Y-93213094D01*
X219816723Y-93213094D02*
X219626247Y-93260713D01*
X219626247Y-93260713D02*
X219483390Y-93260713D01*
X219483390Y-93260713D02*
X219292914Y-93213094D01*
X219292914Y-93213094D02*
X219197676Y-93165475D01*
X219197676Y-93165475D02*
X219102438Y-93070237D01*
X219102438Y-93070237D02*
X219054819Y-92927380D01*
X219054819Y-92927380D02*
X219054819Y-92832142D01*
X219054819Y-92832142D02*
X219102438Y-92689285D01*
X219102438Y-92689285D02*
X219150057Y-92641666D01*
X219150057Y-92260713D02*
X219102438Y-92213094D01*
X219102438Y-92213094D02*
X219054819Y-92117856D01*
X219054819Y-92117856D02*
X219054819Y-91879761D01*
X219054819Y-91879761D02*
X219102438Y-91784523D01*
X219102438Y-91784523D02*
X219150057Y-91736904D01*
X219150057Y-91736904D02*
X219245295Y-91689285D01*
X219245295Y-91689285D02*
X219340533Y-91689285D01*
X219340533Y-91689285D02*
X219483390Y-91736904D01*
X219483390Y-91736904D02*
X220054819Y-92308332D01*
X220054819Y-92308332D02*
X220054819Y-91689285D01*
X186866667Y-94407200D02*
X187009524Y-94454819D01*
X187009524Y-94454819D02*
X187247619Y-94454819D01*
X187247619Y-94454819D02*
X187342857Y-94407200D01*
X187342857Y-94407200D02*
X187390476Y-94359580D01*
X187390476Y-94359580D02*
X187438095Y-94264342D01*
X187438095Y-94264342D02*
X187438095Y-94169104D01*
X187438095Y-94169104D02*
X187390476Y-94073866D01*
X187390476Y-94073866D02*
X187342857Y-94026247D01*
X187342857Y-94026247D02*
X187247619Y-93978628D01*
X187247619Y-93978628D02*
X187057143Y-93931009D01*
X187057143Y-93931009D02*
X186961905Y-93883390D01*
X186961905Y-93883390D02*
X186914286Y-93835771D01*
X186914286Y-93835771D02*
X186866667Y-93740533D01*
X186866667Y-93740533D02*
X186866667Y-93645295D01*
X186866667Y-93645295D02*
X186914286Y-93550057D01*
X186914286Y-93550057D02*
X186961905Y-93502438D01*
X186961905Y-93502438D02*
X187057143Y-93454819D01*
X187057143Y-93454819D02*
X187295238Y-93454819D01*
X187295238Y-93454819D02*
X187438095Y-93502438D01*
X187771429Y-93454819D02*
X188009524Y-94454819D01*
X188009524Y-94454819D02*
X188200000Y-93740533D01*
X188200000Y-93740533D02*
X188390476Y-94454819D01*
X188390476Y-94454819D02*
X188628572Y-93454819D01*
X189533333Y-94454819D02*
X188961905Y-94454819D01*
X189247619Y-94454819D02*
X189247619Y-93454819D01*
X189247619Y-93454819D02*
X189152381Y-93597676D01*
X189152381Y-93597676D02*
X189057143Y-93692914D01*
X189057143Y-93692914D02*
X188961905Y-93740533D01*
X206057142Y-80859580D02*
X206009523Y-80907200D01*
X206009523Y-80907200D02*
X205866666Y-80954819D01*
X205866666Y-80954819D02*
X205771428Y-80954819D01*
X205771428Y-80954819D02*
X205628571Y-80907200D01*
X205628571Y-80907200D02*
X205533333Y-80811961D01*
X205533333Y-80811961D02*
X205485714Y-80716723D01*
X205485714Y-80716723D02*
X205438095Y-80526247D01*
X205438095Y-80526247D02*
X205438095Y-80383390D01*
X205438095Y-80383390D02*
X205485714Y-80192914D01*
X205485714Y-80192914D02*
X205533333Y-80097676D01*
X205533333Y-80097676D02*
X205628571Y-80002438D01*
X205628571Y-80002438D02*
X205771428Y-79954819D01*
X205771428Y-79954819D02*
X205866666Y-79954819D01*
X205866666Y-79954819D02*
X206009523Y-80002438D01*
X206009523Y-80002438D02*
X206057142Y-80050057D01*
X207009523Y-80954819D02*
X206438095Y-80954819D01*
X206723809Y-80954819D02*
X206723809Y-79954819D01*
X206723809Y-79954819D02*
X206628571Y-80097676D01*
X206628571Y-80097676D02*
X206533333Y-80192914D01*
X206533333Y-80192914D02*
X206438095Y-80240533D01*
X207628571Y-79954819D02*
X207723809Y-79954819D01*
X207723809Y-79954819D02*
X207819047Y-80002438D01*
X207819047Y-80002438D02*
X207866666Y-80050057D01*
X207866666Y-80050057D02*
X207914285Y-80145295D01*
X207914285Y-80145295D02*
X207961904Y-80335771D01*
X207961904Y-80335771D02*
X207961904Y-80573866D01*
X207961904Y-80573866D02*
X207914285Y-80764342D01*
X207914285Y-80764342D02*
X207866666Y-80859580D01*
X207866666Y-80859580D02*
X207819047Y-80907200D01*
X207819047Y-80907200D02*
X207723809Y-80954819D01*
X207723809Y-80954819D02*
X207628571Y-80954819D01*
X207628571Y-80954819D02*
X207533333Y-80907200D01*
X207533333Y-80907200D02*
X207485714Y-80859580D01*
X207485714Y-80859580D02*
X207438095Y-80764342D01*
X207438095Y-80764342D02*
X207390476Y-80573866D01*
X207390476Y-80573866D02*
X207390476Y-80335771D01*
X207390476Y-80335771D02*
X207438095Y-80145295D01*
X207438095Y-80145295D02*
X207485714Y-80050057D01*
X207485714Y-80050057D02*
X207533333Y-80002438D01*
X207533333Y-80002438D02*
X207628571Y-79954819D01*
X169433333Y-52754819D02*
X169100000Y-52278628D01*
X168861905Y-52754819D02*
X168861905Y-51754819D01*
X168861905Y-51754819D02*
X169242857Y-51754819D01*
X169242857Y-51754819D02*
X169338095Y-51802438D01*
X169338095Y-51802438D02*
X169385714Y-51850057D01*
X169385714Y-51850057D02*
X169433333Y-51945295D01*
X169433333Y-51945295D02*
X169433333Y-52088152D01*
X169433333Y-52088152D02*
X169385714Y-52183390D01*
X169385714Y-52183390D02*
X169338095Y-52231009D01*
X169338095Y-52231009D02*
X169242857Y-52278628D01*
X169242857Y-52278628D02*
X168861905Y-52278628D01*
X169909524Y-52754819D02*
X170100000Y-52754819D01*
X170100000Y-52754819D02*
X170195238Y-52707200D01*
X170195238Y-52707200D02*
X170242857Y-52659580D01*
X170242857Y-52659580D02*
X170338095Y-52516723D01*
X170338095Y-52516723D02*
X170385714Y-52326247D01*
X170385714Y-52326247D02*
X170385714Y-51945295D01*
X170385714Y-51945295D02*
X170338095Y-51850057D01*
X170338095Y-51850057D02*
X170290476Y-51802438D01*
X170290476Y-51802438D02*
X170195238Y-51754819D01*
X170195238Y-51754819D02*
X170004762Y-51754819D01*
X170004762Y-51754819D02*
X169909524Y-51802438D01*
X169909524Y-51802438D02*
X169861905Y-51850057D01*
X169861905Y-51850057D02*
X169814286Y-51945295D01*
X169814286Y-51945295D02*
X169814286Y-52183390D01*
X169814286Y-52183390D02*
X169861905Y-52278628D01*
X169861905Y-52278628D02*
X169909524Y-52326247D01*
X169909524Y-52326247D02*
X170004762Y-52373866D01*
X170004762Y-52373866D02*
X170195238Y-52373866D01*
X170195238Y-52373866D02*
X170290476Y-52326247D01*
X170290476Y-52326247D02*
X170338095Y-52278628D01*
X170338095Y-52278628D02*
X170385714Y-52183390D01*
X217733333Y-84954819D02*
X217400000Y-84478628D01*
X217161905Y-84954819D02*
X217161905Y-83954819D01*
X217161905Y-83954819D02*
X217542857Y-83954819D01*
X217542857Y-83954819D02*
X217638095Y-84002438D01*
X217638095Y-84002438D02*
X217685714Y-84050057D01*
X217685714Y-84050057D02*
X217733333Y-84145295D01*
X217733333Y-84145295D02*
X217733333Y-84288152D01*
X217733333Y-84288152D02*
X217685714Y-84383390D01*
X217685714Y-84383390D02*
X217638095Y-84431009D01*
X217638095Y-84431009D02*
X217542857Y-84478628D01*
X217542857Y-84478628D02*
X217161905Y-84478628D01*
X218114286Y-84050057D02*
X218161905Y-84002438D01*
X218161905Y-84002438D02*
X218257143Y-83954819D01*
X218257143Y-83954819D02*
X218495238Y-83954819D01*
X218495238Y-83954819D02*
X218590476Y-84002438D01*
X218590476Y-84002438D02*
X218638095Y-84050057D01*
X218638095Y-84050057D02*
X218685714Y-84145295D01*
X218685714Y-84145295D02*
X218685714Y-84240533D01*
X218685714Y-84240533D02*
X218638095Y-84383390D01*
X218638095Y-84383390D02*
X218066667Y-84954819D01*
X218066667Y-84954819D02*
X218685714Y-84954819D01*
X219854819Y-88800594D02*
X218854819Y-88800594D01*
X218854819Y-88800594D02*
X218854819Y-88562499D01*
X218854819Y-88562499D02*
X218902438Y-88419642D01*
X218902438Y-88419642D02*
X218997676Y-88324404D01*
X218997676Y-88324404D02*
X219092914Y-88276785D01*
X219092914Y-88276785D02*
X219283390Y-88229166D01*
X219283390Y-88229166D02*
X219426247Y-88229166D01*
X219426247Y-88229166D02*
X219616723Y-88276785D01*
X219616723Y-88276785D02*
X219711961Y-88324404D01*
X219711961Y-88324404D02*
X219807200Y-88419642D01*
X219807200Y-88419642D02*
X219854819Y-88562499D01*
X219854819Y-88562499D02*
X219854819Y-88800594D01*
X219854819Y-87276785D02*
X219854819Y-87848213D01*
X219854819Y-87562499D02*
X218854819Y-87562499D01*
X218854819Y-87562499D02*
X218997676Y-87657737D01*
X218997676Y-87657737D02*
X219092914Y-87752975D01*
X219092914Y-87752975D02*
X219140533Y-87848213D01*
X213257142Y-77954819D02*
X212923809Y-77478628D01*
X212685714Y-77954819D02*
X212685714Y-76954819D01*
X212685714Y-76954819D02*
X213066666Y-76954819D01*
X213066666Y-76954819D02*
X213161904Y-77002438D01*
X213161904Y-77002438D02*
X213209523Y-77050057D01*
X213209523Y-77050057D02*
X213257142Y-77145295D01*
X213257142Y-77145295D02*
X213257142Y-77288152D01*
X213257142Y-77288152D02*
X213209523Y-77383390D01*
X213209523Y-77383390D02*
X213161904Y-77431009D01*
X213161904Y-77431009D02*
X213066666Y-77478628D01*
X213066666Y-77478628D02*
X212685714Y-77478628D01*
X214209523Y-77954819D02*
X213638095Y-77954819D01*
X213923809Y-77954819D02*
X213923809Y-76954819D01*
X213923809Y-76954819D02*
X213828571Y-77097676D01*
X213828571Y-77097676D02*
X213733333Y-77192914D01*
X213733333Y-77192914D02*
X213638095Y-77240533D01*
X215161904Y-77954819D02*
X214590476Y-77954819D01*
X214876190Y-77954819D02*
X214876190Y-76954819D01*
X214876190Y-76954819D02*
X214780952Y-77097676D01*
X214780952Y-77097676D02*
X214685714Y-77192914D01*
X214685714Y-77192914D02*
X214590476Y-77240533D01*
X210920833Y-83704819D02*
X210587500Y-83228628D01*
X210349405Y-83704819D02*
X210349405Y-82704819D01*
X210349405Y-82704819D02*
X210730357Y-82704819D01*
X210730357Y-82704819D02*
X210825595Y-82752438D01*
X210825595Y-82752438D02*
X210873214Y-82800057D01*
X210873214Y-82800057D02*
X210920833Y-82895295D01*
X210920833Y-82895295D02*
X210920833Y-83038152D01*
X210920833Y-83038152D02*
X210873214Y-83133390D01*
X210873214Y-83133390D02*
X210825595Y-83181009D01*
X210825595Y-83181009D02*
X210730357Y-83228628D01*
X210730357Y-83228628D02*
X210349405Y-83228628D01*
X211254167Y-82704819D02*
X211873214Y-82704819D01*
X211873214Y-82704819D02*
X211539881Y-83085771D01*
X211539881Y-83085771D02*
X211682738Y-83085771D01*
X211682738Y-83085771D02*
X211777976Y-83133390D01*
X211777976Y-83133390D02*
X211825595Y-83181009D01*
X211825595Y-83181009D02*
X211873214Y-83276247D01*
X211873214Y-83276247D02*
X211873214Y-83514342D01*
X211873214Y-83514342D02*
X211825595Y-83609580D01*
X211825595Y-83609580D02*
X211777976Y-83657200D01*
X211777976Y-83657200D02*
X211682738Y-83704819D01*
X211682738Y-83704819D02*
X211397024Y-83704819D01*
X211397024Y-83704819D02*
X211301786Y-83657200D01*
X211301786Y-83657200D02*
X211254167Y-83609580D01*
X202333333Y-91659580D02*
X202285714Y-91707200D01*
X202285714Y-91707200D02*
X202142857Y-91754819D01*
X202142857Y-91754819D02*
X202047619Y-91754819D01*
X202047619Y-91754819D02*
X201904762Y-91707200D01*
X201904762Y-91707200D02*
X201809524Y-91611961D01*
X201809524Y-91611961D02*
X201761905Y-91516723D01*
X201761905Y-91516723D02*
X201714286Y-91326247D01*
X201714286Y-91326247D02*
X201714286Y-91183390D01*
X201714286Y-91183390D02*
X201761905Y-90992914D01*
X201761905Y-90992914D02*
X201809524Y-90897676D01*
X201809524Y-90897676D02*
X201904762Y-90802438D01*
X201904762Y-90802438D02*
X202047619Y-90754819D01*
X202047619Y-90754819D02*
X202142857Y-90754819D01*
X202142857Y-90754819D02*
X202285714Y-90802438D01*
X202285714Y-90802438D02*
X202333333Y-90850057D01*
X202666667Y-90754819D02*
X203333333Y-90754819D01*
X203333333Y-90754819D02*
X202904762Y-91754819D01*
X215949405Y-58104819D02*
X215949405Y-57104819D01*
X215949405Y-57104819D02*
X216187500Y-57104819D01*
X216187500Y-57104819D02*
X216330357Y-57152438D01*
X216330357Y-57152438D02*
X216425595Y-57247676D01*
X216425595Y-57247676D02*
X216473214Y-57342914D01*
X216473214Y-57342914D02*
X216520833Y-57533390D01*
X216520833Y-57533390D02*
X216520833Y-57676247D01*
X216520833Y-57676247D02*
X216473214Y-57866723D01*
X216473214Y-57866723D02*
X216425595Y-57961961D01*
X216425595Y-57961961D02*
X216330357Y-58057200D01*
X216330357Y-58057200D02*
X216187500Y-58104819D01*
X216187500Y-58104819D02*
X215949405Y-58104819D01*
X216901786Y-57200057D02*
X216949405Y-57152438D01*
X216949405Y-57152438D02*
X217044643Y-57104819D01*
X217044643Y-57104819D02*
X217282738Y-57104819D01*
X217282738Y-57104819D02*
X217377976Y-57152438D01*
X217377976Y-57152438D02*
X217425595Y-57200057D01*
X217425595Y-57200057D02*
X217473214Y-57295295D01*
X217473214Y-57295295D02*
X217473214Y-57390533D01*
X217473214Y-57390533D02*
X217425595Y-57533390D01*
X217425595Y-57533390D02*
X216854167Y-58104819D01*
X216854167Y-58104819D02*
X217473214Y-58104819D01*
X199454819Y-71066666D02*
X198978628Y-71399999D01*
X199454819Y-71638094D02*
X198454819Y-71638094D01*
X198454819Y-71638094D02*
X198454819Y-71257142D01*
X198454819Y-71257142D02*
X198502438Y-71161904D01*
X198502438Y-71161904D02*
X198550057Y-71114285D01*
X198550057Y-71114285D02*
X198645295Y-71066666D01*
X198645295Y-71066666D02*
X198788152Y-71066666D01*
X198788152Y-71066666D02*
X198883390Y-71114285D01*
X198883390Y-71114285D02*
X198931009Y-71161904D01*
X198931009Y-71161904D02*
X198978628Y-71257142D01*
X198978628Y-71257142D02*
X198978628Y-71638094D01*
X198454819Y-70733332D02*
X198454819Y-70066666D01*
X198454819Y-70066666D02*
X199454819Y-70495237D01*
X220833333Y-77254819D02*
X220500000Y-76778628D01*
X220261905Y-77254819D02*
X220261905Y-76254819D01*
X220261905Y-76254819D02*
X220642857Y-76254819D01*
X220642857Y-76254819D02*
X220738095Y-76302438D01*
X220738095Y-76302438D02*
X220785714Y-76350057D01*
X220785714Y-76350057D02*
X220833333Y-76445295D01*
X220833333Y-76445295D02*
X220833333Y-76588152D01*
X220833333Y-76588152D02*
X220785714Y-76683390D01*
X220785714Y-76683390D02*
X220738095Y-76731009D01*
X220738095Y-76731009D02*
X220642857Y-76778628D01*
X220642857Y-76778628D02*
X220261905Y-76778628D01*
X221785714Y-77254819D02*
X221214286Y-77254819D01*
X221500000Y-77254819D02*
X221500000Y-76254819D01*
X221500000Y-76254819D02*
X221404762Y-76397676D01*
X221404762Y-76397676D02*
X221309524Y-76492914D01*
X221309524Y-76492914D02*
X221214286Y-76540533D01*
X177054819Y-71079166D02*
X176578628Y-71412499D01*
X177054819Y-71650594D02*
X176054819Y-71650594D01*
X176054819Y-71650594D02*
X176054819Y-71269642D01*
X176054819Y-71269642D02*
X176102438Y-71174404D01*
X176102438Y-71174404D02*
X176150057Y-71126785D01*
X176150057Y-71126785D02*
X176245295Y-71079166D01*
X176245295Y-71079166D02*
X176388152Y-71079166D01*
X176388152Y-71079166D02*
X176483390Y-71126785D01*
X176483390Y-71126785D02*
X176531009Y-71174404D01*
X176531009Y-71174404D02*
X176578628Y-71269642D01*
X176578628Y-71269642D02*
X176578628Y-71650594D01*
X176054819Y-70222023D02*
X176054819Y-70412499D01*
X176054819Y-70412499D02*
X176102438Y-70507737D01*
X176102438Y-70507737D02*
X176150057Y-70555356D01*
X176150057Y-70555356D02*
X176292914Y-70650594D01*
X176292914Y-70650594D02*
X176483390Y-70698213D01*
X176483390Y-70698213D02*
X176864342Y-70698213D01*
X176864342Y-70698213D02*
X176959580Y-70650594D01*
X176959580Y-70650594D02*
X177007200Y-70602975D01*
X177007200Y-70602975D02*
X177054819Y-70507737D01*
X177054819Y-70507737D02*
X177054819Y-70317261D01*
X177054819Y-70317261D02*
X177007200Y-70222023D01*
X177007200Y-70222023D02*
X176959580Y-70174404D01*
X176959580Y-70174404D02*
X176864342Y-70126785D01*
X176864342Y-70126785D02*
X176626247Y-70126785D01*
X176626247Y-70126785D02*
X176531009Y-70174404D01*
X176531009Y-70174404D02*
X176483390Y-70222023D01*
X176483390Y-70222023D02*
X176435771Y-70317261D01*
X176435771Y-70317261D02*
X176435771Y-70507737D01*
X176435771Y-70507737D02*
X176483390Y-70602975D01*
X176483390Y-70602975D02*
X176531009Y-70650594D01*
X176531009Y-70650594D02*
X176626247Y-70698213D01*
X215949405Y-62104819D02*
X215949405Y-61104819D01*
X215949405Y-61104819D02*
X216187500Y-61104819D01*
X216187500Y-61104819D02*
X216330357Y-61152438D01*
X216330357Y-61152438D02*
X216425595Y-61247676D01*
X216425595Y-61247676D02*
X216473214Y-61342914D01*
X216473214Y-61342914D02*
X216520833Y-61533390D01*
X216520833Y-61533390D02*
X216520833Y-61676247D01*
X216520833Y-61676247D02*
X216473214Y-61866723D01*
X216473214Y-61866723D02*
X216425595Y-61961961D01*
X216425595Y-61961961D02*
X216330357Y-62057200D01*
X216330357Y-62057200D02*
X216187500Y-62104819D01*
X216187500Y-62104819D02*
X215949405Y-62104819D01*
X216854167Y-61104819D02*
X217473214Y-61104819D01*
X217473214Y-61104819D02*
X217139881Y-61485771D01*
X217139881Y-61485771D02*
X217282738Y-61485771D01*
X217282738Y-61485771D02*
X217377976Y-61533390D01*
X217377976Y-61533390D02*
X217425595Y-61581009D01*
X217425595Y-61581009D02*
X217473214Y-61676247D01*
X217473214Y-61676247D02*
X217473214Y-61914342D01*
X217473214Y-61914342D02*
X217425595Y-62009580D01*
X217425595Y-62009580D02*
X217377976Y-62057200D01*
X217377976Y-62057200D02*
X217282738Y-62104819D01*
X217282738Y-62104819D02*
X216997024Y-62104819D01*
X216997024Y-62104819D02*
X216901786Y-62057200D01*
X216901786Y-62057200D02*
X216854167Y-62009580D01*
X220695833Y-58104819D02*
X220362500Y-57628628D01*
X220124405Y-58104819D02*
X220124405Y-57104819D01*
X220124405Y-57104819D02*
X220505357Y-57104819D01*
X220505357Y-57104819D02*
X220600595Y-57152438D01*
X220600595Y-57152438D02*
X220648214Y-57200057D01*
X220648214Y-57200057D02*
X220695833Y-57295295D01*
X220695833Y-57295295D02*
X220695833Y-57438152D01*
X220695833Y-57438152D02*
X220648214Y-57533390D01*
X220648214Y-57533390D02*
X220600595Y-57581009D01*
X220600595Y-57581009D02*
X220505357Y-57628628D01*
X220505357Y-57628628D02*
X220124405Y-57628628D01*
X221552976Y-57438152D02*
X221552976Y-58104819D01*
X221314881Y-57057200D02*
X221076786Y-57771485D01*
X221076786Y-57771485D02*
X221695833Y-57771485D01*
X209833333Y-82259580D02*
X209785714Y-82307200D01*
X209785714Y-82307200D02*
X209642857Y-82354819D01*
X209642857Y-82354819D02*
X209547619Y-82354819D01*
X209547619Y-82354819D02*
X209404762Y-82307200D01*
X209404762Y-82307200D02*
X209309524Y-82211961D01*
X209309524Y-82211961D02*
X209261905Y-82116723D01*
X209261905Y-82116723D02*
X209214286Y-81926247D01*
X209214286Y-81926247D02*
X209214286Y-81783390D01*
X209214286Y-81783390D02*
X209261905Y-81592914D01*
X209261905Y-81592914D02*
X209309524Y-81497676D01*
X209309524Y-81497676D02*
X209404762Y-81402438D01*
X209404762Y-81402438D02*
X209547619Y-81354819D01*
X209547619Y-81354819D02*
X209642857Y-81354819D01*
X209642857Y-81354819D02*
X209785714Y-81402438D01*
X209785714Y-81402438D02*
X209833333Y-81450057D01*
X210309524Y-82354819D02*
X210500000Y-82354819D01*
X210500000Y-82354819D02*
X210595238Y-82307200D01*
X210595238Y-82307200D02*
X210642857Y-82259580D01*
X210642857Y-82259580D02*
X210738095Y-82116723D01*
X210738095Y-82116723D02*
X210785714Y-81926247D01*
X210785714Y-81926247D02*
X210785714Y-81545295D01*
X210785714Y-81545295D02*
X210738095Y-81450057D01*
X210738095Y-81450057D02*
X210690476Y-81402438D01*
X210690476Y-81402438D02*
X210595238Y-81354819D01*
X210595238Y-81354819D02*
X210404762Y-81354819D01*
X210404762Y-81354819D02*
X210309524Y-81402438D01*
X210309524Y-81402438D02*
X210261905Y-81450057D01*
X210261905Y-81450057D02*
X210214286Y-81545295D01*
X210214286Y-81545295D02*
X210214286Y-81783390D01*
X210214286Y-81783390D02*
X210261905Y-81878628D01*
X210261905Y-81878628D02*
X210309524Y-81926247D01*
X210309524Y-81926247D02*
X210404762Y-81973866D01*
X210404762Y-81973866D02*
X210595238Y-81973866D01*
X210595238Y-81973866D02*
X210690476Y-81926247D01*
X210690476Y-81926247D02*
X210738095Y-81878628D01*
X210738095Y-81878628D02*
X210785714Y-81783390D01*
X165349819Y-91183333D02*
X166064104Y-91183333D01*
X166064104Y-91183333D02*
X166206961Y-91230952D01*
X166206961Y-91230952D02*
X166302200Y-91326190D01*
X166302200Y-91326190D02*
X166349819Y-91469047D01*
X166349819Y-91469047D02*
X166349819Y-91564285D01*
X165683152Y-90278571D02*
X166349819Y-90278571D01*
X165302200Y-90516666D02*
X166016485Y-90754761D01*
X166016485Y-90754761D02*
X166016485Y-90135714D01*
X212833333Y-95259580D02*
X212785714Y-95307200D01*
X212785714Y-95307200D02*
X212642857Y-95354819D01*
X212642857Y-95354819D02*
X212547619Y-95354819D01*
X212547619Y-95354819D02*
X212404762Y-95307200D01*
X212404762Y-95307200D02*
X212309524Y-95211961D01*
X212309524Y-95211961D02*
X212261905Y-95116723D01*
X212261905Y-95116723D02*
X212214286Y-94926247D01*
X212214286Y-94926247D02*
X212214286Y-94783390D01*
X212214286Y-94783390D02*
X212261905Y-94592914D01*
X212261905Y-94592914D02*
X212309524Y-94497676D01*
X212309524Y-94497676D02*
X212404762Y-94402438D01*
X212404762Y-94402438D02*
X212547619Y-94354819D01*
X212547619Y-94354819D02*
X212642857Y-94354819D01*
X212642857Y-94354819D02*
X212785714Y-94402438D01*
X212785714Y-94402438D02*
X212833333Y-94450057D01*
X213404762Y-94783390D02*
X213309524Y-94735771D01*
X213309524Y-94735771D02*
X213261905Y-94688152D01*
X213261905Y-94688152D02*
X213214286Y-94592914D01*
X213214286Y-94592914D02*
X213214286Y-94545295D01*
X213214286Y-94545295D02*
X213261905Y-94450057D01*
X213261905Y-94450057D02*
X213309524Y-94402438D01*
X213309524Y-94402438D02*
X213404762Y-94354819D01*
X213404762Y-94354819D02*
X213595238Y-94354819D01*
X213595238Y-94354819D02*
X213690476Y-94402438D01*
X213690476Y-94402438D02*
X213738095Y-94450057D01*
X213738095Y-94450057D02*
X213785714Y-94545295D01*
X213785714Y-94545295D02*
X213785714Y-94592914D01*
X213785714Y-94592914D02*
X213738095Y-94688152D01*
X213738095Y-94688152D02*
X213690476Y-94735771D01*
X213690476Y-94735771D02*
X213595238Y-94783390D01*
X213595238Y-94783390D02*
X213404762Y-94783390D01*
X213404762Y-94783390D02*
X213309524Y-94831009D01*
X213309524Y-94831009D02*
X213261905Y-94878628D01*
X213261905Y-94878628D02*
X213214286Y-94973866D01*
X213214286Y-94973866D02*
X213214286Y-95164342D01*
X213214286Y-95164342D02*
X213261905Y-95259580D01*
X213261905Y-95259580D02*
X213309524Y-95307200D01*
X213309524Y-95307200D02*
X213404762Y-95354819D01*
X213404762Y-95354819D02*
X213595238Y-95354819D01*
X213595238Y-95354819D02*
X213690476Y-95307200D01*
X213690476Y-95307200D02*
X213738095Y-95259580D01*
X213738095Y-95259580D02*
X213785714Y-95164342D01*
X213785714Y-95164342D02*
X213785714Y-94973866D01*
X213785714Y-94973866D02*
X213738095Y-94878628D01*
X213738095Y-94878628D02*
X213690476Y-94831009D01*
X213690476Y-94831009D02*
X213595238Y-94783390D01*
X200038095Y-93054819D02*
X200038095Y-93864342D01*
X200038095Y-93864342D02*
X200085714Y-93959580D01*
X200085714Y-93959580D02*
X200133333Y-94007200D01*
X200133333Y-94007200D02*
X200228571Y-94054819D01*
X200228571Y-94054819D02*
X200419047Y-94054819D01*
X200419047Y-94054819D02*
X200514285Y-94007200D01*
X200514285Y-94007200D02*
X200561904Y-93959580D01*
X200561904Y-93959580D02*
X200609523Y-93864342D01*
X200609523Y-93864342D02*
X200609523Y-93054819D01*
X201514285Y-93388152D02*
X201514285Y-94054819D01*
X201276190Y-93007200D02*
X201038095Y-93721485D01*
X201038095Y-93721485D02*
X201657142Y-93721485D01*
X186333333Y-89059580D02*
X186285714Y-89107200D01*
X186285714Y-89107200D02*
X186142857Y-89154819D01*
X186142857Y-89154819D02*
X186047619Y-89154819D01*
X186047619Y-89154819D02*
X185904762Y-89107200D01*
X185904762Y-89107200D02*
X185809524Y-89011961D01*
X185809524Y-89011961D02*
X185761905Y-88916723D01*
X185761905Y-88916723D02*
X185714286Y-88726247D01*
X185714286Y-88726247D02*
X185714286Y-88583390D01*
X185714286Y-88583390D02*
X185761905Y-88392914D01*
X185761905Y-88392914D02*
X185809524Y-88297676D01*
X185809524Y-88297676D02*
X185904762Y-88202438D01*
X185904762Y-88202438D02*
X186047619Y-88154819D01*
X186047619Y-88154819D02*
X186142857Y-88154819D01*
X186142857Y-88154819D02*
X186285714Y-88202438D01*
X186285714Y-88202438D02*
X186333333Y-88250057D01*
X187190476Y-88154819D02*
X187000000Y-88154819D01*
X187000000Y-88154819D02*
X186904762Y-88202438D01*
X186904762Y-88202438D02*
X186857143Y-88250057D01*
X186857143Y-88250057D02*
X186761905Y-88392914D01*
X186761905Y-88392914D02*
X186714286Y-88583390D01*
X186714286Y-88583390D02*
X186714286Y-88964342D01*
X186714286Y-88964342D02*
X186761905Y-89059580D01*
X186761905Y-89059580D02*
X186809524Y-89107200D01*
X186809524Y-89107200D02*
X186904762Y-89154819D01*
X186904762Y-89154819D02*
X187095238Y-89154819D01*
X187095238Y-89154819D02*
X187190476Y-89107200D01*
X187190476Y-89107200D02*
X187238095Y-89059580D01*
X187238095Y-89059580D02*
X187285714Y-88964342D01*
X187285714Y-88964342D02*
X187285714Y-88726247D01*
X187285714Y-88726247D02*
X187238095Y-88631009D01*
X187238095Y-88631009D02*
X187190476Y-88583390D01*
X187190476Y-88583390D02*
X187095238Y-88535771D01*
X187095238Y-88535771D02*
X186904762Y-88535771D01*
X186904762Y-88535771D02*
X186809524Y-88583390D01*
X186809524Y-88583390D02*
X186761905Y-88631009D01*
X186761905Y-88631009D02*
X186714286Y-88726247D01*
X209238095Y-86754819D02*
X209238095Y-87564342D01*
X209238095Y-87564342D02*
X209285714Y-87659580D01*
X209285714Y-87659580D02*
X209333333Y-87707200D01*
X209333333Y-87707200D02*
X209428571Y-87754819D01*
X209428571Y-87754819D02*
X209619047Y-87754819D01*
X209619047Y-87754819D02*
X209714285Y-87707200D01*
X209714285Y-87707200D02*
X209761904Y-87659580D01*
X209761904Y-87659580D02*
X209809523Y-87564342D01*
X209809523Y-87564342D02*
X209809523Y-86754819D01*
X210809523Y-87754819D02*
X210238095Y-87754819D01*
X210523809Y-87754819D02*
X210523809Y-86754819D01*
X210523809Y-86754819D02*
X210428571Y-86897676D01*
X210428571Y-86897676D02*
X210333333Y-86992914D01*
X210333333Y-86992914D02*
X210238095Y-87040533D01*
X212166667Y-68507200D02*
X212309524Y-68554819D01*
X212309524Y-68554819D02*
X212547619Y-68554819D01*
X212547619Y-68554819D02*
X212642857Y-68507200D01*
X212642857Y-68507200D02*
X212690476Y-68459580D01*
X212690476Y-68459580D02*
X212738095Y-68364342D01*
X212738095Y-68364342D02*
X212738095Y-68269104D01*
X212738095Y-68269104D02*
X212690476Y-68173866D01*
X212690476Y-68173866D02*
X212642857Y-68126247D01*
X212642857Y-68126247D02*
X212547619Y-68078628D01*
X212547619Y-68078628D02*
X212357143Y-68031009D01*
X212357143Y-68031009D02*
X212261905Y-67983390D01*
X212261905Y-67983390D02*
X212214286Y-67935771D01*
X212214286Y-67935771D02*
X212166667Y-67840533D01*
X212166667Y-67840533D02*
X212166667Y-67745295D01*
X212166667Y-67745295D02*
X212214286Y-67650057D01*
X212214286Y-67650057D02*
X212261905Y-67602438D01*
X212261905Y-67602438D02*
X212357143Y-67554819D01*
X212357143Y-67554819D02*
X212595238Y-67554819D01*
X212595238Y-67554819D02*
X212738095Y-67602438D01*
X213071429Y-67554819D02*
X213309524Y-68554819D01*
X213309524Y-68554819D02*
X213500000Y-67840533D01*
X213500000Y-67840533D02*
X213690476Y-68554819D01*
X213690476Y-68554819D02*
X213928572Y-67554819D01*
X214738095Y-67888152D02*
X214738095Y-68554819D01*
X214500000Y-67507200D02*
X214261905Y-68221485D01*
X214261905Y-68221485D02*
X214880952Y-68221485D01*
X210250002Y-67943519D02*
X210250002Y-68181614D01*
X210011907Y-68086376D02*
X210250002Y-68181614D01*
X210250002Y-68181614D02*
X210488097Y-68086376D01*
X210107145Y-68372090D02*
X210250002Y-68181614D01*
X210250002Y-68181614D02*
X210392859Y-68372090D01*
X168944642Y-58804819D02*
X168611309Y-58328628D01*
X168373214Y-58804819D02*
X168373214Y-57804819D01*
X168373214Y-57804819D02*
X168754166Y-57804819D01*
X168754166Y-57804819D02*
X168849404Y-57852438D01*
X168849404Y-57852438D02*
X168897023Y-57900057D01*
X168897023Y-57900057D02*
X168944642Y-57995295D01*
X168944642Y-57995295D02*
X168944642Y-58138152D01*
X168944642Y-58138152D02*
X168897023Y-58233390D01*
X168897023Y-58233390D02*
X168849404Y-58281009D01*
X168849404Y-58281009D02*
X168754166Y-58328628D01*
X168754166Y-58328628D02*
X168373214Y-58328628D01*
X169897023Y-58804819D02*
X169325595Y-58804819D01*
X169611309Y-58804819D02*
X169611309Y-57804819D01*
X169611309Y-57804819D02*
X169516071Y-57947676D01*
X169516071Y-57947676D02*
X169420833Y-58042914D01*
X169420833Y-58042914D02*
X169325595Y-58090533D01*
X170516071Y-57804819D02*
X170611309Y-57804819D01*
X170611309Y-57804819D02*
X170706547Y-57852438D01*
X170706547Y-57852438D02*
X170754166Y-57900057D01*
X170754166Y-57900057D02*
X170801785Y-57995295D01*
X170801785Y-57995295D02*
X170849404Y-58185771D01*
X170849404Y-58185771D02*
X170849404Y-58423866D01*
X170849404Y-58423866D02*
X170801785Y-58614342D01*
X170801785Y-58614342D02*
X170754166Y-58709580D01*
X170754166Y-58709580D02*
X170706547Y-58757200D01*
X170706547Y-58757200D02*
X170611309Y-58804819D01*
X170611309Y-58804819D02*
X170516071Y-58804819D01*
X170516071Y-58804819D02*
X170420833Y-58757200D01*
X170420833Y-58757200D02*
X170373214Y-58709580D01*
X170373214Y-58709580D02*
X170325595Y-58614342D01*
X170325595Y-58614342D02*
X170277976Y-58423866D01*
X170277976Y-58423866D02*
X170277976Y-58185771D01*
X170277976Y-58185771D02*
X170325595Y-57995295D01*
X170325595Y-57995295D02*
X170373214Y-57900057D01*
X170373214Y-57900057D02*
X170420833Y-57852438D01*
X170420833Y-57852438D02*
X170516071Y-57804819D01*
X176433333Y-81209580D02*
X176385714Y-81257200D01*
X176385714Y-81257200D02*
X176242857Y-81304819D01*
X176242857Y-81304819D02*
X176147619Y-81304819D01*
X176147619Y-81304819D02*
X176004762Y-81257200D01*
X176004762Y-81257200D02*
X175909524Y-81161961D01*
X175909524Y-81161961D02*
X175861905Y-81066723D01*
X175861905Y-81066723D02*
X175814286Y-80876247D01*
X175814286Y-80876247D02*
X175814286Y-80733390D01*
X175814286Y-80733390D02*
X175861905Y-80542914D01*
X175861905Y-80542914D02*
X175909524Y-80447676D01*
X175909524Y-80447676D02*
X176004762Y-80352438D01*
X176004762Y-80352438D02*
X176147619Y-80304819D01*
X176147619Y-80304819D02*
X176242857Y-80304819D01*
X176242857Y-80304819D02*
X176385714Y-80352438D01*
X176385714Y-80352438D02*
X176433333Y-80400057D01*
X177290476Y-80638152D02*
X177290476Y-81304819D01*
X177052381Y-80257200D02*
X176814286Y-80971485D01*
X176814286Y-80971485D02*
X177433333Y-80971485D01*
X189766667Y-68507200D02*
X189909524Y-68554819D01*
X189909524Y-68554819D02*
X190147619Y-68554819D01*
X190147619Y-68554819D02*
X190242857Y-68507200D01*
X190242857Y-68507200D02*
X190290476Y-68459580D01*
X190290476Y-68459580D02*
X190338095Y-68364342D01*
X190338095Y-68364342D02*
X190338095Y-68269104D01*
X190338095Y-68269104D02*
X190290476Y-68173866D01*
X190290476Y-68173866D02*
X190242857Y-68126247D01*
X190242857Y-68126247D02*
X190147619Y-68078628D01*
X190147619Y-68078628D02*
X189957143Y-68031009D01*
X189957143Y-68031009D02*
X189861905Y-67983390D01*
X189861905Y-67983390D02*
X189814286Y-67935771D01*
X189814286Y-67935771D02*
X189766667Y-67840533D01*
X189766667Y-67840533D02*
X189766667Y-67745295D01*
X189766667Y-67745295D02*
X189814286Y-67650057D01*
X189814286Y-67650057D02*
X189861905Y-67602438D01*
X189861905Y-67602438D02*
X189957143Y-67554819D01*
X189957143Y-67554819D02*
X190195238Y-67554819D01*
X190195238Y-67554819D02*
X190338095Y-67602438D01*
X190671429Y-67554819D02*
X190909524Y-68554819D01*
X190909524Y-68554819D02*
X191100000Y-67840533D01*
X191100000Y-67840533D02*
X191290476Y-68554819D01*
X191290476Y-68554819D02*
X191528572Y-67554819D01*
X191814286Y-67554819D02*
X192433333Y-67554819D01*
X192433333Y-67554819D02*
X192100000Y-67935771D01*
X192100000Y-67935771D02*
X192242857Y-67935771D01*
X192242857Y-67935771D02*
X192338095Y-67983390D01*
X192338095Y-67983390D02*
X192385714Y-68031009D01*
X192385714Y-68031009D02*
X192433333Y-68126247D01*
X192433333Y-68126247D02*
X192433333Y-68364342D01*
X192433333Y-68364342D02*
X192385714Y-68459580D01*
X192385714Y-68459580D02*
X192338095Y-68507200D01*
X192338095Y-68507200D02*
X192242857Y-68554819D01*
X192242857Y-68554819D02*
X191957143Y-68554819D01*
X191957143Y-68554819D02*
X191861905Y-68507200D01*
X191861905Y-68507200D02*
X191814286Y-68459580D01*
X187750001Y-67943519D02*
X187750001Y-68181614D01*
X187511906Y-68086376D02*
X187750001Y-68181614D01*
X187750001Y-68181614D02*
X187988096Y-68086376D01*
X187607144Y-68372090D02*
X187750001Y-68181614D01*
X187750001Y-68181614D02*
X187892858Y-68372090D01*
X210833333Y-79659580D02*
X210785714Y-79707200D01*
X210785714Y-79707200D02*
X210642857Y-79754819D01*
X210642857Y-79754819D02*
X210547619Y-79754819D01*
X210547619Y-79754819D02*
X210404762Y-79707200D01*
X210404762Y-79707200D02*
X210309524Y-79611961D01*
X210309524Y-79611961D02*
X210261905Y-79516723D01*
X210261905Y-79516723D02*
X210214286Y-79326247D01*
X210214286Y-79326247D02*
X210214286Y-79183390D01*
X210214286Y-79183390D02*
X210261905Y-78992914D01*
X210261905Y-78992914D02*
X210309524Y-78897676D01*
X210309524Y-78897676D02*
X210404762Y-78802438D01*
X210404762Y-78802438D02*
X210547619Y-78754819D01*
X210547619Y-78754819D02*
X210642857Y-78754819D01*
X210642857Y-78754819D02*
X210785714Y-78802438D01*
X210785714Y-78802438D02*
X210833333Y-78850057D01*
X211833333Y-79754819D02*
X211500000Y-79278628D01*
X211261905Y-79754819D02*
X211261905Y-78754819D01*
X211261905Y-78754819D02*
X211642857Y-78754819D01*
X211642857Y-78754819D02*
X211738095Y-78802438D01*
X211738095Y-78802438D02*
X211785714Y-78850057D01*
X211785714Y-78850057D02*
X211833333Y-78945295D01*
X211833333Y-78945295D02*
X211833333Y-79088152D01*
X211833333Y-79088152D02*
X211785714Y-79183390D01*
X211785714Y-79183390D02*
X211738095Y-79231009D01*
X211738095Y-79231009D02*
X211642857Y-79278628D01*
X211642857Y-79278628D02*
X211261905Y-79278628D01*
X212785714Y-79754819D02*
X212214286Y-79754819D01*
X212500000Y-79754819D02*
X212500000Y-78754819D01*
X212500000Y-78754819D02*
X212404762Y-78897676D01*
X212404762Y-78897676D02*
X212309524Y-78992914D01*
X212309524Y-78992914D02*
X212214286Y-79040533D01*
D12*
%TO.C,C12*%
X193359420Y-90390000D02*
X193640580Y-90390000D01*
X193359420Y-91410000D02*
X193640580Y-91410000D01*
%TO.C,C11*%
X177310000Y-60459420D02*
X177310000Y-60740580D01*
X176290000Y-60459420D02*
X176290000Y-60740580D01*
%TO.C,D4*%
D10*
X210000000Y-52250000D02*
X172000000Y-52250000D01*
X172000000Y-63750000D01*
X210000000Y-63750000D01*
X210000000Y-52250000D01*
D12*
%TO.C,J1*%
X220960000Y-83810000D02*
X220960000Y-84260000D01*
X221410000Y-84260000D02*
X220960000Y-84260000D01*
X221640000Y-78740000D02*
X221640000Y-79160000D01*
X221640000Y-86260000D02*
X221640000Y-85840000D01*
X223620000Y-78740000D02*
X221640000Y-78740000D01*
X223620000Y-86260000D02*
X221640000Y-86260000D01*
X225590000Y-78740000D02*
X225990000Y-78740000D01*
X225990000Y-86260000D02*
X225590000Y-86260000D01*
D13*
%TO.C,SW2*%
X165375800Y-71082040D02*
X165375800Y-73425299D01*
X165887640Y-75374200D02*
X171112360Y-75374200D01*
X171112360Y-69125800D02*
X166307708Y-69125800D01*
X171624200Y-73425299D02*
X171624200Y-71074702D01*
D12*
%TO.C,U2*%
X204500000Y-85140000D02*
X203700000Y-85140000D01*
X204500000Y-85140000D02*
X205300000Y-85140000D01*
X204500000Y-88260000D02*
X203700000Y-88260000D01*
X204500000Y-88260000D02*
X205300000Y-88260000D01*
X203200000Y-85190000D02*
X202960000Y-84860000D01*
X203440000Y-84860000D01*
X203200000Y-85190000D01*
G36*
X203200000Y-85190000D02*
G01*
X202960000Y-84860000D01*
X203440000Y-84860000D01*
X203200000Y-85190000D01*
G37*
%TO.C,Y1*%
X181075000Y-80275000D02*
X181075000Y-78925000D01*
X182825000Y-80275000D02*
X182825000Y-78925000D01*
%TO.C,R8*%
X219015002Y-71139564D02*
X219015002Y-70685436D01*
X220485002Y-71139564D02*
X220485002Y-70685436D01*
%TO.C,C1*%
X182734420Y-82940000D02*
X183015580Y-82940000D01*
X182734420Y-83960000D02*
X183015580Y-83960000D01*
%TO.C,C3*%
X179315580Y-77840000D02*
X179034420Y-77840000D01*
X179315580Y-78860000D02*
X179034420Y-78860000D01*
%TO.C,C5*%
X223911252Y-73965000D02*
X223388748Y-73965000D01*
X223911252Y-75435000D02*
X223388748Y-75435000D01*
%TO.C,U3*%
X188287500Y-79915000D02*
X186087500Y-79915000D01*
X188287500Y-79915000D02*
X190487500Y-79915000D01*
X188287500Y-86685000D02*
X186087500Y-86685000D01*
X188287500Y-86685000D02*
X190487500Y-86685000D01*
X184427500Y-80375000D02*
X184097500Y-80615000D01*
X184097500Y-80135000D01*
X184427500Y-80375000D01*
G36*
X184427500Y-80375000D02*
G01*
X184097500Y-80615000D01*
X184097500Y-80135000D01*
X184427500Y-80375000D01*
G37*
%TO.C,R5*%
X221089564Y-59265000D02*
X220635436Y-59265000D01*
X221089564Y-60735000D02*
X220635436Y-60735000D01*
D13*
%TO.C,CR2*%
X204587000Y-88904500D02*
X204587000Y-89536960D01*
X204587000Y-92463040D02*
X204587000Y-93095500D01*
X204587000Y-93095500D02*
X209413000Y-93095500D01*
X209413000Y-88904500D02*
X204587000Y-88904500D01*
X209413000Y-89536960D02*
X209413000Y-88904500D01*
X209413000Y-93095500D02*
X209413000Y-92463040D01*
D12*
%TO.C,C2*%
X216840000Y-91763748D02*
X216840000Y-93186252D01*
X218660000Y-91763748D02*
X218660000Y-93186252D01*
%TO.C,SW1*%
X186537500Y-90000000D02*
X189837500Y-90000000D01*
X186537500Y-90300000D02*
X186537500Y-90000000D01*
X186537500Y-92500000D02*
X186537500Y-92800000D01*
X186537500Y-92800000D02*
X189837500Y-92800000D01*
X189837500Y-90000000D02*
X189837500Y-90300000D01*
X189837500Y-92800000D02*
X189837500Y-92500000D01*
%TO.C,C10*%
X207411252Y-82690000D02*
X205988748Y-82690000D01*
X207411252Y-84510000D02*
X205988748Y-84510000D01*
%TO.C,R9*%
X169827064Y-53465000D02*
X169372936Y-53465000D01*
X169827064Y-54935000D02*
X169372936Y-54935000D01*
%TO.C,R2*%
X214935436Y-84265000D02*
X215389564Y-84265000D01*
X214935436Y-85735000D02*
X215389564Y-85735000D01*
%TO.C,D1*%
X216790000Y-86377500D02*
X216790000Y-89062500D01*
X218710000Y-86377500D02*
X216790000Y-86377500D01*
X218710000Y-89062500D02*
X218710000Y-86377500D01*
%TO.C,R11*%
X217580036Y-76765000D02*
X218034164Y-76765000D01*
X217580036Y-78235000D02*
X218034164Y-78235000D01*
%TO.C,R3*%
X211314564Y-84265000D02*
X210860436Y-84265000D01*
X211314564Y-85735000D02*
X210860436Y-85735000D01*
%TO.C,C7*%
X200240000Y-88911252D02*
X200240000Y-87488748D01*
X202060000Y-88911252D02*
X202060000Y-87488748D01*
%TO.C,D2*%
X215687500Y-56960000D02*
X218372500Y-56960000D01*
X218372500Y-55040000D02*
X215687500Y-55040000D01*
X218372500Y-56960000D02*
X218372500Y-55040000D01*
%TO.C,R7*%
X196515001Y-71139564D02*
X196515001Y-70685436D01*
X197985001Y-71139564D02*
X197985001Y-70685436D01*
%TO.C,R1*%
X223914564Y-76065000D02*
X223460436Y-76065000D01*
X223914564Y-77535000D02*
X223460436Y-77535000D01*
%TO.C,R6*%
X174015000Y-71139564D02*
X174015000Y-70685436D01*
X175485000Y-71139564D02*
X175485000Y-70685436D01*
%TO.C,D3*%
X215687500Y-60960000D02*
X218372500Y-60960000D01*
X218372500Y-59040000D02*
X215687500Y-59040000D01*
X218372500Y-60960000D02*
X218372500Y-59040000D01*
%TO.C,R4*%
X221089564Y-55265000D02*
X220635436Y-55265000D01*
X221089564Y-56735000D02*
X220635436Y-56735000D01*
%TO.C,C9*%
X207065000Y-86961252D02*
X207065000Y-86438748D01*
X208535000Y-86961252D02*
X208535000Y-86438748D01*
%TO.C,J4*%
X166895000Y-89085000D02*
X166960000Y-89085000D01*
X166895000Y-92615000D02*
X166895000Y-89085000D01*
X166895000Y-92615000D02*
X166960000Y-92615000D01*
X166960000Y-93940000D02*
X166960000Y-92615000D01*
X175840000Y-89085000D02*
X175905000Y-89085000D01*
X175840000Y-92615000D02*
X175905000Y-92615000D01*
X175905000Y-92615000D02*
X175905000Y-89085000D01*
%TO.C,C8*%
X214340000Y-91763748D02*
X214340000Y-93186252D01*
X216160000Y-91763748D02*
X216160000Y-93186252D01*
%TO.C,U4*%
X196640000Y-88690000D02*
X195890000Y-88690000D01*
X196640000Y-93910000D02*
X195590000Y-93910000D01*
X197760000Y-88690000D02*
X198810000Y-88690000D01*
X197760000Y-93910000D02*
X198810000Y-93910000D01*
X195590000Y-88690000D02*
X195450000Y-88500000D01*
X195730000Y-88500000D01*
X195590000Y-88690000D01*
G36*
X195590000Y-88690000D02*
G01*
X195450000Y-88500000D01*
X195730000Y-88500000D01*
X195590000Y-88690000D01*
G37*
%TO.C,C6*%
X188946920Y-88190000D02*
X189228080Y-88190000D01*
X188946920Y-89210000D02*
X189228080Y-89210000D01*
%TO.C,U1*%
X213137500Y-86490000D02*
X212337500Y-86490000D01*
X213137500Y-86490000D02*
X213937500Y-86490000D01*
X213137500Y-89610000D02*
X212337500Y-89610000D01*
X213137500Y-89610000D02*
X213937500Y-89610000D01*
X211837500Y-86540000D02*
X211597500Y-86210000D01*
X212077500Y-86210000D01*
X211837500Y-86540000D01*
G36*
X211837500Y-86540000D02*
G01*
X211597500Y-86210000D01*
X212077500Y-86210000D01*
X211837500Y-86540000D01*
G37*
D13*
%TO.C,SW4*%
X210375802Y-71082040D02*
X210375802Y-73425299D01*
X210887642Y-75374200D02*
X216112362Y-75374200D01*
X216112362Y-69125800D02*
X211307710Y-69125800D01*
X216624202Y-73425299D02*
X216624202Y-71074702D01*
D12*
%TO.C,R10*%
X169814564Y-55965000D02*
X169360436Y-55965000D01*
X169814564Y-57435000D02*
X169360436Y-57435000D01*
%TO.C,C4*%
X179315580Y-80340000D02*
X179034420Y-80340000D01*
X179315580Y-81360000D02*
X179034420Y-81360000D01*
D13*
%TO.C,SW3*%
X187875801Y-71082040D02*
X187875801Y-73425299D01*
X188387641Y-75374200D02*
X193612361Y-75374200D01*
X193612361Y-69125800D02*
X188807709Y-69125800D01*
X194124201Y-73425299D02*
X194124201Y-71074702D01*
%TO.C,CR1*%
X214096800Y-78804500D02*
X214096800Y-79436960D01*
X214096800Y-82363040D02*
X214096800Y-82995500D01*
X214096800Y-82995500D02*
X218922800Y-82995500D01*
X218922800Y-78804500D02*
X214096800Y-78804500D01*
X218922800Y-79436960D02*
X218922800Y-78804500D01*
X218922800Y-82995500D02*
X218922800Y-82363040D01*
%TD*%
M02*
