M48
; DRILL file {KiCad 8.0.5} date 2024-11-06T09:26:04-0700
; FORMAT={-:-/ absolute / inch / decimal}
; #@! TF.CreationDate,2024-11-06T09:26:04-07:00
; #@! TF.GenerationSoftware,Kicad,Pcbnew,8.0.5
; #@! TF.FileFunction,Plated,1,4,PTH
FMAT,2
INCH
; #@! TA.AperFunction,Plated,PTH,ViaDrill
T1C0.0118
; #@! TA.AperFunction,Plated,PTH,ComponentDrill
T2C0.0197
; #@! TA.AperFunction,Plated,PTH,ComponentDrill
T3C0.0217
; #@! TA.AperFunction,Plated,PTH,ViaDrill
T4C0.0276
; #@! TA.AperFunction,Plated,PTH,ComponentDrill
T5C0.0295
; #@! TA.AperFunction,Plated,PTH,ComponentDrill
T6C0.0390
; #@! TA.AperFunction,Plated,PTH,ComponentDrill
T7C0.0394
%
G90
G05
T1
X6.2569Y-2.8947
X6.5354Y-3.7244
X6.5945Y-2.1339
X6.5945Y-2.2323
X6.6496Y-3.3819
X6.6969Y-3.3819
X6.6969Y-3.7323
X6.748Y-3.7323
X6.8465Y-3.7323
X6.8504Y-3.189
X6.8799Y-2.874
X6.8937Y-3.3898
X6.9016Y-2.2815
X6.9843Y-3.7165
X7.0236Y-3.1339
X7.128Y-3.2854
X7.189Y-3.378
X7.2185Y-3.3268
X7.2579Y-3.4508
X7.3031Y-3.126
X7.3465Y-2.6575
X7.3696Y-3.3179
X7.4134Y-3.1654
X7.4488Y-3.2165
X7.4685Y-3.3425
X7.5192Y-3.5984
X7.5197Y-3.4921
X7.5787Y-3.6339
X7.5827Y-3.0866
X7.5827Y-3.1654
X7.5866Y-3.2126
X7.6102Y-3.2677
X7.626Y-3.3346
X7.6575Y-3.3819
X7.6673Y-3.6319
X7.6929Y-3.2283
X7.7638Y-3.4685
X7.7638Y-3.7165
X7.7657Y-2.874
X7.8031Y-2.9961
X7.8031Y-3.4685
X7.8465Y-3.5472
X7.8465Y-3.6417
X7.8465Y-3.6732
X8.2756Y-3.4016
X8.2874Y-3.4646
X8.3583Y-2.2047
X8.4882Y-3.0512
X8.5079Y-3.4055
X8.5748Y-3.378
X8.6516Y-2.873
X8.7244Y-3.0236
X8.7677Y-2.8898
X8.7835Y-2.2047
X8.7835Y-2.3622
T4
X7.9193Y-3.5886
X8.0827Y-3.2205
X8.1969Y-3.2205
T5
X8.3465Y-3.5827
X8.3465Y-3.6614
T6
X6.5059Y-2.7559
X6.5059Y-2.9331
X6.7618Y-2.7559
X6.7618Y-2.9331
X7.3917Y-2.7559
X7.3917Y-2.9331
X7.6476Y-2.7559
X7.6476Y-2.9331
X8.2776Y-2.7559
X8.2776Y-2.9331
X8.5335Y-2.7559
X8.5335Y-2.9331
T7
X6.8217Y-2.1335
X6.8217Y-2.2335
X6.8217Y-2.3335
X6.8217Y-2.4335
X7.0801Y-3.5285
X7.0801Y-3.6285
X7.1801Y-3.5285
X7.1801Y-3.6285
T2
G00X8.8297Y-3.1102
M15
G01X8.8553Y-3.1102
M16
G05
G00X8.8297Y-3.3858
M15
G01X8.8553Y-3.3858
M16
G05
T3
G00X8.7362Y-3.1555
M15
G01X8.7362Y-3.1437
M16
G05
G00X8.7362Y-3.3524
M15
G01X8.7362Y-3.3406
M16
G05
M30
